<?xml version="1.0" standalone="no"?>
<!DOCTYPE svg PUBLIC "-//W3C//DTD SVG 20010904//EN"
 "http://www.w3.org/TR/2001/REC-SVG-20010904/DTD/svg10.dtd">
<svg version="1.0" xmlns="http://www.w3.org/2000/svg"
 width="570.000000pt" height="570.000000pt" viewBox="0 0 570.000000 570.000000"
 preserveAspectRatio="xMidYMid meet">
<metadata>
Created by potrace 1.11, written by Peter Selinger 2001-2013
</metadata>
<g transform="translate(0.000000,570.000000) scale(0.100000,-0.100000)"
fill="#000000" stroke="none">
<path d="M1412 4960 c-5 -3 -8 -913 -8 -2022 l0 -2018 311 0 310 0 0 -187 0
-188 1409 -3 c837 -1 1412 2 1415 7 5 7 7 2883 2 2983 l-1 26 -1327 0 c-731 1
-1337 1 -1348 1 -20 1 -20 8 -20 403 l1 403 887 3 c836 2 887 3 888 20 1 22 1
542 0 563 -1 14 -127 15 -1256 15 -690 0 -1259 -2 -1263 -6z"/>
</g>
</svg>
