<?xml version="1.0" encoding="utf-8"?>
<!-- Generator: Adobe Illustrator 21.1.0, SVG Export Plug-In . SVG Version: 6.00 Build 0)  -->
<svg width="2000px" version="1.1" id="Layer_1" xmlns="http://www.w3.org/2000/svg" xmlns:xlink="http://www.w3.org/1999/xlink" x="0px" y="0px"
	 viewBox="0 0 591.1 591.7" style="enable-background:new 0 0 591.1 591.7;" xml:space="preserve">
<style type="text/css">
	.st0{opacity:0.5;}
	.st1{fill:none;stroke:#27AAE1;stroke-miterlimit:10;}
	.st2{fill:#FFD058;}
	.st3{fill:#FBB040;}
	.st4{fill:#DF3341;}
	.st5{fill:#BE1E2D;}
	.st6{fill:none;stroke:#BE1E2D;stroke-width:7;stroke-miterlimit:10;}
	.st7{fill:#80B058;}
	.st8{fill:#98BC77;}
	.st9{fill:#177CA3;}
	.st10{fill:#65A2BA;}
</style>
<path class="st2" d="M153.3,133.4h101.4c15.1,0,27.3,12.2,27.3,27.3v102.1c0,15.1-12.2,27.3-27.3,27.3H153.3
	c-15.1,0-27.3-12.2-27.3-27.3V160.8C126,145.6,138.2,133.4,153.3,133.4z"/>
<path class="st3" d="M207.8,234.1L126.2,160c0-14.6,11.8-26.2,26.2-26.2h103.1c14.6,0,26.2,11.8,26.2,26.2L207.8,234.1z"/>
<path class="st4" d="M388.7,290.6c-44.3,0-80.2-35.8-80.2-80.2s35.8-80.2,80.2-80.2s80.2,35.8,80.2,80.2l0,0
	C468.8,254.6,433,290.5,388.7,290.6z M388.7,156.9c-29.6,0-53.6,24-53.6,53.6s24,53.6,53.6,53.6s53.6-24,53.6-53.6
	S418.4,156.9,388.7,156.9z"/>
<path class="st5" d="M345.8,278.1c-23.1-14-37.3-39-37.5-66.1c-0.2-14.4,3.5-28.4,10.7-41l22.9,13.3c-4.6,8.3-7,17.7-6.8,27.3
	c0.2,10,3.1,19.6,8.5,27.9c4.1,6.5,9.6,12,16.1,16.1L345.8,278.1z"/>
<path class="st3" d="M218.2,178.7h-27.3c-15.3,0-27.7-12.4-27.7-27.7v-15.1c0-15.3,12.4-27.7,27.7-27.7h27.3
	c15.3,0,27.7,12.4,27.7,27.7v15.3C245.9,166.3,233.5,178.7,218.2,178.7z M190.8,119.6c-8.9,0-16.3,7.2-16.3,16.3l0,0v15.3
	c0,8.9,7.2,16.1,16.3,16.1h27.3c8.9,0,16.3-7.2,16.3-16.3l0,0v-15.1c0-8.9-7.2-16.3-16.3-16.3l0,0H190.8z"/>
<path class="st7" d="M131.4,323.9h145c3.1,0,5.5,2.6,5.5,5.5v16.6c0,3.1-2.6,5.5-5.5,5.5h-145c-3.1,0-5.5-2.6-5.5-5.5v-16.6
	C125.8,326.5,128.4,323.9,131.4,323.9z"/>
<path class="st8" d="M125.8,343.5h156.3l0,0v3c0,3-2.4,5.4-5.4,5.4H131.2c-3,0-5.4-2.4-5.4-5.4V343.5L125.8,343.5z"/>
<path class="st7" d="M131.4,383.5h145c3.1,0,5.5,2.6,5.5,5.5v16.6c0,3.1-2.6,5.5-5.5,5.5h-145c-3.1,0-5.5-2.6-5.5-5.5v-16.6
	C125.8,386.1,128.4,383.5,131.4,383.5z"/>
<path class="st8" d="M125.8,403.3h156.3l0,0v3c0,3-2.4,5.4-5.4,5.4H131.2c-3,0-5.4-2.4-5.4-5.4c0,0,0,0,0-0.2V403.3L125.8,403.3z"/>
<path class="st7" d="M131.4,442.8h145c3.1,0,5.5,2.6,5.5,5.5V465c0,3.1-2.6,5.5-5.5,5.5h-145c-3.1,0-5.5-2.6-5.5-5.5v-16.6
	C125.8,445.4,128.4,442.8,131.4,442.8z"/>
<path class="st8" d="M125.8,462.4h156.3l0,0v3c0,3-2.4,5.4-5.4,5.4H131.2c-3,0-5.4-2.4-5.4-5.4V462.4L125.8,462.4z"/>
<path class="st9" d="M322,319.6h133.2c6.3,0,11.5,5.2,11.5,11.5v132.4c0,6.3-5.2,11.5-11.5,11.5H322c-6.3,0-11.5-5.2-11.5-11.5
	V331.1C310.5,324.8,315.7,319.6,322,319.6z"/>
<polygon class="st10" points="444.4,475 431.1,475 417.7,475 417.7,364.2 444.4,364.2 "/>
<polygon class="st10" points="402,475 388.7,475 375.4,475 375.4,387.1 402,387.1 "/>
<polygon class="st10" points="359.5,475 346.2,475 332.9,475 332.9,410.7 359.5,410.7 "/>
</svg>
