<svg id="Layer_1" data-name="Layer 1" xmlns="http://www.w3.org/2000/svg" viewBox="0 0 185.7 198.6"><defs><style>.cls-1{fill:#ffd058;}.cls-2{fill:#fbb040;}.cls-3{fill:#df3341;}.cls-4{fill:#be1e2d;}.cls-5{fill:#80b058;}.cls-6{fill:#98bc77;}.cls-7{fill:#177ca3;}.cls-8{fill:#65a2ba;}</style></defs><title>d@u-logo</title><path class="cls-1" d="M46.11,46.34H78.8a8.79,8.79,0,0,1,8.81,8.81V88.07a8.79,8.79,0,0,1-8.81,8.81H46.11a8.79,8.79,0,0,1-8.81-8.81V55.15A8.79,8.79,0,0,1,46.11,46.34Z"/><path class="cls-2" d="M63.68,78.79,37.36,54.91a8.45,8.45,0,0,1,8.45-8.45H79a8.45,8.45,0,0,1,8.45,8.45Z"/><path class="cls-3" d="M122,97a25.84,25.84,0,1,1,25.84-25.84h0A25.89,25.89,0,0,1,122,97Zm0-43.1a17.26,17.26,0,1,0,17.26,17.26A17.28,17.28,0,0,0,122,53.9Z"/><path class="cls-4" d="M108.15,93A25.12,25.12,0,0,1,96.06,71.64a25.8,25.8,0,0,1,3.45-13.22l7.38,4.29a17.45,17.45,0,0,0-2.2,8.81,17.14,17.14,0,0,0,2.74,9,16.54,16.54,0,0,0,5.18,5.18Z"/><path class="cls-2" d="M67,60.93H58.2A8.92,8.92,0,0,1,49.27,52V47.12a8.92,8.92,0,0,1,8.93-8.93H67a8.92,8.92,0,0,1,8.93,8.93v4.94A8.91,8.91,0,0,1,67,60.93Zm-8.81-19A5.25,5.25,0,0,0,53,47.12h0v4.94a5.2,5.2,0,0,0,5.24,5.18H67A5.25,5.25,0,0,0,72.25,52h0V47.12A5.25,5.25,0,0,0,67,41.88H58.2Z"/><path class="cls-5" d="M39,107.72H85.76a1.79,1.79,0,0,1,1.79,1.79v5.36a1.79,1.79,0,0,1-1.79,1.79H39a1.79,1.79,0,0,1-1.79-1.79V109.5A1.83,1.83,0,0,1,39,107.72Z"/><path class="cls-6" d="M37.24,114H87.61v1a1.73,1.73,0,0,1-1.73,1.73H39A1.73,1.73,0,0,1,37.24,115v-1Z"/><path class="cls-5" d="M39,126.95H85.76a1.79,1.79,0,0,1,1.79,1.79v5.36a1.79,1.79,0,0,1-1.79,1.79H39a1.79,1.79,0,0,1-1.79-1.79v-5.36A1.83,1.83,0,0,1,39,126.95Z"/><path class="cls-6" d="M37.24,133.32H87.61v1A1.73,1.73,0,0,1,85.88,136H39a1.73,1.73,0,0,1-1.73-1.73v-1Z"/><path class="cls-5" d="M39,146.06H85.76a1.79,1.79,0,0,1,1.79,1.79v5.36A1.79,1.79,0,0,1,85.76,155H39a1.79,1.79,0,0,1-1.79-1.79v-5.36A1.83,1.83,0,0,1,39,146.06Z"/><path class="cls-6" d="M37.24,152.37H87.61v1A1.73,1.73,0,0,1,85.88,155H39a1.73,1.73,0,0,1-1.73-1.73v-1Z"/><path class="cls-7" d="M100.47,106.35h42.92a3.71,3.71,0,0,1,3.69,3.69v42.68a3.71,3.71,0,0,1-3.69,3.69H100.47a3.71,3.71,0,0,1-3.69-3.69V110A3.71,3.71,0,0,1,100.47,106.35Z"/><polygon class="cls-8" points="139.94 156.41 135.65 156.41 131.3 156.41 131.3 120.7 139.94 120.7 139.94 156.41"/><polygon class="cls-8" points="126.24 156.41 121.96 156.41 117.67 156.41 117.67 128.08 126.24 128.08 126.24 156.41"/><polygon class="cls-8" points="112.55 156.41 108.27 156.41 103.98 156.41 103.98 135.7 112.55 135.7 112.55 156.41"/></svg>