<?xml version="1.0" encoding="utf-8"?>
<!-- Generator: Adobe Illustrator 21.1.0, SVG Export Plug-In . SVG Version: 6.00 Build 0)  -->
<svg version="1.1" id="Layer_1" xmlns="http://www.w3.org/2000/svg" xmlns:xlink="http://www.w3.org/1999/xlink" x="0px" y="0px"
	 viewBox="0 0 185.7 198.6" style="enable-background:new 0 0 185.7 198.6;" xml:space="preserve">
<style type="text/css">
	.st0{opacity:0.5;}
	.st1{fill:none;stroke:#27AAE1;stroke-miterlimit:10;}
	.st2{fill:#FFD058;}
	.st3{fill:#FBB040;}
	.st4{fill:#DF3341;}
	.st5{fill:#BE1E2D;}
	.st6{fill:none;stroke:#BE1E2D;stroke-width:7;stroke-miterlimit:10;}
	.st7{fill:#80B058;}
	.st8{fill:#98BC77;}
	.st9{fill:#177CA3;}
	.st10{fill:#65A2BA;}
</style>
<title>logo-color</title>
<g class="st0">
	<path class="st1" d="M223.6,86.2"/>
</g>
<path class="st2" d="M14.9,13.7h54.9c8.2,0,14.8,6.6,14.8,14.8v55.3c0,8.2-6.6,14.8-14.8,14.8H14.9c-8.2,0-14.8-6.6-14.8-14.8V28.5
	C0.1,20.3,6.7,13.7,14.9,13.7z"/>
<path class="st3" d="M44.4,68.2L0.2,28.1c0-7.9,6.4-14.2,14.2-14.2h55.8c7.9,0,14.2,6.4,14.2,14.2L44.4,68.2z"/>
<path class="st4" d="M142.3,98.8c-24,0-43.4-19.4-43.4-43.4c0-24,19.4-43.4,43.4-43.4c24,0,43.4,19.4,43.4,43.4v0
	C185.7,79.3,166.3,98.7,142.3,98.8z M142.3,26.4c-16,0-29,13-29,29s13,29,29,29s29-13,29-29S158.4,26.4,142.3,26.4z"/>
<path class="st5" d="M119.1,92c-12.5-7.6-20.2-21.1-20.3-35.8c-0.1-7.8,1.9-15.4,5.8-22.2l12.4,7.2c-2.5,4.5-3.8,9.6-3.7,14.8
	c0.1,5.4,1.7,10.6,4.6,15.1c2.2,3.5,5.2,6.5,8.7,8.7L119.1,92z"/>
<path class="st6" d="M131.5,74.8"/>
<path class="st3" d="M50,38.2H35.2c-8.3,0-15-6.7-15-15V15c0-8.3,6.7-15,15-15H50c8.3,0,15,6.7,15,15v8.3C65,31.5,58.3,38.2,50,38.2
	z M35.2,6.2c-4.8,0-8.8,3.9-8.8,8.8l0,0v8.3c0,4.8,3.9,8.7,8.8,8.7H50c4.8,0,8.8-3.9,8.8-8.8l0,0V15c0-4.8-3.9-8.8-8.8-8.8l0,0
	L35.2,6.2z"/>
<g class="st0">
	<path class="st1" d="M104.9,127.3"/>
</g>
<path class="st7" d="M3,116.8h78.5c1.7,0,3,1.4,3,3v9c0,1.7-1.4,3-3,3H3c-1.7,0-3-1.4-3-3v-9C0,118.2,1.4,116.8,3,116.8z"/>
<path class="st8" d="M0,127.4h84.6l0,0v1.6c0,1.6-1.3,2.9-2.9,2.9H2.9c-1.6,0-2.9-1.3-2.9-2.9V127.4L0,127.4z"/>
<path class="st7" d="M3,149.1h78.5c1.7,0,3,1.4,3,3v9c0,1.7-1.4,3-3,3H3c-1.7,0-3-1.4-3-3v-9C0,150.5,1.4,149.1,3,149.1z"/>
<path class="st8" d="M0,159.8h84.6l0,0v1.6c0,1.6-1.3,2.9-2.9,2.9H2.9c-1.6,0-2.9-1.3-2.9-2.9c0,0,0,0,0-0.1V159.8L0,159.8z"/>
<path class="st7" d="M3,181.2h78.5c1.7,0,3,1.4,3,3v9c0,1.7-1.4,3-3,3H3c-1.7,0-3-1.4-3-3v-9C0,182.6,1.4,181.2,3,181.2z"/>
<path class="st8" d="M0,191.8h84.6l0,0v1.6c0,1.6-1.3,2.9-2.9,2.9H2.9c-1.6,0-2.9-1.3-2.9-2.9V191.8L0,191.8z"/>
<path class="st9" d="M106.2,114.5h72.1c3.4,0,6.2,2.8,6.2,6.2v71.7c0,3.4-2.8,6.2-6.2,6.2h-72.1c-3.4,0-6.2-2.8-6.2-6.2v-71.7
	C100,117.3,102.8,114.5,106.2,114.5z"/>
<polygon class="st10" points="172.5,198.6 165.3,198.6 158,198.6 158,138.6 172.5,138.6 "/>
<polygon class="st10" points="149.5,198.6 142.3,198.6 135.1,198.6 135.1,151 149.5,151 "/>
<polygon class="st10" points="126.5,198.6 119.3,198.6 112.1,198.6 112.1,163.8 126.5,163.8 "/>
</svg>
