<?xml version="1.0" encoding="utf-8"?>
<!-- Generator: Adobe Illustrator 21.1.0, SVG Export Plug-In . SVG Version: 6.00 Build 0)  -->
<svg version="1.1" id="Layer_1" xmlns="http://www.w3.org/2000/svg" xmlns:xlink="http://www.w3.org/1999/xlink" x="0px" y="0px"
	 viewBox="0 0 936.7 469" style="enable-background:new 0 0 936.7 469;" xml:space="preserve">
<style type="text/css">
	.st0{fill:#C98B72;}
	.st1{fill:#9BAAA7;}
</style>
<title>Asset 5</title>
<g id="Layer_2">
	<g id="Layer_1-2">
		<path class="st0" d="M745,86.6c28.7-0.3,50.2,25.3,47.6,53.5c-3,26.4-26.8,45.4-53.2,42.4c-26.4-3-45.4-26.8-42.4-53.2
			C699.8,104.9,720.4,86.5,745,86.6z"/>
		<path class="st0" d="M749.3,0c7.8,2.8,12.1,11.1,9.9,19.1c-1.4,4-3,7.9-4.9,11.7c-3.6,7.8-7.1,15.8-4.3,24.4
			c1.9,4.8,4.3,9.4,7,13.8c0.1,0.3,0.2,0.7,0.3,1c-6.4,0-12.8,0-19.2,0c-3.6,0-4.3-2.5-4.8-5c-2-8.5-0.7-17.5,3.6-25.1
			c3.6-6.4,7.8-12.6,12-18.6c3.2-4.6,6-8.5,4.6-14C752.4,4.6,751.1,2.2,749.3,0z"/>
		<path class="st0" d="M729.6,72c-3.9,1.8-6.6,3.2-9.5,4.2c-0.7,0.3-2-0.7-2.7-1.3c-4.7-4.3-6.5-10.9-4.6-16.9
			c0.8-5.7-0.5-11.5-3.6-16.4c2.7,0.4,5.3,1.6,7.3,3.4c2.9,2.8,4.7,6.5,5,10.4C721.8,61.9,722.1,67.9,729.6,72z"/>
		<path class="st0" d="M772.5,77.1c-3.8-1.9-6.7-3-9.3-4.6c-0.6-0.4-0.8-1.9-0.7-3c0.2-6.4,4.1-12.1,10.1-14.6
			c4.9-3,8.6-7.7,10.3-13.2c1.5,2.4,2.2,5.1,2.1,7.9c-0.3,3.9-2.1,7.6-4.9,10.4C775.3,64.6,770.9,68.7,772.5,77.1z"/>
		<path class="st0" d="M805.6,112.6c-1.9-3.8-3.4-6.5-4.4-9.4c-0.3-0.7,0.6-2,1.3-2.8c4.1-4.8,10.7-6.8,16.8-5.1
			c5.7,0.7,11.5-0.7,16.3-3.9c-0.3,2.8-1.4,5.4-3.2,7.5c-2.7,2.9-6.4,4.7-10.3,5.1C815.4,104.5,809.5,105,805.6,112.6z"/>
		<path class="st0" d="M802.2,164.4c1.9-3.8,3.1-6.7,4.6-9.3c0.4-0.6,2-0.8,3-0.7c6.4,0.3,12,4.2,14.4,10.1c3,4.9,7.7,8.6,13.1,10.4
			c-2.4,1.5-5.1,2.2-7.9,2.1c-3.9-0.4-7.6-2.1-10.4-5C814.6,167.1,810.6,162.8,802.2,164.4z"/>
		<path class="st0" d="M760.3,196.8c4-1.6,6.8-2.8,9.7-3.6c0.7-0.2,1.9,0.8,2.7,1.5c4.4,4.5,5.9,11.2,3.6,17.2
			c-1.1,5.7-0.2,11.5,2.6,16.6c-2.7-0.5-5.3-1.7-7.3-3.6c-2.7-2.9-4.2-6.7-4.3-10.7C767.6,207.2,767.6,201.2,760.3,196.8z"/>
		<path class="st0" d="M714.8,190.4c3.6,2,6.5,3.4,9,5.1c0.6,0.4,0.7,2,0.6,3c-0.6,6.4-4.9,11.8-10.9,13.9c-5,2.8-8.9,7.3-10.9,12.6
			c-1.3-2.4-1.9-5.2-1.7-8c0.5-3.9,2.5-7.5,5.4-10.1C711.4,202.7,716,198.9,714.8,190.4z"/>
		<path class="st0" d="M681.7,152.2c1.6,3.9,2.9,6.7,3.8,9.6c0.2,0.7-0.7,2-1.4,2.7c-4.4,4.6-11.1,6.1-17.1,4
			c-5.7-1-11.5,0-16.5,2.9c0.5-2.7,1.7-5.3,3.6-7.3c2.9-2.7,6.6-4.3,10.6-4.5C671.3,159.7,677.3,159.6,681.7,152.2z"/>
		<path class="st0" d="M687,102.4c-1.7,3.9-2.8,6.7-4.3,9.4c-0.4,0.6-1.9,0.8-2.9,0.8c-6.3-0.1-12-3.9-14.6-9.7
			c-3.2-4.8-7.9-8.4-13.5-10c2.3-1.6,5-2.4,7.8-2.3c3.9,0.2,7.7,1.9,10.5,4.6C674.4,100.1,678.6,104.3,687,102.4z"/>
		<path class="st0" d="M836.4,39.3c4,7.3,1.6,16.4-5.4,20.8c-3.7,2.1-7.6,3.9-11.6,5.5C811.7,69,803.7,72.7,800,81
			c-1.7,4.8-3.1,9.8-4,14.9c-0.1,0.3-0.3,0.6-0.5,0.9c-4.8-4.3-9.5-8.6-14.3-12.7c-2.7-2.3-1.6-4.7-0.3-7
			c4.2-7.7,11.2-13.5,19.5-16.3c7-2.4,14.1-4.2,21.3-5.9c5.4-1.3,10.2-2.4,12.7-7.3C835.6,44.9,836.2,42.1,836.4,39.3z"/>
		<path class="st0" d="M878.5,137.6c-2.8,7.8-11.1,12.1-19.1,9.9c-4-1.4-7.9-3.1-11.7-5c-7.8-3.6-15.8-7.1-24.4-4.3
			c-4.8,1.9-9.4,4.3-13.8,7c-0.3,0.1-0.7,0.2-1,0.3c0-6.4,0-12.8,0-19.2c0-3.6,2.5-4.3,5-4.8c8.5-2,17.5-0.7,25.1,3.6
			c6.4,3.6,12.6,7.8,18.6,12c4.6,3.2,8.5,6,14,4.6C873.9,140.6,876.3,139.3,878.5,137.6z"/>
		<path class="st0" d="M836.2,230.4c-7.5,3.6-16.5,0.9-20.6-6.3c-1.8-3.8-3.4-7.8-4.8-11.8c-3.1-8-6.3-16.1-14.6-20.2
			c-4.7-2-9.6-3.5-14.6-4.7c-0.3-0.1-0.6-0.3-0.9-0.5c4.5-4.6,9-9.1,13.4-13.7c2.5-2.6,4.8-1.3,7,0c7.5,4.6,13,11.8,15.4,20.2
			c2,7.1,3.6,14.3,4.9,21.6c1,5.5,1.9,10.3,6.7,13.1C830.7,229.3,833.4,230.1,836.2,230.4z"/>
		<path class="st0" d="M738.8,267c-7.8-2.9-12-11.2-9.7-19.2c1.5-4,3.2-7.9,5.1-11.7c3.6-7.8,7.3-15.7,4.5-24.4
			c-1.9-4.8-4.2-9.4-6.9-13.8c-0.1-0.3-0.2-0.7-0.2-1c6.4,0,12.8,0.2,19.2,0c3.6,0,4.3,2.6,4.8,5.1c1.9,8.6,0.5,17.5-3.8,25.1
			c-3.6,6.4-7.8,12.5-12.1,18.5c-3.2,4.6-6.1,8.5-4.7,14C735.8,262.2,737.1,264.7,738.8,267z"/>
		<path class="st0" d="M644,220.6c-2.9-7.8,0.7-16.4,8.2-19.9c4-1.5,8.1-2.7,12.2-3.6c8.3-2.3,16.6-4.8,21.5-12.5
			c2.4-4.6,4.4-9.3,6-14.2c0.2-0.3,0.4-0.6,0.6-0.8c4.2,4.9,8.2,9.8,12.4,14.6c2.4,2.7,0.9,4.9-0.7,7c-5.3,7-13,11.8-21.6,13.4
			c-7.3,1.4-14.6,2.1-21.9,2.8c-5.5,0.5-10.4,0.9-13.7,5.5C645.7,215.3,644.6,217.9,644,220.6z"/>
		<path class="st0" d="M610.7,125.6c3.2-7.7,11.8-11.7,19.7-9c3.9,1.6,7.7,3.5,11.4,5.6c7.6,4,15.4,7.9,24.2,5.6
			c4.9-1.7,9.6-3.8,14.1-6.3c0.3-0.1,0.7-0.2,1-0.2c-0.3,6.4-0.8,12.8-0.9,19.1c0,3.6-2.7,4.2-5.3,4.6c-8.6,1.5-17.5-0.3-24.9-5
			c-6.2-3.9-12.1-8.4-18-12.9c-4.4-3.4-8.2-6.4-13.7-5.3C615.5,122.7,613,123.9,610.7,125.6z"/>
		<path class="st0" d="M660.4,30.3c7.9-2.6,16.4,1.2,19.6,8.9c1.3,4,2.4,8.1,3.3,12.3c2,8.3,4.2,16.8,11.7,21.9
			c4.5,2.5,9.2,4.7,14,6.5c0.3,0.2,0.6,0.4,0.8,0.7c-5.1,4-10.1,7.8-15,11.9c-2.8,2.3-5,0.7-6.9-0.9c-6.8-5.5-11.3-13.3-12.7-21.9
			c-1.1-7.3-1.7-14.6-2.1-21.9c-0.3-5.5-0.5-10.4-5.1-13.8C665.7,32.3,663.2,31.1,660.4,30.3z"/>
		<path class="st1" d="M72,245.6c-1.9-5-3.1-10.2-3.6-15.6c-0.6-5.4-0.7-10.8-0.3-16.1c0.9-11,3.7-21.7,8.3-31.7
			c4.6-10,10.7-19.2,17.9-27.5c7.3-8.2,15.3-15.7,24-22.4c8.7-6.7,18-12.6,27.8-17.6c9.8-5,20-9.2,30.4-12.6
			c21-6.4,42.7-10.5,64.6-12.3c10.5-0.9,21-1.2,31.5-0.8c5.2,0.3,13.4,0.8,18.8,1.2c5.4,0.4,10.9,0.9,16.3,1.6
			c21.2,2.7,42.2,7.4,62.5,13.9c21,7,41.4,16,60.7,26.9c9.7,5.3,19.1,11,28.2,17.2c4.6,3,9,6.3,13.4,9.5l12.8,9.6
			c16.9,13,33.6,26.3,50,39.6c16.4,13.3,32.8,26.3,49.7,37.8c17,11.5,35,21.7,53.6,30.4c9.3,4.3,18.8,8.3,28.5,11.9
			c9.6,3.6,19.3,6.7,29.2,9.3c9.9,2.6,19.9,4.7,30,6.1c10,1.4,20.2,2.1,30.3,2c5.1,0,10.1-0.3,15.1-0.9c2.5-0.3,5-0.6,7.5-1l7.7-1.3
			c5.2-0.8,10.3-1.9,15.4-2.8s10.3-2.1,15.4-3.2c41.2-8.9,81.2-22.8,119.1-41.2c-8.8,5.9-18,11.3-27.3,16.5
			c-9.3,5.1-18.9,9.8-28.7,14.2c-9.8,4.4-19.6,8.5-29.7,12.1s-20.2,7.3-30.4,10.3c-10.3,3-20.6,5.9-31,8.4l-7.8,1.8
			c-2.6,0.6-5.4,1.1-8.1,1.6c-5.5,0.9-11,1.6-16.5,2c-22,1.3-44.1-0.5-65.6-5.4c-21.3-4.7-42.1-11.5-62.2-20.2
			c-20-8.6-39.1-18.9-57.4-30.8c-18.2-11.8-35.3-25.2-52-38.3c-16.7-13.1-33.2-26.2-50-39l-12.5-9.5c-12.6-8.6-29.6-19.9-38.4-24.9
			c-17.9-10.2-36.5-19-55.8-26.3c-19.5-7-39.6-12.2-60.1-15.4c-5.1-0.8-10-1.6-15.2-2.1c-14.4-1.9-29-2.6-43.5-1.9
			c-21.5,0.5-42.8,3.7-63.6,9.4c-19.8,5.1-38.6,13.4-55.7,24.5c-8.6,5.5-16.7,11.9-24,19c-7.1,6.9-12.9,15.1-17.2,24
			c-3.6,7.5-6,15.5-7.3,23.8c-1.4,8-1.6,16.2-0.8,24.3C74.4,237.5,73.1,241.5,72,245.6z"/>
		<path class="st1" d="M0,303.7c10.7-2.7,21.6-3.8,32.6-3.3c8.7,0.8,17.3,2.2,25.7,4.3c8.6,1.9,17.1,4.2,25.5,7l13.8,4.2l6.8,1.8
			c2.3,0.6,4.5,1.1,6.8,1.6c8.9,2.1,17.9,3.5,27,4.4c8.7,0.8,17.4,0.6,26-0.7c2-0.4,4-0.8,5.9-1.3c1.9-0.5,3.7-1.1,5.5-1.8
			c0.9-0.3,1.6-0.8,2.5-1.1l1.2-0.6l1.1-0.7l1.1-0.7l0.6-0.4l0.7-0.5l3-2c3.4-2.3,6.7-4.9,9.7-7.7c2.6-2.5,4.9-5.4,6.7-8.6
			c3.6-6.6,5.4-14,5.1-21.5c0-4.2-0.4-8.3-1.1-12.5c-0.3-2.1-0.7-4.1-1.2-6.2c-0.3-1-0.4-2-0.7-3l-0.9-2.9
			c-2.4-7.5-6.5-14.3-12.1-19.9c-6-5.5-13.1-9.8-20.8-12.4c-8.5-2.9-17.2-4.7-26.1-5.5c-2.3,0-4.7-0.5-6.8-0.5c-1.1,0-2.1,0-3.2,0
			H131c-4.4,0.2-8.8,0.8-13.1,1.9c-18.2,4.7-34.4,15.3-45.8,30.2c0-3.6,0.8-11.4,0.8-11.4c10.8-13.6,25-24.1,41.2-30.5
			c4.9-2,10-3.6,15.2-4.6l3.9-0.7c1.3-0.2,2.7-0.3,4-0.4h2h1.9h3.6c2.6,0,5.1,0,7.7,0s5.2,0.3,7.8,0.5c2.6,0.2,5.2,0.6,7.8,0.9
			c2.6,0.3,5.2,0.9,7.8,1.6c2.6,0.7,5.3,1.4,7.8,2.4l3.9,1.4c1.3,0.5,2.6,1.2,3.6,1.7c5.2,2.5,10,5.6,14.4,9.2
			c8.8,7.6,15.5,17.2,19.6,28.1l1.5,3.9c0.5,1.3,0.8,2.7,1.2,4c0.8,2.6,1.4,5.3,1.9,8c1.1,5.4,1.7,10.9,1.9,16.4
			c0.1,2.9,0,5.7-0.3,8.6c0,1.5-0.3,2.9-0.5,4.3l-0.8,4.4c0,0.7-0.3,1.5-0.5,2.2l-0.7,2.2c-0.5,1.5-0.8,2.9-1.4,4.3l-1.5,3.9
			c-0.6,1.4-1.4,2.7-2.1,4c-3,5.2-6.8,10-11.2,14.2c-4,3.8-8.4,7.2-13,10.2l-3.2,2l-0.8,0.5l-1,0.6l-2,1.2l-2,1.1l-2.1,0.9
			c-1.4,0.6-2.8,1.2-4.2,1.7c-5.4,1.9-11,3.1-16.6,3.8c-10.6,1.1-21.3,0.8-31.9-0.9c-10.1-1.6-20-4-29.7-7.3
			c-4.8-1.5-9.5-3.4-14.1-5.2l-6.9-3c-2.3-1-4.3-1.9-6.5-2.9c-8.6-3.8-17.5-7.3-26.5-10.6C35.3,309.9,17.8,305.6,0,303.7z"/>
		<path class="st1" d="M178.3,397.2l35-30.6c21.5-18.8,45.2-48.1,37.5-108.5c-3.6-27.4-14-48.5-32.8-60.3
			c-27.1-16.7-59.4-22.6-90.7-16.5c-8.5,2.1-16.6,5.5-24.1,9.9c7.2-10.3,15.7-19.6,25.3-27.7c21.9-16.9,37.7-24,74.4-31.3
			c50.4-9.9,127.5-9.9,209.2,46.8c27.1,18.9,49.5,36.4,69.2,51.9c17.8,14,33.1,26,46.6,34.7l16.6,10.7l-18.5,6.9
			c-108.5,40.6-301.3,99.6-303.2,100.2L178.3,397.2z M168.8,162.5c19.6,1.3,41.5,6.2,60.3,19c23.4,16,37.3,40.8,41.5,74.3
			c5.8,45.8-4.8,76.7-19.3,98.4c56.2-17.6,169.7-53.5,249.9-82.6c-9.9-7.3-20.5-15.6-32.1-24.7c-19.6-15.3-41.7-32.8-68.3-51.3
			c-60.6-42.3-125.6-57.1-193-43.9C194.5,154.3,181.5,157.9,168.8,162.5z"/>
		<path class="st1" d="M457.7,300c-32.2-29.6-81.2-68.6-117.8-89.2c-54.1-30.4-130.5-23.1-131.2-23l-1.3-13.2
			c3.3-0.3,81.3-7.9,139.1,24.6c37.5,21.1,87.5,60.9,120.2,91.1L457.7,300z"/>
		<path class="st1" d="M414.3,313.1c-42.7-36.4-63.1-51-94.7-68.2c-39-21.1-69.9-20.7-70.2-20.7l-0.3-13.3c1.4,0,34.7-0.5,76.9,22.3
			c32.6,17.6,53.4,32.8,97,69.9L414.3,313.1z"/>
		<path class="st1" d="M373.1,328.2c-17.6-15.5-36.6-29.2-56.8-41c-17-9.7-35.3-16.6-54.4-20.6l2.3-13c20.7,4.2,40.6,11.7,58.8,22.3
			c21,12.2,40.7,26.5,58.9,42.5L373.1,328.2z"/>
		<path class="st1" d="M319.4,345c-16-15-58.8-35.3-59.2-35.3l5.8-12.1c1.8,0.9,45.1,21.3,62.6,37.7L319.4,345z"/>
		<path class="st1" d="M295.9,380c0,0,189.5-54.3,261.7-89.7c0,0,104.4,64.3,195.9,57.1s160-58.1,177.8-70.7
			c0,0-55.7,83.1-198.3,123.3C629.4,429.2,420.7,411.5,295.9,380z"/>
		<path class="st1" d="M357.1,428.6c-1.2,10.6-9.5,18.9-20,20c-10.9,0.7-20-6.3-20-20c1.2-10.6,9.5-18.9,20-20
			C348.2,407.8,357.1,414.9,357.1,428.6z"/>
		<path class="st1" d="M413.8,458.1c-9.3,2.4-18.2-6.5-20.1-13.7c-1.8-9.2,4.2-19.9,13.5-19.9c9.3-2.4,18.2,6.5,20.1,13.7
			C429.1,447.5,423,458.2,413.8,458.1z"/>
		<path class="st1" d="M494.6,450.5c-0.9,8.1-7.3,14.5-15.4,15.4c-8.5,0.5-15.4-4.8-15.4-15.4c0.9-8.1,7.3-14.5,15.4-15.4
			C487.6,434.6,494.6,439.9,494.6,450.5z"/>
		<path class="st1" d="M559.1,454.4c0.6,7.4-4.9,13.9-12.3,14.6c-0.8,0.1-1.5,0.1-2.3,0c-7.8-0.6-14-6.8-14.6-14.6
			c-0.6-7.4,4.9-13.9,12.3-14.6c0.8-0.1,1.5-0.1,2.3,0C552.3,440.4,558.4,446.6,559.1,454.4z"/>
		<path class="st1" d="M619.1,452.8c-0.7,6.6-6,11.8-12.6,12.6c-6.3,0.7-11.9-3.8-12.6-10.1c-0.1-0.8-0.1-1.6,0-2.5
			c0.7-6.6,6-11.8,12.6-12.6c6.3-0.7,11.9,3.8,12.6,10.1C619.2,451.1,619.2,452,619.1,452.8z"/>
		<path class="st1" d="M734.5,434.6c0.6,5.7-3.4,10.8-9.1,11.4c-0.8,0.1-1.5,0.1-2.3,0c-6-0.7-10.8-5.4-11.4-11.4
			c-0.6-5.7,3.4-10.8,9.1-11.4c0.8-0.1,1.5-0.1,2.3,0C729,423.8,733.8,428.6,734.5,434.6z"/>
		<path class="st1" d="M779.1,420.8c-0.5,5-4.4,8.9-9.4,9.4c-4.7,0.5-8.9-2.9-9.4-7.6c-0.1-0.6-0.1-1.2,0-1.8c0.5-5,4.4-8.9,9.4-9.4
			c4.7-0.5,8.9,2.9,9.4,7.6C779.2,419.6,779.2,420.2,779.1,420.8z"/>
		<path class="st1" d="M813.6,402.3c0.4,3.4-2.1,6.5-5.5,6.9c-0.5,0.1-0.9,0.1-1.4,0c-3.6-0.4-6.5-3.3-6.9-6.9
			c-0.4-3.4,2.1-6.5,5.5-6.9c0.5-0.1,0.9-0.1,1.4,0C810.3,395.8,813.2,398.7,813.6,402.3z"/>
		<path class="st1" d="M165.6,380c-0.7,6.6-6,11.8-12.6,12.6c-6.3,0.7-11.9-3.8-12.6-10.1c-0.1-0.8-0.1-1.6,0-2.5
			c0.7-6.6,5.9-11.9,12.6-12.6c6.3-0.7,11.9,3.8,12.6,10.1C165.7,378.4,165.7,379.2,165.6,380z"/>
		<path class="st1" d="M106.8,367.3c0.6,5.7-3.4,10.8-9.1,11.4c-0.8,0.1-1.5,0.1-2.3,0c-6.1-0.6-10.9-5.4-11.6-11.4
			c-0.6-5.7,3.4-10.8,9.1-11.4c0.8-0.1,1.5-0.1,2.3,0C101.3,356.5,106.1,361.2,106.8,367.3z"/>
		<path class="st1" d="M56.4,348.1c-0.5,5-4.4,8.9-9.4,9.4c-4.7,0.5-8.9-2.9-9.4-7.6c-0.1-0.6-0.1-1.2,0-1.8
			c0.6-4.9,4.5-8.7,9.4-9.3c4.7-0.5,8.9,2.9,9.4,7.6C56.4,347,56.4,347.6,56.4,348.1z"/>
		<path class="st1" d="M295.9,397.2c0,0-135.2,43.5-253.5-13.4c0,0,16.4,29.2,54.4,66.2C96.9,450,229.6,440.7,295.9,397.2z"/>
		<path class="st1" d="M679.6,446.3c-0.7,6.6-6,11.8-12.6,12.6c-6.3,0.7-11.9-3.8-12.6-10.1c-0.1-0.8-0.1-1.6,0-2.5
			c0.7-6.6,6-11.8,12.6-12.6c6.3-0.7,11.9,3.8,12.6,10.1C679.7,444.7,679.7,445.5,679.6,446.3z"/>
		<path class="st1" d="M844.9,380.7c0.4,3.4-2.1,6.5-5.5,6.9c-0.5,0.1-0.9,0.1-1.4,0c-3.6-0.4-6.5-3.3-6.9-6.9
			c-0.4-3.4,2.1-6.5,5.5-6.9c0.5-0.1,0.9-0.1,1.4,0C841.6,374.2,844.5,377,844.9,380.7z"/>
	</g>
</g>
</svg>
