<svg xmlns="http://www.w3.org/2000/svg" viewBox="0 0 800 800"><defs><style>.cls-1{fill:#fff;}</style></defs><title>shirt-back</title><g id="Layer_1" data-name="Layer 1"><path class="cls-1" d="M267.69,94l-7.82-13.3h5.31l4.65,9.14,4.69-9.14h5.28L272,94v12.11h-4.29Z"/><path class="cls-1" d="M282.11,93.37a13,13,0,1,1,13,13A13,13,0,0,1,282.11,93.37Zm21.78,0a8.75,8.75,0,1,0-8.75,8.75A8.74,8.74,0,0,0,303.89,93.37Z"/><path class="cls-1" d="M319.4,80.66V97.29a4.82,4.82,0,0,0,9.64,0V80.66h4.29V97.29a9.11,9.11,0,1,1-18.22,0V80.66Z"/><path class="cls-1" d="M353.65,80l12.08,16.7L377.81,80v26.07h-4.26V93l-7.82,10.79L357.94,93v13h-4.29Z"/><path class="cls-1" d="M399.89,101.45h-9.64l-1.88,4.62h-4.85L395.07,80l11.55,26.07h-4.85Zm-1.65-4-3.17-7.72-3.17,7.72Z"/><path class="cls-1" d="M414.93,94l-7.82-13.3h5.31l4.65,9.14,4.69-9.14H427L419.22,94v12.11h-4.29Z"/><path class="cls-1" d="M445.06,80.66h4.29V91.22h9.27V80.66h4.29v25.41h-4.29V95.51h-9.27v10.56h-4.29Z"/><path class="cls-1" d="M471,80.66h15.84v4.29H475.26v6.27h10.23v4.29H475.26v6.27h11.55v4.29H471Z"/><path class="cls-1" d="M509,101.45h-9.64l-1.88,4.62h-4.85L504.23,80l11.55,26.07h-4.85Zm-1.65-4-3.17-7.72-3.17,7.72Z"/><path class="cls-1" d="M534.79,106.07l-5.21-9.41h-3.8v9.41h-4.29V80.66H531a8,8,0,0,1,3,15.48l5.78,9.93Zm-9-13.7h4.85c2.38,0,4-1.32,4-3.73s-1.65-3.7-4-3.7h-4.85Z"/><path class="cls-1" d="M292.9,159.45h-9.64l-1.88,4.62h-4.85L288.08,138l11.55,26.07h-4.85Zm-1.65-4-3.17-7.72-3.17,7.72Z"/><path class="cls-1" d="M393.12,138.66h4.29v25.41h-4.29Z"/><path class="cls-1" d="M409.75,148.46v15.61h-4.29V138l15.28,16.34V138.66H425V164.8Z"/><path class="cls-1" d="M431.53,158.56l3.89-1.75a4.29,4.29,0,0,0,4.22,3.33,3.52,3.52,0,0,0,3.73-3.6c0-5.08-10.5-3.76-10.5-11.49,0-4.19,3.1-6.73,6.93-6.73a7.06,7.06,0,0,1,6.9,4.75l-3.86,1.78a2.91,2.91,0,0,0-2.94-2.51,2.57,2.57,0,0,0-2.77,2.57c0,4.52,10.53,3.43,10.53,11.68a7.55,7.55,0,0,1-7.89,7.79A8.45,8.45,0,0,1,431.53,158.56Z"/><path class="cls-1" d="M454.4,138.66h4.29v25.41H454.4Z"/><path class="cls-1" d="M466.74,138.66h7.39a12.71,12.71,0,1,1,0,25.41h-7.39Zm7.39,21.12a8.42,8.42,0,0,0,0-16.83H471v16.83Z"/><path class="cls-1" d="M494,138.66h15.84v4.29H498.32v6.27h10.23v4.29H498.32v6.27h11.55v4.29H494Z"/><path class="cls-1" d="M247.23,217.45h-9.64l-1.88,4.62h-4.85L242.41,196,254,222.07h-4.85Zm-1.65-4-3.17-7.72-3.17,7.72Z"/><path class="cls-1" d="M264,206.46v15.61h-4.29V196l15.28,16.34V196.66h4.29V222.8Z"/><path class="cls-1" d="M287.29,196.66h7.39a12.71,12.71,0,0,1,0,25.41h-7.39Zm7.39,21.12a8.42,8.42,0,1,0,0-16.83h-3.1v16.83Z"/><path class="cls-1" d="M327.12,196.66h4.29v25.41h-4.29Z"/><path class="cls-1" d="M339.46,196.66H355.3v4.29H343.75v6.27H354v4.29H343.75v10.56h-4.29Z"/><path class="cls-1" d="M379.13,200.95h-6.54v-4.29h17.33v4.29h-6.5v21.12h-4.29Z"/><path class="cls-1" d="M396.25,196.66h4.29v10.56h9.27V196.66h4.29v25.41h-4.29V211.51h-9.27v10.56h-4.29Z"/><path class="cls-1" d="M422.16,196.66H438v4.29H426.45v6.27h10.23v4.29H426.45v6.27H438v4.29H422.16Z"/><path class="cls-1" d="M454.76,196.66h5.08l6.47,16.17,6.47-16.17h5.08l-11.55,26.07Z"/><path class="cls-1" d="M481.06,209.37a13,13,0,1,1,13,13A13,13,0,0,1,481.06,209.37Zm21.78,0a8.75,8.75,0,1,0-8.75,8.75A8.74,8.74,0,0,0,502.85,209.37Z"/><path class="cls-1" d="M514.33,196.66h4.29v25.41h-4.29Z"/><path class="cls-1" d="M525.81,209.33a13,13,0,0,1,13.2-13,12.26,12.26,0,0,1,5.91,1.49v5.31a8.28,8.28,0,0,0-6-2.44,8.68,8.68,0,1,0,0,17.36,8,8,0,0,0,6-2.48v5.35A12.26,12.26,0,0,1,539,222.4,13.07,13.07,0,0,1,525.81,209.33Z"/><path class="cls-1" d="M552.24,196.66h15.84v4.29H556.53v6.27h10.23v4.29H556.53v6.27h11.55v4.29H552.24Z"/><path class="cls-1" d="M214.38,274.56l3.89-1.75a4.29,4.29,0,0,0,4.22,3.33,3.52,3.52,0,0,0,3.73-3.6c0-5.08-10.5-3.76-10.5-11.49,0-4.19,3.1-6.73,6.93-6.73a7.06,7.06,0,0,1,6.9,4.75l-3.86,1.78a2.91,2.91,0,0,0-2.94-2.51,2.57,2.57,0,0,0-2.77,2.57c0,4.52,10.53,3.43,10.53,11.68a7.55,7.55,0,0,1-7.89,7.79A8.45,8.45,0,0,1,214.38,274.56Z"/><path class="cls-1" d="M241.34,258.95H234.8v-4.29h17.33v4.29h-6.5v21.12h-4.29Z"/><path class="cls-1" d="M269.52,275.45h-9.64L258,280.07h-4.85L264.7,254l11.55,26.07H271.4Zm-1.65-4-3.17-7.72-3.17,7.72Z"/><path class="cls-1" d="M295.26,280.07,290,270.67h-3.8v9.41H282V254.66h9.47a8,8,0,0,1,3,15.48l5.78,9.93Zm-9-13.7h4.85c2.38,0,4-1.32,4-3.73s-1.65-3.7-4-3.7h-4.85Z"/><path class="cls-1" d="M311.3,258.95h-6.54v-4.29h17.33v4.29h-6.5v21.12H311.3Z"/><path class="cls-1" d="M326.21,274.56l3.89-1.75a4.29,4.29,0,0,0,4.22,3.33,3.52,3.52,0,0,0,3.73-3.6c0-5.08-10.5-3.76-10.5-11.49,0-4.19,3.1-6.73,6.93-6.73a7.06,7.06,0,0,1,6.9,4.75l-3.86,1.78a2.91,2.91,0,0,0-2.94-2.51,2.57,2.57,0,0,0-2.77,2.57c0,4.52,10.53,3.43,10.53,11.68a7.55,7.55,0,0,1-7.89,7.79A8.45,8.45,0,0,1,326.21,274.56Z"/><path class="cls-1" d="M366.37,258.95h-6.54v-4.29h17.33v4.29h-6.5v21.12h-4.29Z"/><path class="cls-1" d="M380.66,267.37a13,13,0,1,1,13,13A13,13,0,0,1,380.66,267.37Zm21.78,0a8.75,8.75,0,1,0-8.75,8.75A8.74,8.74,0,0,0,402.44,267.37Z"/><path class="cls-1" d="M444.62,280.73l-4.79-10.83L435,280.73l-11.55-26.07h4.75l7,16.54,2.54-6-4.65-10.5h4.42l2.34,5.51,2.31-5.51h4.42l-4.65,10.5,2.54,6,7-16.54h4.75Z"/><path class="cls-1" d="M461.87,254.66h4.29v10.56h9.27V254.66h4.29v25.41h-4.29V269.51h-9.27v10.56h-4.29Z"/><path class="cls-1" d="M487.78,254.66h4.29v25.41h-4.29Z"/><path class="cls-1" d="M498.57,274.56l3.89-1.75a4.29,4.29,0,0,0,4.22,3.33,3.52,3.52,0,0,0,3.73-3.6c0-5.08-10.5-3.76-10.5-11.49,0-4.19,3.1-6.73,6.93-6.73a7.06,7.06,0,0,1,6.9,4.75l-3.86,1.78a2.91,2.91,0,0,0-2.94-2.51,2.57,2.57,0,0,0-2.77,2.57c0,4.52,10.53,3.43,10.53,11.68a7.55,7.55,0,0,1-7.89,7.79A8.45,8.45,0,0,1,498.57,274.56Z"/><path class="cls-1" d="M521.44,254.66h9.47a8,8,0,0,1,0,16h-5.18v9.41h-4.29Zm9.47,11.72a3.71,3.71,0,0,0,0-7.43h-5.18v7.43Z"/><path class="cls-1" d="M544.93,254.66h15.84v4.29H549.22v6.27h10.23v4.29H549.22v6.27h11.55v4.29H544.93Z"/><path class="cls-1" d="M581.3,280.07l-5.21-9.41h-3.8v9.41H568V254.66h9.47a8,8,0,0,1,3,15.48l5.78,9.93Zm-9-13.7h4.85c2.38,0,4-1.32,4-3.73s-1.65-3.7-4-3.7h-4.85Z"/><path class="cls-1" d="M284.73,316.95H278.2v-4.29h17.33v4.29H289v21.12h-4.29Z"/><path class="cls-1" d="M299,325.37a13,13,0,1,1,13,13A13,13,0,0,1,299,325.37Zm21.78,0a8.75,8.75,0,1,0-8.75,8.75A8.74,8.74,0,0,0,320.8,325.37Z"/><path class="cls-1" d="M449.9,316.95h-6.54v-4.29h17.33v4.29h-6.5v21.12H449.9Z"/><path class="cls-1" d="M467,312.66h4.29v10.56h9.27V312.66h4.29v25.41h-4.29V327.51h-9.27v10.56H467Z"/><path class="cls-1" d="M492.93,312.66h15.84v4.29H497.22v6.27h10.23v4.29H497.22v6.27h11.55v4.29H492.93Z"/><path class="cls-1" d="M259.77,370.66h15.84v4.29H264.06v6.27h10.23v4.29H264.06v10.56h-4.29Z"/><path class="cls-1" d="M295.18,391.45h-9.64l-1.88,4.62h-4.85L290.36,370l11.55,26.07h-4.85Zm-1.65-4-3.17-7.72-3.17,7.72Z"/><path class="cls-1" d="M320.92,396.07l-5.21-9.41h-3.8v9.41h-4.29V370.66h9.47a8,8,0,0,1,3,15.48l5.78,9.93Zm-9-13.7h4.85c2.38,0,4-1.32,4-3.73s-1.65-3.7-4-3.7h-4.85Z"/><path class="cls-1" d="M337,374.95h-6.54v-4.29h17.33v4.29h-6.5v21.12H337Z"/><path class="cls-1" d="M354.08,370.66h4.29v10.56h9.27V370.66h4.29v25.41h-4.29V385.51h-9.27v10.56h-4.29Z"/><path class="cls-1" d="M380,370.66h15.84v4.29H384.28v6.27h10.23v4.29H384.28v6.27h11.55v4.29H380Z"/><path class="cls-1" d="M401.5,390.56l3.89-1.75a4.29,4.29,0,0,0,4.22,3.33,3.52,3.52,0,0,0,3.73-3.6c0-5.08-10.49-3.76-10.49-11.49,0-4.19,3.1-6.73,6.93-6.73a7.06,7.06,0,0,1,6.9,4.75l-3.86,1.78a2.91,2.91,0,0,0-2.94-2.51,2.57,2.57,0,0,0-2.77,2.57c0,4.52,10.53,3.43,10.53,11.68a7.55,7.55,0,0,1-7.89,7.79A8.45,8.45,0,0,1,401.5,390.56Z"/><path class="cls-1" d="M428.46,374.95h-6.54v-4.29h17.33v4.29h-6.5v21.12h-4.29Z"/><path class="cls-1" d="M456.58,390.56l3.89-1.75a4.29,4.29,0,0,0,4.22,3.33,3.52,3.52,0,0,0,3.73-3.6c0-5.08-10.5-3.76-10.5-11.49,0-4.19,3.1-6.73,6.93-6.73a7.06,7.06,0,0,1,6.9,4.75l-3.86,1.78a2.91,2.91,0,0,0-2.94-2.51,2.57,2.57,0,0,0-2.77,2.57c0,4.52,10.53,3.43,10.53,11.68a7.55,7.55,0,0,1-7.89,7.79A8.45,8.45,0,0,1,456.58,390.56Z"/><path class="cls-1" d="M483.54,374.95H477v-4.29h17.33v4.29h-6.5v21.12h-4.29Z"/><path class="cls-1" d="M511.72,391.45h-9.64l-1.88,4.62h-4.85L506.9,370l11.55,26.07H513.6Zm-1.65-4-3.17-7.72-3.17,7.72Z"/><path class="cls-1" d="M537.46,396.07l-5.21-9.41h-3.8v9.41h-4.29V370.66h9.47a8,8,0,0,1,3,15.48l5.78,9.93Zm-9-13.7h4.85c2.38,0,4-1.32,4-3.73s-1.65-3.7-4-3.7h-4.85Z"/><path class="cls-1" d="M206,432.95h-6.54v-4.29h17.33v4.29h-6.5v21.12H206Z"/><path class="cls-1" d="M223.15,428.66h4.29v10.56h9.27V428.66H241v25.41h-4.29V443.51h-9.27v10.56h-4.29Z"/><path class="cls-1" d="M263.09,449.45h-9.64l-1.88,4.62h-4.85L258.27,428l11.55,26.07H265Zm-1.65-4-3.17-7.72-3.17,7.72Z"/><path class="cls-1" d="M277.31,432.95h-6.54v-4.29H288.1v4.29h-6.5v21.12h-4.29Z"/><path class="cls-1" d="M304,428.66h5.08l6.47,16.17L322,428.66h5.08l-11.55,26.07Z"/><path class="cls-1" d="M330.27,441.37a13,13,0,1,1,13,13A13,13,0,0,1,330.27,441.37Zm21.78,0a8.75,8.75,0,1,0-8.75,8.75A8.74,8.74,0,0,0,352.05,441.37Z"/><path class="cls-1" d="M363.54,428.66h4.29v25.41h-4.29Z"/><path class="cls-1" d="M375,441.33a13,13,0,0,1,13.2-13,12.26,12.26,0,0,1,5.91,1.49v5.31a8.28,8.28,0,0,0-6-2.44,8.68,8.68,0,1,0,0,17.36,8,8,0,0,0,6-2.48v5.35a12.26,12.26,0,0,1-5.91,1.49A13.07,13.07,0,0,1,375,441.33Z"/><path class="cls-1" d="M401.45,428.66h15.84v4.29H405.74v6.27H416v4.29H405.74v6.27h11.55v4.29H401.45Z"/><path class="cls-1" d="M437.06,428.66h4.29v25.41h-4.29Z"/><path class="cls-1" d="M453.69,438.46v15.61H449.4V428l15.28,16.34V428.66H469V454.8Z"/><path class="cls-1" d="M475.47,448.56l3.89-1.75a4.29,4.29,0,0,0,4.22,3.33,3.52,3.52,0,0,0,3.73-3.6c0-5.08-10.5-3.76-10.5-11.49,0-4.19,3.1-6.73,6.93-6.73a7.06,7.06,0,0,1,6.9,4.75l-3.86,1.78a2.91,2.91,0,0,0-2.94-2.51,2.57,2.57,0,0,0-2.77,2.57c0,4.52,10.53,3.43,10.53,11.68a7.55,7.55,0,0,1-7.89,7.79A8.45,8.45,0,0,1,475.47,448.56Z"/><path class="cls-1" d="M498.34,428.66h4.29v25.41h-4.29Z"/><path class="cls-1" d="M510.68,428.66h7.39a12.71,12.71,0,1,1,0,25.41h-7.39Zm7.39,21.12a8.42,8.42,0,1,0,0-16.83H515v16.83Z"/><path class="cls-1" d="M538,428.66h15.84v4.29H542.26v6.27h10.23v4.29H542.26v6.27h11.55v4.29H538Z"/><path class="cls-1" d="M573.58,428.66h4.29v25.41h-4.29Z"/><path class="cls-1" d="M584.37,448.56l3.89-1.75a4.29,4.29,0,0,0,4.22,3.33,3.52,3.52,0,0,0,3.73-3.6c0-5.08-10.5-3.76-10.5-11.49,0-4.19,3.1-6.73,6.93-6.73a7.06,7.06,0,0,1,6.9,4.75l-3.86,1.78a2.91,2.91,0,0,0-2.94-2.51,2.57,2.57,0,0,0-2.77,2.57c0,4.52,10.53,3.43,10.53,11.68a7.55,7.55,0,0,1-7.89,7.79A8.45,8.45,0,0,1,584.37,448.56Z"/><path class="cls-1" d="M317.2,161.66c-2.81,0-4.55-1.44-4.55-4.37a9,9,0,0,1,.19-1.78l2.66-12.58h3.7l-2.66,12.58a5,5,0,0,0-.15,1.22c0,1.22.48,2.11,1.59,2.11,4.11,0,6.51-9.07,6.51-13.14a2.14,2.14,0,0,1-1.29.3c-.7,0-1.11-.74-1.11-1.59a2,2,0,0,1,1.89-2.15c1.59,0,2.48,1.15,2.48,3.15C326.45,151.71,322.57,161.66,317.2,161.66Z"/><path class="cls-1" d="M341.32,148.6a9.46,9.46,0,0,0,6.07-2.22l.33,1a10.37,10.37,0,0,1-6.48,3c-.44,6.4-3.48,11.25-8,11.25-3.22,0-5.77-1.63-5.77-5.85s2.07-13.06,9.69-13.06C340.07,142.76,341.29,144.83,341.32,148.6Zm-1.89,1.92c-1.22,0-1.48-.63-1.48-1.52a1.67,1.67,0,0,1,1.59-1.89c-.19-1.74-1-2.33-2.22-2.33-3.74,0-5.81,6.66-5.81,10.36,0,2.55.81,3.7,3.11,3.7S338.92,155.74,339.44,150.53Z"/><path class="cls-1" d="M349.54,142.94l-2.7,12.58a7.39,7.39,0,0,0-.19,1.67c0,.85.22,1.67,1.15,1.67,1.18,0,2.44-1.52,3.52-4h1.37c-2.41,6.18-4.81,6.85-6.44,6.85-2.52,0-3.29-1.89-3.29-4.11a13.84,13.84,0,0,1,.33-2.74l2.52-11.88Zm-1-7.81a2.53,2.53,0,0,1,2.48,2.48,2.47,2.47,0,0,1-2.48,2.44,2.42,2.42,0,0,1-2.44-2.44A2.47,2.47,0,0,1,348.54,135.13Z"/><path class="cls-1" d="M362.38,146.2a1.46,1.46,0,0,0-1.67-1.48c-3.48,0-5.7,6.33-5.7,10.47,0,2.55.85,3.66,3.26,3.66a7.41,7.41,0,0,0,6.51-4H366c-2,3.63-5.62,6.85-9.58,6.85-2.85,0-5.48-1.67-5.48-6s2.44-13,9.58-13c2.52,0,3.89,1.11,3.89,3.52,0,1.7-.7,3.11-2,3.11a1.3,1.3,0,0,1-1.22-.78A3.29,3.29,0,0,0,362.38,146.2Z"/><path class="cls-1" d="M368.52,154c0,.41,0,.78,0,1.15,0,2.52.85,3.66,3.22,3.66a6.41,6.41,0,0,0,4.4-1.78c-.63,3.63-3.22,4.59-6.18,4.59s-5.48-1.67-5.48-5.92,2.55-13,9.36-13c2,0,4,.78,4,3.81C377.77,150.71,374.25,153.45,368.52,154Zm.19-1.44c4.11-.63,6.81-3.07,6.81-6.4,0-.85-.19-1.63-1.37-1.63C371.4,144.57,369.37,148.79,368.7,152.6Z"/><path class="cls-1" d="M354,317.94h3l-.26,1.3h-3l-4.26,20.17c-1.11,5.29-2.59,6.29-5,6.29-2.26,0-4.07-.92-4.07-3.33s3.18-4.33,5.92-5.44l4.51-21.24c.63-2.92,1.92-7,6.73-7A4,4,0,0,1,361.8,313a7.2,7.2,0,0,1-.11,1.26h-1.48a3.23,3.23,0,0,0,.11-.89c0-1.15-.55-2.29-1.89-2.29-2.63,0-3.37,2-4,5.11Zm-8.29,21.54.26-1.18c-2.7,1.18-4.18,2.7-4.18,4a1.32,1.32,0,0,0,1.37,1.44C344.56,343.77,345.19,342,345.75,339.48Z"/><path class="cls-1" d="M370.2,323.6a9.46,9.46,0,0,0,6.07-2.22l.33,1a10.37,10.37,0,0,1-6.48,3c-.44,6.4-3.48,11.25-8,11.25-3.22,0-5.77-1.63-5.77-5.85s2.07-13.06,9.69-13.06C368.95,317.76,370.17,319.83,370.2,323.6Zm-1.89,1.92c-1.22,0-1.48-.63-1.48-1.52a1.67,1.67,0,0,1,1.59-1.89c-.19-1.74-1-2.33-2.22-2.33-3.74,0-5.81,6.66-5.81,10.36,0,2.55.81,3.7,3.11,3.7S367.8,330.74,368.32,325.53Z"/><path class="cls-1" d="M380,310.54l-4.33,20a7.36,7.36,0,0,0-.19,1.67c0,.85.22,1.67,1.15,1.67,1.18,0,2.44-1.52,3.52-4h1.37c-2.41,6.18-4.81,6.85-6.44,6.85-2.52,0-3.29-1.89-3.29-4.11a13.88,13.88,0,0,1,.33-2.74l4-18.76Z"/><path class="cls-1" d="M388,310.54l-4.33,20a7.39,7.39,0,0,0-.18,1.67c0,.85.22,1.67,1.15,1.67,1.18,0,2.44-1.52,3.52-4h1.37c-2.41,6.18-4.81,6.85-6.44,6.85-2.52,0-3.29-1.89-3.29-4.11a13.84,13.84,0,0,1,.33-2.74l4-18.76Z"/><path class="cls-1" d="M401.69,323.6a9.45,9.45,0,0,0,6.07-2.22l.33,1a10.37,10.37,0,0,1-6.48,3c-.44,6.4-3.48,11.25-8,11.25-3.22,0-5.77-1.63-5.77-5.85s2.07-13.06,9.69-13.06C400.43,317.76,401.65,319.83,401.69,323.6Zm-1.89,1.92c-1.22,0-1.48-.63-1.48-1.52a1.67,1.67,0,0,1,1.59-1.89c-.19-1.74-1-2.33-2.22-2.33-3.74,0-5.81,6.66-5.81,10.36,0,2.55.81,3.7,3.11,3.7S399.28,330.74,399.8,325.53Z"/><path class="cls-1" d="M409.87,317.94l-2.7,12.58a5,5,0,0,0-.15,1.22c0,1.44.74,2.11,1.67,2.11,1.41,0,3.22-1.48,3.74-4l2.52-11.88h3.7L416,330.52a5,5,0,0,0-.15,1.22c0,1.22.48,2.11,1.59,2.11,4.14,0,6.22-9.29,6.22-13.14a2.14,2.14,0,0,1-1.29.3c-.7,0-1.11-.74-1.11-1.59a2,2,0,0,1,1.89-2.15c1.59,0,2.33,1.15,2.33,3.15,0,6.51-3.7,16.24-8.81,16.24-2.41,0-4-1-4.44-3.15-1.41,2.18-3.14,3.15-4.74,3.15-2.22,0-4.07-1.89-4.07-5a8.69,8.69,0,0,1,.22-1.89l2.52-11.88Z"/><path class="cls-1" d="M295.65,486.42l-3.72,17.34a6.91,6.91,0,0,0-.2,1.68c0,2,1,2.91,2.29,2.91,1.94,0,4.44-2,5.15-5.56l3.47-16.37h5.1l-3.67,17.34a6.91,6.91,0,0,0-.2,1.68c0,1.68.66,2.91,2.19,2.91,5.71,0,8.57-12.8,8.57-18.1a3,3,0,0,1-1.79.41c-1,0-1.53-1-1.53-2.19a2.79,2.79,0,0,1,2.6-3c2.19,0,3.21,1.58,3.21,4.33,0,9-5.1,22.39-12.14,22.39-3.31,0-5.56-1.43-6.12-4.33-1.94,3-4.33,4.33-6.53,4.33-3.06,0-5.61-2.6-5.61-6.83a12,12,0,0,1,.31-2.6l3.47-16.37Z"/><path class="cls-1" d="M337.87,508.34c1.63,0,3.21-1.89,4.79-5.56h1.89c-3.31,8.57-6.63,9.43-8.72,9.43-3.52,0-4.9-2.5-4.9-5.76,0-4.49,2.45-10,2.45-13.62,0-1.68-.51-2.8-2.24-2.8-2.14,0-4,1.73-5.66,5.46L322,511.91h-5.1l7.5-35,5.25-.71-3,14c2.65-3.57,5.15-4.08,6.93-4.08,4.13,0,5.25,2.65,5.25,5.76,0,4.54-2.45,9.84-2.45,13.92C336.35,507.27,336.65,508.34,337.87,508.34Z"/><path class="cls-1" d="M361.28,492.84a1.58,1.58,0,0,0,.51.05c2,0,2.91-1.53,3.52-2.55h1.48c-1.07,2.35-2.91,5.1-5.56,6.22-.56,8.92-4.74,15.66-11.07,15.66-4.44,0-8-2.24-8-8.06s2.86-18,13.36-18C359.19,486.16,360.93,488.51,361.28,492.84ZM358.73,497c-1.33-.05-2-.77-2-2.4a2.61,2.61,0,0,1,2.14-2.86c-.36-2.09-1.43-2.8-3-2.8-5.15,0-8,9.18-8,14.28,0,3.52,1.12,5.1,4.28,5.1S358,504.11,358.73,497Z"/><path class="cls-1" d="M386.07,486.42l-3.72,17.34a6.86,6.86,0,0,0-.2,1.68c0,2,1,2.91,2.29,2.91,1.94,0,4.44-2,5.15-5.56l3.47-16.37h5.1L393,510.89c3.72-1.17,6-3,7.7-8.11h1.89c-2.4,7.14-5.3,8.82-10,9.94l-.66,3.26c-1.53,7.29-3.57,8.67-6.94,8.67-3.11,0-5.61-1.28-5.61-4.59s4.33-6,8.16-7.5l.66-3.21a7.17,7.17,0,0,1-5.41,2.86c-3.06,0-5.61-2.6-5.61-6.83a12,12,0,0,1,.31-2.6l3.47-16.37Zm.66,29.68.36-1.63c-3.77,1.63-5.76,3.72-5.76,5.56a1.82,1.82,0,0,0,1.89,2C385.1,522,386,519.61,386.73,516.1Z"/><path class="cls-1" d="M419.32,494.22a13,13,0,0,0,8.36-3.06l.46,1.38c-1.89,2.19-5.25,3.72-8.92,4.18-.61,8.82-4.79,15.5-11.07,15.5-4.44,0-8-2.24-8-8.06s2.86-18,13.36-18C417.59,486.16,419.27,489,419.32,494.22Zm-2.6,2.65c-1.68,0-2-.87-2-2.09a2.3,2.3,0,0,1,2.19-2.6c-.26-2.4-1.38-3.21-3.06-3.21-5.15,0-8,9.18-8,14.28,0,3.52,1.12,5.1,4.28,5.1S416,504.06,416.72,496.87Z"/><path class="cls-1" d="M442.73,486.42,439,503.75a11.38,11.38,0,0,0-.2,2.19c0,1.43.41,2.4,1.79,2.4a4.3,4.3,0,0,0,1.63-.31c-.82,3.21-2.19,4.18-4,4.18-2.19,0-3.83-1.43-4.08-4.9-1.94,3.42-4.54,4.9-6.83,4.9-3.06,0-5.61-2.6-5.61-6.83a12,12,0,0,1,.31-2.6l3.47-16.37h5.15l-3.72,17.34a6.91,6.91,0,0,0-.2,1.68c0,2,1,2.91,2.29,2.91,1.94,0,4.44-2,5.15-5.56l3.47-16.37Z"/><path class="cls-1" d="M479,486.42l-3.72,17.34a10.16,10.16,0,0,0-.25,2.29c0,1.17.31,2.29,1.58,2.29,1.63,0,3.37-2.09,4.84-5.56h1.89c-3.32,8.52-6.63,9.43-8.87,9.43s-3.83-1.48-4.08-5c-1.58,2.75-4.49,5-7.75,5s-6.53-2.24-6.53-8.21c0-6.88,4.49-17.85,13.05-17.85,1.63,0,3.67.61,4.18,2.7l.51-2.45Zm-8.62,16.37,2.45-11.58a2.56,2.56,0,0,0-2.55-2.24c-5.61,0-8.72,9.23-8.72,14.33,0,3.88,1.28,5,3.21,5C467,508.34,469.76,505.9,470.42,502.78Z"/><path class="cls-1" d="M490.06,486.42l-.92,4.18c1.94-2.14,4-4.44,6.83-4.44,2,0,2.86,1,2.86,2.4a3.08,3.08,0,0,1-3,3.31c-1.17,0-1.07-1.28-2.55-1.28s-3.26,1.28-4.69,2.5l-4,18.82h-5.1l5.41-25.5Z"/><path class="cls-1" d="M503.78,501.71c-.05.56-.05,1.07-.05,1.58,0,3.47,1.17,5,4.44,5a8.83,8.83,0,0,0,6.07-2.45c-.87,5-4.44,6.32-8.52,6.32-3.93,0-7.55-2.29-7.55-8.16s3.52-17.9,12.9-17.9c2.8,0,5.46,1.07,5.46,5.25C516.52,497.12,511.68,500.9,503.78,501.71Zm.25-2c5.66-.87,9.38-4.23,9.38-8.82,0-1.17-.25-2.24-1.89-2.24C507.75,488.66,504.95,494.47,504,499.73Z"/><path class="cls-1" d="M332.71,720a.09.09,0,0,1-.07,0,.07.07,0,0,1,0-.08,16.61,16.61,0,0,0,1.49-5.75,15,15,0,0,0-.26-3.45.07.07,0,0,1,0-.08c.86-.36,4-1.7,8.76-3.61a107.87,107.87,0,0,1,13-3.48c1.09-.21,5.68-1,8.68-1.43,5-.78,10-1.41,15.55-2.09,1.49-.18,3-.31,4.49-.43,2.14-.18,4.35-.36,6.5-.72,5.15-.86,10.62-1.81,15.86-3.21,7.39-2,12.15-5.07,15.42-10,1.26-1.91,1.54-3.17.82-3.75a1,1,0,0,0-.64-.22c-.87,0-1.89,1-2.78,1.91l-.22.23a3.75,3.75,0,0,1-2.62,1.19,3.86,3.86,0,0,1-3.35-2.47c-.2-.41-.47-1-.72-1.66-.18-.44-.37-.88-.53-1.26a.79.79,0,0,0-1.19-.31c-2.2,1.63-4.58,3.26-7.33,3.74a5.74,5.74,0,0,1-.95.09,1.09,1.09,0,0,1-.91-.29c-.19-.26-.16-.81.09-1.59.4-1.24.9-2.57,1.39-3.86.65-1.73,1.33-3.53,1.81-5.22a2.56,2.56,0,0,0-1.09-3,2.49,2.49,0,0,0-1-.21,3.22,3.22,0,0,0-1.91.65,10,10,0,0,0-2.76,3.52c-.88,2.08-1.49,4-2.14,6.09-.36,1.14-.73,2.33-1.15,3.53-.87,2.48-1.92,2.82-2.84,2.82a4.62,4.62,0,0,1-1-.12c-.07,0-.13-.24-.09-1,0-.34,0-.51-.11-.65l-.11-.11h-.17a.39.39,0,0,0-.24.09,17.32,17.32,0,0,1-6.3,3.28,5.82,5.82,0,0,1-1.51.3c-.53,0-.83-.22-1.36-1a.77.77,0,0,0-.65-.35.75.75,0,0,0-.47.16,16.54,16.54,0,0,1-6.22,3.31,17,17,0,0,1-4.81.9h-.32c-2.32,0-2.89-1.18-3.6-2.68l-.12-.26a.58.58,0,0,0-.52-.33.58.58,0,0,0-.57.44c-.91,3.67-1.85,6.45-2.84,9.39-.37,1.08-.75,2.2-1.12,3.37s-1.28,2-2.19,2a1.17,1.17,0,0,1-1.25-1.05,56.37,56.37,0,0,1,2.6-8.71c.18-.49.25-.84.09-1.08a.48.48,0,0,0-.4-.2,1.69,1.69,0,0,0-.85.37,15.2,15.2,0,0,1-3.32,1.49l-.52.19a5.08,5.08,0,0,1-1.72.36,2.39,2.39,0,0,1-1.77-.73.61.61,0,0,0-.45-.17,4,4,0,0,0-1.56.61l-.42.22a21.62,21.62,0,0,0-2,1,11.39,11.39,0,0,1-3,1.24,3.89,3.89,0,0,1-1,.14,4,4,0,0,1-2.6-1.21,1,1,0,0,0-.62-.25.72.72,0,0,0-.47.17,16.82,16.82,0,0,1-4,2.55l-.13.07a16.52,16.52,0,0,1-3.66,1.29,2.62,2.62,0,0,1-.57.07,1,1,0,0,1-.72-.25,1.55,1.55,0,0,1-.31-1.13,33.22,33.22,0,0,1,1.38-6.57l.08-.29c.62-2.17,1.39-4.34,2.14-6.44l.62-1.76a2.77,2.77,0,0,1,2.26-1.41,1,1,0,0,1,.4.07,1.28,1.28,0,0,1,.51.84,13.87,13.87,0,0,1-.73,3.48l-.19.65c-.45,1.55-.73,2.43-1,3.44-.21.66-.44,1.38-.74,2.38,0,.12-.13.37-.25.71s-.37,1-.56,1.59l-.08.21c-.15.39-.32.84-.1,1.15a.57.57,0,0,0,.49.24,2.65,2.65,0,0,0,1.12-.4,20.38,20.38,0,0,0,5-4,5.63,5.63,0,0,0,.87-3.27c0-.48.07-1,.14-1.43a85.54,85.54,0,0,1,6.15-20.65,10.09,10.09,0,0,1,1.7-2.69,3.3,3.3,0,0,1,2.54-1.31H351c.85,0,1.38.77,1.6,2.26.78,5.22-.75,9.92-2.38,14.9-.22.67-.44,1.34-.65,2a24.77,24.77,0,0,1-4.65,8c-1.2,1.52-2,2.53-1.88,3.4a1.27,1.27,0,0,0,.54.86l0,0,0,0a.89.89,0,0,0,.37.08c1.13,0,3.52-1.75,5.95-3.63l.06,0a7.47,7.47,0,0,0,2.14-3.35c.55-1.48,1-3,1.45-4.5.29-1,.59-2,.91-3,.73-2.21,1.14-2.62,2.58-2.62.24,0,.5,0,.82,0a.71.71,0,0,1,.53.31.72.72,0,0,1,.1.61c-.87,3-1.79,5.68-2.53,7.8-.64,1.85-1.15,3.31-1.39,4.34-.16.69-.15,1,0,1.25a.54.54,0,0,0,.43.2,2.24,2.24,0,0,0,1-.39c1.78-1,4-2.66,4.86-4.31a10.84,10.84,0,0,0,.86-2.63,9.41,9.41,0,0,1,.29-1.08c.4-1.14.72-2.2,1.06-3.33s.73-2.41,1.25-3.93c.36-1,1.1-1.53,2.66-1.72l.31,0c.61,0,.78.29.85.55a2,2,0,0,1,0,.41c0,.3,0,.5.11.66l.11.11h.18a.45.45,0,0,0,.31-.13c1-1,3.21-2.73,4.65-3a3.59,3.59,0,0,1,.58,0c2.28,0,4.1,2.19,4.47,4.22a10.61,10.61,0,0,1-1.79,8.13l-.13.2a11.79,11.79,0,0,0-.89,1.39l-.19.48h.52a33.59,33.59,0,0,0,5.38-4.07,6.7,6.7,0,0,0,1.41-3.18l.13-.5a38.25,38.25,0,0,1,1.2-4c.22-.64.45-1.31.7-2.09.74-2.34,1.51-2.79,2.67-2.79a6.82,6.82,0,0,1,1.26.14s.09,0,.1.21a18.83,18.83,0,0,1-.9,3.75l-.18.61c-.79,2.64-1.49,4.81-2.38,7.56l-.2.61c-.23.7-.32,1.19-.11,1.49a.52.52,0,0,0,.43.21.9.9,0,0,0,.42-.12c.23-.12.45-.26.66-.39l.43-.27c2.83-1.65,4.81-3,6.36-7a38,38,0,0,0,1.22-3.9c.13-.46.25-.92.39-1.4l.23-.82c.72-2.59,1-3.77,3.21-3.77l.58,0c.33,0,.45.26.47,1,0,.23,0,.65.41.65h0a.43.43,0,0,0,.31-.14,11.58,11.58,0,0,1,3.9-2.65,4.28,4.28,0,0,1,1.27-.18,4.5,4.5,0,0,1,2.6.74c1.28.94,1.58,3.16,1.2,4.87a27.1,27.1,0,0,1-1.64,4.83c-.26.62-.53,1.27-.77,1.92a1,1,0,0,0,.11.91,1,1,0,0,0,.81.43,1,1,0,0,0,.53-.16c3.23-2.11,3.67-4,4-6.81.64-5.16,3.47-9.19,8.89-12.7,3.16-2,5.88-3,8.55-3.07H430c2.79,0,4.75.91,5.37,2.49.93,2.76,0,6.05-.27,7-1.7,5.39-4.16,9-7.73,11.34a3.34,3.34,0,0,1-1.76.61h0a1.24,1.24,0,0,1-1.28-.91.8.8,0,0,0-.75-.54.77.77,0,0,0-.61.3l-.11.14a9.57,9.57,0,0,1-1.93,2,2.38,2.38,0,0,1-1.27.37,2.07,2.07,0,0,1-.71-.12c-.72-.26-1.1-1.45-1.16-2.44a28.3,28.3,0,0,1,.12-4.88,16.89,16.89,0,0,1,3.56-8.2,4,4,0,0,1,2.95-1.7,2.65,2.65,0,0,1,1.72.66.78.78,0,0,0,.5.18.8.8,0,0,0,.58-.25.78.78,0,0,0,.21-.58.09.09,0,0,1,0-.07.08.08,0,0,1,.06,0h.18a25,25,0,0,1,3.07.26.07.07,0,0,1,.05,0,.08.08,0,0,1,0,.07,82.86,82.86,0,0,0-3.06,8.44c-.13.42-.29.88-.46,1.37a23.9,23.9,0,0,0-.89,2.89,2.05,2.05,0,0,0,.12,1.66.67.67,0,0,0,.53.25c.4,0,.85-.32,1.36-.95a13.79,13.79,0,0,0,1.46-2.52l.14-.27a23.31,23.31,0,0,0,2.78-12.78c-.23-2.32-1.18-3.36-3.07-3.36a8.53,8.53,0,0,0-1.72.21c-6.79,1.42-11.17,5.59-13.38,12.76-.77,2.51-1.49,5.81-.16,9.11.85,2.12,1.84,3.19,3,3.19a2.89,2.89,0,0,0,2-1.14,3.85,3.85,0,0,1,2.82-1.22h.27a3.19,3.19,0,0,1,2.18.93,2.15,2.15,0,0,1,.39,1.71,12.26,12.26,0,0,1-.9,3.73c-3.18,6.48-8.51,11.08-15.84,13.68-6.57,2.33-13.51,3.5-20.23,4.64-1.91.32-3.89.66-5.83,1-2.3.42-4.46.74-6.54,1.05-3.41.51-6.64,1-10.29,1.86-5.78,1.38-9,2.32-12.42,3.32-1.39.41-2.82.82-4.44,1.28A56.39,56.39,0,0,0,332.75,720Zm39.43-44.67a2.64,2.64,0,0,0-1.13.26c-3.73,1.75-4.68,5.13-5.28,8.17a.83.83,0,0,0,0,.17c0,2.4.78,3.61,2.26,3.61a4.82,4.82,0,0,0,2.25-.72,8.65,8.65,0,0,0,2.92-2.93c1.34-2,2.45-4.21,1.46-6.81A2.64,2.64,0,0,0,372.14,675.33Zm-21.52-10.26c-.34,0-.66.29-1.22,1.75l-.18.45a34.82,34.82,0,0,0-1.15,3.29c-.29,1-1,3.46-1.7,5.87-.35,1.18-.94,3.62-1.37,5.51-.9,4-.83,4.07-.71,4.23l.11.14h.37l.12-.17c3.63-5.14,6.21-13.47,6.27-20.24a1,1,0,0,0-.2-.7A.46.46,0,0,0,350.62,665.07Zm75.11-1.82c-.35,0-1.59.16-2.73,2.26a25.3,25.3,0,0,0-2.34,5.56l-.09.33a19.72,19.72,0,0,0-.77,4.56,2.73,2.73,0,0,0,.35,1.83.63.63,0,0,0,.47.21l.18,0a3.44,3.44,0,0,0,1.73-1.63l.06-.1a20.42,20.42,0,0,0,1.69-3.24c.13-.4.26-.75.38-1.09.58-1.57,1-2.82.62-6.36a.08.08,0,0,1,.05-.09,2.76,2.76,0,0,1,.54,0,4.3,4.3,0,0,0,.88-.07l.32-.06,0-.33S426.49,663.25,425.73,663.25Z"/><path class="cls-1" d="M349.92,629.59c.87-1.28,1.78-2.61,2.5-3.5,1.3-.07,10.32-.6,13-.78l.38,0,0-.37s0-.34-.06-.62v-.34h-.34c-1.91,0-4,0-6.1.06-1.84,0-3.74.06-5.48.06l1.19-2.26c2.51.19,5.08.33,7.36.46l3,.18.37,0v-.37a13.81,13.81,0,0,1,.61-3.49l.12-.34-.34-.11s-.53-.17-1.72-.64c-1.68-.65-3.82-1.58-5.72-2.39l-2.2-.95c0-.46,0-1.5,0-2.49,1.64.82,3.28,1.67,4.87,2.5s3.45,1.8,5.16,2.65l.29.15.17-.28c0-.07.1-.19.18-.38s.11-.25.14-.3l.18-.31-.31-.18c-1.37-.81-9-5.24-11-6.41-.1-.52-.42-2.28-.86-4.66,1.52-.24,3.21-.46,4.8-.63.9.82,6.75,6.1,9.23,8.23l.28.24.23-.28s.27-.32.52-.57l.26-.26-.27-.25c-1.37-1.3-2.76-2.64-4.15-4l-3.75-3.61c1.4-.38,2.27-.57,2.63-.64.79.93,4.84,5.71,6.25,7.32l.24.27.27-.24a15.19,15.19,0,0,1,3.22-2.17l.3-.15-.13-.31c-.91-2.16-3.36-7.8-3.86-8.94l1.7-2c.61,1.81,2.48,7.31,3.49,10.33l.11.34L377,607l.16-.06.43-.15.29-.08,0-.3c0-.44-2.39-9-3.4-12.17.45-.6,2.12-2.83,2.8-3.83l3.88,2.85c.07,1,.45,6.61.6,8.68,0,.7.07,1.32.1,2s0,1.07.08,1.68l0,.36.36,0,.43,0h.8v-.36c0-1.05-.05-2.92-.1-4.91-.06-2.19-.11-4.45-.13-6,.72.41,1.75,1.05,2.16,1.31-.08,1.35-.14,2.72-.2,4.17-.07,1.71-.15,3.48-.27,5.5l0,.33.33,0a20.23,20.23,0,0,1,3.77.91l.32.1.12-.31c.59-1.54,1.15-3.11,1.7-4.63s1.09-3,1.68-4.56h1.21l1.49,0c-.79,1.63-1.59,3.2-2.36,4.72s-1.67,3.3-2.48,5l-.16.34.35.14a3.46,3.46,0,0,1,.64.34l.29.22.21-.3c.31-.44,5.13-9.43,6-11.07l4.77-.79.61,4.84c-.83,1-6.4,7.36-8.14,9.45l-.21.25.23.23.23.25.26.28.26.25.25-.26c2.2-2.31,6.34-6.76,7.68-8.2l.76,2.63-7.46,6.81-.22.2.36.58a18.41,18.41,0,0,1,1.49,2.74l.14.33.33-.14,4.83-2.13,4.64-2,2.22,1.79L405.59,616l-5.68,1.89-.31.11.08.32.09.34.09.33.08.32.33-.06c.65-.12,11.35-3.18,12.87-3.62l3.76,2.62L349.66,630ZM373.69,624l2.45-1.73,2.75,1-.91-2.92,1.67-2.36H376.8L375,615.74l-.81,2.6-2.8.93,2.34,1.77Zm13.05-2.26,2.38-1.77,2.89,1.2-1.16-2.95,2-2.4-3.07.22-1.66-2.6-1,2.83-2.93.89,2.53,1.6Zm-7.7-5.27,2.34-1.76,2.68,1.07-.82-2.73,1.55-2.39H382l-1.55-2.33-.89,2.67-2.65.84,2.1,1.66Z"/><path class="cls-1" d="M284.16,708.95c-.57,0-1.16,0-1.74,0-4.16-.22-8.58-3.14-9.46-6.25-1.61-5.7,1.43-10.65,7.77-12.6a11.35,11.35,0,0,1,3.36-.49c.42,0,.87,0,1.32.06l.11-.7c-6.72-1.42-12-6.85-16.14-16.62a42.4,42.4,0,0,1-3.22-14.25,10.88,10.88,0,0,0-.3-1.79c0-.22-.1-.44-.14-.66a2.45,2.45,0,0,0-2.45-2.23,3.46,3.46,0,0,0-.6.05c-.58.07-1.08.12-1.52.16-2.61.24-2.93.39-3.65,3.85a108.48,108.48,0,0,1-4,13.95c-1.8,5.07-5.64,8.71-11.41,10.82a20.87,20.87,0,0,1-7.26,1.52,12.64,12.64,0,0,1-3.48-.48c-4.08-1.16-6.23-3.79-6.79-8.25A11.42,11.42,0,0,1,234,662.42a7.43,7.43,0,0,1,1.31-.11c2.33,0,5,1,5.75,3.8l-.76-.3c-.55-.22-1.08-.43-1.74-.66a7.25,7.25,0,0,0-2.4-.4,9,9,0,0,0-8.68,7.52,7.4,7.4,0,0,0,7.66,8.88,10.12,10.12,0,0,0,2.78-.4c5.95-1.7,9.71-5.88,11.5-12.8,1.33-5.12,2.49-10.36,3.62-15.43l.63-2.84c.72-3.23,1.39-6.41,2.09-9.77q.47-2.25,1-4.55l.11-.5-.51.08-.63.1c-.52.08-1.08.17-1.65.24-1.18.15-2.39.29-3.55.42-2.54.29-5.16.59-7.72,1.06-3.56.66-7.17,1.87-9.51,6.3-.84,1.58-1.22,4-.43,5.35a4.23,4.23,0,0,0,3.75,1.83,5.66,5.66,0,0,0,1-.09c4.68-.84,7.41-3.36,8.34-7.69a1.49,1.49,0,0,0-.22-1.31,1.94,1.94,0,0,0-1.53-.55,3.9,3.9,0,0,0-3,2.63,4.5,4.5,0,0,1,.09-2.14,4.16,4.16,0,0,1,3.32-2.62,3.73,3.73,0,0,1,3,1c.59.71.7,1.89.36,3.71a12.23,12.23,0,0,1-10,9.24c-.64.06-1.25.1-1.82.1-3.56,0-5.77-1.24-6.57-3.69a8.87,8.87,0,0,1,1.15-7.55c2.61-4.34,6.81-7.13,13.21-8.78a76.48,76.48,0,0,1,7.7-1.43c2.14-.32,4.35-.65,6.58-1.16a34.81,34.81,0,0,0,4.11-1.31c1.07-.39,2.17-.78,3.25-1.09-3.33,6.48-4.69,13.55-6,20.39-.22,1.12-.43,2.24-.66,3.36l-.09.45.46,0c3.39-.21,7-3.19,8-6.63.93-2.46,1.63-4.93,2.31-7.32.6-2.1,1.22-4.28,2-6.4a19.66,19.66,0,0,1,5.12-7.45l.43-.42.53-.41a11.07,11.07,0,0,1,4-2.21,19.92,19.92,0,0,0-4.78,6.51,40,40,0,0,0-1.79,7.36,24.88,24.88,0,0,1-6.71,13.67,20.69,20.69,0,0,1-2.1,1.89c-.36.3-.74.61-1.11.93l-.46.4.58.2c3.28,1.13,4.82,2.68,5.15,5.18.12.91.17,1.86.21,2.77s.08,1.65.18,2.48c.58,5.15,4,14.64,8.15,18.38l.39.35.18-.49.17-.47c.12-.32.24-.63.34-.95,1.75-5.87,5.79-10,12.33-12.46a64,64,0,0,1,12.35-3.69,43.21,43.21,0,0,1,7.54-.78c.77,0,1.6,0,2.52.08a38.35,38.35,0,0,1,10.57,2.09c1.06.39,6.41,2.59,7.8,8a8.6,8.6,0,0,1-1.89,7.72,37.18,37.18,0,0,1-17.35,12.23l-.07,0a21.63,21.63,0,0,1-3.32.89l-.38.05a5.17,5.17,0,0,1-.78.08h0c-.61,0-.75-.23-.81-.47-.16-.62,1.1-1.11,2.44-1.62l.86-.34a37.5,37.5,0,0,0,4.15-2.08l.13-.07c5.76-3.23,9.35-7.51,11-13.08,1-3.29.1-5.93-2.41-7.41a25.33,25.33,0,0,0-5.43-2.35,3.23,3.23,0,0,0-.95-.16,2.51,2.51,0,0,0-2.18,1.52l-.29.51a25.2,25.2,0,0,0-2.35,4.83c-1,3-2.36,7.59-3.59,11.63s-2.36,7.72-2.67,8.61a36.5,36.5,0,0,1-3.31,7.34c-1.77,2.86-5.53,5.37-8.47,6.6A29.18,29.18,0,0,1,284.16,708.95Zm.15-17.3c-2.45,0-4.55.59-6.85,3.47a6.79,6.79,0,0,0-1,7.37c1.69,3.23,4.81,3.93,7.35,4.18.46,0,.93.07,1.4.07a16.22,16.22,0,0,0,15-11.05,77.16,77.16,0,0,0,2.49-8.23c.51-2,1-4,1.84-6.47.18-.56.36-1.12.53-1.68,1.62-5.15,3.3-10.49,9-13.48l-.17-.67a60.81,60.81,0,0,0-9.16,1,33.77,33.77,0,0,0-15,6.57c-2.37,1.78-4.9,4.08-5.68,7.63a4.56,4.56,0,0,0,.69,3.85,4,4,0,0,0,3.29,1.37l.51,0c2.9-.21,4.4-.45,6.17-1.42a8.58,8.58,0,0,0,4.33-4.76,3.63,3.63,0,0,0-.1-3,1.7,1.7,0,0,0-1.37-.55,2.87,2.87,0,0,0-1.48.39,7.93,7.93,0,0,0-2.29,2.24,3.14,3.14,0,0,1,.2-2,5.55,5.55,0,0,1,3.36-3.13,9,9,0,0,1,1.15-.08,3.61,3.61,0,0,1,2.86,1,3.42,3.42,0,0,1,.59,2.8c-.67,5.17-3.62,8.93-8.79,11.18a10.73,10.73,0,0,1-3.09.69,12.54,12.54,0,0,1-1.29.05l-1.63,0-1.24,0-.12.69.09,0c2.37.86,3.91,1.41,4.92,3.39a17.52,17.52,0,0,0-4.42-1.31C285.75,691.7,285,691.65,284.31,691.65Z"/><path class="cls-1" d="M340.81,669.87a2.61,2.61,0,0,1-2.46-2.07c-1.08-4.1.43-7.73,2.06-10.74a17.46,17.46,0,0,1,4.82-5l-.34-.62a7.73,7.73,0,0,1-2.72.54,4.2,4.2,0,0,1-4-2.26l-.18-.38-.35.24c-4.92,3.44-5.92,3.83-8.07,4.43a5.26,5.26,0,0,1-1.35.21c-.73,0-1.58-.21-1.66-1.86l0-.66L326,652a24.53,24.53,0,0,1-10.18,4.4,15.9,15.9,0,0,1-2.43.23,6.52,6.52,0,0,1-1.64-.19c-.85-.22-1.53-1.31-2.14-2.46l-.38-.72-.27.77c-.74,2.1-1.58,4-3.71,4a4.31,4.31,0,0,1-.74-.07,7.64,7.64,0,0,0,.13-1.4v-.65l-.55.35c-3.2,2-5.6,3-7.34,3a4,4,0,0,1-.59,0c-.5-.08-.81-.58-1.19-1.29l-.18-.33-.32.19a25.93,25.93,0,0,1-6.75,3,3.49,3.49,0,0,1-1,.16c-.75,0-1.26-.38-1.7-1.27l-.1-.2h-.36l-.11.09a10.66,10.66,0,0,1-3.49,2.27,6,6,0,0,1-2.06.4c-1.94,0-3.43-1.19-4.29-3.45s-.54-5.6,1-8.77c1.4-2.84,3.58-5.26,5.56-6.16a7.35,7.35,0,0,1,3-.73,4.1,4.1,0,0,1,4.06,3.32l.2.69.43-.58a9.93,9.93,0,0,0,.81-1.45,6,6,0,0,1,1.28-2,3.11,3.11,0,0,1,1.68-.46,1.75,1.75,0,0,1,.61.09c.52.21.11,1.51,0,2-.85,2.69-1.78,5.4-2.69,8q-.57,1.66-1.14,3.31a3.87,3.87,0,0,0-.14.68c0,.18-.06.4-.11.7l0,.16.21.26h.28l.09-.06a28.18,28.18,0,0,0,4.3-2.78l1.06-.79c.8-.59,1.08-1.28,1.94-3.58.57-1.53,1.17-3.17,1.74-4.75s1.09-3,1.48-4a2.94,2.94,0,0,1,2.46-1.41,1.36,1.36,0,0,1,.44.07,1,1,0,0,1,.59.41,1.23,1.23,0,0,1-.08.89c-1.14,3.21-1.87,5.37-2.79,8.1l-.83,2.46c0,.1-.14.36-.27.7-.38,1-.7,1.79-.76,2.09a.85.85,0,0,0,.08.74.54.54,0,0,0,.44.2,1.55,1.55,0,0,0,.55-.13,19.7,19.7,0,0,0,4.21-2.95,10.86,10.86,0,0,0,2.64-3.88c1.58-4.29,3.1-8.69,4.57-12.94q1.13-3.28,2.28-6.55c.46-1.3.86-2.17,2.17-2.36a6.22,6.22,0,0,1,.9-.08c.47,0,.77.09.89.26s0,1.12-.14,1.69c-.32,1.05-.72,2.11-1.09,3.14-.24.64-.47,1.28-.7,1.92s-.49,1.36-.79,2.16c-.4,1.06-.81,2.16-1.08,3l-.37,1.12.92-.72a12,12,0,0,1,4.11-2.2,5,5,0,0,1,1.35-.21,3,3,0,0,1,2.75,1.87c1.64,3.18,1.46,6.56-.57,10.32-.22.41-.47.81-.77,1.32l-.55.92-.69,1.16,1.17-.67,1.61-.9c2.76-1.52,4.43-2.43,5.31-4.92a77.38,77.38,0,0,1,2.59-7.41c.32-.84.62-1.61.85-2.24a2.84,2.84,0,0,1,2.53-1.52,1.67,1.67,0,0,1,.93.25,1.56,1.56,0,0,1,.08,1c-1,2.88-2,5.79-3,8.61l-1.17,3.35c-.13.36-.23.74-.34,1.09s-.24.83-.39,1.22l-.32.86.82-.43a32.08,32.08,0,0,0,6.21-4.42c.26-.24.25-.68.23-1.24,0-.18,0-.37,0-.53a14,14,0,0,1,3.72-8.74l0,0a15.75,15.75,0,0,1,3.24-3,5.13,5.13,0,0,1,2.61-.71,4.63,4.63,0,0,1,4.51,3.3l.08.24h.5l.09-.23c.72-1.89,1.72-3.13,2.75-3.4a3.15,3.15,0,0,1,.73-.08,1.36,1.36,0,0,1,.92.24,1.63,1.63,0,0,1,.07,1.47c-1.13,3.33-2.29,6.59-3.51,10l-1.12,3.16,0,.19.21.27h.27l.08,0c.44-.26.89-.5,1.33-.73a10,10,0,0,0,2.74-1.82,7.66,7.66,0,0,0,2.07-4.11,13.78,13.78,0,0,1,6.73-10.83,6.25,6.25,0,0,1,3.11-1.14c1.34,0,2.61.92,4.23,3.09l.07.09.31.1.18-.18,0,0c.18-.29.35-.6.51-.91a4.81,4.81,0,0,1,1.22-1.71,4.43,4.43,0,0,1,2-.54,11,11,0,0,0,1.18-.19c-.18.62-.36,1.24-.54,1.87-.4,1.39-.81,2.83-1.27,4.23-.28.83-.56,1.65-.85,2.48-.67,1.94-1.37,3.95-2,6l-.25.9.79-.5c.62-.4,1.3-.75,2-1.09,2.07-1.07,4.22-2.18,5.15-4.88,1.37-4,2.6-7.2,3.86-10.2a3.2,3.2,0,0,1,1.9-1.39,1.12,1.12,0,0,1,.3,0,4.43,4.43,0,0,1,1.16.24l.42.12-.22.82.69-.33c.44-.21.88-.44,1.3-.66a15,15,0,0,1,2.83-1.25,4.81,4.81,0,0,1,1.22-.16c2,0,3.33,1.42,3.44,3.79a11.1,11.1,0,0,1-1.49,6.55,13.64,13.64,0,0,0-1.74,4.71l-.1.81.66-.47c.29-.21,2.91-2.09,4.22-3.25.33-.3.32-.76.3-1.26,0-.08,0-.17,0-.25-.09-4.91,2.08-9,6.64-12.42a5.07,5.07,0,0,1,6.2.44,4.17,4.17,0,0,1,.93,1.72,1.58,1.58,0,0,0,.16.4.57.57,0,0,0,.47.25.51.51,0,0,0,.51-.38,9.62,9.62,0,0,1,1.24-2.66c.45-.66.62-.9,2.19-.9.64,0,1,.09,1.14.28s.09.54-.11,1c-1.2,3.22-2.1,5.72-3.13,8.63l-1,2.88-.08.17c-.81,1.7-.83,2-.67,2.24a.49.49,0,0,0,.44.22c.1,0,.42,0,1.29-.59s1.27-.92,1.77-1.3.86-.66,1.41-1l.35-.27a5.1,5.1,0,0,1,2.4-1.27.75.75,0,0,1,.66.35c.32.45-.24,1.61-1.72,2.78a21.84,21.84,0,0,1-5.21,3.31L415,640a4.62,4.62,0,0,0-2.29,1.66c-.24.43-.8,1.9-1.4,3.5L411,646c-.46,1.18-.81,2.16-1.16,3.12a58.11,58.11,0,0,1-3.26,7.65,5.12,5.12,0,0,1-2.62,2.61,2.76,2.76,0,0,1-.8.13c-1.46,0-2.5-1.41-2.59-3.52a15.94,15.94,0,0,1,4.69-12.25,21.4,21.4,0,0,1,3.65-2.73l-.33-.63a11.83,11.83,0,0,1-4.4,1.25,3.6,3.6,0,0,1-3.26-1.94l-.21-.36-.32.27a30.17,30.17,0,0,1-4.68,3.22,10.61,10.61,0,0,1-4.33,1.28l-.45,0c-.53,0-1.18-.11-1.3-.64a6.6,6.6,0,0,1,.6-2.54l.08-.21c.85-1.9,1.4-3.25,2-4.67.35-.85.72-1.75,1.17-2.82.55-1.3.61-3.11-.56-4a2,2,0,0,0-1.24-.44,4,4,0,0,0-2.36,1.13c-2.12,1.78-3,4.28-3.93,6.71l-.12.32c-1.06,2.9-2,5.31-3,7.76a2.7,2.7,0,0,1-2.4,1.43,1.79,1.79,0,0,1-.82-.18c-.08,0-.18-.36-.22-.51a3.2,3.2,0,0,0-.13-.38l-.14-.3-.31.11-1.88.68c-1.54.56-3.13,1.14-4.73,1.66a4,4,0,0,1-1.17.25c-.45,0-.94-.16-1.18-1.31l-.13-.63-.46.45c-1.36,1.32-2.89,2.54-4.83,2.54a5,5,0,0,1-.85-.07,5.25,5.25,0,0,1-2.5-.91,2.31,2.31,0,0,0-1.53-.68,3.12,3.12,0,0,0-1.57.56c-.71.43-1.46.85-2.18,1.25a35.84,35.84,0,0,0-4,2.43,6.58,6.58,0,0,0-1.78,2.91l-.11.28c-.69,1.7-1.36,3.43-2,5.11-.85,2.19-1.73,4.46-2.66,6.66a10.43,10.43,0,0,1-2.12,3A2.5,2.5,0,0,1,340.81,669.87ZM345,654.48c-4.56,3.79-6.72,8.64-5.5,12.36a.52.52,0,0,0,.5.36h0a.53.53,0,0,0,.43-.22c2.44-3.39,3.67-7.38,5-11.6l.52-1.67Zm-61-8.24a3.18,3.18,0,0,0-2,.72,9.4,9.4,0,0,0-3.69,7.37,4.88,4.88,0,0,0,1.18,3.55,2.92,2.92,0,0,0,2.14.9,4.62,4.62,0,0,0,2-.5c1.13-.54,2.25-2.15,3-4.31.64-1.87,1-4.42.27-5.93A3.21,3.21,0,0,0,283.93,646.24ZM407.71,644s-3.64,1.75-5.5,7.23a9.37,9.37,0,0,0-.2,5.59.67.67,0,0,0,.37.37l.16,0h0c.23,0,.84,0,2.34-3.84l.21-.53c.63-1.59,1.68-4.25,3.1-8.4l.27-.79Zm-90.27-3.15a3.47,3.47,0,0,0-1.67.5c-4,2.21-5.44,6.94-5.13,10.4a2,2,0,0,0,2,2h0a2.77,2.77,0,0,0,1-.2,10.46,10.46,0,0,0,6.23-9,4.27,4.27,0,0,0-.95-3.06A2,2,0,0,0,317.43,640.87ZM346.9,636a4.17,4.17,0,0,0-2.9,1.57,9.23,9.23,0,0,0-2.49,7.55c.24,2.5,1.42,3.11,2.37,3.18h.36a5.36,5.36,0,0,0,3.54-1.26,9.9,9.9,0,0,0,2.68-7.11v0a4,4,0,0,0-2.33-3.63A3.06,3.06,0,0,0,346.9,636Zm21.35-3.32a4,4,0,0,0-1.69.4c-2.85,1.34-4.93,6.88-3.64,9.72a3.45,3.45,0,0,0,3,2.35h0a3.69,3.69,0,0,0,2-.71c2.78-1.87,3.24-4.73,3.43-7.27h0V637c0-.13,0-.26,0-.38,0-.29,0-.58,0-.88A3.16,3.16,0,0,0,368.24,632.64Zm41.3-7a3.84,3.84,0,0,0-2.42.8c-2.32,1.66-3,4.18-3.4,7.45v.1l0,.06c.08.24.15.52.21.8a3.72,3.72,0,0,0,2.09,3,3.32,3.32,0,0,0,1.33.29,4.22,4.22,0,0,0,2.71-1.23c2.28-2,2.71-4.85,2.84-7.13.08-1.4-.53-3.64-2.5-4.07A4.09,4.09,0,0,0,409.54,625.63Z"/><path class="cls-1" d="M303.35,639a1.37,1.37,0,0,1-1-.47,1.49,1.49,0,0,1-.39-1.09,5.75,5.75,0,0,1,3.34-4.93,3.66,3.66,0,0,1,1.32-.33.81.81,0,0,1,.57.18c.63.58.53,1.37.11,2.7a7.57,7.57,0,0,1-3,3.7A2.15,2.15,0,0,1,303.35,639Z"/><path class="cls-1" d="M334.62,633.83h-.26a1.38,1.38,0,0,1-.9-.67,5.54,5.54,0,0,1,1.24-4.13,4.1,4.1,0,0,1,2.76-1.93h.34c.65,0,1,.1,1.2.31a1.14,1.14,0,0,1,.08.93v.07C339.06,631,336.77,633.83,334.62,633.83Z"/><path class="cls-1" d="M357.8,674.56a1.17,1.17,0,0,1-.86-.36,2,2,0,0,1-.47-1.48,5.69,5.69,0,0,1,3.41-4.75,3.09,3.09,0,0,1,1-.2.88.88,0,0,1,.7.27,2.66,2.66,0,0,1,.24,2,6.11,6.11,0,0,1-3.13,4.25A1.76,1.76,0,0,1,357.8,674.56Z"/><path class="cls-1" d="M335.79,679.38a.8.8,0,0,1-.6-.23,2.1,2.1,0,0,1-.4-1.47,5.88,5.88,0,0,1,3.31-4.9,3.16,3.16,0,0,1,1.15-.29.71.71,0,0,1,.54.19,2.1,2.1,0,0,1,.34,1.45,6,6,0,0,1-3.84,5.17A1.82,1.82,0,0,1,335.79,679.38Z"/><path class="cls-1" d="M388.08,667.93a2.59,2.59,0,0,1-.65-.07,4.75,4.75,0,0,1-.27-2.71,5.86,5.86,0,0,1,3.79-3.86,1.25,1.25,0,0,1,.43-.09.69.69,0,0,1,.51.21,2.89,2.89,0,0,1,.5,2,6,6,0,0,1-3.35,4.39A2.35,2.35,0,0,1,388.08,667.93Z"/><path class="cls-1" d="M473.64,703.17a.51.51,0,1,1,.51.5A.5.5,0,0,1,473.64,703.17Zm.1,1.3h.8v3.84h-.8Z"/><path class="cls-1" d="M479.81,706v2.33H479v-2.22c0-.74-.36-1-.86-1a.9.9,0,0,0-.92,1v2.19h-.81v-3.84h.81V705a1.31,1.31,0,0,1,1.15-.62A1.39,1.39,0,0,1,479.81,706Z"/><path class="cls-1" d="M481.22,707.87l.39-.62a1.9,1.9,0,0,0,1.15.45c.38,0,.64-.17.64-.48s-.38-.45-.82-.58-1.17-.37-1.17-1.12.65-1.13,1.4-1.13a2.33,2.33,0,0,1,1.29.39l-.4.57a1.66,1.66,0,0,0-.93-.32c-.34,0-.59.15-.59.42s.43.42.9.57,1.12.39,1.12,1.15-.6,1.21-1.44,1.21A2.62,2.62,0,0,1,481.22,707.87Z"/><path class="cls-1" d="M485.75,704.46h.81V705a1.71,1.71,0,0,1,1.38-.63,2,2,0,0,1,0,4,1.71,1.71,0,0,1-1.38-.63v2.36h-.81Zm3.28,1.92a1.26,1.26,0,1,0-1.26,1.28A1.25,1.25,0,0,0,489,706.38Z"/><path class="cls-1" d="M491.3,703.17a.51.51,0,1,1,.51.5A.5.5,0,0,1,491.3,703.17Zm.1,1.3h.8v3.84h-.8Z"/><path class="cls-1" d="M496.19,704.43v.77c-.78,0-1.31.29-1.31,1.13v2h-.81v-3.84h.79v.68A1.55,1.55,0,0,1,496.19,704.43Z"/><path class="cls-1" d="M501.19,706.49H498a1.24,1.24,0,0,0,1.25,1.2,1.25,1.25,0,0,0,1.08-.59l.66.28a1.91,1.91,0,0,1-1.74,1,2,2,0,1,1,0-4,1.94,1.94,0,0,1,2,1.95Zm-3.17-.55h2.34a1.13,1.13,0,0,0-1.15-.92A1.2,1.2,0,0,0,498,705.94Z"/><path class="cls-1" d="M505.71,706.76c0-.77.44-1.15,1.2-1.72a1.71,1.71,0,0,1-.54-1.16,1.27,1.27,0,0,1,2.53,0c0,.58-.41.92-.92,1.33l1,1.26.78-1,.55.49-.85,1.06,1,1.28h-1l-.56-.72a2.23,2.23,0,0,1-1.56.79A1.57,1.57,0,0,1,505.71,706.76Zm2.75.24-1.09-1.39c-.46.34-.92.65-.92,1.16a.9.9,0,0,0,.88.89A1.76,1.76,0,0,0,508.46,707Zm-.26-3.14a.54.54,0,0,0-.56-.54.52.52,0,0,0-.56.55c0,.33.21.53.46.82C507.89,704.43,508.2,704.23,508.2,703.86Z"/><path class="cls-1" d="M519.11,706.49h-3.21a1.24,1.24,0,0,0,1.25,1.2,1.25,1.25,0,0,0,1.08-.59l.66.28a1.91,1.91,0,0,1-1.74,1,2,2,0,1,1,0-4,1.94,1.94,0,0,1,2,1.95Zm-3.17-.55h2.34a1.13,1.13,0,0,0-1.15-.92A1.2,1.2,0,0,0,515.94,705.94Z"/><path class="cls-1" d="M526,705.68v2.62h-.8v-2.37c0-.6-.33-.83-.72-.83s-.76.3-.76.86v2.34h-.81v-2.37c0-.6-.32-.83-.72-.83s-.76.3-.76.86v2.34h-.81v-3.84h.81V705a1.22,1.22,0,0,1,1.09-.61,1.09,1.09,0,0,1,1.07.61,1.3,1.3,0,0,1,1.13-.61A1.23,1.23,0,0,1,526,705.68Z"/><path class="cls-1" d="M527.82,704.46h.81V705a1.71,1.71,0,0,1,1.38-.63,2,2,0,0,1,0,4,1.71,1.71,0,0,1-1.38-.63v2.36h-.81Zm3.28,1.92a1.26,1.26,0,1,0-1.26,1.28A1.25,1.25,0,0,0,531.1,706.38Z"/><path class="cls-1" d="M533.14,706.38a2.05,2.05,0,1,1,2.05,2A2,2,0,0,1,533.14,706.38Zm3.31,0a1.27,1.27,0,1,0-1.27,1.27A1.25,1.25,0,0,0,536.46,706.38Z"/><path class="cls-1" d="M544.49,704.46l-1.41,3.84h-.63l-1.07-2.73-1.07,2.73h-.63l-1.4-3.84h.86l.92,2.72,1.07-2.72h.51l1.07,2.72.92-2.72Z"/><path class="cls-1" d="M549.53,706.49h-3.21a1.24,1.24,0,0,0,1.25,1.2,1.25,1.25,0,0,0,1.08-.59l.66.28a1.91,1.91,0,0,1-1.74,1,2,2,0,1,1,0-4,1.94,1.94,0,0,1,2,1.95Zm-3.17-.55h2.34a1.13,1.13,0,0,0-1.15-.92A1.2,1.2,0,0,0,546.36,705.94Z"/><path class="cls-1" d="M553.16,704.43v.77c-.78,0-1.31.29-1.31,1.13v2H551v-3.84h.79v.68A1.55,1.55,0,0,1,553.16,704.43Z"/><path class="cls-1" d="M505.66,628a4.33,4.33,0,0,1-.63.65,4.11,4.11,0,0,1-.8.53,4.48,4.48,0,0,1-1,.36,5.09,5.09,0,0,1-1.18.13,4.67,4.67,0,0,1-1.65-.28,3.67,3.67,0,0,1-1.28-.79,3.55,3.55,0,0,1-.82-1.22,4.13,4.13,0,0,1-.29-1.58,5.77,5.77,0,0,1,.41-2.19,5.57,5.57,0,0,1,1.14-1.78,5.42,5.42,0,0,1,1.7-1.2,5,5,0,0,1,2.1-.44,4.49,4.49,0,0,1,1,.1,4.12,4.12,0,0,1,.86.29,3.56,3.56,0,0,1,.71.44,2.17,2.17,0,0,1,.51.57l-1,.75a1.84,1.84,0,0,0-.28-.38,2.09,2.09,0,0,0-.44-.35,2.43,2.43,0,0,0-.59-.26,2.67,2.67,0,0,0-.74-.1,3.53,3.53,0,0,0-1.62.38,4.21,4.21,0,0,0-1.28,1,4.47,4.47,0,0,0-.83,1.4,4.6,4.6,0,0,0-.29,1.62,3.49,3.49,0,0,0,.18,1.15,2.68,2.68,0,0,0,.55.94,2.54,2.54,0,0,0,.9.63,3.09,3.09,0,0,0,1.22.23,3.42,3.42,0,0,0,1.43-.31,3.38,3.38,0,0,0,1.21-1Z"/><path class="cls-1" d="M513.83,629.69a5.1,5.1,0,0,1-1.72-.27,3.75,3.75,0,0,1-1.32-.78,3.48,3.48,0,0,1-.85-1.23,4.16,4.16,0,0,1-.3-1.61,5.85,5.85,0,0,1,.4-2.18,5.59,5.59,0,0,1,1.11-1.77,5.27,5.27,0,0,1,1.67-1.2,4.91,4.91,0,0,1,2.08-.44,5,5,0,0,1,1.68.27,3.78,3.78,0,0,1,1.31.78,3.51,3.51,0,0,1,.85,1.22,4.13,4.13,0,0,1,.3,1.61,6.07,6.07,0,0,1-.39,2.18,5.45,5.45,0,0,1-1.09,1.78,5.18,5.18,0,0,1-1.66,1.2A4.91,4.91,0,0,1,513.83,629.69Zm3.92-5.49a3.33,3.33,0,0,0-.19-1.14,2.73,2.73,0,0,0-.56-.93,2.6,2.6,0,0,0-.91-.63,3.17,3.17,0,0,0-1.24-.23,3.41,3.41,0,0,0-1.6.38,3.93,3.93,0,0,0-1.23,1,4.51,4.51,0,0,0-.78,1.41,4.89,4.89,0,0,0-.27,1.62,3.34,3.34,0,0,0,.19,1.13,2.77,2.77,0,0,0,.56.94,2.53,2.53,0,0,0,.91.63,3.21,3.21,0,0,0,1.26.23,3.49,3.49,0,0,0,1.61-.37,3.8,3.8,0,0,0,1.22-1,4.59,4.59,0,0,0,.78-1.41A4.93,4.93,0,0,0,517.74,624.19Z"/><path class="cls-1" d="M524.06,629.46h-1.24l1.6-9H527a4.69,4.69,0,0,1,1.21.15,2.77,2.77,0,0,1,.94.43,2,2,0,0,1,.6.7,2.1,2.1,0,0,1,.21,1,2.6,2.6,0,0,1-.19,1,2.39,2.39,0,0,1-.52.77,2.66,2.66,0,0,1-.79.53,4.08,4.08,0,0,1-1,.29l1.93,4.16H528l-1.8-4h-1.39Zm.88-5.07h1.39a5.18,5.18,0,0,0,.91-.08,2.21,2.21,0,0,0,.74-.26,1.34,1.34,0,0,0,.68-1.24,1.1,1.1,0,0,0-.5-1,2.63,2.63,0,0,0-1.37-.31h-1.33Z"/><path class="cls-1" d="M534.91,628.36h4.68l-.19,1.1h-5.92l1.6-9h5.56l-.19,1.1h-4.34l-.47,2.73h4.13l-.19,1.06h-4.13Z"/><path class="cls-1" d="M527.74,630.84a15.76,15.76,0,0,0-12.4,6.09v-5.38h-8.81L492.3,643.62V619.46h-4.71v43.61h4.7V649.44l14.86,13.63h4v11.07h4.2V657.51a15.76,15.76,0,0,0,12.4,6.09,16.38,16.38,0,0,0,0-32.76Zm-16.6,29.47-15.66-13.92L511.14,633Zm16.14-.74a12.26,12.26,0,1,1,11.89-12.25A12.07,12.07,0,0,1,527.28,659.56Z"/><path class="cls-1" d="M513.49,688.79a44.4,44.4,0,1,1,44.4-44.4A44.45,44.45,0,0,1,513.49,688.79Zm0-87.61a43.21,43.21,0,1,0,43.21,43.21A43.26,43.26,0,0,0,513.49,601.18Z"/><path class="cls-1" d="M513.63,694.41a50,50,0,1,1,50-50A50,50,0,0,1,513.63,694.41Zm0-96.67a46.7,46.7,0,1,0,46.7,46.7A46.76,46.76,0,0,0,513.63,597.74Z"/><path class="cls-1" d="M513.65,697.83a53.45,53.45,0,1,1,53.45-53.45A53.51,53.51,0,0,1,513.65,697.83Zm0-105.7a52.26,52.26,0,1,0,52.26,52.26A52.32,52.32,0,0,0,513.65,592.13Z"/></g></svg>