<svg xmlns="http://www.w3.org/2000/svg" viewBox="0 0 1492.19 800"><defs><style>.cls-1{fill:#fff;}.cls-2{opacity:0.84;}.cls-3{fill:#c7d8dd;}</style></defs><title>shirts</title><g id="Layer_1" data-name="Layer 1"><path class="cls-1" d="M439.34,161.49H434v-4.58h15.22v4.58h-5.31v17.24h-4.58Z"/><path class="cls-1" d="M453.05,156.91h4.58v8.62h6.49v-8.62h4.58v21.82h-4.58v-8.62h-6.49v8.62h-4.58Z"/><path class="cls-1" d="M473.93,156.91h14v4.58h-9.43v4h8.35v4.58h-8.35v4h9.43v4.58h-14Z"/><path class="cls-1" d="M503.56,178.73l-4.26-7.68h-2.24v7.68h-4.58V156.91h8.27A7.11,7.11,0,0,1,504,170.33l4.88,8.41Zm-6.49-12.26h3.69a2.49,2.49,0,0,0,0-5h-3.69Z"/><path class="cls-1" d="M512.69,156.91h14v4.58h-9.43v4h8.35v4.58h-8.35v4h9.43v4.58h-14Z"/><path class="cls-1" d="M530.57,166l.92-9.08h5.36L533.78,166Z"/><path class="cls-1" d="M540,173.4l4.23-1.91a3.05,3.05,0,0,0,3,3,2.34,2.34,0,0,0,2.51-2.4c0-3.56-8.57-2.48-8.57-9.38a5.89,5.89,0,0,1,6.2-6,6.31,6.31,0,0,1,6.12,4.18l-4,1.78a2.18,2.18,0,0,0-2-1.59,1.56,1.56,0,0,0-1.72,1.56c0,3,8.59,2.29,8.59,9.54a6.7,6.7,0,0,1-7,6.9A7.42,7.42,0,0,1,540,173.4Z"/><path class="cls-1" d="M567.74,173.1v-3.37h4.58v3.37c0,.81.75,1.4,1.86,1.4s1.86-.59,1.86-1.4V156.91h4.58V173.1c0,3.39-2.72,5.9-6.44,5.9S567.74,176.5,567.74,173.1Z"/><path class="cls-1" d="M590,156.91V171a3.39,3.39,0,1,0,6.79,0V156.91h4.58V171a8,8,0,1,1-15.95,0V156.91Z"/><path class="cls-1" d="M605.1,173.4l4.23-1.91a3.05,3.05,0,0,0,3,3,2.34,2.34,0,0,0,2.51-2.4c0-3.56-8.57-2.48-8.57-9.38a5.89,5.89,0,0,1,6.2-6,6.31,6.31,0,0,1,6.12,4.18l-4,1.78a2.18,2.18,0,0,0-2-1.59,1.56,1.56,0,0,0-1.72,1.56c0,3,8.59,2.29,8.59,9.54a6.7,6.7,0,0,1-7,6.9A7.42,7.42,0,0,1,605.1,173.4Z"/><path class="cls-1" d="M626.95,161.49h-5.33v-4.58h15.22v4.58h-5.31v17.24h-4.58Z"/><path class="cls-1" d="M422.51,199.42v11.64h-4.58V188.69l12.47,12.23V189.23H435V211.6Z"/><path class="cls-1" d="M439.5,200.14a11.18,11.18,0,1,1,11.18,11.18A11.17,11.17,0,0,1,439.5,200.14Zm17.78,0a6.6,6.6,0,1,0-6.6,6.6A6.58,6.58,0,0,0,457.28,200.14Z"/><path class="cls-1" d="M480.36,193.81H475v-4.58h15.22v4.58h-5.31v17.24h-4.58Z"/><path class="cls-1" d="M494.07,189.23h14v4.58h-9.43v4H507v4.58h-8.35v4h9.43v4.58h-14Z"/><path class="cls-1" d="M512.63,189.23h4.58v17.24H525v4.58H512.63Z"/><path class="cls-1" d="M528.6,189.23h4.58v17.24H541v4.58H528.6Z"/><path class="cls-1" d="M544.58,189.23h4.58v21.82h-4.58Z"/><path class="cls-1" d="M559,199.42v11.64h-4.58V188.69l12.47,12.23V189.23h4.58V211.6Z"/><path class="cls-1" d="M576,200.14a11.21,11.21,0,0,1,19.4-7.62l-3.26,3.26a6.45,6.45,0,0,0-4.88-2.18,6.55,6.55,0,1,0,0,13.09,6.45,6.45,0,0,0,3.66-1.1v-3.15h-4.2v-4.58h8.54V208.2a12,12,0,0,1-7.95,3.13A11.19,11.19,0,0,1,576,200.14Z"/><path class="cls-1" d="M262.77,504.16a36.15,36.15,0,0,1-2.07-8.86,49.13,49.13,0,0,1-.19-9.2,53.7,53.7,0,0,1,4.71-17.94,65.59,65.59,0,0,1,10.21-15.68,95.71,95.71,0,0,1,13.69-12.74,106.93,106.93,0,0,1,15.83-10,119.63,119.63,0,0,1,17.34-7.2c11.93-3.85,24.67-5.86,36.79-7a147.43,147.43,0,0,1,18-.48c3,.15,7.66.46,10.73.7s6.17.54,9.25.92a200.45,200.45,0,0,1,35.62,7.9c11.92,3.66,23.55,9.44,34.59,15.33a186.79,186.79,0,0,1,16.07,9.72c2.61,1.73,5.15,3.6,7.66,5.43l7.27,5.49c9.63,7.4,19.12,15,28.49,22.57s18.61,15,28.29,21.55a221.27,221.27,0,0,0,30.54,17.29c5.32,2.47,10.73,4.74,16.22,6.76a174.81,174.81,0,0,0,16.7,5.32,150.49,150.49,0,0,0,17.08,3.49,115.94,115.94,0,0,0,17.28,1.13q4.32-.06,8.6-.53c1.43-.17,2.82-.35,4.29-.58l4.41-.73c2.94-.48,5.87-1,8.8-1.6s5.85-1.18,8.76-1.85a299.67,299.67,0,0,0,67.87-23.5c-5,3.39-10.24,6.45-15.55,9.39s-10.78,5.59-16.33,8.08-11.18,4.81-16.9,6.91-11.49,4.08-17.33,5.85-11.74,3.34-17.68,4.77l-4.46,1c-1.5.33-3.09.64-4.64.91q-4.68.79-9.41,1.14a131.62,131.62,0,0,1-37.38-3.09,196.5,196.5,0,0,1-35.41-11.51,218.35,218.35,0,0,1-32.85-17.48C537.17,509.1,527.48,501.48,518,494s-18.82-15-28.36-22.25l-7.15-5.45c-7.18-4.87-16.83-11.35-21.91-14.16-10.15-5.63-21.47-11.28-31.79-15a192.27,192.27,0,0,0-34.26-8.8c-2.9-.45-5.71-.89-8.63-1.21a136.3,136.3,0,0,0-24.77-1.06c-12.73.45-25.86,2.27-36.22,5.36a107.48,107.48,0,0,0-31.77,14,90.23,90.23,0,0,0-13.7,10.82A47.52,47.52,0,0,0,269.68,470a49.09,49.09,0,0,0-4.21,13.55,50.2,50.2,0,0,0-.43,13.85A66.27,66.27,0,0,0,262.77,504.16Z"/><path class="cls-1" d="M221.76,537.32c5.62-1.65,12.72-2,18.57-1.9,6.5.43,9.19,1.4,14.7,2.46a142.4,142.4,0,0,1,14.53,4l7.87,2.38,3.85,1c1.28.35,2.58.62,3.86.94a112.21,112.21,0,0,0,15.41,2.5,60.65,60.65,0,0,0,14.79-.38c1.14-.24,2.3-.43,3.37-.75a27.12,27.12,0,0,0,3.13-1c.5-.19.94-.44,1.42-.65.23-.11.48-.21.7-.33l.63-.39.63-.38.33-.2.41-.28,1.63-1.12a44.79,44.79,0,0,0,5.53-4.4,21.7,21.7,0,0,0,3.83-4.92c2.08-3.45,2.9-7.67,2.89-12.27a42,42,0,0,0-.6-7.1,31.21,31.21,0,0,0-.71-3.51c-.15-.57-.23-1.17-.42-1.71l-.53-1.64a28,28,0,0,0-6.87-11.31,33.42,33.42,0,0,0-11.88-7.06,62.86,62.86,0,0,0-14.89-3.12c-1.28-.1-2.67-.29-3.86-.3-.61,0-1.23-.07-1.85-.06l-1.86.05a37.86,37.86,0,0,0-7.45,1.08,48,48,0,0,0-26.13,17.22c0-2.11.47-6.47.47-6.47a56.74,56.74,0,0,1,23.45-17.35,43.92,43.92,0,0,1,8.63-2.62l2.25-.39c.75-.11,1.52-.15,2.28-.23L301,477c.37,0,.73,0,1.09,0l2.17-.08c1.45-.07,2.91,0,4.38,0s2.94.17,4.42.26,3,.35,4.46.55,3,.54,4.47.94a46.46,46.46,0,0,1,4.45,1.35l2.21.82c.73.29,1.45.66,2.17,1A39.84,39.84,0,0,1,339,487a39.24,39.24,0,0,1,11.16,16l.85,2.25c.29.75.43,1.52.65,2.28a44,44,0,0,1,1.07,4.56,55.81,55.81,0,0,1,1.07,9.32,36,36,0,0,1-.17,4.88c-.09.82-.14,1.65-.26,2.47l-.49,2.49c-.09.41-.15.83-.27,1.24l-.37,1.24c-.26.82-.48,1.65-.8,2.46l-1,2.4a25.76,25.76,0,0,1-1.22,2.31,35.91,35.91,0,0,1-6.36,8,54.28,54.28,0,0,1-7.44,5.81l-1.81,1.17-.45.29-.56.33-1.16.66-1.16.65c-.39.2-.79.36-1.18.53-.79.33-1.58.71-2.37,1a43.34,43.34,0,0,1-9.51,2.23,66.76,66.76,0,0,1-18.18-.53,103,103,0,0,1-16.94-4.19c-2.74-.88-5.4-1.94-8.06-3l-3.93-1.68c-1.32-.56-2.48-1.1-3.72-1.65q-7.4-3.22-15.09-6C241.06,540.81,234.73,538.87,221.76,537.32Z"/><path class="cls-1" d="M323.36,590.64l19.94-17.43c12.24-10.7,25.74-27.4,21.39-61.8-2-15.63-8-27.65-18.77-34.36-21.09-13.13-43.39-11.38-51.66-9.42a52.2,52.2,0,0,0-13.74,5.65s6.82-9.94,14.42-15.79c12.55-9.65,21.49-13.7,42.41-17.81,28.73-5.64,72.72-5.67,119.18,26.68C472,477.11,484.72,487.12,496,495.95c10.13,7.95,18.87,14.81,26.55,19.78l9.45,6.12-10.54,3.94c-61.8,23.12-171.65,56.76-172.75,57.1Zm-5.43-133.8c11.17.74,23.66,3.54,34.33,10.82,13.3,9.07,21.26,23.32,23.67,42.33,3.3,26.11-2.74,43.71-11,56,32-10,96.67-30.49,142.35-47.07-5.62-4.12-11.67-8.86-18.3-14.06-11.14-8.74-23.76-18.64-38.93-29.21-34.53-24-71.56-32.44-110-25A147.5,147.5,0,0,0,317.93,456.83Z"/><path class="cls-1" d="M482.53,535.15c-18.38-16.85-46.26-39.11-67.13-50.83-30.81-17.31-74.34-13.14-74.78-13.1l-.77-7.52c1.88-.19,46.32-4.48,79.24,14,21.39,12,49.83,34.7,68.53,51.85Z"/><path class="cls-1" d="M457.79,542.68c-24.34-20.78-35.94-29.14-54-38.89-22.16-12-39.87-11.8-40-11.79l-.17-7.55c.8,0,19.77-.31,43.81,12.7,18.56,10,30.44,18.6,55.26,39.79Z"/><path class="cls-1" d="M434.33,551.24A206.52,206.52,0,0,0,402,527.88a106.25,106.25,0,0,0-31-11.75l1.32-7.44a112,112,0,0,1,33.52,12.68,214.12,214.12,0,0,1,33.56,24.22Z"/><path class="cls-1" d="M403.75,560.82c-9.14-8.55-33.5-20.06-33.75-20.18l3.22-6.84c1,.49,25.68,12.13,35.7,21.5Z"/><path class="cls-1" d="M390.39,580.79s107.94-30.94,149.1-51.12c0,0,59.46,36.64,111.58,32.52s91.15-33.08,101.31-40.28c0,0-31.76,47.35-113,70.22C580.34,608.78,461.45,598.71,390.39,580.79Z"/><path class="cls-1" d="M425.28,608.46c0,4.78-5.11,11-11.42,11.42s-11.42-3.59-11.42-11.42c0-4.78,5.11-11,11.42-11.42S425.28,600.63,425.28,608.46Z"/><path class="cls-1" d="M457.52,625.27c-5.28,1.34-10.4-3.72-11.43-7.83-1-5.26,2.42-11.37,7.7-11.34,5.28-1.34,10.4,3.72,11.43,7.83C466.24,619.19,462.8,625.29,457.52,625.27Z"/><path class="cls-1" d="M503.53,620.94c0,3.67-3.93,8.46-8.78,8.78S486,627,486,620.94c0-3.67,3.93-8.46,8.78-8.78S503.53,614.92,503.53,620.94Z"/><path class="cls-1" d="M540.28,623.13c0,5.41-3.71,8.51-8.29,8.29s-8.29-4.54-8.29-8.29c0-5.41,3.71-8.51,8.29-8.29S540.28,619.38,540.28,623.13Z"/><path class="cls-1" d="M574.48,622.24c0,3-3.21,6.91-7.17,7.17s-7.17-2.25-7.17-7.17c0-3,3.21-6.91,7.17-7.17S574.48,617.32,574.48,622.24Z"/><path class="cls-1" d="M640.23,611.87c0,4.5-2.91,6.75-6.51,6.51s-6.51-3.82-6.51-6.51c0-4.5,2.91-6.75,6.51-6.51S640.23,609.17,640.23,611.87Z"/><path class="cls-1" d="M665.66,604a6,6,0,0,1-5.35,5.35c-3,.19-5.35-1.68-5.35-5.35a6,6,0,0,1,5.35-5.35C663.26,598.47,665.66,600.34,665.66,604Z"/><path class="cls-1" d="M685.32,593.46c0,2.72-1.76,4.08-3.93,3.93a4.46,4.46,0,0,1-3.93-3.93c0-2.72,1.76-4.08,3.93-3.93A4.46,4.46,0,0,1,685.32,593.46Z"/><path class="cls-1" d="M316.12,580.79c0,3-3.21,6.91-7.17,7.17s-7.17-2.25-7.17-7.17c0-3,3.21-6.91,7.17-7.17S316.12,575.87,316.12,580.79Z"/><path class="cls-1" d="M282.62,573.51c0,4.5-2.91,6.75-6.51,6.51s-6.51-3.82-6.51-6.51c0-4.5,2.91-6.75,6.51-6.51S282.62,570.82,282.62,573.51Z"/><path class="cls-1" d="M253.87,562.6a6,6,0,0,1-5.35,5.35c-3,.19-5.35-1.68-5.35-5.35a6,6,0,0,1,5.35-5.35C251.48,557.06,253.87,558.93,253.87,562.6Z"/><path class="cls-1" d="M390.39,590.59s-77,24.76-144.43-7.66c0,0,9.33,16.69,31,37.72C277,620.65,352.62,615.35,390.39,590.59Z"/><path class="cls-1" d="M609,618.56c0,3-3.21,6.91-7.17,7.17s-7.17-2.25-7.17-7.17c0-3,3.21-6.91,7.17-7.17S609,613.64,609,618.56Z"/><path class="cls-1" d="M703.16,581.15c0,2.72-1.76,4.08-3.93,3.93a4.46,4.46,0,0,1-3.93-3.93c0-2.72,1.76-4.08,3.93-3.93A4.46,4.46,0,0,1,703.16,581.15Z"/><path class="cls-1" d="M283.66,225.78h14.69v27.65h20.82V225.78h14.69v70H319.17V268.12H298.34v27.65H283.66Z"/><path class="cls-1" d="M477.87,297.49l-12.53-28.17-12.61,28.17-32.92-71.71h16.24l17.11,40.61,5.27-12.44-12.61-28.17h14.52l5,11.84,4.92-11.84h14.52l-12.61,28.17,5.27,12.44,17.11-40.61h16.24Z"/><path class="cls-1" d="M546.8,225.78h44.93v14.69H561.49v13h26.78v14.69H561.49v27.65H546.8Z"/><path class="cls-1" d="M638,286.26H613.3l-4,9.5H592.73l32.92-71.71,32.92,71.71H642Zm-7.23-13-6.91-16.59-6.91,16.59Z"/><path class="cls-1" d="M702.54,295.76l-13.65-24.62h-7.17v24.62H667v-70h26.52c12.87,0,22.64,9.68,22.64,22.64,0,9.24-4.84,16.76-12.27,20.39l15.64,27Zm-20.82-39.31h11.84c4.84,0,7.95-3.11,7.95-8s-3.11-7.95-7.95-7.95H681.72Z"/><path class="cls-1" d="M236.43,311.63h14.69v70H236.43Z"/><path class="cls-1" d="M264.45,340.74l2.94-29.11h17.19l-9.85,29.11Z"/><path class="cls-1" d="M295.69,311.63h14.69v55.29h25.05V381.6H295.69Z"/><path class="cls-1" d="M344.76,311.63h14.69v55.29h25.05V381.6H344.76Z"/><path class="cls-1" d="M416.34,346.61a35.94,35.94,0,0,1,62.2-24.45l-10.45,10.45a20.67,20.67,0,0,0-15.64-7,21,21,0,1,0-.09,42,20.68,20.68,0,0,0,11.75-3.54V354H450.64V339.27H478v33.17c-7.43,6.39-16,10-25.48,10A35.89,35.89,0,0,1,416.34,346.61Z"/><g id="cOrWyo.tif"><path class="cls-1" d="M411.19,279.12a29,29,0,0,1-10.44,11.43c-13.25,8.78-31.23,9.3-43.81-.22-8.94-6.77-13.2-19.68-4.25-30.85,4.27-5.33,6.2-11.62,12.41-14.81a38,38,0,0,1,22.41-3.81c5.32.65,8.69,3.63,10.49,8.53a21.38,21.38,0,0,1,.82,12.45,7.61,7.61,0,0,1-7,6,8.46,8.46,0,0,1-2.65-.57c-2.95-.88-5.87-1.85-8.83-2.7-1.08-.31-1.67.31-2.05,1.34-1.93,5.19.19,9.15,5.66,10A24.46,24.46,0,0,0,398,274.34c5.14-2.36,9.66-6.11,10.47-11.76,1-7-1-13.4-5.07-19.14-2.58-3.64-7.61-6.11-11.87-6.9a60.05,60.05,0,0,0-30.14,1.85,12.27,12.27,0,0,0-7.37,6.17c-2.54,5-4.73,10.08-7.07,15.14a2,2,0,0,1-.78,1c-.11-1.16-.32-2.33-.32-3.49-.06-13.08,6.3-22,17.78-27.75a32.13,32.13,0,0,1,12.52-3.21c8.1-.51,16.18-.71,23.77,2.75a24.91,24.91,0,0,1,5.09,3.58c1.73,1.4,3.2,3.13,5,4.46,10.32,7.8,13.21,21.45,6.58,31.59-2.8,4.28-6.84,7.15-11.23,9.55-2.17,1.19-4.4,2.3-6.66,3.31-6,2.66-11.91,1.8-17.75-.38a72.85,72.85,0,0,1-6.7-3.21c-2.4-1.19-3.4-3.32-3.81-5.82a26.52,26.52,0,0,1,1.42-13.19,6,6,0,0,1,5.29-4.09,13.71,13.71,0,0,1,8.13,1.37,8.53,8.53,0,0,1,2.18,1.93,28.25,28.25,0,0,0,2.13,2.57c.65.55,1.74,1.16,2.38,1s1.27-1.31,1.48-2.13c1.05-4.12-1.12-8.9-5-11.35a18.39,18.39,0,0,0-22.85,3.08,3.1,3.1,0,0,0-.7.86c-1.37,3.63-3.24,7.18-3.92,10.94-.82,4.61-.74,10.7,2.11,14.67,2.74,3.81,6.28,6.18,9.5,9.59,2,2.15,5.17,1.87,7.93,2,7.29.34,13.9-2.19,20.37-5.14C404.36,282.58,407.75,280.81,411.19,279.12Z"/></g><g id="cOrWyo.tif-2" data-name="cOrWyo.tif"><path class="cls-1" d="M553.18,364.27a28.9,28.9,0,0,1-10.39,11.38c-13.2,8.75-31.09,9.26-43.62-.22-8.9-6.74-13.15-19.59-4.23-30.72,4.25-5.3,6.17-11.57,12.36-14.75a37.83,37.83,0,0,1,22.31-3.8c5.29.64,8.65,3.61,10.44,8.5a21.29,21.29,0,0,1,.82,12.4,7.58,7.58,0,0,1-7,5.93,8.43,8.43,0,0,1-2.64-.56c-2.93-.88-5.85-1.84-8.79-2.69-1.08-.31-1.66.3-2,1.33-1.92,5.17.19,9.11,5.64,10a24.35,24.35,0,0,0,14-1.51c5.12-2.35,9.62-6.08,10.42-11.71,1-7-1-13.34-5.05-19.05-2.57-3.63-7.57-6.08-11.82-6.87a59.79,59.79,0,0,0-30,1.84,12.21,12.21,0,0,0-7.34,6.14c-2.53,4.93-4.71,10-7,15.07a2,2,0,0,1-.78,1c-.11-1.16-.31-2.32-.32-3.47-.06-13,6.27-21.93,17.71-27.63a32,32,0,0,1,12.47-3.2c8.06-.51,16.1-.71,23.67,2.74a24.8,24.8,0,0,1,5.07,3.56c1.72,1.4,3.19,3.11,4.95,4.44,10.28,7.77,13.15,21.35,6.55,31.45-2.78,4.26-6.81,7.11-11.18,9.51-2.16,1.18-4.38,2.29-6.63,3.3-5.93,2.65-11.85,1.8-17.67-.38a72.53,72.53,0,0,1-6.67-3.19c-2.39-1.18-3.39-3.3-3.8-5.8A26.41,26.41,0,0,1,514,344.13a6,6,0,0,1,5.26-4.08,13.64,13.64,0,0,1,8.1,1.37,8.5,8.5,0,0,1,2.17,1.92,28.13,28.13,0,0,0,2.12,2.56c.64.55,1.73,1.16,2.37,1s1.27-1.3,1.48-2.12c1-4.1-1.11-8.86-5-11.3a18.31,18.31,0,0,0-22.75,3.07,3.09,3.09,0,0,0-.7.86c-1.36,3.62-3.23,7.15-3.9,10.89-.82,4.59-.74,10.65,2.1,14.6,2.72,3.79,6.25,6.15,9.46,9.55,2,2.14,5.14,1.87,7.9,2,7.26.33,13.84-2.18,20.28-5.12C546.38,367.71,549.76,365.95,553.18,364.27Z"/></g><path class="cls-1" d="M658.17,391.89c20.06-.22,35.08,17.67,33.27,37.38A33.78,33.78,0,0,1,657,460c-19.85-.56-34.29-17.52-32.42-37.48C626.19,404.93,641.14,391.51,658.17,391.89Z"/><path class="cls-1" d="M661.16,331.34c5.78,2.34,8.54,8.19,6.91,13.37a73,73,0,0,1-3.54,8.16c-2.49,5.45-5,11-3,17.1,1.07,3.38,3.22,6.43,4.87,9.63a2.7,2.7,0,0,1,.17.7c-4.5,0-8.95-.07-13.39,0-2.53.05-3-1.75-3.39-3.51a24.49,24.49,0,0,1,2.56-17.56c2.52-4.49,5.43-8.78,8.37-13,2.22-3.19,4.22-6,3.21-9.77A17.43,17.43,0,0,0,661.16,331.34Z"/><path class="cls-1" d="M647.42,381.69c-2.71,1.24-4.62,2.23-6.62,2.94-.47.17-1.39-.46-1.91-.93-3.59-3.24-4.31-7.48-3.25-11.85,1.34-5.53-2.44-11.47-2.44-11.47a9.64,9.64,0,0,1,5.18,2.39,11.6,11.6,0,0,1,3.4,7.29C641.93,374.66,642.16,378.82,647.42,381.69Z"/><path class="cls-1" d="M677.44,385.23c-2.69-1.29-4.67-2.12-6.5-3.21-.43-.26-.53-1.36-.51-2.06.2-4.83,3-8.1,7-10.08,5.11-2.51,7.25-9.22,7.25-9.22a9.64,9.64,0,0,1,1.48,5.51,11.6,11.6,0,0,1-3.42,7.28C679.33,376.51,676.28,379.35,677.44,385.23Z"/><path class="cls-1" d="M700.49,410.07c-1.31-2.68-2.34-4.56-3.11-6.54-.18-.47.43-1.4.88-1.93,3.15-3.67,7.37-4.5,11.77-3.55,5.56,1.2,11.4-2.74,11.4-2.74a9.64,9.64,0,0,1-2.26,5.24,11.6,11.6,0,0,1-7.2,3.59C707.39,404.4,703.23,404.74,700.49,410.07Z"/><path class="cls-1" d="M698.12,446.24c1.3-2.68,2.14-4.66,3.23-6.48.26-.43,1.36-.53,2.07-.5,4.83.22,8.08,3,10.05,7.07,2.49,5.12,9.19,7.28,9.19,7.28a9.64,9.64,0,0,1-5.52,1.45,11.6,11.6,0,0,1-7.27-3.45C706.83,448.17,704,445.11,698.12,446.24Z"/><path class="cls-1" d="M668.83,468.84c2.77-1.09,4.73-2,6.77-2.59.48-.14,1.36.53,1.86,1,3.41,3.43,3.91,7.69,2.62,12-1.63,5.45,1.84,11.58,1.84,11.58a9.64,9.64,0,0,1-5-2.66,11.6,11.6,0,0,1-3-7.46C673.95,476.15,673.94,472,668.83,468.84Z"/><path class="cls-1" d="M637.05,464.44c2.61,1.43,4.55,2.37,6.32,3.55.42.28.46,1.39.4,2.09-.45,4.82-3.41,7.93-7.56,9.69-5.23,2.23-7.73,8.82-7.73,8.82A9.64,9.64,0,0,1,627.3,483a11.6,11.6,0,0,1,3.81-7.09C634.7,473,637.9,470.37,637.05,464.44Z"/><path class="cls-1" d="M613.89,437.74c1.13,2.76,2,4.7,2.68,6.73.15.48-.51,1.37-1,1.87-3.38,3.46-7.64,4-12,2.79-5.48-1.55-11.55,2-11.55,2a9.64,9.64,0,0,1,2.59-5.08,11.6,11.6,0,0,1,7.42-3.12C606.65,443,610.81,442.88,613.89,437.74Z"/><path class="cls-1" d="M617.6,402.93c-1.22,2.72-2,4.72-3,6.58-.24.44-1.35.57-2,.56-4.84-.06-8.17-2.77-10.27-6.75-2.65-5-9.41-7-9.41-7a9.64,9.64,0,0,1,5.47-1.63,11.6,11.6,0,0,1,7.37,3.22C608.83,401.28,611.75,404.25,617.6,402.93Z"/><path class="cls-1" d="M722.06,358.8c2.76,5.6.93,11.8-3.74,14.57a73,73,0,0,1-8.07,3.74c-5.49,2.41-11,4.94-13.64,10.74-1.45,3.24-1.87,6.94-2.77,10.43a2.7,2.7,0,0,1-.34.64c-3.35-3-6.63-6-10-8.89-1.92-1.64-1.08-3.31-.19-4.88a24.49,24.49,0,0,1,13.59-11.4c4.87-1.67,9.89-2.94,14.91-4.14,3.78-.9,7.12-1.65,8.9-5.15A17.43,17.43,0,0,0,722.06,358.8Z"/><path class="cls-1" d="M751.48,427.47c-2.33,5.79-8.17,8.56-13.36,6.93a73,73,0,0,1-8.17-3.52c-5.45-2.48-11-4.93-17.1-3-3.38,1.07-6.42,3.23-9.62,4.89a2.7,2.7,0,0,1-.7.17c0-4.5.05-8.95,0-13.39-.06-2.53,1.75-3,3.51-3.4a24.49,24.49,0,0,1,17.56,2.53c4.49,2.52,8.79,5.41,13,8.35,3.19,2.22,6,4.21,9.77,3.2A17.43,17.43,0,0,0,751.48,427.47Z"/><path class="cls-1" d="M721.92,492.4c-5.72,2.49-11.83.36-14.38-4.43a73,73,0,0,1-3.35-8.24c-2.15-5.59-4.41-11.26-10.08-14.14-3.16-1.61-6.84-2.2-10.28-3.27a2.7,2.7,0,0,1-.62-.37c3.15-3.21,6.31-6.34,9.36-9.58,1.73-1.84,3.36-.92,4.88,0a24.49,24.49,0,0,1,10.74,14.12c1.44,4.95,2.47,10,3.42,15.09.72,3.82,1.31,7.19,4.72,9.14A17.43,17.43,0,0,0,721.92,492.4Z"/><path class="cls-1" d="M653.82,518c-5.77-2.38-8.49-8.25-6.82-13.41a73,73,0,0,1,3.59-8.14c2.53-5.43,5-11,3.15-17.08-1-3.39-3.18-6.45-4.8-9.66a2.7,2.7,0,0,1-.16-.71c4.49,0,8.95.13,13.39.07,2.53,0,3,1.77,3.37,3.53a24.49,24.49,0,0,1-2.68,17.54c-2.56,4.47-5.49,8.74-8.46,13-2.25,3.18-4.26,5.94-3.28,9.75A17.43,17.43,0,0,0,653.82,518Z"/><path class="cls-1" d="M587.58,485.55c-1.94-5.93.75-11.81,5.76-13.9a73,73,0,0,1,8.52-2.56c5.77-1.61,11.62-3.33,15-8.7,1.9-3,2.84-6.6,4.22-9.93a2.7,2.7,0,0,1,.43-.58c2.9,3.44,5.71,6.88,8.65,10.22,1.67,1.9.6,3.43-.5,4.86a24.49,24.49,0,0,1-15.07,9.36c-5.06,1-10.21,1.51-15.34,2-3.87.36-7.28.62-9.54,3.84A17.43,17.43,0,0,0,587.58,485.55Z"/><path class="cls-1" d="M564.25,419.11c2.64-5.66,8.62-8.11,13.7-6.21a73,73,0,0,1,8,4c5.32,2.77,10.76,5.51,16.92,3.91,3.43-.89,6.58-2.89,9.87-4.37a2.7,2.7,0,0,1,.71-.13c-.23,4.49-.53,8.93-.66,13.38-.08,2.53-1.9,2.92-3.68,3.21a24.49,24.49,0,0,1-17.4-3.46c-4.35-2.75-8.49-5.87-12.56-9-3.07-2.38-5.74-4.52-9.59-3.71A17.43,17.43,0,0,0,564.25,419.11Z"/><path class="cls-1" d="M599.05,352.52c6-1.75,11.78,1.13,13.7,6.21a73,73,0,0,1,2.28,8.6c1.42,5.82,2.95,11.73,8.21,15.3,2.94,2,6.51,3,9.79,4.54a2.7,2.7,0,0,1,.57.45c-3.53,2.78-7.06,5.49-10.5,8.32-2,1.61-3.45.49-4.84-.65a24.49,24.49,0,0,1-8.87-15.37c-.8-5.09-1.18-10.25-1.49-15.4-.23-3.88-.39-7.29-3.53-9.66A17.43,17.43,0,0,0,599.05,352.52Z"/><path class="cls-1" d="M356.06,623.52l-1.5,1.23-1.93,5.34-1.77-.64,5.75-15.9,1.77.64-2.77,7.68,7-6.15,1.79.65-6.64,5.8,1,10.16-1.82-.66Z"/><path class="cls-1" d="M369.93,618.2c2.52.84,3.11,2.68,2.3,5.11l-.64,1.93c-.84,2.55-2.48,3.48-5,2.64l-1.58-.52-2.1,6.33-1.79-.59L366.42,617Zm-2.83,8.08c1.33.44,2.18,0,2.69-1.5l.71-2.13c.49-1.47.2-2.38-1.11-2.81l-1.72-.57-2.15,6.49Z"/><path class="cls-1" d="M375.17,624.58l-.74-.23,1.21-1.85-.67-.21.7-2.24,1.73.54-.64,2.05Z"/><path class="cls-1" d="M385.58,627.25l-.13.44-1.72-.5.15-.53c.43-1.46.12-2.48-1.18-2.86s-2.11.32-2.52,1.76c-1.06,3.64,4.29,5.58,3,10.15-.72,2.46-2.37,3.71-4.85,3s-3.18-2.66-2.46-5.12l.27-.93,1.69.49-.3,1c-.43,1.46-.07,2.5,1.23,2.87s2.15-.3,2.58-1.77c1.05-3.62-4.27-5.55-2.94-10.12.73-2.51,2.34-3.72,4.78-3S386.3,624.79,385.58,627.25Z"/><path class="cls-1" d="M399.44,630.9c-1.24,4.95-7.24,5.34-8.2,9.11l-.06.26,5.39,1.35-.42,1.66-7.2-1.8.35-1.41c1.32-5.3,7.14-4.94,8.29-9.56.42-1.69.08-2.72-1.28-3.06s-2.16.48-2.53,1.93l-.36,1.45-1.71-.43.33-1.34c.63-2.51,2.19-3.89,4.72-3.25S400.07,628.39,399.44,630.9Z"/><path class="cls-1" d="M407.77,630.28l-5.62-1.23.36-1.65L410,629l-.35,1.61-7.52,14-1.84-.4Z"/><path class="cls-1" d="M411.58,646.58l2.79-14.94-3.06-.57.31-1.69,8,1.49-.32,1.69-3.06-.57-2.79,14.94Z"/><path class="cls-1" d="M421.84,640.65l-1.14,7.53-1.86-.28,2.52-16.73,1.86.28L422.09,639l4.11.62,1.14-7.53,1.86.28-2.52,16.73-1.86-.28,1.14-7.53Z"/><path class="cls-1" d="M436.22,646.8l-1,3.31-1.73-.2,5.14-16.44,2.71.31L442.6,651l-1.87-.21-.26-3.46Zm.42-1.58,3.74.43-.79-9.92Z"/><path class="cls-1" d="M446.35,651.33l-1.68-.16,1.59-16.84,2.38.22,2.75,12.54,1.15-12.17,1.66.16-1.59,16.84-1.95-.18-3-14Z"/><path class="cls-1" d="M457,652.26l-1.69-.12,1.16-16.87,2.39.16,3.07,12.46.84-12.19,1.66.11-1.16,16.87-2-.13-3.38-13.94Z"/><path class="cls-1" d="M468.09,648.93c-.06,1.52.51,2.46,1.88,2.52s2-.84,2.05-2.36l.52-12.92,1.76.07-.51,12.82c-.1,2.56-1.35,4.23-4,4.12s-3.7-1.86-3.59-4.42l.51-12.82,1.86.07Z"/><path class="cls-1" d="M478.44,649.83l-.69,3.4-1.74,0,3.42-16.87,2.73,0,3.06,16.94-1.88,0-.62-3.41Zm.26-1.62,3.77,0-1.8-9.78Z"/><path class="cls-1" d="M487.66,653.29l-.28-16.91,1.88,0,.25,15.19,4.83-.08,0,1.71Z"/><path class="cls-1" d="M365.88,662.69l-3.14-.84,5.35-20,3.14.84-2.29,8.56,3.57,1,2.29-8.56,3.19.86-5.35,20-3.19-.86,2.29-8.56-3.57-1Z"/><path class="cls-1" d="M380.89,645.24,384,646l-4.91,20.08-3.16-.77Z"/><path class="cls-1" d="M389.72,656.72l4.44,1-1.42,6.4c-.72,3.23-2.74,4.71-5.86,4s-4.32-2.9-3.6-6.13l2.34-10.49c.72-3.23,2.74-4.71,5.86-4s4.32,2.9,3.6,6.13l-.44,2-3-.67.48-2.16c.32-1.44-.19-2.13-1.2-2.35s-1.77.18-2.09,1.62l-2.43,10.9c-.32,1.44.2,2.1,1.21,2.33s1.76-.15,2.08-1.59l.83-3.72-1.44-.32Z"/><path class="cls-1" d="M398,670.23l-3.19-.61,3.91-20.3,3.19.61-1.68,8.7,3.62.7,1.68-8.7,3.25.63-3.91,20.3-3.25-.63,1.68-8.7-3.62-.7Z"/><path class="cls-1" d="M421.27,653c3.13.47,4.45,2.58,4,5.85l-.1.64-3-.46.13-.85c.22-1.46-.28-2.1-1.3-2.26s-1.69.31-1.91,1.77c-.63,4.21,5.53,5.94,4.65,11.78-.49,3.27-2.41,4.89-5.56,4.42s-4.51-2.59-4-5.86l.19-1.26,3,.46-.22,1.46c-.22,1.46.34,2.08,1.37,2.24s1.74-.28,2-1.74c.63-4.21-5.53-5.94-4.65-11.78C416.25,654.2,418.14,652.58,421.27,653Z"/><path class="cls-1" d="M436.18,668.34l-.33,2.73c-.4,3.28-2.27,5-5.44,4.57s-4.58-2.46-4.18-5.75l1.3-10.67c.4-3.28,2.27-5,5.44-4.57s4.58,2.46,4.18,5.75l-.24,2-3-.37.27-2.2c.18-1.47-.4-2.1-1.42-2.23s-1.74.35-1.92,1.82l-1.35,11.08c-.18,1.47.4,2.07,1.43,2.2s1.74-.32,1.91-1.79l.36-2.93Z"/><path class="cls-1" d="M441.61,676.62l-3.24-.3,1.88-20.59,3.24.3-.81,8.82,3.68.34.81-8.82,3.29.3-1.88,20.59-3.29-.3.81-8.82-3.68-.34Z"/><path class="cls-1" d="M452.79,661.82c.2-3.3,2.05-5.08,5.24-4.89s4.81,2.18,4.61,5.48L462,673.15c-.2,3.3-2.05,5.08-5.24,4.89s-4.81-2.18-4.61-5.48ZM455.38,673c-.09,1.47.53,2.07,1.56,2.14s1.71-.46,1.8-1.93l.67-11.14c.09-1.47-.53-2.07-1.56-2.13s-1.71.46-1.8,1.93Z"/><path class="cls-1" d="M465.18,662.53c.1-3.31,1.9-5.14,5.08-5.05s4.87,2,4.78,5.34l-.32,10.75c-.1,3.31-1.9,5.14-5.08,5.05s-4.87-2-4.78-5.34Zm2.92,11c0,1.48.59,2.06,1.62,2.09s1.7-.51,1.74-2l.33-11.16c0-1.48-.59-2.06-1.62-2.09s-1.7.51-1.74,2Z"/><path class="cls-1" d="M477.85,657.88h3.25V675.6h5.35v3h-8.59Z"/><path class="cls-1" d="M503.66,670.27l.12,2.74c.14,3.31-1.43,5.27-4.62,5.4s-4.92-1.68-5.06-5l-.46-10.74c-.14-3.3,1.43-5.26,4.62-5.4s4.92,1.68,5.06,5l.09,2-3.07.13-.1-2.21c-.06-1.48-.74-2-1.77-2s-1.66.63-1.59,2.11l.48,11.15c.06,1.48.74,2,1.77,1.93s1.66-.6,1.6-2.08l-.13-3Z"/><path class="cls-1" d="M505.73,662.13c-.25-3.3,1.35-5.32,4.53-5.56s5.06,1.51,5.31,4.81l.81,10.72c.25,3.3-1.35,5.32-4.53,5.56s-5.06-1.51-5.31-4.81Zm4.07,10.68c.11,1.47.8,2,1.83,1.91s1.64-.69,1.52-2.16l-.84-11.13c-.11-1.47-.8-2-1.83-1.91s-1.64.69-1.53,2.16Z"/><path class="cls-1" d="M521.28,661.55l1.64,14.88-2.91.32-2.27-20.55,4.05-.45,4.67,11.93-1.36-12.3,2.88-.32,2.27,20.55-3.32.37Z"/><path class="cls-1" d="M535.35,663.33l4.15-.6.42,2.92-4.15.6L537,674.7l-3.22.46-2.94-20.46,8.51-1.22.42,2.92-5.29.76Z"/><path class="cls-1" d="M546.14,661.15l4.39-.77.51,2.91-4.39.77,1,6,5.53-1,.51,2.91L545,673.49l-3.58-20.36,8.72-1.54.51,2.91-5.53,1Z"/><path class="cls-1" d="M563.55,669.95a6.35,6.35,0,0,1-.81-2.42l-.67-3.18c-.4-1.88-1.18-2.44-2.62-2.13l-1.1.23,1.74,8.23-3.18.67-4.26-20.23,4.8-1c3.29-.69,5,.54,5.69,3.66l.33,1.59c.44,2.08.06,3.58-1.22,4.54,1.73.33,2.57,1.75,3,3.86l.66,3.12a6.08,6.08,0,0,0,.86,2.38Zm-7.12-16.61,1.31,6.21,1.24-.26c1.19-.25,1.8-.92,1.46-2.54l-.42-2c-.3-1.44-.93-2-2.06-1.74Z"/><path class="cls-1" d="M570,656.19l4.33-1.07L575,658l-4.33,1.07,1.45,5.88,5.45-1.34.71,2.87-8.6,2.12-5-20.07,8.6-2.12.71,2.87-5.45,1.34Z"/><path class="cls-1" d="M580.14,650.44l4.1,14.4-2.81.8-5.66-19.88,3.92-1.12,6.6,11-3.39-11.9,2.78-.79,5.66,19.88-3.21.91Z"/><path class="cls-1" d="M601.35,651.54l.85,2.61c1,3.15,0,5.45-3,6.43s-5.19-.31-6.21-3.45l-3.31-10.22c-1-3.15,0-5.45,3-6.44s5.19.31,6.21,3.45l.62,1.91-2.92.95-.68-2.11c-.45-1.4-1.25-1.74-2.23-1.42s-1.43,1.05-1,2.46l3.44,10.62c.46,1.4,1.24,1.71,2.22,1.39s1.44-1,1-2.43l-.91-2.81Z"/><path class="cls-1" d="M605.75,645.46l4.19-1.52,1,2.78-4.19,1.52,2.06,5.69,5.28-1.91,1,2.78-8.33,3-7-19.44,8.33-3,1,2.78L603.79,640Z"/><path class="cls-1" d="M674.07,181.62a35.34,35.34,0,0,1,10-8.38A32,32,0,0,1,696.92,169a28.74,28.74,0,0,1,7,.2,30.42,30.42,0,0,1,6.8,2A35.54,35.54,0,0,1,722,179.35l-4.78.06c.44-.46.76-.76,1.14-1.11s.74-.66,1.12-1c.75-.63,1.53-1.21,2.33-1.78a33.65,33.65,0,0,1,5.07-2.94A25.61,25.61,0,0,1,738.43,170a21.26,21.26,0,0,1,11.09,3.59,26.77,26.77,0,0,1,7.65,8L755,180c-.76-.47-1.46-1-2.23-1.44a31.49,31.49,0,0,0-4.63-2.28,20.42,20.42,0,0,0-9.54-1.34,23.8,23.8,0,0,0-9,3,34.51,34.51,0,0,0-4,2.68c-.64.5-1.27,1-1.87,1.56l-.88.82c-.27.26-.6.58-.77.77l-2.32,2.55-2.46-2.49a35.53,35.53,0,0,0-9.19-6.83,28.91,28.91,0,0,0-5.28-1.9,27.22,27.22,0,0,0-5.64-.7,35.36,35.36,0,0,0-11.69,1.93A57.9,57.9,0,0,0,674.07,181.62Z"/><path class="cls-1" d="M638.89,201.25A25.21,25.21,0,0,1,646,195.3a22.65,22.65,0,0,1,9.12-3,20.38,20.38,0,0,1,5,.14,21.57,21.57,0,0,1,4.83,1.42,25.2,25.2,0,0,1,8,5.75l-3.41,0a17.87,17.87,0,0,1,1.6-1.48c.53-.45,1.09-.86,1.65-1.26a23.85,23.85,0,0,1,3.6-2.09,18.16,18.16,0,0,1,8.21-1.81,15,15,0,0,1,7.86,2.55,18.91,18.91,0,0,1,5.42,5.66,26.9,26.9,0,0,0-6.42-3.76,14.58,14.58,0,0,0-6.76-.94,16.87,16.87,0,0,0-6.35,2.15,24.49,24.49,0,0,0-2.86,1.9c-.45.36-.9.72-1.33,1.1s-.87.81-1.17,1.13l-1.67,1.81-1.74-1.77A25.19,25.19,0,0,0,663,198a20.5,20.5,0,0,0-3.74-1.35,19.3,19.3,0,0,0-4-.5,25.08,25.08,0,0,0-8.28,1.36A40.57,40.57,0,0,0,638.89,201.25Z"/><path class="cls-1" d="M618.66,121a17.23,17.23,0,0,1,4.78-3.89,16.72,16.72,0,0,1,2.9-1.27c.25-.08.51-.17.77-.24l.79-.17a9,9,0,0,1,1.61-.25,9.72,9.72,0,0,1,1.65-.05l1.66.15a13.29,13.29,0,0,1,3.17,1,15.08,15.08,0,0,1,2.86,1.64,26,26,0,0,1,2.45,2.13l-2,0a14.4,14.4,0,0,1,2.15-1.81,14.8,14.8,0,0,1,2.39-1.38,13.8,13.8,0,0,1,2.63-.93,8.2,8.2,0,0,1,1.39-.22c.23,0,.47-.06.7-.07l.71,0a9.54,9.54,0,0,1,5.21,1.64,5.73,5.73,0,0,1,1.08.79c.33.29.66.59,1,.89a23.61,23.61,0,0,1,1.62,2c-.73-.48-1.38-1-2.08-1.46a14.15,14.15,0,0,0-2.19-1.1,9.16,9.16,0,0,0-4.55-.69,11.42,11.42,0,0,0-4.32,1.41,16.66,16.66,0,0,0-3.64,2.79l-1,1-1.09-1-1-.93a8.24,8.24,0,0,0-1.05-.9,12.34,12.34,0,0,0-2.33-1.41,14.49,14.49,0,0,0-2.53-.95l-1.34-.22a13.34,13.34,0,0,0-1.37-.08,16.74,16.74,0,0,0-5.57,1A26.83,26.83,0,0,0,618.66,121Z"/><path class="cls-1" d="M1038.55,157.42l-6.27-10.67h4.26l3.73,7.33,3.76-7.33h4.24L1042,157.42v9.71h-3.44Z"/><path class="cls-1" d="M1050.11,156.94a10.46,10.46,0,1,1,10.46,10.46A10.44,10.44,0,0,1,1050.11,156.94Zm17.47,0a7,7,0,1,0-7,7A7,7,0,0,0,1067.59,156.94Z"/><path class="cls-1" d="M1080,146.75v13.34a3.86,3.86,0,0,0,7.73,0V146.75h3.44v13.34a7.31,7.31,0,0,1-14.61,0V146.75Z"/><path class="cls-1" d="M1107.5,146.22l9.69,13.4,9.69-13.4v20.91h-3.42V156.68l-6.27,8.66-6.25-8.66v10.46h-3.44Z"/><path class="cls-1" d="M1144.58,163.43h-7.73l-1.51,3.71h-3.89l9.27-20.91,9.26,20.91h-3.89Zm-1.32-3.23-2.54-6.19-2.54,6.19Z"/><path class="cls-1" d="M1156.65,157.42l-6.27-10.67h4.26l3.73,7.33,3.76-7.33h4.24l-6.27,10.67v9.71h-3.44Z"/><path class="cls-1" d="M1180.81,146.75h3.44v8.47h7.44v-8.47h3.44v20.38h-3.44v-8.47h-7.44v8.47h-3.44Z"/><path class="cls-1" d="M1201.59,146.75h12.71v3.44H1205v5h8.21v3.44H1205v5h9.27v3.44h-12.71Z"/><path class="cls-1" d="M1232.14,163.43h-7.73l-1.51,3.71H1219l9.27-20.91,9.27,20.91h-3.89Zm-1.32-3.23-2.54-6.19-2.54,6.19Z"/><path class="cls-1" d="M1252.78,167.14l-4.18-7.54h-3v7.54h-3.44V146.75h7.6a6.45,6.45,0,0,1,2.41,12.42l4.63,8Zm-7.23-11h3.89c1.91,0,3.23-1.06,3.23-3s-1.32-3-3.23-3h-3.89Z"/><path class="cls-1" d="M1058.77,209.95H1051l-1.51,3.71h-3.89l9.27-20.91,9.27,20.91h-3.89Zm-1.32-3.23-2.54-6.19-2.54,6.19Z"/><path class="cls-1" d="M1139.15,193.27h3.44v20.38h-3.44Z"/><path class="cls-1" d="M1152.49,201.13v12.52h-3.44V192.74l12.26,13.1V193.27h3.44v21Z"/><path class="cls-1" d="M1170,209.23l3.12-1.4a3.44,3.44,0,0,0,3.39,2.67,2.82,2.82,0,0,0,3-2.89c0-4.08-8.42-3-8.42-9.21a5.25,5.25,0,0,1,5.56-5.4,5.66,5.66,0,0,1,5.53,3.81l-3.1,1.43a2.33,2.33,0,0,0-2.36-2,2.06,2.06,0,0,0-2.22,2.06c0,3.63,8.45,2.75,8.45,9.37a6.05,6.05,0,0,1-6.33,6.25A6.78,6.78,0,0,1,1170,209.23Z"/><path class="cls-1" d="M1188.3,193.27h3.44v20.38h-3.44Z"/><path class="cls-1" d="M1198.2,193.27h5.93a10.19,10.19,0,1,1,0,20.38h-5.93Zm5.93,16.94a6.75,6.75,0,1,0,0-13.5h-2.49v13.5Z"/><path class="cls-1" d="M1220.09,193.27h12.71v3.44h-9.27v5h8.21v3.44h-8.21v5h9.27v3.44h-12.71Z"/><path class="cls-1" d="M1022.14,256.47h-7.73l-1.51,3.71H1009l9.27-20.91,9.27,20.91h-3.89Zm-1.32-3.23-2.54-6.19-2.54,6.19Z"/><path class="cls-1" d="M1035.56,247.65v12.52h-3.44V239.26l12.26,13.1V239.79h3.44v21Z"/><path class="cls-1" d="M1054.27,239.79h5.93a10.19,10.19,0,0,1,0,20.38h-5.93Zm5.93,16.94a6.75,6.75,0,0,0,0-13.5h-2.49v13.5Z"/><path class="cls-1" d="M1086.22,239.79h3.44v20.38h-3.44Z"/><path class="cls-1" d="M1096.11,239.79h12.71v3.44h-9.27v5h8.21v3.44h-8.21v8.47h-3.44Z"/><path class="cls-1" d="M1127.93,243.23h-5.24v-3.44h13.9v3.44h-5.22v16.94h-3.44Z"/><path class="cls-1" d="M1141.67,239.79h3.44v8.47h7.44v-8.47H1156v20.38h-3.44V251.7h-7.44v8.47h-3.44Z"/><path class="cls-1" d="M1162.44,239.79h12.71v3.44h-9.27v5h8.21v3.44h-8.21v5h9.27v3.44h-12.71Z"/><path class="cls-1" d="M1188.59,239.79h4.08l5.19,13,5.19-13h4.08l-9.27,20.91Z"/><path class="cls-1" d="M1209.69,250a10.46,10.46,0,1,1,10.46,10.46A10.44,10.44,0,0,1,1209.69,250Zm17.47,0a7,7,0,1,0-7,7A7,7,0,0,0,1227.16,250Z"/><path class="cls-1" d="M1236.37,239.79h3.44v20.38h-3.44Z"/><path class="cls-1" d="M1245.58,250a10.45,10.45,0,0,1,10.59-10.43,9.84,9.84,0,0,1,4.74,1.19V245a6.64,6.64,0,0,0-4.79-2,7,7,0,1,0,0,13.92,6.43,6.43,0,0,0,4.82-2v4.29a9.84,9.84,0,0,1-4.74,1.19A10.48,10.48,0,0,1,1245.58,250Z"/><path class="cls-1" d="M1266.78,239.79h12.71v3.44h-9.27v5h8.21v3.44h-8.21v5h9.27v3.44h-12.71Z"/><path class="cls-1" d="M995.79,302.27l3.12-1.4a3.44,3.44,0,0,0,3.39,2.67,2.82,2.82,0,0,0,3-2.89c0-4.08-8.42-3-8.42-9.21a5.25,5.25,0,0,1,5.56-5.4,5.66,5.66,0,0,1,5.53,3.81l-3.1,1.43a2.33,2.33,0,0,0-2.36-2,2.06,2.06,0,0,0-2.22,2.06c0,3.63,8.45,2.75,8.45,9.37a6.05,6.05,0,0,1-6.33,6.25A6.78,6.78,0,0,1,995.79,302.27Z"/><path class="cls-1" d="M1017.41,289.75h-5.24v-3.44h13.9v3.44h-5.22V306.7h-3.44Z"/><path class="cls-1" d="M1040,303h-7.73l-1.51,3.71h-3.89l9.27-20.91,9.27,20.91h-3.89Zm-1.32-3.23-2.54-6.19-2.54,6.19Z"/><path class="cls-1" d="M1060.66,306.7l-4.18-7.54h-3v7.54H1050V286.31h7.6a6.45,6.45,0,0,1,2.41,12.42l4.63,8Zm-7.23-11h3.89c1.91,0,3.23-1.06,3.23-3s-1.32-3-3.23-3h-3.89Z"/><path class="cls-1" d="M1073.53,289.75h-5.24v-3.44h13.9v3.44H1077V306.7h-3.44Z"/><path class="cls-1" d="M1085.49,302.27l3.12-1.4a3.44,3.44,0,0,0,3.39,2.67,2.82,2.82,0,0,0,3-2.89c0-4.08-8.42-3-8.42-9.21a5.25,5.25,0,0,1,5.56-5.4,5.66,5.66,0,0,1,5.53,3.81l-3.1,1.43a2.33,2.33,0,0,0-2.36-2,2.06,2.06,0,0,0-2.22,2.06c0,3.63,8.45,2.75,8.45,9.37a6.05,6.05,0,0,1-6.33,6.25A6.78,6.78,0,0,1,1085.49,302.27Z"/><path class="cls-1" d="M1117.7,289.75h-5.24v-3.44h13.9v3.44h-5.22V306.7h-3.44Z"/><path class="cls-1" d="M1129.16,296.5A10.46,10.46,0,1,1,1139.62,307,10.44,10.44,0,0,1,1129.16,296.5Zm17.47,0a7,7,0,1,0-7,7A7,7,0,0,0,1146.63,296.5Z"/><path class="cls-1" d="M1180.46,307.22l-3.84-8.68-3.86,8.68-9.27-20.91h3.81l5.59,13.26,2-4.84-3.73-8.42h3.55l1.88,4.42,1.85-4.42H1182l-3.73,8.42,2,4.84,5.59-13.26h3.81Z"/><path class="cls-1" d="M1194.3,286.31h3.44v8.47h7.44v-8.47h3.44V306.7h-3.44v-8.47h-7.44v8.47h-3.44Z"/><path class="cls-1" d="M1215.08,286.31h3.44V306.7h-3.44Z"/><path class="cls-1" d="M1223.73,302.27l3.12-1.4a3.44,3.44,0,0,0,3.39,2.67,2.82,2.82,0,0,0,3-2.89c0-4.08-8.42-3-8.42-9.21a5.25,5.25,0,0,1,5.56-5.4,5.66,5.66,0,0,1,5.53,3.81l-3.1,1.43a2.33,2.33,0,0,0-2.36-2,2.06,2.06,0,0,0-2.22,2.06c0,3.63,8.45,2.75,8.45,9.37a6.05,6.05,0,0,1-6.33,6.25A6.78,6.78,0,0,1,1223.73,302.27Z"/><path class="cls-1" d="M1242.07,286.31h7.6a6.42,6.42,0,0,1,0,12.84h-4.16v7.54h-3.44Zm7.6,9.4a3,3,0,0,0,0-6h-4.16v6Z"/><path class="cls-1" d="M1260.92,286.31h12.71v3.44h-9.27v5h8.21v3.44h-8.21v5h9.27v3.44h-12.71Z"/><path class="cls-1" d="M1290.09,306.7l-4.18-7.54h-3v7.54h-3.44V286.31h7.6a6.45,6.45,0,0,1,2.41,12.42l4.63,8Zm-7.23-11h3.89c1.91,0,3.23-1.06,3.23-3s-1.32-3-3.23-3h-3.89Z"/><path class="cls-1" d="M1052.22,336.27H1047v-3.44h13.9v3.44h-5.22v16.94h-3.44Z"/><path class="cls-1" d="M1063.68,343a10.46,10.46,0,1,1,10.46,10.46A10.44,10.44,0,0,1,1063.68,343Zm17.47,0a7,7,0,1,0-7,7A7,7,0,0,0,1081.15,343Z"/><path class="cls-1" d="M1184.69,336.27h-5.24v-3.44h13.9v3.44h-5.22v16.94h-3.44Z"/><path class="cls-1" d="M1198.43,332.83h3.44v8.47h7.44v-8.47h3.44v20.38h-3.44v-8.47h-7.44v8.47h-3.44Z"/><path class="cls-1" d="M1219.2,332.83h12.71v3.44h-9.27v5h8.21v3.44h-8.21v5h9.27v3.44H1219.2Z"/><path class="cls-1" d="M1032.2,379.35h12.71v3.44h-9.27v5h8.21v3.44h-8.21v8.47h-3.44Z"/><path class="cls-1" d="M1060.6,396h-7.73l-1.51,3.71h-3.89l9.27-20.91,9.27,20.91h-3.89Zm-1.32-3.23-2.54-6.19-2.54,6.19Z"/><path class="cls-1" d="M1081.24,399.74l-4.18-7.54h-3v7.54h-3.44V379.35h7.6a6.45,6.45,0,0,1,2.41,12.42l4.63,8Zm-7.23-11h3.89c1.91,0,3.23-1.06,3.23-3s-1.32-3-3.23-3H1074Z"/><path class="cls-1" d="M1094.1,382.79h-5.24v-3.44h13.9v3.44h-5.22v16.94h-3.44Z"/><path class="cls-1" d="M1107.84,379.35h3.44v8.47h7.44v-8.47h3.44v20.38h-3.44v-8.47h-7.44v8.47h-3.44Z"/><path class="cls-1" d="M1128.62,379.35h12.71v3.44h-9.27v5h8.21v3.44h-8.21v5h9.27v3.44h-12.71Z"/><path class="cls-1" d="M1145.88,395.31l3.12-1.4a3.44,3.44,0,0,0,3.39,2.67,2.82,2.82,0,0,0,3-2.89c0-4.08-8.42-3-8.42-9.21a5.25,5.25,0,0,1,5.56-5.4,5.66,5.66,0,0,1,5.53,3.81l-3.1,1.43a2.33,2.33,0,0,0-2.36-2,2.06,2.06,0,0,0-2.22,2.06c0,3.63,8.45,2.75,8.45,9.37a6.05,6.05,0,0,1-6.33,6.25A6.78,6.78,0,0,1,1145.88,395.31Z"/><path class="cls-1" d="M1167.5,382.79h-5.24v-3.44h13.9v3.44h-5.22v16.94h-3.44Z"/><path class="cls-1" d="M1190.05,395.31l3.12-1.4a3.44,3.44,0,0,0,3.39,2.67,2.82,2.82,0,0,0,3-2.89c0-4.08-8.42-3-8.42-9.21a5.25,5.25,0,0,1,5.56-5.4,5.66,5.66,0,0,1,5.53,3.81l-3.1,1.43a2.33,2.33,0,0,0-2.36-2,2.06,2.06,0,0,0-2.22,2.06c0,3.63,8.45,2.75,8.45,9.37a6.05,6.05,0,0,1-6.33,6.25A6.78,6.78,0,0,1,1190.05,395.31Z"/><path class="cls-1" d="M1211.68,382.79h-5.24v-3.44h13.9v3.44h-5.22v16.94h-3.44Z"/><path class="cls-1" d="M1234.28,396h-7.73l-1.51,3.71h-3.89l9.27-20.91,9.27,20.91h-3.89ZM1233,392.8l-2.54-6.19-2.54,6.19Z"/><path class="cls-1" d="M1254.93,399.74l-4.18-7.54h-3v7.54h-3.44V379.35h7.6a6.45,6.45,0,0,1,2.41,12.42l4.63,8Zm-7.23-11h3.89c1.91,0,3.23-1.06,3.23-3s-1.32-3-3.23-3h-3.89Z"/><path class="cls-1" d="M989.09,429.31h-5.24v-3.44h13.9v3.44h-5.22v16.94h-3.44Z"/><path class="cls-1" d="M1002.83,425.87h3.44v8.47h7.44v-8.47h3.44v20.38h-3.44v-8.47h-7.44v8.47h-3.44Z"/><path class="cls-1" d="M1034.86,442.55h-7.73l-1.51,3.71h-3.89l9.27-20.91,9.27,20.91h-3.89Zm-1.32-3.23-2.54-6.19-2.54,6.19Z"/><path class="cls-1" d="M1046.26,429.31H1041v-3.44h13.9v3.44h-5.22v16.94h-3.44Z"/><path class="cls-1" d="M1067.65,425.87h4.08l5.19,13,5.19-13h4.08l-9.27,20.91Z"/><path class="cls-1" d="M1088.75,436.06a10.46,10.46,0,1,1,10.46,10.46A10.44,10.44,0,0,1,1088.75,436.06Zm17.47,0a7,7,0,1,0-7,7A7,7,0,0,0,1106.22,436.06Z"/><path class="cls-1" d="M1115.42,425.87h3.44v20.38h-3.44Z"/><path class="cls-1" d="M1124.64,436a10.45,10.45,0,0,1,10.59-10.43,9.84,9.84,0,0,1,4.74,1.19v4.26a6.64,6.64,0,0,0-4.79-2,7,7,0,1,0,0,13.92,6.43,6.43,0,0,0,4.82-2v4.29a9.84,9.84,0,0,1-4.74,1.19A10.48,10.48,0,0,1,1124.64,436Z"/><path class="cls-1" d="M1145.84,425.87h12.71v3.44h-9.27v5h8.21v3.44h-8.21v5h9.27v3.44h-12.71Z"/><path class="cls-1" d="M1174.39,425.87h3.44v20.38h-3.44Z"/><path class="cls-1" d="M1187.74,433.73v12.52h-3.44V425.34l12.26,13.1V425.87H1200v21Z"/><path class="cls-1" d="M1205.2,441.83l3.12-1.4a3.44,3.44,0,0,0,3.39,2.67,2.82,2.82,0,0,0,3-2.89c0-4.08-8.42-3-8.42-9.21a5.25,5.25,0,0,1,5.56-5.4,5.66,5.66,0,0,1,5.53,3.81l-3.1,1.43a2.33,2.33,0,0,0-2.36-2,2.06,2.06,0,0,0-2.22,2.06c0,3.63,8.45,2.75,8.45,9.37a6.05,6.05,0,0,1-6.33,6.25A6.78,6.78,0,0,1,1205.2,441.83Z"/><path class="cls-1" d="M1223.55,425.87H1227v20.38h-3.44Z"/><path class="cls-1" d="M1233.44,425.87h5.93a10.19,10.19,0,0,1,0,20.38h-5.93Zm5.93,16.94a6.75,6.75,0,0,0,0-13.5h-2.49v13.5Z"/><path class="cls-1" d="M1255.33,425.87H1268v3.44h-9.27v5H1267v3.44h-8.21v5H1268v3.44h-12.71Z"/><path class="cls-1" d="M1283.89,425.87h3.44v20.38h-3.44Z"/><path class="cls-1" d="M1292.55,441.83l3.12-1.4a3.44,3.44,0,0,0,3.39,2.67,2.82,2.82,0,0,0,3-2.89c0-4.08-8.42-3-8.42-9.21a5.25,5.25,0,0,1,5.56-5.4,5.66,5.66,0,0,1,5.53,3.81l-3.1,1.43a2.33,2.33,0,0,0-2.36-2,2.06,2.06,0,0,0-2.22,2.06c0,3.63,8.45,2.75,8.45,9.37a6.05,6.05,0,0,1-6.33,6.25A6.78,6.78,0,0,1,1292.55,441.83Z"/><path class="cls-1" d="M1078.26,211.72c-2.26,0-3.65-1.16-3.65-3.5a7.21,7.21,0,0,1,.15-1.42l2.14-10.09h3l-2.14,10.09a4,4,0,0,0-.12,1c0,1,.39,1.69,1.28,1.69,3.29,0,5.22-7.27,5.22-10.54a1.72,1.72,0,0,1-1,.24c-.56,0-.89-.59-.89-1.28a1.62,1.62,0,0,1,1.51-1.72c1.28,0,2,.92,2,2.52C1085.68,203.74,1082.56,211.72,1078.26,211.72Z"/><path class="cls-1" d="M1097.61,201.25a7.58,7.58,0,0,0,4.87-1.78l.27.8a8.31,8.31,0,0,1-5.19,2.43c-.36,5.13-2.79,9-6.44,9-2.58,0-4.63-1.31-4.63-4.69s1.66-10.48,7.78-10.48C1096.6,196.56,1097.58,198.22,1097.61,201.25Zm-1.51,1.54c-1,0-1.19-.5-1.19-1.22a1.34,1.34,0,0,1,1.28-1.51c-.15-1.4-.8-1.87-1.78-1.87-3,0-4.66,5.34-4.66,8.31,0,2,.65,3,2.49,3S1095.68,207,1096.1,202.79Z"/><path class="cls-1" d="M1104.2,196.71,1102,206.8a5.93,5.93,0,0,0-.15,1.34c0,.68.18,1.34.92,1.34.95,0,2-1.22,2.82-3.23h1.1c-1.93,5-3.86,5.49-5.16,5.49-2,0-2.64-1.51-2.64-3.29a11.1,11.1,0,0,1,.27-2.2l2-9.53Zm-.8-6.26a2,2,0,0,1,2,2,2,2,0,0,1-2,2,1.94,1.94,0,0,1-2-2A2,2,0,0,1,1103.4,190.44Z"/><path class="cls-1" d="M1114.5,199.32a1.17,1.17,0,0,0-1.34-1.19c-2.79,0-4.57,5.07-4.57,8.4,0,2,.68,2.94,2.61,2.94a5.94,5.94,0,0,0,5.22-3.23h1c-1.57,2.91-4.51,5.49-7.69,5.49-2.29,0-4.39-1.34-4.39-4.78s2-10.39,7.69-10.39c2,0,3.12.89,3.12,2.82,0,1.37-.56,2.49-1.57,2.49a1,1,0,0,1-1-.62A2.64,2.64,0,0,0,1114.5,199.32Z"/><path class="cls-1" d="M1119.42,205.61c0,.33,0,.62,0,.92,0,2,.68,2.94,2.58,2.94a5.14,5.14,0,0,0,3.53-1.42c-.5,2.91-2.58,3.68-5,3.68s-4.39-1.34-4.39-4.75,2-10.42,7.51-10.42c1.63,0,3.18.62,3.18,3.06C1126.84,202.94,1124,205.14,1119.42,205.61Zm.15-1.16c3.29-.5,5.46-2.46,5.46-5.13,0-.68-.15-1.31-1.1-1.31C1121.74,198,1120.1,201.4,1119.57,204.45Z"/><path class="cls-1" d="M1107.8,337.07h2.37l-.21,1h-2.4l-3.41,16.17c-.89,4.24-2.08,5-4,5s-3.26-.74-3.26-2.67,2.55-3.47,4.75-4.36l3.62-17c.5-2.34,1.54-5.58,5.4-5.58a3.18,3.18,0,0,1,3.41,3.41,5.78,5.78,0,0,1-.09,1h-1.19a2.59,2.59,0,0,0,.09-.71c0-.92-.44-1.84-1.51-1.84-2.11,0-2.7,1.6-3.24,4.1Zm-6.65,17.27.21-.95c-2.17.95-3.35,2.17-3.35,3.23a1.06,1.06,0,0,0,1.1,1.16C1100.21,357.78,1100.71,356.39,1101.16,354.34Z"/><path class="cls-1" d="M1120.77,341.61a7.58,7.58,0,0,0,4.87-1.78l.27.8a8.31,8.31,0,0,1-5.19,2.43c-.36,5.13-2.79,9-6.44,9-2.58,0-4.63-1.31-4.63-4.69s1.66-10.48,7.78-10.48C1119.76,336.92,1120.74,338.58,1120.77,341.61Zm-1.51,1.54c-1,0-1.19-.5-1.19-1.22a1.34,1.34,0,0,1,1.28-1.51c-.15-1.4-.8-1.87-1.78-1.87-3,0-4.66,5.34-4.66,8.31,0,2,.65,3,2.49,3S1118.84,347.34,1119.26,343.15Z"/><path class="cls-1" d="M1128.64,331.13l-3.47,16a5.91,5.91,0,0,0-.15,1.34c0,.68.18,1.34.92,1.34.95,0,2-1.22,2.82-3.23h1.1c-1.93,5-3.86,5.49-5.16,5.49-2,0-2.64-1.51-2.64-3.29a11.13,11.13,0,0,1,.27-2.2l3.24-15Z"/><path class="cls-1" d="M1135,331.13l-3.47,16a5.93,5.93,0,0,0-.15,1.34c0,.68.18,1.34.92,1.34.95,0,2-1.22,2.82-3.23h1.1c-1.93,5-3.86,5.49-5.16,5.49-2,0-2.64-1.51-2.64-3.29a11.1,11.1,0,0,1,.27-2.2l3.23-15Z"/><path class="cls-1" d="M1146,341.61a7.58,7.58,0,0,0,4.87-1.78l.27.8a8.32,8.32,0,0,1-5.19,2.43c-.36,5.13-2.79,9-6.44,9-2.58,0-4.63-1.31-4.63-4.69s1.66-10.48,7.78-10.48C1145,336.92,1146,338.58,1146,341.61Zm-1.51,1.54c-1,0-1.19-.5-1.19-1.22a1.34,1.34,0,0,1,1.28-1.51c-.15-1.4-.8-1.87-1.78-1.87-3,0-4.66,5.34-4.66,8.31,0,2,.65,3,2.49,3S1144.1,347.34,1144.51,343.15Z"/><path class="cls-1" d="M1152.59,337.07l-2.17,10.09a4,4,0,0,0-.12,1c0,1.16.59,1.69,1.34,1.69,1.13,0,2.58-1.19,3-3.23l2-9.53h3l-2.14,10.09a4,4,0,0,0-.12,1c0,1,.39,1.69,1.28,1.69,3.32,0,5-7.45,5-10.54a1.72,1.72,0,0,1-1,.24c-.56,0-.89-.59-.89-1.28a1.62,1.62,0,0,1,1.51-1.72c1.28,0,1.87.92,1.87,2.52,0,5.22-3,13-7.06,13-1.93,0-3.23-.83-3.56-2.52a4.71,4.71,0,0,1-3.8,2.52c-1.78,0-3.26-1.51-3.26-4a7,7,0,0,1,.18-1.51l2-9.53Z"/><path class="cls-1" d="M1061,472.2l-3,13.91a5.54,5.54,0,0,0-.16,1.35c0,1.59.82,2.33,1.84,2.33,1.55,0,3.56-1.64,4.13-4.46l2.78-13.13h4.09l-2.95,13.91a5.54,5.54,0,0,0-.16,1.35c0,1.35.53,2.33,1.76,2.33,4.58,0,6.87-10.27,6.87-14.52a2.37,2.37,0,0,1-1.43.33c-.78,0-1.23-.82-1.23-1.76a2.24,2.24,0,0,1,2.09-2.37c1.76,0,2.58,1.27,2.58,3.48,0,7.2-4.09,18-9.73,18-2.66,0-4.46-1.15-4.91-3.48-1.55,2.41-3.48,3.48-5.24,3.48-2.45,0-4.5-2.09-4.5-5.48a9.63,9.63,0,0,1,.25-2.09l2.78-13.13Z"/><path class="cls-1" d="M1094.84,489.78c1.31,0,2.58-1.51,3.85-4.46h1.51c-2.66,6.87-5.32,7.57-7,7.57-2.82,0-3.93-2-3.93-4.62,0-3.6,2-8,2-10.92,0-1.35-.41-2.25-1.8-2.25-1.72,0-3.23,1.39-4.54,4.38l-2.82,13.17H1078l6-28.06,4.21-.57-2.41,11.25c2.13-2.86,4.13-3.27,5.56-3.27,3.31,0,4.21,2.13,4.21,4.62,0,3.64-2,7.89-2,11.17C1093.62,488.93,1093.86,489.78,1094.84,489.78Z"/><path class="cls-1" d="M1113.62,477.35a1.27,1.27,0,0,0,.41,0,3.31,3.31,0,0,0,2.82-2H1118c-.86,1.88-2.33,4.09-4.46,5-.45,7.16-3.8,12.56-8.88,12.56-3.56,0-6.38-1.8-6.38-6.46S1100.61,472,1109,472C1111.94,472,1113.33,473.87,1113.62,477.35Zm-2,3.35c-1.06,0-1.64-.61-1.64-1.92a2.09,2.09,0,0,1,1.72-2.29c-.29-1.68-1.15-2.25-2.41-2.25-4.13,0-6.42,7.36-6.42,11.45,0,2.82.9,4.09,3.44,4.09S1111,486.39,1111.57,480.7Z"/><path class="cls-1" d="M1133.5,472.2l-3,13.91a5.5,5.5,0,0,0-.16,1.35c0,1.59.82,2.33,1.84,2.33,1.55,0,3.56-1.64,4.13-4.46l2.78-13.13h4.09L1139,491.83c3-.94,4.79-2.41,6.18-6.5h1.51c-1.92,5.73-4.25,7.08-8,8l-.53,2.62c-1.23,5.85-2.86,7-5.56,7-2.49,0-4.5-1-4.5-3.68s3.48-4.78,6.54-6l.53-2.58a5.75,5.75,0,0,1-4.34,2.29c-2.45,0-4.5-2.09-4.5-5.48a9.63,9.63,0,0,1,.25-2.09l2.78-13.13ZM1134,496l.29-1.31c-3,1.31-4.62,3-4.62,4.46a1.46,1.46,0,0,0,1.51,1.6C1132.72,500.75,1133.42,498.82,1134,496Z"/><path class="cls-1" d="M1160.17,478.46a10.45,10.45,0,0,0,6.71-2.45l.37,1.1a11.46,11.46,0,0,1-7.16,3.35c-.49,7.08-3.85,12.43-8.88,12.43-3.56,0-6.38-1.8-6.38-6.46s2.29-14.44,10.72-14.44C1158.78,472,1160.13,474.28,1160.17,478.46Zm-2.09,2.13c-1.35,0-1.64-.69-1.64-1.68a1.84,1.84,0,0,1,1.76-2.09c-.21-1.92-1.1-2.58-2.45-2.58-4.13,0-6.42,7.36-6.42,11.45,0,2.82.9,4.09,3.44,4.09S1157.51,486.35,1158.08,480.58Z"/><path class="cls-1" d="M1178.94,472.2l-3,13.91a9.13,9.13,0,0,0-.16,1.76c0,1.15.33,1.92,1.43,1.92a3.45,3.45,0,0,0,1.31-.25c-.65,2.58-1.76,3.35-3.23,3.35-1.76,0-3.07-1.15-3.27-3.93-1.55,2.74-3.64,3.93-5.48,3.93-2.45,0-4.5-2.09-4.5-5.48a9.63,9.63,0,0,1,.25-2.09l2.78-13.13h4.13l-3,13.91a5.54,5.54,0,0,0-.16,1.35c0,1.59.82,2.33,1.84,2.33,1.55,0,3.56-1.64,4.13-4.46l2.78-13.13Z"/><path class="cls-1" d="M1208.07,472.2l-3,13.91a8.15,8.15,0,0,0-.2,1.84c0,.94.25,1.84,1.27,1.84,1.31,0,2.7-1.68,3.89-4.46h1.51c-2.66,6.83-5.32,7.57-7.12,7.57s-3.07-1.19-3.27-4a7.53,7.53,0,0,1-6.22,4c-2.66,0-5.24-1.8-5.24-6.58,0-5.52,3.6-14.32,10.47-14.32a3.16,3.16,0,0,1,3.35,2.17l.41-2Zm-6.91,13.13,2-9.28a2,2,0,0,0-2-1.8c-4.5,0-7,7.4-7,11.49,0,3.11,1,4,2.58,4C1198.37,489.78,1200.62,487.82,1201.15,485.33Z"/><path class="cls-1" d="M1216.9,472.2l-.74,3.35c1.55-1.72,3.23-3.56,5.48-3.56,1.64,0,2.29.82,2.29,1.92a2.47,2.47,0,0,1-2.37,2.66c-.94,0-.86-1-2-1s-2.62,1-3.76,2l-3.23,15.09h-4.09l4.34-20.45Z"/><path class="cls-1" d="M1227.91,484.47c0,.45,0,.86,0,1.27,0,2.78.94,4,3.56,4a7.08,7.08,0,0,0,4.87-2c-.69,4-3.56,5.07-6.83,5.07s-6.05-1.84-6.05-6.54,2.82-14.36,10.35-14.36c2.25,0,4.38.86,4.38,4.21C1238.13,480.79,1234.25,483.81,1227.91,484.47Zm.2-1.6c4.54-.69,7.53-3.39,7.53-7.08,0-.94-.2-1.8-1.51-1.8C1231.1,474,1228.85,478.66,1228.11,482.87Z"/><path class="cls-1" d="M1090.7,659.55a.07.07,0,0,1-.05,0,.06.06,0,0,1,0-.06,13.32,13.32,0,0,0,1.2-4.61,12,12,0,0,0-.21-2.77.06.06,0,0,1,0-.06c.69-.29,3.22-1.36,7-2.9a86.52,86.52,0,0,1,10.41-2.79c.87-.17,4.55-.77,7-1.15,4-.63,8-1.13,12.48-1.67,1.19-.15,2.42-.25,3.6-.34,1.71-.14,3.49-.29,5.22-.58,4.13-.69,8.52-1.45,12.72-2.58,5.93-1.59,9.75-4.07,12.37-8,1-1.53,1.23-2.55.66-3a.79.79,0,0,0-.51-.18c-.7,0-1.52.79-2.23,1.53l-.18.18a3,3,0,0,1-2.1,1,3.1,3.1,0,0,1-2.69-2c-.16-.33-.37-.84-.58-1.33s-.29-.71-.43-1a.63.63,0,0,0-1-.25,14.34,14.34,0,0,1-5.88,3,4.61,4.61,0,0,1-.76.08.88.88,0,0,1-.73-.23c-.15-.21-.13-.65.07-1.28.32-1,.72-2.06,1.11-3.09.52-1.39,1.07-2.83,1.45-4.19a2.06,2.06,0,0,0-.87-2.43,2,2,0,0,0-.83-.17,2.58,2.58,0,0,0-1.54.52,8,8,0,0,0-2.22,2.82c-.7,1.67-1.2,3.23-1.72,4.88-.29.92-.59,1.87-.93,2.83-.69,2-1.54,2.26-2.27,2.26a3.71,3.71,0,0,1-.79-.1c-.05,0-.11-.19-.07-.79,0-.27,0-.41-.08-.52l-.08-.09h-.13a.32.32,0,0,0-.2.07,13.89,13.89,0,0,1-5.06,2.63,4.67,4.67,0,0,1-1.21.24c-.43,0-.66-.18-1.09-.83a.62.62,0,0,0-.52-.28.6.6,0,0,0-.37.13,13.27,13.27,0,0,1-5,2.66,13.66,13.66,0,0,1-3.86.73h-.25c-1.86,0-2.31-.95-2.88-2.15l-.1-.21a.46.46,0,0,0-.42-.26.47.47,0,0,0-.45.36c-.73,2.95-1.48,5.17-2.28,7.53-.29.87-.6,1.77-.9,2.71s-1,1.62-1.76,1.62a.93.93,0,0,1-1-.84,45.22,45.22,0,0,1,2.09-7c.14-.39.2-.67.07-.87a.38.38,0,0,0-.32-.16,1.35,1.35,0,0,0-.68.3,12.19,12.19,0,0,1-2.66,1.19l-.42.15a4.07,4.07,0,0,1-1.38.29,1.92,1.92,0,0,1-1.42-.58.49.49,0,0,0-.36-.14,3.2,3.2,0,0,0-1.25.49l-.34.17a17.34,17.34,0,0,0-1.59.79,9.14,9.14,0,0,1-2.43,1,3.12,3.12,0,0,1-.78.11,3.24,3.24,0,0,1-2.09-1,.78.78,0,0,0-.5-.2.58.58,0,0,0-.38.14,13.49,13.49,0,0,1-3.23,2l-.11.05a13.25,13.25,0,0,1-2.94,1,2.1,2.1,0,0,1-.46.06.77.77,0,0,1-.58-.2,1.24,1.24,0,0,1-.25-.91,26.64,26.64,0,0,1,1.1-5.27l.07-.23c.5-1.74,1.12-3.48,1.71-5.17l.5-1.41a2.22,2.22,0,0,1,1.81-1.13.78.78,0,0,1,.32.06,1,1,0,0,1,.41.68,11.13,11.13,0,0,1-.58,2.79l-.16.52c-.36,1.24-.58,1.95-.84,2.76-.17.53-.35,1.1-.59,1.91,0,.09-.1.3-.2.57s-.3.83-.45,1.28l-.06.17c-.12.32-.26.67-.08.93a.46.46,0,0,0,.4.19,2.12,2.12,0,0,0,.9-.32,16.35,16.35,0,0,0,4-3.22,4.52,4.52,0,0,0,.7-2.63c0-.39.06-.79.11-1.14a68.61,68.61,0,0,1,4.93-16.56,8.09,8.09,0,0,1,1.36-2.16,2.65,2.65,0,0,1,2-1.05h.09c.68,0,1.1.62,1.28,1.81.63,4.19-.6,8-1.91,12-.17.54-.35,1.07-.52,1.61a19.87,19.87,0,0,1-3.73,6.4c-1,1.22-1.6,2-1.51,2.73a1,1,0,0,0,.44.69l0,0h0a.71.71,0,0,0,.3.06c.9,0,2.83-1.4,4.77-2.91l.05,0a6,6,0,0,0,1.71-2.69c.44-1.19.81-2.42,1.16-3.61.23-.78.47-1.58.73-2.37.58-1.77.91-2.1,2.07-2.1l.66,0a.57.57,0,0,1,.42.25.58.58,0,0,1,.08.49c-.7,2.43-1.44,4.55-2,6.26-.52,1.48-.93,2.65-1.12,3.48-.13.55-.12.82,0,1a.43.43,0,0,0,.35.16,1.8,1.8,0,0,0,.79-.31,10.54,10.54,0,0,0,3.9-3.46,8.69,8.69,0,0,0,.69-2.11,7.55,7.55,0,0,1,.23-.87c.32-.92.58-1.77.85-2.67s.59-1.93,1-3.15c.28-.84.88-1.23,2.13-1.38l.25,0c.49,0,.62.23.68.44a1.64,1.64,0,0,1,0,.33c0,.24,0,.4.09.53l.08.09h.14a.36.36,0,0,0,.25-.11c.84-.8,2.57-2.19,3.73-2.38a2.88,2.88,0,0,1,.46,0c1.83,0,3.28,1.76,3.58,3.38a8.51,8.51,0,0,1-1.43,6.52l-.11.16a9.45,9.45,0,0,0-.72,1.12l-.15.39h.42a26.94,26.94,0,0,0,4.32-3.26,5.37,5.37,0,0,0,1.13-2.55l.11-.4a30.68,30.68,0,0,1,1-3.2c.18-.51.36-1,.56-1.68.6-1.88,1.21-2.24,2.14-2.24a5.47,5.47,0,0,1,1,.11s.07,0,.08.17a15.1,15.1,0,0,1-.73,3l-.15.49c-.63,2.12-1.19,3.86-1.91,6.07l-.16.49c-.18.56-.26,1-.08,1.2a.41.41,0,0,0,.34.17.72.72,0,0,0,.33-.1c.19-.1.36-.21.53-.32l.34-.21c2.27-1.32,3.86-2.43,5.1-5.62a30.48,30.48,0,0,0,1-3.13c.1-.37.2-.74.31-1.12l.19-.66c.58-2.07.84-3,2.57-3l.47,0c.27,0,.36.21.37.77,0,.18,0,.52.33.52h0a.35.35,0,0,0,.25-.12,9.29,9.29,0,0,1,3.13-2.13,3.44,3.44,0,0,1,1-.14,3.61,3.61,0,0,1,2.09.59c1,.75,1.27,2.53,1,3.9a21.74,21.74,0,0,1-1.32,3.87c-.21.5-.42,1-.62,1.54a.78.78,0,0,0,.09.73.8.8,0,0,0,.65.34.78.78,0,0,0,.43-.13c2.59-1.69,2.95-3.19,3.23-5.46.51-4.14,2.78-7.37,7.13-10.19a13,13,0,0,1,6.86-2.46h.2c2.24,0,3.81.73,4.31,2a10,10,0,0,1-.22,5.61c-1.37,4.32-3.34,7.21-6.2,9.09a2.68,2.68,0,0,1-1.41.49h0a1,1,0,0,1-1-.73.64.64,0,0,0-.61-.43.62.62,0,0,0-.49.24l-.09.11a7.67,7.67,0,0,1-1.55,1.58,1.91,1.91,0,0,1-1,.3,1.66,1.66,0,0,1-.57-.1c-.57-.21-.89-1.16-.93-2a22.7,22.7,0,0,1,.09-3.91,13.54,13.54,0,0,1,2.86-6.58,3.24,3.24,0,0,1,2.37-1.36,2.13,2.13,0,0,1,1.38.53.62.62,0,0,0,.4.15.64.64,0,0,0,.46-.2.62.62,0,0,0,.17-.47.07.07,0,0,1,0-.06l0,0h.15a20,20,0,0,1,2.46.21.05.05,0,0,1,0,0,.06.06,0,0,1,0,.06,66.46,66.46,0,0,0-2.45,6.77c-.1.34-.23.71-.37,1.1a19.17,19.17,0,0,0-.71,2.32,1.64,1.64,0,0,0,.1,1.33.54.54,0,0,0,.42.2c.32,0,.68-.26,1.09-.76a11.06,11.06,0,0,0,1.17-2l.11-.22a18.7,18.7,0,0,0,2.23-10.25c-.18-1.86-.94-2.69-2.46-2.69a6.84,6.84,0,0,0-1.38.17c-5.45,1.14-9,4.48-10.73,10.23a10.81,10.81,0,0,0-.13,7.31c.68,1.7,1.48,2.56,2.38,2.56a2.32,2.32,0,0,0,1.6-.91,3.09,3.09,0,0,1,2.26-1h.21a2.56,2.56,0,0,1,1.75.74,1.72,1.72,0,0,1,.32,1.37,9.84,9.84,0,0,1-.72,3,21.6,21.6,0,0,1-12.71,11,96.32,96.32,0,0,1-16.22,3.72c-1.53.26-3.12.53-4.68.81-1.84.34-3.57.6-5.25.85-2.74.41-5.32.79-8.25,1.49-4.64,1.11-7.22,1.86-10,2.66-1.11.33-2.26.66-3.56,1a45.22,45.22,0,0,0-12.7,5.74Zm31.63-35.83a2.12,2.12,0,0,0-.9.2c-3,1.4-3.75,4.12-4.23,6.55a.67.67,0,0,0,0,.13c0,1.92.63,2.9,1.81,2.9a3.87,3.87,0,0,0,1.8-.57,6.94,6.94,0,0,0,2.34-2.35c1.08-1.6,2-3.37,1.17-5.46A2.12,2.12,0,0,0,1122.33,623.72Zm-17.26-8.23c-.27,0-.53.23-1,1.4l-.14.36a27.93,27.93,0,0,0-.92,2.64c-.24.84-.79,2.78-1.37,4.71-.28.95-.76,2.9-1.1,4.42-.72,3.18-.66,3.27-.57,3.39l.09.12h.3l.1-.13a31.4,31.4,0,0,0,5-16.23.77.77,0,0,0-.16-.56A.37.37,0,0,0,1105.07,615.49Zm60.24-1.46c-.28,0-1.27.13-2.19,1.81a20.29,20.29,0,0,0-1.88,4.46l-.07.27a15.82,15.82,0,0,0-.61,3.66,2.19,2.19,0,0,0,.28,1.46.5.5,0,0,0,.37.17l.15,0a2.76,2.76,0,0,0,1.39-1.31l0-.08a16.38,16.38,0,0,0,1.36-2.6c.1-.32.21-.6.31-.87a8.94,8.94,0,0,0,.49-5.1.07.07,0,0,1,0-.07,2.21,2.21,0,0,1,.44,0,3.45,3.45,0,0,0,.7-.05l.25-.05,0-.26S1165.92,614,1165.31,614Z"/><path class="cls-1" d="M1104.5,587c.7-1,1.42-2.09,2-2.81,1-.06,8.28-.48,10.41-.63l.3,0,0-.3s0-.28,0-.5v-.27h-.27c-1.53,0-3.24,0-4.9.05-1.48,0-3,0-4.39,0l1-1.81c2,.15,4.07.27,5.9.37l2.44.14.29,0V581a11.08,11.08,0,0,1,.49-2.8l.09-.27-.27-.09s-.42-.14-1.38-.51c-1.34-.52-3.07-1.26-4.59-1.92l-1.77-.76c0-.37,0-1.2,0-2,1.32.66,2.63,1.34,3.9,2s2.77,1.45,4.14,2.12l.24.12.14-.23c0-.06.08-.15.14-.3s.09-.2.11-.24l.15-.25-.25-.15c-1.1-.65-7.21-4.2-8.83-5.14-.08-.42-.33-1.83-.69-3.74,1.22-.19,2.57-.37,3.85-.5.73.66,5.42,4.89,7.41,6.6l.22.19.19-.23s.21-.26.41-.46l.21-.21-.21-.2-3.33-3.2-3-2.9c1.12-.3,1.82-.45,2.11-.51.63.75,3.88,4.58,5,5.87l.19.22.21-.19a12.18,12.18,0,0,1,2.59-1.74l.24-.12-.1-.25c-.73-1.73-2.7-6.26-3.09-7.17l1.36-1.62,2.8,8.28.09.27.27-.09.13,0,.34-.12.23-.06,0-.24c0-.35-1.91-7.2-2.72-9.76.36-.48,1.7-2.27,2.24-3.07l3.11,2.29c.06.83.36,5.3.48,7,0,.56.06,1.06.08,1.59s0,.86.06,1.35l0,.29.29,0,.34,0h.64v-.29c0-.84,0-2.35-.08-3.94,0-1.76-.09-3.57-.1-4.77.58.33,1.41.85,1.73,1.05-.06,1.08-.11,2.18-.16,3.34-.06,1.37-.12,2.79-.22,4.41l0,.27.27,0a16.22,16.22,0,0,1,3,.73l.26.08.1-.25c.47-1.24.93-2.49,1.37-3.71s.87-2.42,1.34-3.65h2.16c-.63,1.31-1.27,2.57-1.89,3.79s-1.34,2.64-2,4l-.13.27.28.12a2.78,2.78,0,0,1,.51.27l.23.18.17-.24c.25-.35,4.11-7.56,4.82-8.88l3.83-.63.49,3.88c-.67.77-5.14,5.9-6.53,7.58l-.17.2.19.18.18.2.21.22.21.2.2-.21c1.77-1.86,5.09-5.42,6.16-6.58l.61,2.11-6,5.46-.18.16.29.47a14.76,14.76,0,0,1,1.2,2.19l.11.26.26-.11,3.87-1.71,3.72-1.64,1.78,1.44-4.42,1.47-4.56,1.52-.25.09.07.26.08.27.07.26.07.26.26-.05c.52-.1,9.1-2.55,10.32-2.9l3,2.1-53.93,9.44Zm19.07-4.45,2-1.39,2.2.82-.73-2.34,1.34-1.89h-2.28l-1.45-1.86L1124,578l-2.25.75,1.88,1.42Zm10.47-1.81,1.91-1.42,2.32,1-.93-2.36,1.59-1.92-2.47.18-1.33-2.09-.77,2.27-2.35.71,2,1.28Zm-6.18-4.23,1.88-1.41,2.15.85-.66-2.19,1.25-1.91h-2.27L1129,570l-.71,2.14-2.13.67,1.69,1.33Z"/><path class="cls-1" d="M1051.76,650.68c-.46,0-.93,0-1.4,0-3.34-.18-6.88-2.52-7.59-5-1.29-4.57,1.15-8.54,6.23-10.11a9.1,9.1,0,0,1,2.69-.39c.34,0,.7,0,1.06.05l.09-.56c-5.39-1.14-9.63-5.49-12.94-13.33a34,34,0,0,1-2.58-11.43,8.73,8.73,0,0,0-.24-1.44c0-.18-.08-.35-.11-.53a2,2,0,0,0-2-1.79,2.78,2.78,0,0,0-.48,0l-1.22.13c-2.1.2-2.35.31-2.93,3.09a87,87,0,0,1-3.19,11.19c-1.44,4.07-4.52,7-9.15,8.68a16.74,16.74,0,0,1-5.82,1.22,10.14,10.14,0,0,1-2.79-.38c-3.27-.93-5-3-5.45-6.62a9.16,9.16,0,0,1,7.53-10.1,6,6,0,0,1,1-.09c1.87,0,4,.81,4.61,3l-.61-.24c-.44-.18-.86-.34-1.39-.53a5.81,5.81,0,0,0-1.92-.32,7.23,7.23,0,0,0-7,6,5.94,5.94,0,0,0,6.15,7.12,8.11,8.11,0,0,0,2.23-.32c4.77-1.36,7.79-4.72,9.22-10.26,1.06-4.1,2-8.31,2.9-12.38l.51-2.28c.58-2.59,1.11-5.14,1.67-7.84q.38-1.8.76-3.65l.08-.4-.41.06-.5.08-1.32.19-2.85.34c-2,.23-4.14.47-6.19.85-2.85.53-5.75,1.5-7.63,5.06-.67,1.27-1,3.22-.34,4.29a3.39,3.39,0,0,0,3,1.47,4.54,4.54,0,0,0,.8-.07c3.76-.68,5.94-2.69,6.69-6.17a1.2,1.2,0,0,0-.18-1,1.55,1.55,0,0,0-1.23-.44,3.13,3.13,0,0,0-2.39,2.11,3.61,3.61,0,0,1,.08-1.72,3.33,3.33,0,0,1,2.67-2.1,3,3,0,0,1,2.4.78c.47.57.56,1.51.29,3a9.81,9.81,0,0,1-8.06,7.41c-.51.05-1,.08-1.46.08-2.85,0-4.63-1-5.27-3a7.12,7.12,0,0,1,.92-6.06c2.09-3.48,5.46-5.72,10.6-7a61.34,61.34,0,0,1,6.18-1.15c1.71-.26,3.49-.52,5.28-.93a27.92,27.92,0,0,0,3.29-1c.86-.31,1.74-.63,2.6-.88-2.67,5.2-3.76,10.87-4.82,16.36-.17.9-.35,1.8-.53,2.7l-.07.36.37,0a7.9,7.9,0,0,0,6.45-5.32c.74-2,1.31-4,1.85-5.87.48-1.69,1-3.43,1.59-5.13a15.77,15.77,0,0,1,4.1-6l.34-.34.42-.33a8.88,8.88,0,0,1,3.24-1.78,16,16,0,0,0-3.83,5.22,32.09,32.09,0,0,0-1.43,5.91,20,20,0,0,1-5.38,11,16.6,16.6,0,0,1-1.68,1.52l-.89.75-.37.32.47.16c2.63.91,3.87,2.15,4.13,4.16.1.73.13,1.49.17,2.22s.07,1.33.14,2c.47,4.13,3.18,11.74,6.54,14.74l.31.28.14-.4.14-.37c.1-.26.19-.5.27-.76,1.4-4.71,4.64-8,9.89-10a51.33,51.33,0,0,1,9.91-3,34.66,34.66,0,0,1,6-.62c.62,0,1.28,0,2,.06a30.76,30.76,0,0,1,8.48,1.68c.85.31,5.14,2.08,6.26,6.39a6.9,6.9,0,0,1-1.51,6.19,29.82,29.82,0,0,1-13.91,9.81l-.05,0a17.35,17.35,0,0,1-2.67.71l-.3,0a4.15,4.15,0,0,1-.63.07h0c-.49,0-.6-.18-.65-.38-.13-.5.88-.89,2-1.3l.69-.27a30.08,30.08,0,0,0,3.33-1.67l.1-.06c4.62-2.59,7.5-6,8.79-10.49.77-2.64.08-4.75-1.93-5.94a20.32,20.32,0,0,0-4.35-1.89,2.59,2.59,0,0,0-.76-.13,2,2,0,0,0-1.75,1.22l-.23.41a20.21,20.21,0,0,0-1.89,3.88c-.77,2.41-1.89,6.08-2.88,9.33s-1.89,6.19-2.14,6.91a29.28,29.28,0,0,1-2.66,5.89,15.66,15.66,0,0,1-6.79,5.29A23.4,23.4,0,0,1,1051.76,650.68Zm.12-13.88a6.32,6.32,0,0,0-5.5,2.79,5.45,5.45,0,0,0-.81,5.91c1.35,2.59,3.86,3.15,5.89,3.35.37,0,.75.05,1.12.05a13,13,0,0,0,12.07-8.87,61.89,61.89,0,0,0,2-6.6c.41-1.59.84-3.24,1.47-5.19l.43-1.35c1.3-4.13,2.65-8.41,7.2-10.81l-.13-.54a48.77,48.77,0,0,0-7.35.79,27.09,27.09,0,0,0-12,5.27c-1.9,1.43-3.93,3.27-4.55,6.12a3.65,3.65,0,0,0,.55,3.09,3.24,3.24,0,0,0,2.64,1.1h.41a10.67,10.67,0,0,0,4.95-1.14,6.88,6.88,0,0,0,3.47-3.81,2.91,2.91,0,0,0-.08-2.42,1.37,1.37,0,0,0-1.1-.44,2.3,2.3,0,0,0-1.19.31,6.36,6.36,0,0,0-1.84,1.79,2.52,2.52,0,0,1,.16-1.57,4.45,4.45,0,0,1,2.7-2.51,7.25,7.25,0,0,1,.92-.06,2.89,2.89,0,0,1,2.29.82,2.74,2.74,0,0,1,.47,2.24c-.53,4.15-2.91,7.17-7,9a8.61,8.61,0,0,1-2.48.55,10.06,10.06,0,0,1-1,0l-1.31,0-1,0-.1.55.08,0c1.9.69,3.13,1.13,3.94,2.72a14.05,14.05,0,0,0-3.54-1C1053,636.85,1052.44,636.81,1051.88,636.81Z"/><path class="cls-1" d="M1097.19,619.34a2.1,2.1,0,0,1-2-1.66c-.87-3.29.35-6.2,1.66-8.62a14,14,0,0,1,3.87-4l-.27-.5a6.2,6.2,0,0,1-2.18.43,3.37,3.37,0,0,1-3.2-1.81l-.14-.31-.28.19c-3.95,2.76-4.75,3.07-6.47,3.55a4.22,4.22,0,0,1-1.08.17c-.58,0-1.27-.17-1.33-1.49l0-.53-.43.31a19.67,19.67,0,0,1-8.16,3.53,12.76,12.76,0,0,1-1.95.18,5.23,5.23,0,0,1-1.32-.15c-.68-.18-1.23-1.05-1.72-2l-.3-.58-.22.61c-.59,1.68-1.26,3.19-3,3.19a3.46,3.46,0,0,1-.59-.05,6.13,6.13,0,0,0,.1-1.13v-.52l-.44.28c-2.57,1.64-4.49,2.44-5.88,2.44a3.19,3.19,0,0,1-.47,0c-.4-.06-.65-.47-1-1l-.14-.27-.26.16a20.8,20.8,0,0,1-5.41,2.43,2.8,2.8,0,0,1-.78.13c-.6,0-1-.3-1.37-1l-.08-.16h-.29l-.08.08a8.55,8.55,0,0,1-2.8,1.82,4.82,4.82,0,0,1-1.65.32c-1.56,0-2.75-1-3.44-2.76a9.08,9.08,0,0,1,.82-7,10.78,10.78,0,0,1,4.46-4.94,5.89,5.89,0,0,1,2.41-.59,3.29,3.29,0,0,1,3.25,2.66l.16.55.34-.46a8,8,0,0,0,.65-1.16,4.79,4.79,0,0,1,1-1.6,2.5,2.5,0,0,1,1.35-.37,1.4,1.4,0,0,1,.49.07c.42.17.09,1.21,0,1.6-.68,2.16-1.43,4.33-2.16,6.44l-.91,2.66a3.1,3.1,0,0,0-.11.55c0,.14,0,.32-.09.56l0,.13.17.21h.22l.07,0a22.6,22.6,0,0,0,3.45-2.23l.85-.64c.64-.47.87-1,1.56-2.87.46-1.23.94-2.54,1.4-3.81s.87-2.4,1.19-3.23a2.36,2.36,0,0,1,2-1.13,1.09,1.09,0,0,1,.35.05.77.77,0,0,1,.48.33,1,1,0,0,1-.07.72c-.91,2.57-1.5,4.3-2.24,6.5l-.67,2-.21.56c-.3.77-.56,1.43-.61,1.68a.68.68,0,0,0,.06.59.43.43,0,0,0,.35.16,1.24,1.24,0,0,0,.44-.11,15.8,15.8,0,0,0,3.38-2.36,8.71,8.71,0,0,0,2.12-3.11c1.27-3.44,2.49-7,3.67-10.38q.91-2.63,1.83-5.25c.37-1,.69-1.74,1.74-1.9a5,5,0,0,1,.72-.06c.37,0,.61.07.72.21s0,.9-.12,1.35c-.26.85-.57,1.69-.88,2.52-.19.51-.38,1-.56,1.54s-.39,1.09-.63,1.73c-.32.85-.65,1.74-.87,2.41l-.29.89.74-.58a9.62,9.62,0,0,1,3.29-1.76,4,4,0,0,1,1.08-.17,2.39,2.39,0,0,1,2.2,1.5c1.32,2.55,1.17,5.26-.46,8.28-.18.33-.37.65-.62,1.06l-.44.74-.55.93.94-.54,1.29-.72c2.21-1.22,3.55-2,4.26-3.95a62.06,62.06,0,0,1,2.07-5.95c.26-.68.5-1.29.68-1.79a2.28,2.28,0,0,1,2-1.22,1.34,1.34,0,0,1,.75.2,1.25,1.25,0,0,1,.07.84c-.78,2.31-1.6,4.65-2.39,6.91l-.94,2.69c-.1.29-.19.59-.27.88s-.19.66-.31,1l-.26.69.66-.34a25.73,25.73,0,0,0,5-3.54c.21-.19.2-.55.18-1,0-.15,0-.29,0-.43a11.19,11.19,0,0,1,3-7l0,0a12.63,12.63,0,0,1,2.59-2.43,4.12,4.12,0,0,1,2.09-.57,3.71,3.71,0,0,1,3.62,2.65l.07.19h.4l.07-.18c.58-1.52,1.38-2.51,2.2-2.72a2.53,2.53,0,0,1,.59-.07,1.09,1.09,0,0,1,.74.19,1.31,1.31,0,0,1,.05,1.18c-.91,2.67-1.83,5.28-2.81,8l-.9,2.53,0,.15.17.22h.21l.07,0c.35-.21.72-.4,1.07-.58a8,8,0,0,0,2.2-1.46,6.14,6.14,0,0,0,1.66-3.3,11.05,11.05,0,0,1,5.4-8.69,5,5,0,0,1,2.49-.91c1.08,0,2.09.74,3.4,2.48l.05.07.25.08.15-.15,0,0c.15-.23.28-.48.41-.73a3.86,3.86,0,0,1,1-1.37,3.55,3.55,0,0,1,1.58-.43,8.83,8.83,0,0,0,.94-.15c-.15.5-.29,1-.43,1.5-.32,1.12-.65,2.27-1,3.39-.22.66-.45,1.33-.68,2-.54,1.56-1.1,3.17-1.57,4.83l-.2.72.63-.4c.5-.32,1-.6,1.57-.87,1.66-.86,3.38-1.75,4.13-3.92,1.1-3.18,2.08-5.78,3.1-8.18a2.57,2.57,0,0,1,1.53-1.12.9.9,0,0,1,.24,0,3.55,3.55,0,0,1,.93.19l.34.1-.18.66.56-.26c.35-.17.71-.35,1-.53a12,12,0,0,1,2.27-1,3.86,3.86,0,0,1,1-.13c1.64,0,2.67,1.14,2.76,3a8.9,8.9,0,0,1-1.2,5.25,10.94,10.94,0,0,0-1.39,3.78l-.08.65.53-.38c.24-.17,2.34-1.68,3.38-2.61.27-.24.25-.61.24-1,0-.07,0-.13,0-.2-.07-3.94,1.67-7.2,5.32-10a4.07,4.07,0,0,1,5,.35,3.34,3.34,0,0,1,.74,1.38,1.27,1.27,0,0,0,.13.32.46.46,0,0,0,.38.2.41.41,0,0,0,.41-.31,7.72,7.72,0,0,1,1-2.13c.36-.53.5-.72,1.75-.72.52,0,.81.07.91.22s.07.43-.09.83c-1,2.58-1.68,4.59-2.51,6.92l-.83,2.31-.06.13c-.65,1.37-.66,1.6-.54,1.79a.4.4,0,0,0,.35.18c.08,0,.34,0,1-.48s1-.73,1.42-1,.69-.53,1.13-.84l.28-.21a4.09,4.09,0,0,1,1.92-1,.6.6,0,0,1,.53.28c.26.36-.19,1.29-1.38,2.23a17.52,17.52,0,0,1-4.18,2.66l-.51.24a3.7,3.7,0,0,0-1.84,1.33c-.19.34-.64,1.52-1.12,2.81l-.26.69c-.37.94-.65,1.74-.93,2.5a46.61,46.61,0,0,1-2.61,6.14,4.1,4.1,0,0,1-2.1,2.09,2.21,2.21,0,0,1-.64.1c-1.17,0-2-1.13-2.08-2.82a12.79,12.79,0,0,1,3.76-9.83,17.16,17.16,0,0,1,2.93-2.19l-.26-.5a9.49,9.49,0,0,1-3.53,1,2.89,2.89,0,0,1-2.61-1.55l-.17-.29-.26.21a24.2,24.2,0,0,1-3.75,2.58,8.51,8.51,0,0,1-3.47,1l-.36,0c-.42,0-.95-.09-1-.52a5.29,5.29,0,0,1,.48-2l.06-.17c.68-1.53,1.12-2.6,1.59-3.74.28-.68.58-1.4.94-2.26a2.78,2.78,0,0,0-.45-3.23,1.59,1.59,0,0,0-1-.36,3.2,3.2,0,0,0-1.89.91c-1.7,1.43-2.44,3.44-3.15,5.38l-.09.26c-.85,2.32-1.57,4.26-2.39,6.23a2.16,2.16,0,0,1-1.93,1.15,1.44,1.44,0,0,1-.66-.15c-.06,0-.14-.29-.18-.41a2.57,2.57,0,0,0-.11-.31l-.11-.24-.25.09-1.51.55c-1.24.45-2.51.91-3.79,1.33a3.2,3.2,0,0,1-.94.2c-.36,0-.76-.12-.95-1l-.11-.51-.37.36a5.75,5.75,0,0,1-3.87,2,4,4,0,0,1-.68-.06,4.21,4.21,0,0,1-2-.73,1.85,1.85,0,0,0-1.23-.54,2.5,2.5,0,0,0-1.26.45c-.57.35-1.17.68-1.75,1a28.74,28.74,0,0,0-3.18,1.95,5.28,5.28,0,0,0-1.43,2.33l-.09.22c-.55,1.36-1.09,2.75-1.61,4.09-.68,1.76-1.39,3.58-2.13,5.35a8.36,8.36,0,0,1-1.7,2.42A2,2,0,0,1,1097.19,619.34Zm3.35-12.34c-3.65,3-5.39,6.93-4.41,9.92a.42.42,0,0,0,.4.29h0a.42.42,0,0,0,.34-.17c2-2.72,2.95-5.92,4-9.3l.41-1.34Zm-49-6.61a2.55,2.55,0,0,0-1.61.58,7.54,7.54,0,0,0-3,5.91,3.91,3.91,0,0,0,.95,2.84,2.34,2.34,0,0,0,1.72.72,3.7,3.7,0,0,0,1.58-.4,5.92,5.92,0,0,0,2.39-3.46c.51-1.5.83-3.54.21-4.76A2.57,2.57,0,0,0,1051.58,600.39Zm99.27-1.78s-2.92,1.4-4.41,5.8a7.52,7.52,0,0,0-.16,4.48.53.53,0,0,0,.3.3l.13,0h0c.19,0,.67,0,1.88-3.08l.17-.43c.5-1.27,1.35-3.41,2.49-6.74l.22-.63Zm-72.41-2.52a2.79,2.79,0,0,0-1.34.4c-3.18,1.77-4.36,5.56-4.11,8.34a1.58,1.58,0,0,0,1.6,1.57h0a2.22,2.22,0,0,0,.8-.16,8.39,8.39,0,0,0,5-7.21,3.42,3.42,0,0,0-.76-2.46A1.64,1.64,0,0,0,1078.45,596.08Zm23.63-3.94a3.34,3.34,0,0,0-2.32,1.26,7.41,7.41,0,0,0-2,6.05c.19,2,1.14,2.49,1.9,2.55h.29a4.3,4.3,0,0,0,2.84-1,7.94,7.94,0,0,0,2.15-5.7v0a3.24,3.24,0,0,0-1.87-2.91A2.45,2.45,0,0,0,1102.08,592.14Zm17.12-2.66a3.18,3.18,0,0,0-1.36.32c-2.29,1.07-4,5.52-2.92,7.8a2.77,2.77,0,0,0,2.42,1.88h0a3,3,0,0,0,1.64-.57c2.23-1.5,2.6-3.79,2.75-5.83h0V593c0-.1,0-.21,0-.31s0-.47,0-.71A2.54,2.54,0,0,0,1119.2,589.48Zm33.12-5.62a3.08,3.08,0,0,0-1.94.64c-1.86,1.33-2.44,3.35-2.73,6v.08l0,0c.07.2.12.41.17.65a3,3,0,0,0,1.68,2.43,2.66,2.66,0,0,0,1.06.23,3.38,3.38,0,0,0,2.17-1c1.83-1.58,2.18-3.89,2.28-5.72.06-1.12-.42-2.92-2-3.27A3.28,3.28,0,0,0,1152.32,583.86Z"/><path class="cls-1" d="M1067.15,594.56a1.1,1.1,0,0,1-.84-.38,1.2,1.2,0,0,1-.32-.88,4.61,4.61,0,0,1,2.68-4,2.94,2.94,0,0,1,1.06-.27.65.65,0,0,1,.46.14c.51.47.43,1.1.09,2.16a6.07,6.07,0,0,1-2.38,3A1.73,1.73,0,0,1,1067.15,594.56Z"/><path class="cls-1" d="M1092.23,590.43H1092a1.11,1.11,0,0,1-.72-.53,4.45,4.45,0,0,1,1-3.32,3.29,3.29,0,0,1,2.22-1.55h.27c.52,0,.82.08,1,.25a.91.91,0,0,1,.06.75v.06C1095.79,588.19,1094,590.43,1092.23,590.43Z"/><path class="cls-1" d="M1110.83,623.1a.94.94,0,0,1-.69-.29,1.62,1.62,0,0,1-.38-1.18,4.57,4.57,0,0,1,2.73-3.81,2.48,2.48,0,0,1,.79-.16.7.7,0,0,1,.57.22,2.14,2.14,0,0,1,.19,1.6,4.9,4.9,0,0,1-2.51,3.41A1.41,1.41,0,0,1,1110.83,623.1Z"/><path class="cls-1" d="M1093.17,627a.64.64,0,0,1-.48-.18,1.68,1.68,0,0,1-.32-1.18,4.71,4.71,0,0,1,2.65-3.93,2.53,2.53,0,0,1,.92-.24.57.57,0,0,1,.43.15,1.69,1.69,0,0,1,.27,1.16,4.79,4.79,0,0,1-3.08,4.15A1.46,1.46,0,0,1,1093.17,627Z"/><path class="cls-1" d="M1135.11,617.78a2.08,2.08,0,0,1-.52-.05,3.81,3.81,0,0,1-.22-2.17,4.7,4.7,0,0,1,3-3.09,1,1,0,0,1,.35-.07.55.55,0,0,1,.41.17,2.31,2.31,0,0,1,.4,1.57,4.78,4.78,0,0,1-2.69,3.52A1.89,1.89,0,0,1,1135.11,617.78Z"/><path class="cls-1" d="M1203.74,646a.41.41,0,1,1,.41.4A.4.4,0,0,1,1203.74,646Zm.08,1h.64v3.08h-.64Z"/><path class="cls-1" d="M1208.69,648.29v1.87H1208v-1.78c0-.6-.29-.8-.69-.8a.72.72,0,0,0-.74.82v1.76H1206v-3.08h.65v.44a1,1,0,0,1,.92-.5A1.11,1.11,0,0,1,1208.69,648.29Z"/><path class="cls-1" d="M1209.81,649.82l.31-.49a1.52,1.52,0,0,0,.92.36c.31,0,.51-.14.51-.38s-.31-.36-.66-.47-.94-.29-.94-.9.52-.91,1.12-.91a1.87,1.87,0,0,1,1,.31l-.32.46a1.33,1.33,0,0,0-.75-.26c-.28,0-.47.12-.47.33s.35.34.72.45.89.31.89.92-.48,1-1.15,1A2.1,2.1,0,0,1,1209.81,649.82Z"/><path class="cls-1" d="M1213.45,647.09h.65v.45a1.37,1.37,0,0,1,1.11-.51,1.6,1.6,0,0,1,0,3.19,1.37,1.37,0,0,1-1.11-.51v1.89h-.65Zm2.63,1.54a1,1,0,1,0-1,1A1,1,0,0,0,1216.08,648.63Z"/><path class="cls-1" d="M1217.9,646a.41.41,0,1,1,.41.4A.4.4,0,0,1,1217.9,646Zm.08,1h.64v3.08H1218Z"/><path class="cls-1" d="M1221.83,647.06v.62c-.63,0-1,.23-1,.91v1.58h-.65v-3.08h.63v.55A1.24,1.24,0,0,1,1221.83,647.06Z"/><path class="cls-1" d="M1225.83,648.72h-2.58a1,1,0,0,0,1,1,1,1,0,0,0,.87-.48l.53.22a1.53,1.53,0,0,1-1.39.79,1.6,1.6,0,1,1,0-3.2,1.56,1.56,0,0,1,1.59,1.56Zm-2.54-.44h1.88a.91.91,0,0,0-.92-.74A1,1,0,0,0,1223.29,648.27Z"/><path class="cls-1" d="M1229.46,648.93c0-.62.35-.92,1-1.38a1.37,1.37,0,0,1-.43-.93,1,1,0,0,1,2,0c0,.47-.33.74-.73,1.07l.8,1,.62-.78.44.39-.68.85.81,1h-.78l-.45-.58a1.79,1.79,0,0,1-1.26.64A1.26,1.26,0,0,1,1229.46,648.93Zm2.21.19-.87-1.12c-.37.27-.74.52-.74.93a.73.73,0,0,0,.71.71A1.41,1.41,0,0,0,1231.67,649.12Zm-.21-2.52a.44.44,0,0,0-.45-.44.42.42,0,0,0-.45.44c0,.26.17.42.37.66C1231.21,647.06,1231.45,646.9,1231.45,646.6Z"/><path class="cls-1" d="M1240.2,648.72h-2.58a1,1,0,0,0,1,1,1,1,0,0,0,.87-.48l.53.22a1.53,1.53,0,0,1-1.39.79,1.6,1.6,0,1,1,0-3.2,1.56,1.56,0,0,1,1.59,1.56Zm-2.54-.44h1.88a.91.91,0,0,0-.92-.74A1,1,0,0,0,1237.66,648.27Z"/><path class="cls-1" d="M1245.75,648.06v2.1h-.65v-1.9c0-.48-.26-.67-.58-.67s-.61.24-.61.69v1.88h-.65v-1.9c0-.48-.26-.67-.58-.67s-.61.24-.61.69v1.88h-.65v-3.08h.65v.43a1,1,0,0,1,.87-.49.88.88,0,0,1,.85.49,1,1,0,0,1,.91-.49A1,1,0,0,1,1245.75,648.06Z"/><path class="cls-1" d="M1247.19,647.09h.65v.45a1.37,1.37,0,0,1,1.11-.51,1.6,1.6,0,0,1,0,3.19,1.37,1.37,0,0,1-1.11-.51v1.89h-.65Zm2.63,1.54a1,1,0,1,0-1,1A1,1,0,0,0,1249.83,648.63Z"/><path class="cls-1" d="M1251.46,648.62a1.65,1.65,0,1,1,1.64,1.6A1.6,1.6,0,0,1,1251.46,648.62Zm2.66,0a1,1,0,1,0-1,1A1,1,0,0,0,1254.12,648.62Z"/><path class="cls-1" d="M1260.56,647.09l-1.13,3.08h-.5l-.85-2.19-.86,2.19h-.51l-1.12-3.08h.69l.74,2.18.86-2.18h.41l.86,2.18.74-2.18Z"/><path class="cls-1" d="M1264.6,648.72H1262a1,1,0,0,0,1,1,1,1,0,0,0,.87-.48l.53.22a1.53,1.53,0,0,1-1.39.79,1.6,1.6,0,1,1,0-3.2,1.56,1.56,0,0,1,1.59,1.56Zm-2.54-.44h1.88a.91.91,0,0,0-.92-.74A1,1,0,0,0,1262.06,648.27Z"/><path class="cls-1" d="M1267.52,647.06v.62c-.63,0-1,.23-1,.91v1.58h-.65v-3.08h.63v.55A1.24,1.24,0,0,1,1267.52,647.06Z"/><path class="cls-1" d="M1229.42,585.78a3.47,3.47,0,0,1-.5.52,3.3,3.3,0,0,1-.64.42,3.6,3.6,0,0,1-.79.28,4.09,4.09,0,0,1-.95.1,3.74,3.74,0,0,1-1.33-.23,3,3,0,0,1-1-.63,2.85,2.85,0,0,1-.66-1,3.31,3.31,0,0,1-.24-1.27,4.63,4.63,0,0,1,.33-1.76,4.47,4.47,0,0,1,.92-1.43,4.35,4.35,0,0,1,1.37-1,4,4,0,0,1,1.68-.35,3.6,3.6,0,0,1,.77.08,3.3,3.3,0,0,1,.69.23,2.86,2.86,0,0,1,.57.35,1.74,1.74,0,0,1,.41.46l-.83.6a1.47,1.47,0,0,0-.23-.31,1.67,1.67,0,0,0-.35-.28,2,2,0,0,0-.48-.2,2.14,2.14,0,0,0-.59-.08,2.83,2.83,0,0,0-1.3.3,3.38,3.38,0,0,0-1,.79,3.58,3.58,0,0,0-.67,1.12,3.69,3.69,0,0,0-.24,1.3,2.8,2.8,0,0,0,.15.92,2.15,2.15,0,0,0,.44.75,2,2,0,0,0,.72.51,2.48,2.48,0,0,0,1,.18,2.75,2.75,0,0,0,1.15-.25,2.71,2.71,0,0,0,1-.77Z"/><path class="cls-1" d="M1236,587.11a4.09,4.09,0,0,1-1.38-.22,3,3,0,0,1-1.06-.63,2.79,2.79,0,0,1-.68-1,3.34,3.34,0,0,1-.24-1.29,4.69,4.69,0,0,1,.32-1.75,4.48,4.48,0,0,1,.89-1.42,4.22,4.22,0,0,1,1.34-1,3.94,3.94,0,0,1,1.67-.35,4,4,0,0,1,1.35.22,3,3,0,0,1,1.05.63,2.82,2.82,0,0,1,.68,1,3.31,3.31,0,0,1,.24,1.29,4.87,4.87,0,0,1-.31,1.75,4.37,4.37,0,0,1-.87,1.43,4.16,4.16,0,0,1-1.33,1A3.94,3.94,0,0,1,1236,587.11Zm3.14-4.41a2.67,2.67,0,0,0-.15-.91,2.19,2.19,0,0,0-.45-.75,2.08,2.08,0,0,0-.73-.51,2.55,2.55,0,0,0-1-.18,2.74,2.74,0,0,0-1.28.3,3.16,3.16,0,0,0-1,.8,3.62,3.62,0,0,0-.63,1.13,3.92,3.92,0,0,0-.22,1.3,2.68,2.68,0,0,0,.15.91,2.22,2.22,0,0,0,.45.75,2,2,0,0,0,.73.51,2.57,2.57,0,0,0,1,.18,2.8,2.8,0,0,0,1.29-.3,3,3,0,0,0,1-.79,3.68,3.68,0,0,0,.62-1.13A4,4,0,0,0,1239.11,582.7Z"/><path class="cls-1" d="M1244.18,586.92h-1l1.28-7.25h2.06a3.77,3.77,0,0,1,1,.12,2.22,2.22,0,0,1,.75.35,1.58,1.58,0,0,1,.48.56,1.68,1.68,0,0,1,.17.77,2.09,2.09,0,0,1-.15.83,1.91,1.91,0,0,1-.42.62,2.13,2.13,0,0,1-.63.42,3.28,3.28,0,0,1-.81.24l1.55,3.34h-1.13l-1.44-3.23h-1.12Zm.71-4.06H1246a4.15,4.15,0,0,0,.73-.06,1.77,1.77,0,0,0,.59-.21,1.07,1.07,0,0,0,.55-1,.88.88,0,0,0-.4-.82,2.11,2.11,0,0,0-1.1-.25h-1.06Z"/><path class="cls-1" d="M1252.88,586h3.76l-.15.88h-4.75l1.28-7.25h4.46l-.15.88h-3.48l-.38,2.19h3.32l-.15.85h-3.32Z"/><path class="cls-1" d="M1247.13,588a12.64,12.64,0,0,0-9.95,4.88V588.6h-7.06l-11.41,9.69V578.91h-3.78v35h3.77V603l11.92,10.93h3.2v8.88h3.37V609.42a12.64,12.64,0,0,0,9.95,4.88,13.14,13.14,0,0,0,0-26.27Zm-13.32,23.63-12.56-11.16,12.56-10.74Zm12.95-.6a9.83,9.83,0,1,1,9.53-9.83A9.68,9.68,0,0,1,1246.76,611.07Z"/><path class="cls-1" d="M1235.7,634.52a35.61,35.61,0,1,1,35.61-35.61A35.65,35.65,0,0,1,1235.7,634.52Zm0-70.27a34.66,34.66,0,1,0,34.66,34.66A34.7,34.7,0,0,0,1235.7,564.25Z"/><path class="cls-1" d="M1235.81,639a40.08,40.08,0,1,1,40.08-40.08A40.12,40.12,0,0,1,1235.81,639Zm0-77.54a37.46,37.46,0,1,0,37.46,37.46A37.5,37.5,0,0,0,1235.81,561.48Z"/><path class="cls-1" d="M1235.83,641.77a42.87,42.87,0,1,1,42.87-42.87A42.92,42.92,0,0,1,1235.83,641.77Zm0-84.78a41.91,41.91,0,1,0,41.91,41.91A42,42,0,0,0,1235.83,557Z"/><g class="cls-2"><path class="cls-3" d="M128.94,483.78v-23h6.24v16.8h9.12V462.66h6.24v14.88H165.9v6.24Z"/><path class="cls-3" d="M165.9,434.29l-13.68,7.58v5.52H165.9v6.24h-37V439.86a11.7,11.7,0,0,1,22.51-4.37l14.45-8.4ZM146,447.4v-7.06c0-3.46-1.92-5.86-5.42-5.86s-5.38,2.4-5.38,5.86v7.06Z"/><path class="cls-3" d="M147.42,422.49a19,19,0,1,1,19-19A18.94,18.94,0,0,1,147.42,422.49Zm0-31.68a12.72,12.72,0,1,0,12.72,12.72A12.71,12.71,0,0,0,147.42,390.8Z"/><path class="cls-3" d="M143.19,370.26H165.9v6.24H128l23.76-22.23h-22.8V348h38Z"/><path class="cls-3" d="M135.18,331.82v9.5h-6.24v-25.2h6.24v9.46H165.9v6.24Z"/></g><g class="cls-2"><path class="cls-3" d="M880.24,462.83V450.21a10.79,10.79,0,0,1,10.8-10.8,8.87,8.87,0,0,1,6.43,2.59,9.91,9.91,0,0,1,8.93-5.23,10.82,10.82,0,0,1,10.8,10.8v15.27Zm15.55-12.62a4.54,4.54,0,0,0-4.61-4.56,4.62,4.62,0,0,0-4.7,4.56v6.38h9.31ZM911,447.57a4.62,4.62,0,0,0-4.71-4.56,4.54,4.54,0,0,0-4.61,4.56v9H911Z"/><path class="cls-3" d="M910.48,410.51v14l6.72,2.74v7.06l-37.92-16.8,37.92-16.8v7.06Zm-5.86,2.4-11.23,4.61,11.23,4.61Z"/><path class="cls-3" d="M898.67,398.46a19,19,0,0,1-18.91-19.2,17.83,17.83,0,0,1,2.16-8.59h7.73a12,12,0,0,0-3.55,8.69,12.63,12.63,0,1,0,25.25,0,11.66,11.66,0,0,0-3.6-8.74h7.78a17.84,17.84,0,0,1,2.16,8.59A19,19,0,0,1,898.67,398.46Z"/><path class="cls-3" d="M917.2,343.65l-19.54,12.53H917.2v6.24h-37v-6.24h16.32l-16.32-12.24v-7.58l16.85,12.91,20.11-13.15Z"/></g></g></svg>