<?xml version="1.0" encoding="UTF-8"?>
<svg width="1280px" height="503px" viewBox="0 0 1280 503" version="1.1" xmlns="http://www.w3.org/2000/svg" xmlns:xlink="http://www.w3.org/1999/xlink" style="background: #90D3CF;">
    <!-- Generator: Sketch 49.3 (51167) - http://www.bohemiancoding.com/sketch -->
    <title>icon</title>
    <desc>Created with Sketch.</desc>
    <defs></defs>
    <g id="icon" stroke="none" stroke-width="1" fill="none" fill-rule="evenodd">
        <path d="M921.148512,5.58872359 C899.403897,5.58872359 881.612849,27.7286953 881.612849,55.0083033 C881.612849,82.2879113 899.403897,104.427883 921.148512,104.427883 C942.893128,104.427883 960.684176,82.2879113 960.684176,55.0083033 C960.684176,27.7286953 942.893128,5.58872359 921.148512,5.58872359 Z M879.833744,104.427883 C858.879842,105.416275 842.077185,122.614288 842.077185,143.963547 L842.077185,163.731379 L1000.21984,163.731379 L1000.21984,143.963547 C1000.21984,122.614288 983.614861,105.416275 962.463281,104.427883 C951.788652,116.48626 937.160456,124.195715 921.148512,124.195715 C905.136569,124.195715 890.508373,116.48626 879.833744,104.427883 Z" id="Shape" fill="#303030" fill-rule="nonzero"></path>
        <path d="M347.216288,5.84255068 L347.216288,28.3618365 L437.293431,28.3618365 L437.293431,140.958266 L347.216288,140.958266 L347.216288,163.477552 L459.812717,163.477552 L459.812717,5.84255068 L347.216288,5.84255068 Z M369.735573,50.8811224 L369.735573,73.4004082 L279.65843,73.4004082 L279.65843,95.9196941 L369.735573,95.9196941 L369.735573,118.43898 L414.774145,84.6600511 L369.735573,50.8811224 Z" id="Shape" fill="#303030" fill-rule="nonzero"></path>
        <polygon id="Shape" fill="#FFFFFF" fill-rule="nonzero" points="653.679164 55.3172727 646.08472 62.8610343 662.559356 79.3356706 618.934647 79.3356706 618.934647 89.9844317 662.559356 89.9844317 646.08472 106.459068 653.679164 114.00283 682.955255 84.6600511"></polygon>
        <polygon id="Shape-Copy" fill="#FFFFFF" fill-rule="nonzero" points="653.546929 376.58553 645.952557 384.160377 662.427036 400.7029 618.802743 400.7029 618.802743 411.395541 662.427036 411.395541 645.952557 427.938063 653.546929 435.51291 682.82274 406.04922"></polygon>
        <polygon id="Shape" fill="#303030" fill-rule="nonzero" points="886.759759 327.04922 886.759759 485.04922 926.259759 445.54922 965.759759 485.04922 965.759759 327.04922"></polygon>
        <path d="M337.857327,327.04922 C325.115392,327.04922 313.763486,332.377666 305.191638,340.717842 C296.851462,349.058018 291.523016,360.409924 291.523016,373.383531 C291.523016,386.125467 296.851462,397.477373 305.191638,406.04922 L384.191638,485.04922 L463.191638,406.04922 C471.531814,397.709044 476.86026,386.357138 476.86026,373.383531 C476.86026,360.641596 471.531814,349.289689 463.191638,340.717842 C454.851462,332.377666 443.499556,327.04922 430.525949,327.04922 C417.784013,327.04922 406.432107,332.377666 397.86026,340.717842 C389.520084,349.058018 384.191638,360.409924 384.191638,373.383531 C384.191638,360.641596 378.863192,349.289689 370.523016,340.717842 C362.18284,332.377666 350.830934,327.04922 337.857327,327.04922 Z" id="Shape" fill="#303030" fill-rule="nonzero"></path>
    </g>
</svg>