<?xml version="1.0" encoding="utf-8"?>
<!-- Generator: Adobe Illustrator 21.1.0, SVG Export Plug-In . SVG Version: 6.00 Build 0)  -->
<svg version="1.1" id="Layer_1" xmlns="http://www.w3.org/2000/svg" xmlns:xlink="http://www.w3.org/1999/xlink" x="0px" y="0px"
	 viewBox="0 0 24 25" style="enable-background:new 0 0 24 25;" xml:space="preserve">
<style type="text/css">
	.st0{fill:#272A2C;}
</style>
<title>Shape</title>
<desc>Created with Sketch.</desc>
<g id="project" transform="translate(-1321.000000, -2196.000000)">
	<path id="Shape" class="st0" d="M1333,2196.3c-6.6,0-12,5.4-12,12s5.4,12,12,12s12-5.4,12-12S1339.6,2196.3,1333,2196.3z
		 M1342.9,2207.7c-2.6-0.4-4.9-0.4-7.1-0.1c-0.2-0.6-0.5-1.1-0.8-1.7c2.3-1,4.2-2.4,5.5-4.1
		C1341.9,2203.5,1342.8,2205.5,1342.9,2207.7z M1339,2200.5c-1.2,1.6-2.9,2.8-5,3.7c-1-1.9-2.2-3.7-3.5-5.4c0.8-0.2,1.6-0.3,2.4-0.3
		C1335.3,2198.4,1337.4,2199.2,1339,2200.5z M1328.5,2199.5c1.3,1.7,2.5,3.5,3.5,5.4c-2.4,0.7-5.3,1.1-8.7,1.1
		C1324.1,2203.1,1326,2200.8,1328.5,2199.5z M1323.1,2208.3l0-0.3c3.8,0,7.2-0.4,10-1.3c0.2,0.5,0.5,1,0.7,1.4
		c-3.4,1.1-6.2,3.2-8.3,6.5C1324,2212.9,1323.1,2210.7,1323.1,2208.3z M1326.9,2216.1c2-3.1,4.5-5.1,7.6-6c0.9,2.4,1.6,4.9,2,7.5
		C1333.2,2218.8,1329.6,2218.2,1326.9,2216.1z M1338.5,2216.5c-0.4-2.4-1.1-4.7-1.9-6.9c1.9-0.3,3.9-0.2,6.2,0.2
		C1342.3,2212.6,1340.8,2215,1338.5,2216.5z"/>
</g>
</svg>
