<?xml version="1.0" encoding="UTF-8"?>
<svg width="59px" height="59px" viewBox="0 0 59 59" version="1.1" xmlns="http://www.w3.org/2000/svg" xmlns:xlink="http://www.w3.org/1999/xlink">
    <!-- Generator: Sketch 52.5 (67469) - http://www.bohemiancoding.com/sketch -->
    <title>dribbble</title>
    <desc>Created with Sketch.</desc>
    <g id="Page-1" stroke="none" stroke-width="1" fill="none" fill-rule="evenodd">
        <g id="Desktop-HD" transform="translate(-970.000000, -587.000000)">
            <g id="dribbble" transform="translate(970.000000, 587.000000)">
                <circle id="Oval-Copy" fill="#272A2C" cx="29.5" cy="29.5" r="29.5"></circle>
                <g id="Group-2" transform="translate(15.000000, 15.000000)" fill="#FFFFFF" fill-rule="nonzero">
                    <path d="M13.6375,9.9625 C10.09,11.005 5.8625,11.5425 0.97,11.5775 C1.9825,7.4425 4.765,4.0025 8.4775,2.1175 C10.42,4.6575 12.1375,7.275 13.6375,9.9625 Z" id="Path"></path>
                    <path d="M16.05,14.7875 C15.74,14.0875 15.415,13.39 15.0725,12.7 C11.0175,13.975 6.17,14.6225 0.5625,14.63 L0.5425,15 C0.5425,18.51 1.8025,21.73 3.8925,24.2375 C7.0575,19.485 11.12,16.3275 16.05,14.7875 Z" id="Path"></path>
                    <path d="M6.125,26.39 C10.0475,29.4525 15.3025,30.3625 20.185,28.48 C19.555,24.76 18.56,21.13 17.21,17.6 C12.6625,18.955 8.9975,21.885 6.125,26.39 Z" id="Path"></path>
                    <path d="M23.8125,3.565 C21.37,1.68 18.32,0.5425 15,0.5425 C13.775,0.5425 12.59,0.7125 11.455,1.0025 C13.365,3.5725 15.0575,6.2175 16.5425,8.9325 C19.6325,7.6225 22.0525,5.8325 23.8125,3.565 Z" id="Path"></path>
                    <path d="M17.94,11.6275 C18.3325,12.4375 18.7025,13.255 19.0575,14.0775 C22.2075,13.535 25.66,13.5675 29.415,14.1825 C29.2325,10.9525 28,7.9975 26.03,5.675 C24.0125,8.1875 21.305,10.17 17.94,11.6275 Z" id="Path"></path>
                    <path d="M20.225,16.9575 C21.4475,20.23 22.3875,23.585 23.0225,27.015 C26.3025,24.815 28.625,21.305 29.265,17.2425 C25.9725,16.6725 22.96,16.5725 20.225,16.9575 Z" id="Path"></path>
                </g>
            </g>
        </g>
    </g>
</svg>