<?xml version="1.0" encoding="utf-8"?>
<!-- Generator: Adobe Illustrator 21.1.0, SVG Export Plug-In . SVG Version: 6.00 Build 0)  -->
<svg version="1.1" id="Layer_1" xmlns="http://www.w3.org/2000/svg" xmlns:xlink="http://www.w3.org/1999/xlink" x="0px" y="0px"
	 viewBox="0 0 33 27" style="enable-background:new 0 0 33 27;" xml:space="preserve">
<style type="text/css">
	.st0{fill:#272A2C;}
</style>
<title>Group 7</title>
<desc>Created with Sketch.</desc>
<g id="Desktop-HD" transform="translate(-1252.000000, -1872.000000)">
	<g id="Group-7" transform="translate(1252.000000, 1872.000000)">
		<path id="Shape" class="st0" d="M31.9,13.2C31.9,13.2,31.9,13.2,31.9,13.2c0.1,0,0.1,0,0.1-0.1c0-0.1,0-0.1-0.1-0.1
			c-1.5-0.3-2.6-0.6-6.2-0.5c0.2-0.8,0.4-1.8,0.4-3c0-3.2-1.5-4.3-1.8-4.9c0.4-2.4-0.1-3.5-0.3-3.9c-0.9-0.3-3,0.8-4.2,1.6
			c-1.9-0.6-6-0.5-7.5,0.1c-2.8-2-4.3-1.7-4.3-1.7S7,2.3,7.7,4.8C6.7,6,6.1,6.8,6.1,9.1c0,1.2,0.1,2.4,0.5,3.3c-1.5,0-4.6,0.2-6,0.6
			c-0.1,0-0.1,0.1-0.1,0.1c0,0,0.1,0.1,0.1,0.1c0,0,0,0,0,0c1.5-0.4,4.6-0.6,6-0.5c0.1,0.2,0.2,0.4,0.3,0.6c-3.6,0.1-4.5,0.6-6,1
			c-0.1,0-0.2,0.1-0.3,0.1c-0.1,0-0.1,0.1-0.1,0.1c0,0,0.1,0.1,0.1,0.1c0,0,0,0,0,0c0.1,0,0.2-0.1,0.3-0.1c1.5-0.4,2.5-0.9,6.1-1
			c1.1,1.9,3.1,3.1,6.5,3.4c-0.5,0.4-1.1,1.1-1.2,1.9c-0.6,0.4-1.9,0.5-2.8,0.2c-1.4-0.4-1.9-3.1-3.9-2.7c-0.4,0.1-0.4,0.4,0,0.6
			c0.6,0.4,1.2,0.9,1.6,2c0.3,0.8,1.1,2.3,3.4,2.3c0.9,0,1.5-0.1,1.5-0.1s0,2.1,0,2.9c0,0.9-1.3,1.2-1.3,1.6c0,0.2,0.4,0.2,0.8,0.2
			c0.7,0,2-0.6,2-1.5c0-0.8,0-3.4,0-3.8c0-1,0.5-1.3,0.5-1.3s0.1,5.3-0.1,6c-0.2,0.8-0.6,0.7-0.6,1.1c0,0.6,1.7,0.1,2.2-1.1
			C16.2,24.2,16,19,16,19l0.5,0c0,0,0,2.4,0,3.5c0,1.1-0.1,2.6,0.6,3.2c0.4,0.4,1.9,1.2,1.9,0.5c0-0.4-0.8-0.8-0.8-1.9
			c0-1.2,0-4.8,0-5.1c0.6,0,0.5,1.7,0.5,1.7l0,3.1c0,0-0.1,1.1,1.2,1.6c0.5,0.2,1.5,0.2,1.6-0.1c0-0.3-1.2-0.7-1.3-1.6
			c0-0.5,0-0.9,0-3.2s-0.3-3.2-1.4-3.9c3.4-0.3,5.5-1.2,6.5-3.4c1.2,0,3.6,0.2,6.5,1c0,0,0,0,0,0c0,0,0.1,0,0.1-0.1
			c0-0.1,0-0.1-0.1-0.1c-2.8-0.9-5.2-1-6.4-1c0.1-0.2,0.2-0.4,0.2-0.6C29.4,12.6,30.4,12.9,31.9,13.2z M6.3,16.7
			c-0.1,0-0.2-0.1-0.2-0.2c0-0.1,0.1-0.2,0.2-0.2c0.1,0,0.2,0.1,0.2,0.2C6.6,16.7,6.4,16.7,6.3,16.7z M7.1,17.1
			c-0.1,0-0.2-0.1-0.2-0.2c0-0.1,0.1-0.2,0.2-0.2c0.1,0,0.2,0.1,0.2,0.2C7.3,17.1,7.2,17.1,7.1,17.1z M7.3,17.5
			c0-0.1,0.1-0.2,0.2-0.2c0.1,0,0.2,0.1,0.2,0.2c0,0.1-0.1,0.2-0.2,0.2C7.4,17.7,7.3,17.6,7.3,17.5z M7.9,18.3
			c-0.1,0-0.2-0.1-0.2-0.2c0-0.1,0.1-0.2,0.2-0.2c0.1,0,0.2,0.1,0.2,0.2C8.2,18.2,8.1,18.3,7.9,18.3z M8.4,18.9
			c-0.1,0-0.2-0.1-0.2-0.2c0-0.1,0.1-0.2,0.2-0.2c0.1,0,0.2,0.1,0.2,0.2C8.7,18.8,8.5,18.9,8.4,18.9z M9,19.4
			c-0.1,0-0.2-0.1-0.2-0.2c0-0.1,0.1-0.2,0.2-0.2s0.2,0.1,0.2,0.2C9.3,19.3,9.2,19.4,9,19.4z M9.9,19.7c-0.1,0-0.2-0.1-0.2-0.2
			c0-0.1,0.1-0.2,0.2-0.2c0.1,0,0.2,0.1,0.2,0.2C10.2,19.7,10.1,19.7,9.9,19.7z M10.8,19.7c-0.1,0-0.2-0.1-0.2-0.2
			c0-0.1,0.1-0.2,0.2-0.2c0.1,0,0.2,0.1,0.2,0.2C11.1,19.7,10.9,19.7,10.8,19.7z M11.7,19.6c-0.1,0-0.2-0.1-0.2-0.2s0.1-0.2,0.2-0.2
			c0.1,0,0.2,0.1,0.2,0.2S11.8,19.6,11.7,19.6z M18.6,16.1c-0.7,0-1.5,0-2.3,0c-0.8,0-1.5,0-2.2,0c-3.7-0.1-5.8-1.7-5.8-4.4
			c0-0.3,0.1-1.3,0.8-2.2c0.7-0.9,1.9-1.4,3.3-1.4c0.1,0,0.3,0,0.6,0c0.8,0,2,0.1,3.3,0.1c1.1,0,2.3-0.1,2.9-0.1c0.3,0,0.4,0,0.5,0
			c3,0,4.1,1.9,4.1,3.7C23.9,13.7,23,16,18.6,16.1z"/>
		<path id="Shape_1_" class="st0" d="M5.6,18.5c0.6,0,0-0.9,0-1.3C5.6,17.6,5,18.5,5.6,18.5z"/>
		<path id="Shape_2_" class="st0" d="M17,14.6c-0.1,0-0.1,0-0.1,0.1c0,0.2-0.3,0.5-0.7,0.5c-0.1,0-0.1,0-0.2,0
			c-0.1,0-0.2-0.1-0.3-0.2c0,0,0,0-0.1,0c0,0-0.1-0.1-0.1-0.1c-0.1-0.1-0.1-0.1-0.1-0.2c0-0.1,0-0.1-0.1-0.1c-0.1,0-0.1,0-0.1,0.1
			c0,0,0,0.1,0,0.1c0,0.1,0,0.1,0.1,0.2c0,0.1,0.1,0.1,0.2,0.2c0.1,0.1,0.1,0.1,0.2,0.2c0.1,0.1,0.2,0.1,0.3,0.1c0,0,0.1,0,0.1,0
			c0.2,0,0.4-0.1,0.6-0.2c0,0,0,0,0.1,0c0,0,0.1-0.1,0.1-0.1c0.1-0.1,0.1-0.2,0.1-0.3c0,0,0,0,0-0.1C17.1,14.6,17,14.6,17,14.6z"/>
		<path id="Shape_3_" class="st0" d="M15.9,14c0,0,0.1,0.1,0.1,0.1c0,0,0,0,0,0c0,0,0.1,0,0.1,0c0,0,0,0,0.1,0c0.1,0,0.1,0,0.2-0.1
			c0,0,0,0,0.1-0.1c0,0,0-0.1,0.1-0.1c0,0,0-0.1,0-0.1c0-0.2-0.2-0.4-0.4-0.4c-0.1,0-0.2,0-0.3,0.1c0,0,0,0,0,0c0,0,0,0-0.1,0.1
			c0,0,0,0.1,0,0.1c0,0,0,0,0,0.1c0,0,0,0.1,0,0.1C15.8,13.9,15.8,13.9,15.9,14z"/>
		<path id="Shape_4_" class="st0" d="M13.1,10C13,10,12.9,9.9,12.8,9.8c-0.1-0.1-0.2-0.1-0.3-0.2c-0.1,0-0.2-0.1-0.3-0.1
			c-0.1,0-0.1,0-0.2,0c-0.9,0-1.6,1-1.6,2.3c0,1.3,0.7,2.2,1.6,2.2c0.1,0,0.1,0,0.2,0c0.1,0,0.2,0,0.3-0.1c0.1,0,0.2-0.1,0.3-0.2
			c0.1-0.1,0.2-0.1,0.2-0.2s0.1-0.2,0.2-0.3c0.2-0.4,0.4-0.9,0.4-1.4c0-0.6-0.1-1.1-0.4-1.5C13.2,10.2,13.2,10.1,13.1,10z"/>
		<path id="Shape_5_" class="st0" d="M20.5,9.5c-0.9,0-1.6,1-1.6,2.3c0,1.3,0.7,2.2,1.6,2.2c0.9,0,1.6-0.9,1.6-2.2
			C22.1,10.6,21.4,9.5,20.5,9.5z"/>
	</g>
</g>
</svg>
