<?xml version="1.0" encoding="UTF-8"?>
<svg width="33px" height="27px" viewBox="0 0 33 27" version="1.1" xmlns="http://www.w3.org/2000/svg" xmlns:xlink="http://www.w3.org/1999/xlink">
    <!-- Generator: Sketch 48.2 (47327) - http://www.bohemiancoding.com/sketch -->
    <title>Group 7</title>
    <desc>Created with Sketch.</desc>
    <defs></defs>
    <g id="Desktop-HD" stroke="none" stroke-width="1" fill="none" fill-rule="evenodd" transform="translate(-1252.000000, -1872.000000)">
        <g id="Group-7" transform="translate(1252.000000, 1872.000000)" fill="#77838A" fill-rule="nonzero">
            <path d="M31.932851,13.1614891 C31.9393465,13.1621965 31.946678,13.1629039 31.9531734,13.1629039 C32.0039795,13.1629039 32.0504123,13.1259248 32.0599304,13.0736396 C32.0707347,13.0147304 32.0315691,12.9581363 31.9727884,12.9465602 C30.4862295,12.6727221 29.3986588,12.3699439 25.7292411,12.4004918 C25.9579325,11.5544105 26.0814105,10.5537246 26.1060418,9.36859336 C26.1002537,6.15520803 24.5621814,5.01869629 24.2666703,4.48503998 C24.7023803,2.05226688 24.1939984,0.944823915 23.9579754,0.565064871 C23.0865554,0.254955115 20.9262056,1.3624624 19.7460907,2.14307464 C17.8216995,1.58028524 13.75503,1.63469271 12.2300772,2.28828986 C9.4160659,0.27309094 7.92738472,0.581721533 7.92738472,0.581721533 C7.92738472,0.581721533 6.96522129,2.30642569 7.67329023,4.82987791 C6.74739845,6.0099928 6.05746534,6.84507683 6.05746534,9.05848361 C6.05746534,10.3053538 6.20415973,11.4214788 6.53529932,12.3960543 C5.06256738,12.3924529 1.97581127,12.5906607 0.529961515,12.9479751 C0.471888286,12.9625095 0.436195438,13.0220619 0.450022397,13.0801994 C0.462434505,13.1295906 0.5073882,13.1629682 0.556071959,13.1629682 C0.564754003,13.1629682 0.573500359,13.1622608 0.582182403,13.1600742 C2.04102307,12.7991584 5.23093473,12.6030728 6.61363066,12.6147132 C6.69273372,12.8246258 6.7814192,13.0279785 6.87936552,13.2247715 C3.32474369,13.3191164 2.36631033,13.8267266 0.874027711,14.1992827 C0.765855871,14.2269367 0.659806309,14.2530471 0.556715074,14.2785144 C0.498641845,14.2930488 0.462370193,14.3525369 0.476775956,14.4106101 C0.489188063,14.4600013 0.533434333,14.4934433 0.582825518,14.493379 C0.591507562,14.493379 0.600253917,14.4926715 0.608935962,14.4904849 C0.712091509,14.4643745 0.818076759,14.4381997 0.927020336,14.4106744 C2.42374044,14.0367034 3.3950361,13.5261349 6.99255365,13.4397004 C8.04996232,15.3597827 10.0890208,16.5543033 13.5282679,16.8847355 C13.0373787,17.2572916 12.4477071,17.9645888 12.3664174,18.7823088 C11.7492206,19.1817471 10.5081384,19.3131354 9.54295236,19.008878 C8.19080437,18.5819143 7.67303298,15.9045005 5.64838028,16.2856744 C5.20977627,16.3685076 5.29691827,16.6574589 5.67603419,16.9029356 C6.29329538,17.3023097 6.87428492,17.8018809 7.3222784,18.865785 C7.66653752,19.6827975 8.38978396,21.1423456 10.6772775,21.1423456 C11.5850335,21.1423456 12.2211379,21.0334664 12.2211379,21.0334664 C12.2211379,21.0334664 12.2385663,23.1183146 12.2385663,23.9287673 C12.2385663,24.8633412 10.9771618,25.1270181 10.9771618,25.5764907 C10.9771618,25.7543761 11.3947359,25.7710971 11.7302487,25.7710971 C12.3932353,25.7710971 13.7730372,25.2176972 13.7730372,24.2461443 C13.7730372,23.4742141 13.785385,20.8787331 13.785385,20.4248872 C13.785385,19.4321759 14.3176265,19.1177572 14.3176265,19.1177572 C14.3176265,19.1177572 14.3837386,24.4166982 14.1905471,25.1269537 C13.9639779,25.9621021 13.5551501,25.8437047 13.5551501,26.2162609 C13.5551501,26.7703039 15.215993,26.3520223 15.7664346,25.1356358 C16.1919834,24.1887142 16.0061233,18.9906135 16.0061233,18.9906135 L16.4599691,18.9812241 C16.4599691,18.9812241 16.4854365,21.3609402 16.4701946,22.4487039 C16.4541811,23.5749901 16.377972,24.99981 17.0467467,25.6716073 C17.4861224,26.1131053 18.9109424,26.8879939 18.9109424,26.1799249 C18.9109424,25.7681388 18.1302658,25.429732 18.1302658,24.3157936 C18.1302658,23.1037802 18.1302658,19.5294148 18.1302658,19.1903649 C18.753315,19.1903649 18.6596133,20.8757747 18.6596133,20.8757747 L18.705403,24.0070987 C18.705403,24.0070987 18.5681624,25.1479836 19.9392179,25.6258176 C20.4229043,25.795021 21.4583827,25.8407464 21.5070665,25.5568114 C21.5557503,25.272169 20.2601963,24.8487425 20.248556,23.965039 C20.2413531,23.4261734 20.2726084,23.1117548 20.2726084,20.7697895 C20.2726084,18.4278241 19.9581255,17.5622565 18.8623229,16.8723234 C22.2441399,16.5244628 24.337027,15.6878996 25.3573923,13.4469032 C26.5294683,13.4853615 28.9837214,13.605238 31.8361909,14.4773654 C31.8462878,14.4809668 31.8572208,14.482446 31.8681537,14.482446 C31.9146509,14.482446 31.9574823,14.4518981 31.9720167,14.4054009 C31.9893808,14.3473277 31.9574823,14.2862961 31.8993448,14.2688677 C29.0861052,13.4083807 26.7066463,13.2739698 25.4503867,13.2319101 C25.5294897,13.0373037 25.6021617,12.8332435 25.6667303,12.6190221 C29.3573709,12.5848727 30.4477713,12.8870078 31.932851,13.1614891 Z M6.31143121,16.7240855 C6.17611994,16.7240855 6.06634031,16.6510277 6.06634031,16.5607345 C6.06634031,16.4705055 6.17611994,16.3973834 6.31143121,16.3973834 C6.44674247,16.3973834 6.5565221,16.4705698 6.5565221,16.5607345 C6.5565221,16.6509634 6.44680678,16.7240855 6.31143121,16.7240855 Z M7.07397193,17.138637 C6.93866066,17.138637 6.82888104,17.0654506 6.82888104,16.975286 C6.82888104,16.8849927 6.93866066,16.8119349 7.07397193,16.8119349 C7.2092832,16.8119349 7.31906282,16.8849927 7.31906282,16.975286 C7.31906282,17.0655149 7.20934751,17.138637 7.07397193,17.138637 Z M7.29481741,17.5290075 C7.29481741,17.4387785 7.40459704,17.3656564 7.5399083,17.3656564 C7.67521957,17.3656564 7.78499919,17.4388428 7.78499919,17.5290075 C7.78499919,17.6193007 7.67521957,17.6923585 7.5399083,17.6923585 C7.40459704,17.6923585 7.29481741,17.6193007 7.29481741,17.5290075 Z M7.94847887,18.3187519 C7.81303898,18.3187519 7.70332367,18.2455655 7.70332367,18.1552723 C7.70332367,18.0650433 7.81310329,17.9919212 7.94847887,17.9919212 C8.08379014,17.9919212 8.19356976,18.0651076 8.19356976,18.1552723 C8.19356976,18.2455655 8.08379014,18.3187519 7.94847887,18.3187519 Z M8.41435093,18.9087451 C8.27903966,18.9087451 8.16926004,18.8356873 8.16926004,18.745394 C8.16926004,18.6551651 8.27903966,18.582043 8.41435093,18.582043 C8.5496622,18.582043 8.65944182,18.6552294 8.65944182,18.745394 C8.65944182,18.835623 8.54972651,18.9087451 8.41435093,18.9087451 Z M9.04376698,19.4110817 C8.90845571,19.4110817 8.79867609,19.3378953 8.79867609,19.2477307 C8.79867609,19.1574374 8.90845571,19.084251 9.04376698,19.084251 C9.17907825,19.084251 9.28885787,19.1574374 9.28885787,19.2477307 C9.28885787,19.3378953 9.17907825,19.4110817 9.04376698,19.4110817 Z M9.92425488,19.7377838 C9.78894362,19.7377838 9.67916399,19.664726 9.67916399,19.5744328 C9.67916399,19.4842038 9.78894362,19.4110817 9.92425488,19.4110817 C10.0595661,19.4110817 10.1693458,19.4842681 10.1693458,19.5744328 C10.1693458,19.664726 10.0596305,19.7377838 9.92425488,19.7377838 Z M10.8077654,19.7377838 C10.6724542,19.7377838 10.5626745,19.664726 10.5626745,19.5744328 C10.5626745,19.4842038 10.6724542,19.4110817 10.8077654,19.4110817 C10.9430767,19.4110817 11.0528563,19.4842681 11.0528563,19.5744328 C11.0528563,19.664726 10.9430767,19.7377838 10.8077654,19.7377838 Z M11.6942986,19.5986139 C11.5589873,19.5986139 11.4492077,19.5254275 11.4492077,19.4352628 C11.4492077,19.3450982 11.5589873,19.2719118 11.6942986,19.2719118 C11.8297385,19.2719118 11.9393895,19.3450982 11.9393895,19.4352628 C11.9393895,19.5254275 11.8297385,19.5986139 11.6942986,19.5986139 Z M18.6360753,16.120394 C17.9051115,16.1446395 17.1470082,16.1569872 16.3833742,16.1569872 C15.6122801,16.1569872 14.8679395,16.1444465 14.1711893,16.119558 C10.4557246,15.9893273 8.40939895,14.4211572 8.40939895,11.7044491 C8.40939895,11.4223148 8.46907996,10.4305681 9.23779459,9.50898523 C9.98490057,8.61331983 11.1297085,8.13966609 12.5484188,8.13966609 C12.6450789,8.13966609 12.8180124,8.15027747 13.1690885,8.17201474 C13.9213394,8.21883347 15.1805574,8.29710049 16.4272989,8.29710049 C17.5562862,8.29710049 18.6981358,8.21381718 19.3116669,8.16892779 C19.5988175,8.14783364 19.7140636,8.1397304 19.788279,8.1397304 C22.8064148,8.1397304 23.8816377,10.0680446 23.8816377,11.8725592 C23.8815734,13.7319315 22.9715023,15.9783301 18.6360753,16.120394 Z" id="Shape"></path>
            <path d="M5.5732002,18.4700124 C6.15798411,18.4700124 5.58316848,17.5629639 5.5732002,17.138637 C5.57049912,17.5515808 4.98841629,18.4700124 5.5732002,18.4700124 Z" id="Shape"></path>
            <path d="M16.9621771,14.5667583 C16.902046,14.5667583 16.8532979,14.6155064 16.8532979,14.6756376 C16.8532979,14.9156479 16.5712279,15.1840195 16.1937198,15.1840195 C16.1393123,15.1840195 16.0868985,15.1779742 16.0367355,15.1671699 C15.9114569,15.1402234 15.8007769,15.083565 15.7101621,15.0169384 C15.6920262,15.0036902 15.6747265,14.9899276 15.6582627,14.975972 C15.6088715,14.9340409 15.5671977,14.8899876 15.5343989,14.8480565 C15.4796056,14.7780857 15.4494435,14.7140958 15.4494435,14.6756376 C15.4494435,14.6155064 15.4006954,14.5667583 15.3404999,14.5667583 C15.2803687,14.5667583 15.2316206,14.6155064 15.2316206,14.6756376 C15.2316206,14.7067 15.2379875,14.7413639 15.2501423,14.7782143 C15.2684068,14.8334578 15.2999194,14.8937177 15.3427508,14.9542347 C15.3857109,15.0146875 15.4401183,15.0755261 15.5042368,15.1319915 C15.5683553,15.1883284 15.6422492,15.2404206 15.7243106,15.2835093 C15.826823,15.3372737 15.9419405,15.3769538 16.0663831,15.3934175 C16.107864,15.398884 16.1503739,15.4018423 16.1937841,15.4018423 C16.4200317,15.4018423 16.6162459,15.3285916 16.7654485,15.2174614 C16.7867355,15.2015765 16.807058,15.1849842 16.8264157,15.1676201 C16.8650669,15.1330205 16.8997307,15.0956556 16.9299571,15.0564256 C17.0053944,14.9584793 17.0532421,14.848764 17.0670048,14.7404635 C17.0697702,14.7187905 17.071185,14.6971819 17.071185,14.6757019 C17.0711207,14.6155064 17.0223727,14.5667583 16.9621771,14.5667583 Z" id="Shape"></path>
            <path d="M15.8704262,13.9837751 C15.897437,14.0236482 15.9319079,14.0581191 15.971781,14.0851299 C15.9867656,14.0951625 16.0024575,14.1042948 16.018857,14.1122051 C16.0516558,14.1279614 16.0871557,14.1391516 16.1244563,14.1448753 C16.1430424,14.147705 16.1621429,14.1491841 16.1816292,14.1491841 C16.2592531,14.1491841 16.3314749,14.1255818 16.3914131,14.0851299 C16.416366,14.0682803 16.4391322,14.0484724 16.459326,14.0262207 C16.4874944,13.9952869 16.5081384,13.9583721 16.5247307,13.9192707 C16.5438955,13.8741884 16.5568221,13.8259548 16.5568221,13.7738626 C16.5568221,13.5667154 16.3888407,13.3986697 16.1816292,13.3986697 C16.0780235,13.3986697 15.9841931,13.440665 15.9162802,13.5085779 C15.9133219,13.5115362 15.911071,13.515202 15.9082413,13.5182246 C15.8889479,13.5388686 15.8725484,13.5618921 15.858207,13.5865234 C15.8382704,13.62093 15.8221926,13.6579734 15.8139607,13.6982323 C15.8090087,13.7226707 15.806372,13.7479451 15.806372,13.7738626 C15.806372,13.7997801 15.8090731,13.8250545 15.8139607,13.8495571 C15.8239933,13.8984338 15.8434797,13.9438377 15.8704262,13.9837751 Z" id="Shape"></path>
            <path d="M13.0921077,10.0489441 C13.0153199,9.95447057 12.9322938,9.87080139 12.8441871,9.79948 C12.7560161,9.72809431 12.6627002,9.6690564 12.5653327,9.62397409 C12.4679009,9.57882746 12.3664174,9.54750779 12.261847,9.53175148 C12.2095618,9.52384118 12.1565049,9.51972524 12.1028692,9.51972524 C11.2438613,9.51972524 10.5476257,10.5573903 10.5476257,11.8375095 C10.5476257,13.1175644 11.2438613,14.0100142 12.1028692,14.0100142 C12.1565049,14.0100142 12.2095618,14.0065414 12.261847,13.9997244 C12.3664174,13.9859617 12.4679009,13.9588223 12.5653327,13.9192707 C12.6627002,13.8796549 12.7560161,13.8275626 12.8441871,13.7639586 C12.9322938,13.7003546 13.0153199,13.6253675 13.0921077,13.5398333 C13.1688956,13.454299 13.2395095,13.3582821 13.3029206,13.252747 C13.5248594,12.8834064 13.6580484,12.3975335 13.6580484,11.8375095 C13.6580484,11.2774855 13.5247951,10.7638943 13.3029206,10.3631698 C13.2395095,10.2486311 13.1688956,10.1434819 13.0921077,10.0489441 Z" id="Shape"></path>
            <path d="M20.5085028,9.51966093 C19.6494949,9.51966093 18.9532593,10.557326 18.9532593,11.8374452 C18.9532593,13.1175 19.6494949,14.0099499 20.5085028,14.0099499 C21.3674464,14.0099499 22.063682,13.1175 22.063682,11.8374452 C22.063682,10.557326 21.3674464,9.51966093 20.5085028,9.51966093 Z" id="Shape"></path>
        </g>
    </g>
</svg>