<?xml version="1.0" encoding="UTF-8"?>
<svg width="25px" height="24px" viewBox="0 0 25 24" version="1.1" xmlns="http://www.w3.org/2000/svg" xmlns:xlink="http://www.w3.org/1999/xlink">
    <!-- Generator: Sketch 48.2 (47327) - http://www.bohemiancoding.com/sketch -->
    <title>Group 6</title>
    <desc>Created with Sketch.</desc>
    <defs></defs>
    <g id="Desktop-HD" stroke="none" stroke-width="1" fill="none" fill-rule="evenodd" transform="translate(-1208.000000, -1875.000000)">
        <g id="Group-6" transform="translate(1208.000000, 1875.000000)" fill="#77838A" fill-rule="nonzero">
            <path d="M5.90251741,3.39303802 C5.90251741,4.75867114 4.80486877,5.86521963 3.45011325,5.86521963 C2.09535772,5.86521963 0.997709089,4.75867114 0.997709089,3.39303802 C0.997709089,2.02839377 2.09535772,0.920856403 3.45011325,0.920856403 C4.80486877,0.920856403 5.90251741,2.02839377 5.90251741,3.39303802 Z M5.92229486,7.84296492 L0.977931636,7.84296492 L0.977931636,23.6649272 L5.92229486,23.6649272 L5.92229486,7.84296492 Z M13.8154763,7.84296492 L8.90275701,7.84296492 L8.90275701,23.6649272 L13.8164652,23.6649272 L13.8164652,15.3593859 C13.8164652,10.7413506 19.7783784,10.3636013 19.7783784,15.3593859 L19.7783784,23.6649272 L24.7108751,23.6649272 L24.7108751,13.6466585 C24.7108751,5.85434203 15.8881534,6.13814848 13.8154763,9.97398547 L13.8154763,7.84296492 Z" id="Shape"></path>
        </g>
    </g>
</svg>