<?xml version="1.0" encoding="utf-8"?>
<!-- Generator: Adobe Illustrator 21.1.0, SVG Export Plug-In . SVG Version: 6.00 Build 0)  -->
<svg version="1.1" id="Layer_1" xmlns="http://www.w3.org/2000/svg" xmlns:xlink="http://www.w3.org/1999/xlink" x="0px" y="0px"
	 viewBox="0 0 24 25" style="enable-background:new 0 0 24 25;" xml:space="preserve">
<style type="text/css">
	.st0{fill:#272A2C;}
</style>
<title>Shape</title>
<desc>Created with Sketch.</desc>
<g id="project" transform="translate(-1227.000000, -2196.000000)">
	<path id="Shape" class="st0" d="M1246,2196.2h-14c-2.8,0-5,2.2-5,5v14c0,2.8,2.2,5,5,5h14c2.8,0,5-2.2,5-5v-14
		C1251,2198.4,1248.8,2196.2,1246,2196.2z M1235,2215.2h-3v-11h3V2215.2z M1233.5,2202.9c-1,0-1.8-0.8-1.8-1.8c0-1,0.8-1.8,1.8-1.8
		s1.8,0.8,1.8,1.8C1235.2,2202.1,1234.5,2202.9,1233.5,2202.9z M1247,2215.2h-3v-5.6c0-3.4-4-3.1-4,0v5.6h-3v-11h3v1.8
		c1.4-2.6,7-2.8,7,2.5V2215.2z"/>
</g>
</svg>
