<?xml version="1.0" encoding="UTF-8"?>
<svg width="66px" height="64px" viewBox="0 0 66 64" version="1.1" xmlns="http://www.w3.org/2000/svg" xmlns:xlink="http://www.w3.org/1999/xlink">
    <!-- Generator: Sketch 51.3 (57544) - http://www.bohemiancoding.com/sketch -->
    <title>Group 4</title>
    <desc>Created with Sketch.</desc>
    <defs>
        <path d="M41.4507028,63.3271395 C58.9380095,63.3271395 73.1142725,49.1508764 73.1142725,31.6635697 C73.1142725,14.176263 58.9380095,0 41.4507028,0 C23.9633961,0 0.0630108566,24.3370646 0.0630108566,41.8243712 C0.0630108566,59.3116779 23.9633961,63.3271395 41.4507028,63.3271395 Z" id="path-1"></path>
    </defs>
    <g id="Page-1" stroke="none" stroke-width="1" fill="none" fill-rule="evenodd">
        <g id="ats-cover-letter" transform="translate(-56.000000, -41.000000)">
            <g id="Group-4" transform="translate(47.903201, 41.117442)">
                <circle id="Oval-4" fill="#EF7B5E" cx="41.4507028" cy="31.6635697" r="31.6635697"></circle>
                <g id="Group-13">
                    <mask id="mask-2" fill="white">
                        <use xlink:href="#path-1"></use>
                    </mask>
                    <use id="Mask" fill-opacity="0" fill="#EF675E" xlink:href="#path-1"></use>
                    <g mask="url(#mask-2)">
                        <g transform="translate(8.203955, 3.999609)">
                            <polygon id="Path-2" fill="#DFD0C1" fill-rule="evenodd" points="39.359492 6.40850963 34.3275942 10.9975295 31.6423698 21.7810443 32.4517556 26.7768028 32.8520163 31.707783 34.3275942 39.9107413 36.9661101 47.2763569 40.0717106 49.2517492 42.8841047 49.2517492 52.3256892 46.0697788 56.9136863 42.8441683 59.2930897 37.0165222 58.6016683 27.387422 57.303037 17.9274268 53.6727336 9.81959016 52.3256892 7.54553648 46.9075092 5.67208445 42.3876996 5.67208445"></polygon>
                            <polygon id="Shape" fill="#D9CBBB" fill-rule="nonzero" points="37.4653022 32.1550133 36.8028341 30.2313078 38.0131124 24.192656 38.9940748 19.8611336 39.0068146 19.8611336 39.3380487 22.574705 39.0322942 30.1039101 40.8413417 31.4161065 41.0961372 33.5309086"></polygon>
                            <polygon id="Shape" fill="#BFB1A5" fill-rule="nonzero" points="31.9489811 26.2749345 31.9872004 26.5170657 33.5669321 26.5170657 33.3248764 26.1673206"></polygon>
                            <polygon id="Shape" fill="#FFFFFF" fill-rule="nonzero" points="32.9681628 26.1928001 33.2993969 25.0080014 32.8280253 23.8741617 33.0063821 23.8359424 35.0702251 24.8933434 34.8663888 25.2882763 33.3248764 26.1928001"></polygon>
                            <polygon id="Shape" fill="#BFB1A5" fill-rule="nonzero" points="31.006238 21.9631959 31.2228141 21.0968914 32.5859697 20.8675755 33.350356 22.7148424 31.2482936 23.0460765"></polygon>
                            <polygon id="Shape" fill="#CCBEB0" fill-rule="nonzero" points="33.2993969 26.1800604 36.3824216 24.3455332 36.0766671 25.1863582 33.5541923 26.5240342"></polygon>
                            <polygon id="Shape" fill="#CCBEB0" fill-rule="nonzero" points="31.2355539 23.0078572 33.3376162 22.6893629 33.1337798 23.4155299 31.3629516 23.6448458"></polygon>
                            <polygon id="Shape" fill="#CCBEB0" fill-rule="nonzero" points="33.3121367 22.7275822 32.5477503 20.8803153 35.4906376 21.0841517 36.5225591 22.29443 36.5225591 24.0142992 36.3824216 24.3837525 35.9747489 24.6258082"></polygon>
                            <polygon id="Shape" fill="#E5D9C9" fill-rule="nonzero" points="33.4013151 32.1550133 36.4970796 24.0142992 36.4970796 22.2816902 38.0258522 24.192656 36.8283136 30.2313078 37.4907818 32.1422735 35.0320058 33.1996746"></polygon>
                            <polygon id="Shape" fill="#DFD0C1" fill-rule="nonzero" points="33.0955605 23.4155299 33.3121367 22.6893629 36.0002285 24.6003287 35.4906376 24.9060832"></polygon>
                            <polygon id="Shape" fill="#DFD0C1" fill-rule="nonzero" points="35.4778978 21.1096312 34.6625525 19.1222268 33.7835082 11.185349 39.1851714 6.00026193 38.2296885 17.6953724 39.0322942 19.8483938 38.0258522 24.2436151"></polygon>
                            <polygon id="Shape" fill="#DFD0C1" fill-rule="nonzero" points="31.7196652 29.5688396 31.9744606 26.4858149 33.5669321 26.4858149 36.0766671 25.1608786 33.4395344 32.1422735 33.8726866 34.0022802 33.0573412 35.9387255"></polygon>
                            <polygon id="Shape" fill="#D9CBBB" fill-rule="nonzero" points="39.1596919 6.02574148 44.7779312 5.04477905 44.6887528 14.535909 38.1914692 17.7208519"></polygon>
                            <polygon id="Shape" fill="#D2C5B7" fill-rule="nonzero" points="33.7835082 11.185349 33.8089877 11.185349 34.7007718 19.1222268 31.6432266 19.2751041"></polygon>
                            <polygon id="Shape" fill="#333333" fill-rule="nonzero" points="35.0320058 24.9060832 33.0063821 23.8741617 31.5030891 24.2436151 31.3629516 23.6193662 33.1083003 23.3900503 35.5161172 24.8933434 34.8026899 25.3264957"></polygon>
                            <polygon id="Shape" fill="#423D3B" fill-rule="nonzero" points="31.4903493 24.2181355 32.8407651 23.8614219 33.3376162 24.9952616 32.9936424 26.1800604 31.9362413 26.2819785"></polygon>
                            <polygon id="Shape" fill="#4C4A49" fill-rule="nonzero" points="33.5414525 19.1731859 34.688032 19.0967473 35.5033774 21.0968914 35.4906376 21.1096312 35.4906376 21.122371"></polygon>
                            <polygon id="Shape" fill="#423F3D" fill-rule="nonzero" points="32.5732299 20.8930551 31.2228141 21.122371 31.6559663 19.2496245 33.5541923 19.1477064 35.5415967 21.122371"></polygon>
                            <polygon id="Shape" fill="#565655" fill-rule="nonzero" points="28.5200729 12.6102931 18.9161946 16.0774214 25.3497793 21.9377164"></polygon>
                            <polygon id="Shape" fill="#565655" fill-rule="nonzero" points="25.4644373 21.9377164 21.9355205 29.1484272 27.1715667 23.1352549"></polygon>
                            <polygon id="Shape" fill="#565655" fill-rule="nonzero" points="28.0251314 4.38231092 33.8089877 11.185349 36.9047523 0.878873698"></polygon>
                            <polygon id="Shape" fill="#4F4F4E" fill-rule="nonzero" points="18.0944793 16.0774214 21.7191775 29.1407252 24.5535436 22.0523743"></polygon>
                            <polygon id="Shape" fill="#4F4F4E" fill-rule="nonzero" points="36.9047523 0.878873698 44.7651914 5.05751883 45.2747823 0.0380487635"></polygon>
                            <polygon id="Shape" fill="#4F4F4E" fill-rule="nonzero" points="33.8089877 11.185349 29.3830381 12.026174 31.0317175 21.9504561"></polygon>
                            <polygon id="Shape" fill="#423F3D" fill-rule="nonzero" points="29.0825324 11.8860365 18.9161946 15.9627634 27.7193769 4.38231092"></polygon>
                            <polygon id="Shape" fill="#423F3D" fill-rule="nonzero" points="31.9872004 26.4985547 25.4644373 21.9377164 31.0317175 21.9504561"></polygon>
                            <polygon id="Shape" fill="#423F3D" fill-rule="nonzero" points="18.4576205 18.8483217 13.2852731 22.0969635 20.0628317 25.0143712"></polygon>
                            <polygon id="Shape" fill="#423F3D" fill-rule="nonzero" points="37.0120268 1.10133473 33.8089877 11.185349 39.1724316 6.02574148"></polygon>
                            <polygon id="Shape" fill="#494746" fill-rule="nonzero" points="31.0317175 21.9504561 25.4644373 21.8357982 29.1844506 11.9879546"></polygon>
                            <polygon id="Shape" fill="#494746" fill-rule="nonzero" points="31.732405 29.5688396 22.0501784 29.1484272 27.2862246 23.3390913 31.9872004 26.4985547"></polygon>
                            <polygon id="Shape" fill="#494746" fill-rule="nonzero" points="13.9986427 22.7785413 21.1456546 29.1484272 20.3048297 25.4411536"></polygon>
                            <polygon id="Shape" fill="#494746" fill-rule="nonzero" points="39.1724316 6.02574148 44.7651914 5.05751883 37.2930412 1.37428506"></polygon>
                            <polygon id="Shape" fill="#494746" fill-rule="nonzero" points="28.1098458 5.13655274 29.1971904 11.9242558 33.8089877 11.185349"></polygon>
                            <polygon id="Shape" fill="#FFFFFF" fill-rule="nonzero" points="43.8351881 21.9377164 43.1472404 20.6382597 44.3702585 20.3197654 47.3258856 21.6064823 45.0582062 23.0333367 43.5931324 23.3008719"></polygon>
                            <polygon id="Shape" fill="#BFB1A5" fill-rule="nonzero" points="39.2998294 22.574705 38.9940748 19.8611336 42.6376496 17.3641383 46.1156072 15.988243 44.790671 19.1222268 41.0833974 20.115929 40.8668213 23.797723 40.3954497 24.7149866"></polygon>
                            <polygon id="Shape" fill="#CCBEB0" fill-rule="nonzero" points="49.1476729 15.2238567 47.1602685 14.5486488 50.536308 6.39519486 53.2371396 8.12780381 54.5875554 11.6439808 52.9059056 17.2876997"></polygon>
                            <polygon id="Shape" fill="#CCBEB0" fill-rule="nonzero" points="41.0579179 20.0777097 41.7331258 20.5108619 41.2999735 23.7212844 40.8413417 23.8232026"></polygon>
                            <polygon id="Shape" fill="#CCBEB0" fill-rule="nonzero" points="40.8413417 23.7849833 45.0327266 22.9951174 45.9754698 24.0142992 40.3699702 24.6895071"></polygon>
                            <polygon id="Shape" fill="#CCBEB0" fill-rule="nonzero" points="44.7524517 19.1349666 46.0901277 16.0009827 52.9059056 17.2494804 50.1286353 19.8738734 48.7909593 20.7146983"></polygon>
                            <polygon id="Shape" fill="#CCBEB0" fill-rule="nonzero" points="52.880426 17.2749599 54.5748157 11.6439808 57.4794836 17.8100303"></polygon>
                            <polygon id="Shape" fill="#E5D9C9" fill-rule="nonzero" points="44.3575187 19.6955165 44.7524517 19.0967473 48.8036991 20.6892187 48.1412309 21.122371"></polygon>
                            <polygon id="Shape" fill="#D9CBBB" fill-rule="nonzero" points="41.0451781 20.1031892 44.790671 19.0967473 44.3829983 19.6955165 41.720386 20.5490813"></polygon>
                            <polygon id="Shape" fill="#D2C5B7" fill-rule="nonzero" points="45.0199869 23.020597 50.1158956 19.8483938 50.1286353 19.8611336 45.9372504 24.0397787"></polygon>
                            <polygon id="Shape" fill="#D2C5B7" fill-rule="nonzero" points="44.6632733 14.5613885 44.7524517 5.04477905 50.5490478 6.39519486 47.1984878 14.5613885"></polygon>
                            <polygon id="Shape" fill="#423D3B" fill-rule="nonzero" points="41.8350439 22.6893629 42.0770996 20.9057949 43.17272 20.6255199 43.8734074 21.9249766 43.6313518 23.2881322 42.331895 23.5429276"></polygon>
                            <polygon id="Shape" fill="#333333" fill-rule="nonzero" points="41.6949065 20.5363415 44.3702585 19.6827768 48.1539707 21.0968914 47.3131458 21.6319618 44.3575187 20.3579847 42.1025791 20.9185346 41.8732633 22.6893629 42.3573746 23.5301878 41.274494 23.7340242"></polygon>
                            <polygon id="Shape" fill="#4C4A49" fill-rule="nonzero" points="38.1914692 17.6826326 39.7712009 16.9055065 39.0068146 19.9248324"></polygon>
                            <polygon id="Shape" fill="#423F3D" fill-rule="nonzero" points="39.7457214 16.9309861 44.6632733 14.5231692 47.1857481 14.5231692 49.1604127 15.1983771 52.8931658 17.2494804 52.8931658 17.2622201 46.1028675 16.0264623 42.6631291 17.3896179 38.9813351 19.8993529"></polygon>
                            <polygon id="Shape" fill="#565655" fill-rule="nonzero" points="44.7651914 5.05751883 50.536308 6.40793463 45.2747823 0.0380487635"></polygon>
                            <polygon id="Shape" fill="#565655" fill-rule="nonzero" points="53.2371396 8.14054359 54.5748157 11.6567206 64.5118376 7.66917203"></polygon>
                            <polygon id="Shape" fill="#565655" fill-rule="nonzero" points="66.7285579 15.0709794 57.4412643 17.7845508 63.1104627 20.1541483"></polygon>
                            <polygon id="Shape" fill="#565655" fill-rule="nonzero" points="58.7916801 25.4284138 63.0849832 23.9378605 57.4412643 17.7845508"></polygon>
                            <polygon id="Shape" fill="#4F4F4E" fill-rule="nonzero" points="50.536308 6.40793463 53.2371396 8.14054359 54.4728975 0.878873698"></polygon>
                            <polygon id="Shape" fill="#4F4F4E" fill-rule="nonzero" points="64.5118376 7.66917203 60.1293561 9.37630144 66.8177363 15.0709794"></polygon>
                            <polygon id="Shape" fill="#4F4F4E" fill-rule="nonzero" points="63.1104627 20.2688063 57.4412643 17.7845508 63.1996411 23.9378605 67.7986987 22.3071698"></polygon>
                            <polygon id="Shape" fill="#545453" fill-rule="nonzero" points="45.3767005 0.0380487635 50.536308 6.40793463 54.5748157 0.878873698"></polygon>
                            <polygon id="Shape" fill="#545453" fill-rule="nonzero" points="61.3141549 3.82176097 53.2371396 8.14054359 64.5118376 7.57999363"></polygon>
                            <polygon id="Shape" fill="#545453" fill-rule="nonzero" points="54.5748157 11.6567206 57.4412643 17.7845508 60.2312743 9.37630144"></polygon>
                            <polygon id="Shape" fill="#545453" fill-rule="nonzero" points="67.7986987 22.2052516 66.9323943 15.0709794 63.1104627 20.2688063"></polygon>
                            <polygon id="Shape" fill="#494746" fill-rule="nonzero" points="54.5748157 0.878873698 53.2371396 8.14054359 61.3141549 3.71984279"></polygon>
                            <polygon id="Shape" fill="#494746" fill-rule="nonzero" points="60.2312743 9.58013779 57.4412643 17.7845508 66.7285579 15.0709794"></polygon>
                            <polygon id="Shape" fill="#DFD0C1" fill-rule="nonzero" points="40.8158622 31.4288463 38.9940748 30.1166498 39.2998294 22.5364856 40.4081895 24.6640275 45.9372504 24.0142992 50.1031558 19.8483938 52.8931658 17.2240008 52.1287795 25.8615661 41.0579179 33.5436484"></polygon>
                            <polygon id="Shape" fill="#E5D9C9" fill-rule="nonzero" points="41.3509326 39.0727094 39.6438032 38.4994196 37.4653022 37.8369515 37.2614659 36.690372 37.4525625 34.3844734 39.4017475 34.6902279 41.0706576 33.4926893 47.3258856 37.8114719 43.784229 39.9390138"></polygon>
                            <polygon id="Shape" fill="#DFD0C1" fill-rule="nonzero" points="41.0579179 33.5181689 52.1287795 25.8233467 51.4663114 28.5878772 47.3131458 37.8496913"></polygon>
                            <polygon id="Shape" fill="#DFD0C1" fill-rule="nonzero" points="41.0833974 41.8117603 43.7714892 39.9007945 49.1094536 47.8121928 41.3509326 49.977954"></polygon>
                            <polygon id="Shape" fill="#DFD0C1" fill-rule="nonzero" points="43.7587495 39.9262741 47.300406 37.7987322 56.2692053 44.448893 49.0712343 47.8249325"></polygon>
                            <polygon id="Shape" fill="#D9CBBB" fill-rule="nonzero" points="51.4280921 28.5751374 52.0905602 25.8488263 52.8676863 17.2494804 57.4540041 17.771811 58.8171597 25.4284138 59.186613 31.5052849 53.721251 35.4928335 47.2749265 37.8496913"></polygon>
                            <polygon id="Shape" fill="#D9CBBB" fill-rule="nonzero" points="51.4280921 28.5751374 52.0905602 25.8488263 52.8676863 17.2494804 57.4540041 17.771811 58.8171597 25.4284138"></polygon>
                            <polygon id="Shape" fill="#D9CBBB" fill-rule="nonzero" points="47.2876662 37.8242117 53.6957714 35.467354 59.1738733 31.4798054 59.5305869 37.2891413 58.5878438 41.3531285 56.2564655 44.4871123"></polygon>
                            <polygon id="Shape" fill="#565655" fill-rule="nonzero" points="63.2123809 24.0270389 59.1738733 31.5052849 67.7986987 29.3522635"></polygon>
                            <polygon id="Shape" fill="#565655" fill-rule="nonzero" points="64.2315626 30.4478839 59.5178471 37.2891413 65.0723876 37.8242117"></polygon>
                            <polygon id="Shape" fill="#565655" fill-rule="nonzero" points="58.5623642 41.3531285 62.9066264 43.1494363 59.5178471 37.2052118"></polygon>
                            <polygon id="Shape" fill="#4F4F4E" fill-rule="nonzero" points="64.2315626 30.2440475 65.1743058 37.8242117 68.0025351 29.5560999"></polygon>
                            <polygon id="Shape" fill="#4F4F4E" fill-rule="nonzero" points="56.2437258 44.4616328 54.2690612 48.1052075 58.0655131 46.2197213"></polygon>
                            <polygon id="Shape" fill="#545453" fill-rule="nonzero" points="58.7916801 25.4284138 59.1738733 31.5052849 63.1799646 23.9630763"></polygon>
                            <polygon id="Shape" fill="#545453" fill-rule="nonzero" points="59.5178471 37.2891413 62.9958048 43.0475181 65.3908819 38.0280481"></polygon>
                            <polygon id="Shape" fill="#423F3D" fill-rule="nonzero" points="56.2437258 44.4616328 58.0655131 46.2197213 62.9066264 43.3532727"></polygon>
                            <polygon id="Shape" fill="#423F3D" fill-rule="nonzero" points="47.7380949 49.5261008 54.2383327 48.1157053 49.0839741 47.7282632"></polygon>
                            <polygon id="Shape" fill="#494746" fill-rule="nonzero" points="63.1104627 23.9378605 67.7986987 29.1484272 67.7986987 22.5237459"></polygon>
                            <polygon id="Shape" fill="#4F4D4C" fill-rule="nonzero" points="59.1738733 31.3554146 59.5178471 37.4037993 64.4833512 30.1781067"></polygon>
                            <polygon id="Shape" fill="#494746" fill-rule="nonzero" points="58.5623642 41.3531285 56.2437258 44.4616328 62.9066264 43.1494363"></polygon>
                            <polygon id="Shape" fill="#494746" fill-rule="nonzero" points="49.0839741 47.8121928 54.2383327 48.0160291 56.2437258 44.4616328"></polygon>
                            <polygon id="Shape" fill="#BFB1A5" fill-rule="nonzero" points="33.8472071 34.0277597 33.4013151 32.116794 35.0320058 33.1614553 36.025708 34.8940642"></polygon>
                            <polygon id="Shape" fill="#CCBEB0" fill-rule="nonzero" points="35.9747489 34.8940642 35.0065263 33.1614553 37.4907818 34.3844734 36.7263955 34.9195438"></polygon>
                            <polygon id="Shape" fill="#D9CBBB" fill-rule="nonzero" points="38.2169488 49.4938426 36.4970796 47.2643826 36.6117375 42.665325 38.1150306 42.6525852 41.108877 41.7862807 41.3764122 49.9652142"></polygon>
                            <polygon id="Shape" fill="#D9CBBB" fill-rule="nonzero" points="33.7070696 39.0727094 33.0446014 35.8877664 33.8344673 34.0022802 35.9874887 34.8558449 35.6435149 36.9961266 35.2868013 38.0535276 34.5351547 39.3275048"></polygon>
                            <polygon id="Shape" fill="#D2C5B7" fill-rule="nonzero" points="35.2613217 38.0662674 35.6180353 36.9833868 35.9620092 34.8558449 36.7263955 34.8940642 37.478042 34.3717336 37.2869454 36.690372 37.4907818 37.8114719 36.5225591 38.4994196"></polygon>
                            <polygon id="Shape" fill="#D2C5B7" fill-rule="nonzero" points="36.4970796 47.2643826 33.6943298 39.03449 34.5351547 39.2892855 35.4778978 40.2575081 35.3759797 41.8117603 36.6372171 42.6525852 36.5225591 47.2516428 36.5098194 47.2643826"></polygon>
                            <polygon id="Shape" fill="#D2C5B7" fill-rule="nonzero" points="37.4653022 34.4099529 35.0192661 33.1869348 37.4653022 32.116794 41.0961372 33.4926893 39.4017475 34.7284472"></polygon>
                            <polygon id="Shape" fill="#AA6868" fill-rule="nonzero" points="34.5096752 39.314765 35.2613217 38.0407878 36.5352989 38.4739401 37.4653022 37.7987322 40.0514759 38.6013378 41.5929883 39.1236684 43.784229 39.9007945 43.784229 39.9135343 40.3062713 39.7224377 37.9494136 40.0027127 36.5225591 40.0027127 35.4651581 40.2702479"></polygon>
                            <polygon id="Shape" fill="#AA6868" fill-rule="nonzero" points="36.6244773 42.6908045 35.3505001 41.8245 35.4524183 40.2702479 36.5225591 39.9644934 37.9494136 39.9644934 40.3062713 39.6842184 43.8097086 39.9007945 41.108877 41.8245 38.1150306 42.6908045"></polygon>
                            <polygon id="Shape" fill="#965656" fill-rule="nonzero" points="35.4778978 40.2702479 35.4651581 40.2702479 36.5225591 39.9644934 37.9494136 39.9644934 40.3062713 39.6842184 43.784229 39.9007945 43.784229 39.9135343 40.3062713 40.0027127 38.0131124 40.2702479"></polygon>
                            <polygon id="Shape" fill="#565655" fill-rule="nonzero" opacity="0.8" points="10.3706456 27.7980114 14.4601123 24.1544367 16.5621746 32.3206303"></polygon>
                            <polygon id="Shape" fill="#4F4F4E" fill-rule="nonzero" opacity="0.9" points="15.0702024 24.3200537 18.4207624 36.4355766 24.752429 32.7665223"></polygon>
                            <polygon id="Shape" fill="#565655" fill-rule="nonzero" points="18.9607838 36.2826993 33.0000122 38.6777764 25.3943685 32.7028235"></polygon>
                            <polygon id="Shape" fill="#565655" fill-rule="nonzero" opacity="0.9" points="24.5641702 37.7987322 27.9274699 50.2072698 32.5392673 44.5762907"></polygon>
                            <polygon id="Shape" fill="#565655" fill-rule="nonzero" opacity="0.7" points="23.9243438 51.2455612 15.0702024 49.7040489 25.3894175 45.9712957"></polygon>
                            <polygon id="Shape" fill="#565655" fill-rule="nonzero" opacity="0.7" points="16.9507377 43.7036164 8.77180423 33.4226206 18.161016 37.4611282"></polygon>
                            <polygon id="Shape" fill="#565655" fill-rule="nonzero" opacity="0.478883605" points="1.94505651 41.2321007 8.01150867 43.3539185 6.61793116 38.6790419"></polygon>
                            <polygon id="Shape" fill="#565655" fill-rule="nonzero" opacity="0.478883605" points="1.38406969 44.6137451 9.86228352 45.3556728 8.40956237 43.9882806"></polygon>
                            <polygon id="Shape" fill="#565655" fill-rule="nonzero" opacity="0.22044837" points="0.0172417153 43.1931609 5.64766248 43.6997435 2.54292523 42.0071084"></polygon>
                            <polygon id="Shape" fill="#565655" fill-rule="nonzero" opacity="0.22044837" points="3.99564637 45.4545755 8.15647787 46.9050653 8.78665027 45.7660577"></polygon>
                            <polygon id="Shape" fill="#4F4F4E" fill-rule="nonzero" points="33.7198093 39.0472298 26.6874554 29.492401 31.732405 29.5688396"></polygon>
                            <polygon id="Shape" fill="#4F4F4E" fill-rule="nonzero" opacity="0.9" points="18.9607838 36.7682155 26.1332753 44.6413944 24.3497072 37.7619177"></polygon>
                            <polygon id="Shape" fill="#4F4F4E" fill-rule="nonzero" opacity="0.6" points="15.2075021 48.410962 8.46816286 47.9778098 15.8954498 44.8693055"></polygon>
                            <polygon id="Shape" fill="#4F4F4E" fill-rule="nonzero" opacity="0.6" points="10.8292774 37.3669848 10.3706456 44.0426252 13.3262726 40.4882289"></polygon>
                            <polygon id="Shape" fill="#423F3D" fill-rule="nonzero" points="21.9727475 29.6875083 33.7198093 39.149148 26.3817008 29.492401"></polygon>
                            <polygon id="Shape" fill="#423F3D" fill-rule="nonzero" opacity="0.9" points="38.3188669 49.583021 27.6811575 51.4302879 33.0573412 44.6145101 36.6117375 47.353561"></polygon>
                            <polygon id="Shape" fill="#423F3D" fill-rule="nonzero" opacity="0.8" points="27.655678 49.7217537 24.4070362 52.9194364 26.0313571 45.1813867"></polygon>
                            <polygon id="Shape" fill="#423F3D" fill-rule="nonzero" opacity="0.7" points="11.5554444 29.0210295 5.30021643 32.5372065 16.3455985 32.5372065"></polygon>
                            <polygon id="Shape" fill="#423F3D" fill-rule="nonzero" opacity="0.6" points="8.56159799 34.4991313 5.56775164 36.1935209 10.3706456 36.7540709"></polygon>
                            <polygon id="Shape" fill="#423F3D" fill-rule="nonzero" opacity="0.6" points="13.976001 40.9709353 8.96927069 47.0350667 16.3455985 43.9393022"></polygon>
                            <polygon id="Shape" fill="#423F3D" fill-rule="nonzero" opacity="0.8" points="18.8693924 37.2331918 17.3633614 43.780055 25.644213 45.1941697"></polygon>
                            <polygon id="Shape" fill="#494746" fill-rule="nonzero" points="36.3951614 47.0478065 25.2860805 37.7350333 33.7198093 39.149148"></polygon>
                            <polygon id="Shape" fill="#494746" fill-rule="nonzero" opacity="0.8" points="18.175862 36.7540709 8.78665027 32.7028235 17.0292826 32.7028235"></polygon>
                            <polygon id="Shape" fill="#494746" fill-rule="nonzero" opacity="0.5" points="7.03493854 37.3669848 9.4427554 44.386599 9.90138718 37.6982189"></polygon>
                            <polygon id="Shape" fill="#494746" fill-rule="nonzero" opacity="0.7" points="25.1190445 45.6910208 16.8509327 44.2769061 15.8954498 49.0033614"></polygon>
                        </g>
                    </g>
                </g>
            </g>
        </g>
    </g>
</svg>