<?xml version="1.0" encoding="utf-8"?>
<!-- Generator: Adobe Illustrator 21.1.0, SVG Export Plug-In . SVG Version: 6.00 Build 0)  -->
<svg version="1.1" xmlns="http://www.w3.org/2000/svg" xmlns:xlink="http://www.w3.org/1999/xlink" x="0px" y="0px"
	 viewBox="0 0 934 905.7" style="enable-background:new 0 0 934 905.7;" xml:space="preserve">
<style type="text/css">
	.st0{fill:#EF7B5E;}
	.st1{fill:#EF675E;fill-opacity:0;}
	.st2{filter:url(#Adobe_OpacityMaskFilter);}
	.st3{fill:#FFFFFF;}
	.st4{mask:url(#mask-2);}
	.st5{fill:#DFD0C1;}
	.st6{fill:#D9CBBB;}
	.st7{fill:#BFB1A5;}
	.st8{fill:#CCBEB0;}
	.st9{fill:#E5D9C9;}
	.st10{fill:#D2C5B7;}
	.st11{fill:#333333;}
	.st12{fill:#423D3B;}
	.st13{fill:#4C4A49;}
	.st14{fill:#423F3D;}
	.st15{fill:#565655;}
	.st16{fill:#4F4F4E;}
	.st17{fill:#494746;}
	.st18{fill:#545453;}
	.st19{fill:#4F4D4C;}
	.st20{fill:#AA6868;}
	.st21{fill:#965656;}
	.st22{opacity:0.8;fill:#565655;enable-background:new    ;}
	.st23{opacity:0.9;fill:#4F4F4E;enable-background:new    ;}
	.st24{opacity:0.9;fill:#565655;enable-background:new    ;}
	.st25{opacity:0.7;fill:#565655;enable-background:new    ;}
	.st26{opacity:0.4789;fill:#565655;enable-background:new    ;}
	.st27{opacity:0.2204;fill:#565655;enable-background:new    ;}
	.st28{opacity:0.6;fill:#4F4F4E;enable-background:new    ;}
	.st29{opacity:0.9;fill:#423F3D;enable-background:new    ;}
	.st30{opacity:0.8;fill:#423F3D;enable-background:new    ;}
	.st31{opacity:0.7;fill:#423F3D;enable-background:new    ;}
	.st32{opacity:0.6;fill:#423F3D;enable-background:new    ;}
	.st33{opacity:0.8;fill:#494746;enable-background:new    ;}
	.st34{opacity:0.5;fill:#494746;enable-background:new    ;}
	.st35{opacity:0.7;fill:#494746;enable-background:new    ;}
	.st36{fill:#A5A5A5;}
	.st37{opacity:0.5;fill:#FFFFFF;}
</style>
<g id="Layer_1">
	<title>Group 4</title>
	<desc>Created with Sketch.</desc>
	<g id="Page-1">
		<g id="ats-cover-letter" transform="translate(-56.000000, -41.000000)">
			<g id="Group-4" transform="translate(47.903201, 41.117442)">
				<circle id="Oval-4" class="st0" cx="488" cy="460.9" r="386.2"/>
				<g id="Group-13">
					<g id="Mask">
						<path id="path-1_1_" class="st1" d="M488,847c213.3,0,386.2-172.9,386.2-386.2S701.3,74.7,488,74.7S-16.8,371.5-16.8,584.8
							S274.7,847,488,847z"/>
					</g>
					<defs>
						<filter id="Adobe_OpacityMaskFilter" filterUnits="userSpaceOnUse" x="82.7" y="124" width="829.1" height="644.9">
							<feColorMatrix  type="matrix" values="1 0 0 0 0  0 1 0 0 0  0 0 1 0 0  0 0 0 1 0"/>
						</filter>
					</defs>
					<mask maskUnits="userSpaceOnUse" x="82.7" y="124" width="829.1" height="644.9" id="mask-2">
						<g class="st2">
							<path id="path-1" class="st3" d="M488,847c213.3,0,386.2-172.9,386.2-386.2S701.3,74.7,488,74.7S-16.8,371.5-16.8,584.8
								S274.7,847,488,847z"/>
						</g>
					</mask>
					<g class="st4">
						<g transform="translate(8.203955, 3.999609)">
							<polygon id="Path-2" class="st5" points="554.3,197.7 493,253.6 460.2,385.1 470.1,446.1 475,506.2 493,606.2 525.1,696.1 
								563,720.1 597.3,720.1 712.5,681.3 768.4,642 797.4,570.9 789,453.5 773.2,338.1 728.9,239.3 712.5,211.5 646.4,188.7 
								591.3,188.7 							"/>
							<polygon id="Shape" class="st6" points="531.2,511.6 523.2,488.2 537.9,414.5 549.9,361.7 550,361.7 554.1,394.8 
								550.3,486.6 572.4,502.6 575.5,528.4 							"/>
							<polygon id="Shape_1_" class="st7" points="464,439.9 464.4,442.9 483.7,442.9 480.7,438.6 							"/>
							<polygon id="Shape_2_" class="st3" points="476.4,438.9 480.4,424.5 474.7,410.7 476.9,410.2 502,423.1 499.5,427.9 
								480.7,438.9 							"/>
							<polygon id="Shape_3_" class="st7" points="452.5,387.4 455.1,376.8 471.7,374 481,396.5 455.4,400.6 							"/>
							<polygon id="Shape_4_" class="st8" points="480.4,438.8 518,416.4 514.3,426.7 483.5,443 							"/>
							<polygon id="Shape_5_" class="st8" points="455.3,400.1 480.9,396.2 478.4,405.1 456.8,407.9 							"/>
							<polygon id="Shape_6_" class="st8" points="480.6,396.7 471.3,374.1 507.1,376.6 519.7,391.4 519.7,412.4 518,416.9 
								513.1,419.8 							"/>
							<polygon id="Shape_7_" class="st9" points="481.7,511.6 519.4,412.4 519.4,391.2 538.1,414.5 523.5,488.2 531.5,511.5 
								501.6,524.4 							"/>
							<polygon id="Shape_8_" class="st5" points="477.9,405.1 480.6,396.2 513.4,419.5 507.1,423.2 							"/>
							<polygon id="Shape_9_" class="st5" points="507,376.9 497.1,352.7 486.3,255.9 552.2,192.7 540.6,335.3 550.3,361.6 
								538.1,415.2 							"/>
							<polygon id="Shape_10_" class="st5" points="461.2,480.1 464.3,442.5 483.7,442.5 514.3,426.3 482.1,511.5 487.4,534.2 
								477.5,557.8 							"/>
							<polygon id="Shape_11_" class="st6" points="551.9,193 620.4,181 619.3,296.8 540.1,335.6 							"/>
							<polygon id="Shape_12_" class="st10" points="486.3,255.9 486.6,255.9 497.5,352.7 460.2,354.6 							"/>
							<polygon id="Shape_13_" class="st11" points="501.6,423.2 476.9,410.7 458.5,415.2 456.8,407.5 478.1,404.8 507.5,423.1 
								498.8,428.4 							"/>
							<polygon id="Shape_14_" class="st12" points="458.4,414.9 474.8,410.5 480.9,424.3 476.7,438.8 463.8,440 							"/>
							<polygon id="Shape_15_" class="st13" points="483.4,353.3 497.4,352.4 507.3,376.8 507.1,376.9 507.1,377.1 							"/>
							<polygon id="Shape_16_" class="st14" points="471.6,374.3 455.1,377.1 460.4,354.3 483.5,353 507.8,377.1 							"/>
							<polygon id="Shape_17_" class="st15" points="422.1,273.3 305,315.6 383.5,387 							"/>
							<polygon id="Shape_18_" class="st15" points="384.9,387 341.8,475 405.7,401.6 							"/>
							<polygon id="Shape_19_" class="st15" points="416.1,172.9 486.6,255.9 524.4,130.2 							"/>
							<polygon id="Shape_20_" class="st16" points="295,315.6 339.2,474.9 373.8,388.4 							"/>
							<polygon id="Shape_21_" class="st16" points="524.4,130.2 620.3,181.2 626.5,120 							"/>
							<polygon id="Shape_22_" class="st16" points="486.6,255.9 432.7,266.2 452.8,387.2 							"/>
							<polygon id="Shape_23_" class="st14" points="429,264.5 305,314.2 412.4,172.9 							"/>
							<polygon id="Shape_24_" class="st14" points="464.4,442.7 384.9,387 452.8,387.2 							"/>
							<polygon id="Shape_25_" class="st14" points="299.4,349.4 236.3,389 319,424.6 							"/>
							<polygon id="Shape_26_" class="st14" points="525.7,132.9 486.6,255.9 552.1,193 							"/>
							<polygon id="Shape_27_" class="st17" points="452.8,387.2 384.9,385.8 430.2,265.7 							"/>
							<polygon id="Shape_28_" class="st17" points="461.3,480.1 343.2,475 407.1,404.1 464.4,442.7 							"/>
							<polygon id="Shape_29_" class="st17" points="245,397.3 332.2,475 322,429.8 							"/>
							<polygon id="Shape_30_" class="st17" points="552.1,193 620.3,181.2 529.1,136.3 							"/>
							<polygon id="Shape_31_" class="st17" points="417.1,182.1 430.4,264.9 486.6,255.9 							"/>
							<polygon id="Shape_32_" class="st3" points="608.9,387 600.5,371.2 615.4,367.3 651.5,383 623.8,400.4 606,403.7 							"/>
							<polygon id="Shape_33_" class="st7" points="553.6,394.8 549.9,361.7 594.3,331.3 636.7,314.5 620.6,352.7 575.4,364.8 
								572.7,409.7 567,420.9 							"/>
							<polygon id="Shape_34_" class="st8" points="673.7,305.2 649.5,296.9 690.6,197.5 723.6,218.6 740,261.5 719.5,330.3 							
								"/>
							<polygon id="Shape_35_" class="st8" points="575,364.4 583.3,369.6 578,408.8 572.4,410 							"/>
							<polygon id="Shape_36_" class="st8" points="572.4,409.6 623.5,399.9 635,412.4 566.7,420.6 							"/>
							<polygon id="Shape_37_" class="st8" points="620.1,352.9 636.4,314.6 719.5,329.9 685.7,361.9 669.4,372.1 							"/>
							<polygon id="Shape_38_" class="st8" points="719.2,330.2 739.9,261.5 775.3,336.7 							"/>
							<polygon id="Shape_39_" class="st9" points="615.3,359.7 620.1,352.4 669.5,371.8 661.4,377.1 							"/>
							<polygon id="Shape_40_" class="st6" points="574.9,364.7 620.6,352.4 615.6,359.7 583.1,370.1 							"/>
							<polygon id="Shape_41_" class="st10" points="623.4,400.2 685.5,361.6 685.7,361.7 634.6,412.7 							"/>
							<polygon id="Shape_42_" class="st10" points="619,297.1 620.1,181 690.8,197.5 649.9,297.1 							"/>
							<polygon id="Shape_43_" class="st12" points="584.5,396.2 587.5,374.5 600.8,371 609.4,386.9 606.4,403.5 590.6,406.6 
															"/>
							<polygon id="Shape_44_" class="st11" points="582.8,370 615.4,359.5 661.6,376.8 651.3,383.3 615.3,367.8 587.8,374.6 
								585,396.2 590.9,406.5 577.7,408.9 							"/>
							<polygon id="Shape_45_" class="st13" points="540.1,335.1 559.4,325.7 550,362.5 							"/>
							<polygon id="Shape_46_" class="st14" points="559,326 619,296.6 649.8,296.6 673.9,304.9 719.4,329.9 719.4,330 636.6,315 
								594.6,331.6 549.7,362.2 							"/>
							<polygon id="Shape_47_" class="st15" points="620.3,181.2 690.6,197.6 626.5,120 							"/>
							<polygon id="Shape_48_" class="st15" points="723.6,218.8 739.9,261.7 861.1,213 							"/>
							<polygon id="Shape_49_" class="st15" points="888.1,303.3 774.8,336.4 844,365.3 							"/>
							<polygon id="Shape_50_" class="st15" points="791.3,429.6 843.7,411.4 774.8,336.4 							"/>
							<polygon id="Shape_51_" class="st16" points="690.6,197.6 723.6,218.8 738.6,130.2 							"/>
							<polygon id="Shape_52_" class="st16" points="861.1,213 807.6,233.8 889.2,303.3 							"/>
							<polygon id="Shape_53_" class="st16" points="844,366.7 774.8,336.4 845.1,411.4 901.2,391.5 							"/>
							<polygon id="Shape_54_" class="st18" points="627.7,120 690.6,197.6 739.9,130.2 							"/>
							<polygon id="Shape_55_" class="st18" points="822.1,166.1 723.6,218.8 861.1,211.9 							"/>
							<polygon id="Shape_56_" class="st18" points="739.9,261.7 774.8,336.4 808.9,233.8 							"/>
							<polygon id="Shape_57_" class="st18" points="901.2,390.3 890.6,303.3 844,366.7 							"/>
							<polygon id="Shape_58_" class="st17" points="739.9,130.2 723.6,218.8 822.1,164.9 							"/>
							<polygon id="Shape_59_" class="st17" points="808.9,236.3 774.8,336.4 888.1,303.3 							"/>
							<polygon id="Shape_60_" class="st5" points="572.1,502.8 549.9,486.8 553.6,394.3 567.1,420.3 634.6,412.4 685.4,361.6 
								719.4,329.6 710.1,434.9 575,528.6 							"/>
							<polygon id="Shape_61_" class="st9" points="578.6,596 557.8,589 531.2,580.9 528.7,567 531.1,538.8 554.8,542.6 575.2,528 
								651.5,580.6 608.3,606.6 							"/>
							<polygon id="Shape_62_" class="st5" points="575,528.3 710.1,434.4 702,468.1 651.3,581.1 							"/>
							<polygon id="Shape_63_" class="st5" points="575.4,629.4 608.1,606.1 673.2,702.6 578.6,729 							"/>
							<polygon id="Shape_64_" class="st5" points="608,606.4 651.2,580.5 760.6,661.6 672.8,702.7 							"/>
							<polygon id="Shape_65_" class="st6" points="701.5,468 709.6,434.7 719.1,329.9 775,336.2 791.6,429.6 796.1,503.7 
								729.5,552.4 650.9,581.1 							"/>
							<polygon id="Shape_66_" class="st6" points="701.5,468 709.6,434.7 719.1,329.9 775,336.2 791.6,429.6 							"/>
							<polygon id="Shape_67_" class="st6" points="651,580.8 729.2,552 796,503.4 800.3,574.3 788.8,623.8 760.4,662 							"/>
							<polygon id="Shape_68_" class="st15" points="845.2,412.5 796,503.7 901.2,477.5 							"/>
							<polygon id="Shape_69_" class="st15" points="857.7,490.8 800.2,574.3 867.9,580.8 							"/>
							<polygon id="Shape_70_" class="st15" points="788.5,623.8 841.5,645.7 800.2,573.2 							"/>
							<polygon id="Shape_71_" class="st16" points="857.7,488.3 869.2,580.8 903.6,480 							"/>
							<polygon id="Shape_72_" class="st16" points="760.2,661.7 736.2,706.2 782.5,683.2 							"/>
							<polygon id="Shape_73_" class="st18" points="791.3,429.6 796,503.7 844.8,411.7 							"/>
							<polygon id="Shape_74_" class="st18" points="800.2,574.3 842.6,644.5 871.8,583.3 							"/>
							<polygon id="Shape_75_" class="st14" points="760.2,661.7 782.5,683.2 841.5,648.2 							"/>
							<polygon id="Shape_76_" class="st14" points="656.5,723.5 735.8,706.3 672.9,701.6 							"/>
							<polygon id="Shape_77_" class="st17" points="844,411.4 901.2,475 901.2,394.2 							"/>
							<polygon id="Shape_78_" class="st19" points="796,501.9 800.2,575.7 860.7,487.5 							"/>
							<polygon id="Shape_79_" class="st17" points="788.5,623.8 760.2,661.7 841.5,645.7 							"/>
							<polygon id="Shape_80_" class="st17" points="672.9,702.6 735.8,705.1 760.2,661.7 							"/>
							<polygon id="Shape_81_" class="st7" points="487.1,534.5 481.7,511.2 501.6,523.9 513.7,545.1 							"/>
							<polygon id="Shape_82_" class="st8" points="513.1,545.1 501.2,523.9 531.5,538.8 522.2,545.4 							"/>
							<polygon id="Shape_83_" class="st6" points="540.4,723.1 519.4,695.9 520.8,639.8 539.2,639.7 575.7,629.1 578.9,728.9 
															"/>
							<polygon id="Shape_84_" class="st6" points="485.4,596 477.3,557.2 487,534.2 513.2,544.6 509,570.7 504.7,583.6 
								495.5,599.1 							"/>
							<polygon id="Shape_85_" class="st10" points="504.4,583.7 508.7,570.5 512.9,544.6 522.2,545.1 531.4,538.7 529.1,567 
								531.5,580.6 519.7,589 							"/>
							<polygon id="Shape_86_" class="st10" points="519.4,695.9 485.2,595.5 495.5,598.7 507,610.5 505.8,629.4 521.1,639.7 
								519.7,695.8 519.6,695.9 							"/>
							<polygon id="Shape_87_" class="st10" points="531.2,539.1 501.4,524.2 531.2,511.2 575.5,528 554.8,543 							"/>
							<polygon id="Shape_88_" class="st20" points="495.2,599 504.4,583.4 519.9,588.7 531.2,580.5 562.8,590.3 581.6,596.6 
								608.3,606.1 608.3,606.3 565.9,603.9 537.1,607.4 519.7,607.4 506.8,610.6 							"/>
							<polygon id="Shape_89_" class="st20" points="521,640.1 505.4,629.6 506.7,610.6 519.7,606.9 537.1,606.9 565.9,603.5 
								608.6,606.1 575.7,629.6 539.2,640.1 							"/>
							<polygon id="Shape_90_" class="st21" points="507,610.6 506.8,610.6 519.7,606.9 537.1,606.9 565.9,603.5 608.3,606.1 
								608.3,606.3 565.9,607.4 537.9,610.6 							"/>
							<polygon id="Shape_91_" class="st22" points="200.8,458.5 250.7,414.1 276.3,513.7 							"/>
							<polygon id="Shape_92_" class="st23" points="258.1,416.1 299,563.8 376.2,519.1 							"/>
							<polygon id="Shape_93_" class="st15" points="305.6,562 476.8,591.2 384,518.3 							"/>
							<polygon id="Shape_94_" class="st24" points="373.9,580.5 414.9,731.8 471.2,663.1 							"/>
							<polygon id="Shape_95_" class="st25" points="366.1,744.5 258.1,725.7 384,680.1 							"/>
							<polygon id="Shape_96_" class="st25" points="281,652.5 181.3,527.1 295.8,576.4 							"/>
							<polygon id="Shape_97_" class="st26" points="98,622.3 172,648.2 155,591.2 							"/>
							<polygon id="Shape_98_" class="st26" points="91.2,663.6 194.6,672.6 176.9,656 							"/>
							<polygon id="Shape_99_" class="st27" points="74.5,646.3 143.2,652.4 105.3,631.8 							"/>
							<polygon id="Shape_100_" class="st27" points="123.1,673.8 173.8,691.5 181.5,677.6 							"/>
							<polygon id="Shape_101_" class="st16" points="485.6,595.7 399.8,479.2 461.3,480.1 							"/>
							<polygon id="Shape_102_" class="st23" points="305.6,567.9 393,663.9 371.3,580 							"/>
							<polygon id="Shape_103_" class="st28" points="259.8,709.9 177.6,704.6 268.2,666.7 							"/>
							<polygon id="Shape_104_" class="st28" points="206.4,575.2 200.8,656.6 236.8,613.3 							"/>
							<polygon id="Shape_105_" class="st14" points="342.3,481.6 485.6,596.9 396.1,479.2 							"/>
							<polygon id="Shape_106_" class="st29" points="541.6,724.2 411.9,746.7 477.5,663.6 520.8,697 							"/>
							<polygon id="Shape_107_" class="st30" points="411.6,725.9 372,764.9 391.8,670.5 							"/>
							<polygon id="Shape_108_" class="st31" points="215.2,473.4 139,516.3 273.7,516.3 							"/>
							<polygon id="Shape_109_" class="st32" points="178.7,540.2 142.2,560.9 200.8,567.7 							"/>
							<polygon id="Shape_110_" class="st32" points="244.8,619.2 183.7,693.1 273.7,655.4 							"/>
							<polygon id="Shape_111_" class="st30" points="304.4,573.6 286.1,653.4 387.1,670.7 							"/>
							<polygon id="Shape_112_" class="st17" points="518.2,693.3 382.7,579.7 485.6,596.9 							"/>
							<polygon id="Shape_113_" class="st33" points="296,567.7 181.5,518.3 282,518.3 							"/>
							<polygon id="Shape_114_" class="st34" points="160.1,575.2 189.5,660.8 195.1,579.2 							"/>
							<polygon id="Shape_115_" class="st35" points="380.7,676.7 279.8,659.5 268.2,717.1 							"/>
						</g>
					</g>
				</g>
			</g>
		</g>
	</g>
</g>
<g id="Layer_2">
	<g>
		<polygon class="st36" points="780.9,350.2 706.9,345.5 706.9,339.7 781.2,344.2 		"/>
	</g>
	<path class="st36" d="M432.8,402c-0.8,1.2-2,3.3-2.8,5.9l35.1,1.3l0.2-6L432.8,402z"/>
	<path class="st37" d="M668.1,332.8c-8.9-2.6-25.6-6.4-45.1-6.2c-37.2,0.4-67.3,15.5-87.2,43.6c-5.5-0.1-15.8,0.7-25.9,6.9
		c-18.5-10-41.6-7.9-57.7-2.4c-16.8,5.8-29.3,16.3-33.2,28c-7.7,22.5-3.6,48.4,10.4,66.1c8.3,10.5,19,16.4,29.6,16.4
		c0.9,0,1.8,0,2.8-0.1c29.8-2.9,47.5-14.4,55.6-36.2c7.4-19.7,1.9-50.7-0.5-61.9c6-3.5,12.2-4.4,16.3-4.6c0.5,5.3,1.7,13.9,4.3,23.5
		c5.8,21.3,15.9,37.9,29.2,47.9c10.6,7.9,23.1,11.9,37.5,11.9c7.4,0,15.4-1.1,23.8-3.2c26.1-6.7,44-20,53.4-39.5
		c7.4-15.5,9.3-35,5.2-56.6c-0.6-3.2-1.3-6.2-2-9c3.8-11.1,22.1-9.1,22.1-9.1v-9.8C696.3,337.7,673.1,333.7,668.1,332.8z
		 M506.3,444.6c-4.4,11.6-13.5,25.4-45.6,28.5c-7.4,0.7-15.4-3.6-21.8-11.7c-8.7-11-16.2-32-8.4-54.8c2.8-8.1,12.6-15.9,25.8-20.5
		c8.3-2.9,16.2-4.1,23.3-4.1c5.1,0,11.3,0.8,14,1.6c4.1,1.3,12,6.7,13.9,17.5C509.2,412,510.8,432.6,506.3,444.6z M670.7,417.7
		c-7.8,16.2-23.1,27.3-45.6,33.1c-20.8,5.3-37.9,3.1-51-6.7c-6.3-4.7-11.2-10.9-15.1-17.5c0.4-0.1,0.5-0.4,0.5-0.9
		c-0.4-4.6,1.7-12.9-1.8-21c-2.1-4.9-6.7-13.5-10-19.5l0.1,0c-0.4-9.9,4.4-16,4.8-16.6c17.3-19.4,40.9-29.4,70.3-29.9
		c12.2-0.2,24.8,1.6,31.8,4.7s14.1,8.3,19.9,22.9C678.3,381.6,679.8,398.7,670.7,417.7z"/>
</g>
<g id="Layer_3">
	<polygon class="st9" points="519.5,396.3 519.5,416.5 497.6,475.1 528.5,467.7 538.2,419.3 	"/>
	<polygon class="st8" points="455.6,404.2 457.1,411.6 478.2,408.9 473.9,401.4 	"/>
	<polygon class="st7" points="458.9,388.7 453,391.3 455.7,404.2 480.7,400.4 469.7,388.4 	"/>
	<polygon class="st16" points="775.1,340.4 782,348.3 784.4,344.6 	"/>
	<polygon class="st15" points="775.1,340.4 777.3,352.5 783.8,350.1 	"/>
</g>
</svg>
