<?xml version="1.0" encoding="UTF-8"?>
<svg width="811px" height="631px" viewBox="0 0 811 631" version="1.1" xmlns="http://www.w3.org/2000/svg" xmlns:xlink="http://www.w3.org/1999/xlink">
    <!-- Generator: Sketch 48.2 (47327) - http://www.bohemiancoding.com/sketch -->
    <title>Group 2</title>
    <desc>Created with Sketch.</desc>
    <defs></defs>
    <g id="Desktop-HD" stroke="none" stroke-width="1" fill="none" fill-rule="evenodd" transform="translate(-150.000000, -427.000000)">
        <g id="Group-2" transform="translate(149.705140, 425.832481)">
            <polygon id="Path-2" fill="#DFD0C1" points="469.883358 77.3558486 409.929508 132.032915 377.935706 260.515897 387.579343 320.039155 392.348353 378.790597 409.929508 476.526869 441.36679 564.286404 478.369272 587.822728 511.87827 587.822728 624.372475 549.910316 679.037355 511.477945 707.387373 442.042945 699.149254 327.314536 683.676375 214.600972 640.422185 117.998051 624.372475 90.9032495 559.816165 68.58152 505.963723 68.58152"></polygon>
            <g id="geometric-face-final" transform="translate(0.225862, 0.418207)" fill-rule="nonzero">
                <g transform="translate(0.343241, 0.731552)">
                    <g id="quad-1" transform="translate(157.837850, 0.000000)">
                        <polygon id="Shape" fill="#D9CBBB" points="288.907591 382.969479 281.014443 360.048991 295.434618 288.099909 307.122549 236.490863 307.27434 236.490863 311.220914 268.822413 307.577923 358.531078 329.132289 374.165583 332.168115 399.36294"></polygon>
                        <polygon id="Shape" fill="#BFB1A5" points="223.181954 312.909756 223.637328 315.794691 242.45945 315.794691 239.575415 311.627562"></polygon>
                        <polygon id="Shape" fill="#FFFFFF" points="235.325259 311.931145 239.271833 297.814553 233.655554 284.305126 235.780632 283.849752 260.370825 296.448431 257.942164 301.153962 239.575415 311.931145"></polygon>
                        <polygon id="Shape" fill="#BFB1A5" points="211.949397 261.53643 214.529849 251.21462 230.771519 248.482377 239.878998 270.492117 214.833431 274.438691"></polygon>
                        <polygon id="Shape" fill="#CCBEB0" points="239.271833 311.779354 276.00533 289.921405 272.362339 299.939631 242.307659 315.877719"></polygon>
                        <polygon id="Shape" fill="#CCBEB0" points="214.68164 273.983317 239.727207 270.188534 237.298546 278.840639 216.199553 281.572883"></polygon>
                        <polygon id="Shape" fill="#CCBEB0" points="239.423624 270.643908 230.316145 248.634168 265.379938 251.062829 277.675034 265.483004 277.675034 285.974831 276.00533 290.376779 271.148008 293.260814"></polygon>
                        <polygon id="Shape" fill="#E5D9C9" points="240.486163 382.969479 277.371452 285.974831 277.371452 265.331212 295.586409 288.099909 281.318026 360.048991 289.211174 382.817687 259.915451 395.416366"></polygon>
                        <polygon id="Shape" fill="#DFD0C1" points="236.843172 278.840639 239.423624 270.188534 271.451591 292.957231 265.379938 296.600222"></polygon>
                        <polygon id="Shape" fill="#DFD0C1" points="265.228147 251.366412 255.513503 227.686967 245.039902 133.12098 309.399419 71.3419164 298.01507 210.68634 307.577923 236.339072 295.586409 288.707074"></polygon>
                        <polygon id="Shape" fill="#DFD0C1" points="220.44971 352.155842 223.485536 315.422345 242.45945 315.422345 272.362339 299.636049 240.941537 382.817687 246.102442 404.979219 236.387798 428.051498"></polygon>
                        <polygon id="Shape" fill="#D9CBBB" points="309.095836 71.645499 376.035804 59.957568 374.973265 173.042095 297.559696 210.989923"></polygon>
                        <polygon id="Shape" fill="#D2C5B7" points="245.039902 133.12098 245.343485 133.12098 255.968877 227.686967 219.538962 229.508463"></polygon>
                        <polygon id="Shape" fill="#333333" points="259.915451 296.600222 235.780632 284.305126 217.869258 288.707074 216.199553 281.2693 236.994963 278.537056 265.683521 296.448431 257.183207 301.609336"></polygon>
                        <polygon id="Shape" fill="#423D3B" points="217.717466 288.403492 233.807345 284.153335 239.727207 297.662762 235.628841 311.779354 223.030162 312.993684"></polygon>
                        <polygon id="Shape" fill="#4C4A49" points="242.155868 228.294132 255.817086 227.383384 265.53173 251.21462 265.379938 251.366412 265.379938 251.518203"></polygon>
                        <polygon id="Shape" fill="#423F3D" points="230.619728 248.785959 214.529849 251.518203 219.690753 229.20488 242.307659 227.99055 265.987103 251.518203"></polygon>
                        <polygon id="Shape" fill="#565655" points="182.327339 150.098845 67.8994421 191.408844 144.554054 261.232847"></polygon>
                        <polygon id="Shape" fill="#565655" points="145.920176 261.232847 103.873983 347.146729 166.260212 275.50123"></polygon>
                        <polygon id="Shape" fill="#565655" points="176.43023 52.0644198 245.343485 133.12098 282.228774 10.3218092"></polygon>
                        <polygon id="Shape" fill="#4F4F4E" points="58.1089025 191.408844 101.296308 347.054962 135.067097 262.598969"></polygon>
                        <polygon id="Shape" fill="#4F4F4E" points="282.228774 10.3218092 375.884013 60.1093593 381.955665 0.303582623"></polygon>
                        <polygon id="Shape" fill="#4F4F4E" points="245.343485 133.12098 191.609361 143.139207 212.252979 261.384638"></polygon>
                        <polygon id="Shape" fill="#423F3D" points="189.028909 141.469502 67.8994421 190.042722 172.787238 52.0644198"></polygon>
                        <polygon id="Shape" fill="#423F3D" points="223.637328 315.574136 145.920176 261.232847 212.252979 261.384638"></polygon>
                        <polygon id="Shape" fill="#423F3D" points="62.4356419 224.423454 0.808369423 263.130238 81.5613471 297.890449"></polygon>
                        <polygon id="Shape" fill="#423F3D" points="283.506923 12.9723788 245.343485 133.12098 309.247627 71.645499"></polygon>
                        <polygon id="Shape" fill="#494746" points="212.252979 261.384638 145.920176 260.018516 190.243239 142.683833"></polygon>
                        <polygon id="Shape" fill="#494746" points="220.601501 352.155842 105.240105 347.146729 167.626334 277.929891 223.637328 315.574136"></polygon>
                        <polygon id="Shape" fill="#494746" points="9.30799585 271.251073 94.4629215 347.146729 84.444695 302.975458"></polygon>
                        <polygon id="Shape" fill="#494746" points="309.247627 71.645499 375.884013 60.1093593 286.855143 16.2245163"></polygon>
                        <polygon id="Shape" fill="#494746" points="177.439581 61.0510294 190.39503 141.924876 245.343485 133.12098"></polygon>
                    </g>
                    <g id="quad-2" transform="translate(454.486798, 0.000000)">
                        <polygon id="Shape" fill="#FFFFFF" points="68.1542988 261.232847 59.957568 245.750133 74.5295339 241.95535 109.745118 257.286273 82.7262647 274.2869 65.2702639 277.474517"></polygon>
                        <polygon id="Shape" fill="#BFB1A5" points="14.116592 268.822413 10.4736005 236.490863 53.8859155 206.739766 95.3249436 190.346305 79.5386472 227.686967 35.3673756 239.526689 32.7869233 283.394378 27.1706447 294.323353"></polygon>
                        <polygon id="Shape" fill="#CCBEB0" points="131.451276 181.238826 107.771831 173.193886 147.996529 76.047447 180.176287 96.6910654 196.266166 138.585467 176.229713 205.829018"></polygon>
                        <polygon id="Shape" fill="#CCBEB0" points="35.0637929 239.071315 43.1087324 244.23222 37.9478279 282.483631 32.4833406 283.697961"></polygon>
                        <polygon id="Shape" fill="#CCBEB0" points="32.4833406 283.242587 82.4226821 273.831526 93.6552391 285.974831 26.8670621 294.01977"></polygon>
                        <polygon id="Shape" fill="#CCBEB0" points="79.0832732 227.838758 95.0213609 190.498096 176.229713 205.373644 143.139207 236.642654 127.201119 246.660881"></polygon>
                        <polygon id="Shape" fill="#CCBEB0" points="175.92613 205.677227 196.114374 138.585467 230.722793 212.052462"></polygon>
                        <polygon id="Shape" fill="#E5D9C9" points="74.3777426 234.517576 79.0832732 227.383384 127.35291 246.357298 119.459762 251.518203"></polygon>
                        <polygon id="Shape" fill="#D9CBBB" points="34.9120016 239.374898 79.5386472 227.383384 74.6813252 234.517576 42.9569411 244.687594"></polygon>
                        <polygon id="Shape" fill="#D2C5B7" points="82.2708908 274.135108 142.987415 236.339072 143.139207 236.490863 93.1998652 286.278413"></polygon>
                        <polygon id="Shape" fill="#D2C5B7" points="78.0207341 173.345678 79.0832732 59.957568 148.14832 76.047447 108.227205 173.345678"></polygon>
                        <polygon id="Shape" fill="#423D3B" points="44.3230629 270.188534 47.2070978 248.937751 60.2611506 245.598342 68.6096728 261.081056 65.7256378 277.322726 50.2429241 280.358552"></polygon>
                        <polygon id="Shape" fill="#333333" points="42.6533585 244.535803 74.5295339 234.365785 119.611553 251.21462 109.593327 257.589855 74.3777426 242.410724 47.5106805 249.089542 44.7784369 270.188534 50.5465067 280.206761 37.6442452 282.635422"></polygon>
                        <polygon id="Shape" fill="#4C4A49" points="0.910747868 210.534549 19.7328705 201.275279 10.6253918 237.24982"></polygon>
                        <polygon id="Shape" fill="#423F3D" points="19.4292879 201.578862 78.0207341 172.890304 108.075414 172.890304 131.603067 180.935243 176.077921 205.373644 176.077921 205.525436 95.1731523 190.801678 54.1894982 207.043349 10.3218092 236.946237"></polygon>
                        <polygon id="Shape" fill="#565655" points="79.2350646 60.1093593 147.996529 76.1992383 85.306717 0.303582623"></polygon>
                        <polygon id="Shape" fill="#565655" points="180.176287 96.8428567 196.114374 138.737259 314.511597 91.2265782"></polygon>
                        <polygon id="Shape" fill="#565655" points="340.923285 179.41733 230.267419 211.748879 297.814553 239.982063"></polygon>
                        <polygon id="Shape" fill="#565655" points="246.357298 302.823666 297.51097 285.064083 230.267419 211.748879"></polygon>
                        <polygon id="Shape" fill="#4F4F4E" points="147.996529 76.1992383 180.176287 96.8428567 194.900044 10.3218092"></polygon>
                        <polygon id="Shape" fill="#4F4F4E" points="314.511597 91.2265782 262.295386 111.566614 341.985825 179.41733"></polygon>
                        <polygon id="Shape" fill="#4F4F4E" points="297.814553 241.348185 230.267419 211.748879 298.877092 285.064083 353.673756 265.634795"></polygon>
                        <polygon id="Shape" fill="#423F3D" points="86.5210475 0.303582623 147.996529 76.1992383 196.114374 10.3218092"></polygon>
                        <polygon id="Shape" fill="#423F3D" points="276.411978 45.3856021 180.176287 96.8428567 314.511597 90.164039"></polygon>
                        <polygon id="Shape" fill="#423F3D" points="196.114374 138.737259 230.267419 211.748879 263.509717 111.566614"></polygon>
                        <polygon id="Shape" fill="#423F3D" points="353.673756 264.420464 343.351946 179.41733 297.814553 241.348185"></polygon>
                        <polygon id="Shape" fill="#494746" points="196.114374 10.3218092 180.176287 96.8428567 276.411978 44.1712716"></polygon>
                        <polygon id="Shape" fill="#494746" points="263.509717 113.995275 230.267419 211.748879 340.923285 179.41733"></polygon>
                        <polygon id="Shape" fill="#DFD0C1" points="32.179758 374.317374 10.4736005 358.682869 14.116592 268.367039 27.3224361 293.716188 93.1998652 285.974831 142.835624 236.339072 176.077921 205.070062 166.970443 307.984571 35.0637929 399.514732"></polygon>
                    </g>
                    <g id="quad-3" transform="translate(443.861407, 204.918270)">
                        <polygon id="Shape" fill="#E5D9C9" points="49.1803849 260.47389 28.8403492 253.643281 2.88403492 245.750133 0.455373934 232.088915 2.73224361 204.614688 25.9563143 208.257679 45.840976 193.989296 120.37051 245.446551 78.1725254 270.7957"></polygon>
                        <polygon id="Shape" fill="#DFD0C1" points="45.6891847 194.292879 177.595834 102.610927 169.702686 135.549641 120.218719 245.901924"></polygon>
                        <polygon id="Shape" fill="#DFD0C1" points="45.9927674 293.109022 78.0207341 270.340326 141.621294 364.60273 49.1803849 390.407253"></polygon>
                        <polygon id="Shape" fill="#DFD0C1" points="77.8689428 270.643908 120.066927 245.294759 226.928011 324.529824 141.16592 364.754521"></polygon>
                        <polygon id="Shape" fill="#D2C5B7" points="169.247312 135.39785 177.14046 102.914509 186.39973 0.455373934 241.044603 6.6788177 257.286273 97.9053959 261.688221 170.309851 196.569748 217.820532 119.763345 245.901924"></polygon>
                        <polygon id="Shape" fill="#D9CBBB" points="119.915136 245.598342 196.266166 217.516949 261.53643 170.006269 265.786586 239.223107 254.554029 287.644535 226.776219 324.985198"></polygon>
                        <polygon id="Shape" fill="#565655" points="309.654275 81.2083516 261.53643 170.309851 364.299147 144.65712"></polygon>
                        <polygon id="Shape" fill="#565655" points="321.79758 157.711173 265.634795 239.223107 331.815807 245.598342"></polygon>
                        <polygon id="Shape" fill="#565655" points="254.250447 287.644535 306.011284 309.04711 265.634795 239.223107"></polygon>
                        <polygon id="Shape" fill="#4F4F4E" points="321.79758 155.282512 333.030137 245.598342 366.727808 147.085781"></polygon>
                        <polygon id="Shape" fill="#4F4F4E" points="226.624428 324.681615 203.096775 368.09393 248.330585 345.628816"></polygon>
                        <polygon id="Shape" fill="#423F3D" points="256.98269 97.9053959 261.53643 170.309851 308.439945 80.1458124"></polygon>
                        <polygon id="Shape" fill="#423F3D" points="265.634795 239.223107 307.073823 307.83278 335.61059 248.027003"></polygon>
                        <polygon id="Shape" fill="#423F3D" points="226.624428 324.681615 248.330585 345.628816 306.011284 311.475771"></polygon>
                        <polygon id="Shape" fill="#423F3D" points="138.281885 396.023531 201.730653 370.219009 141.317711 364.60273"></polygon>
                        <polygon id="Shape" fill="#494746" points="308.439945 80.1458124 364.299147 142.228459 364.299147 63.2969769"></polygon>
                        <polygon id="Shape" fill="#494746" points="261.53643 171.524182 265.634795 240.589229 321.79758 156.496842"></polygon>
                        <polygon id="Shape" fill="#494746" points="254.250447 287.644535 226.624428 324.681615 306.011284 309.04711"></polygon>
                        <polygon id="Shape" fill="#494746" points="141.317711 364.60273 201.730653 367.031391 226.624428 324.681615"></polygon>
                    </g>
                    <g id="quad-4" transform="translate(-0.000000, 287.642403)">
                        <polygon id="Shape" fill="#BFB1A5" points="403.636709 117.640399 398.324013 94.8717022 417.753301 107.31859 429.593023 127.962208"></polygon>
                        <polygon id="Shape" fill="#CCBEB0" points="428.985858 127.962208 417.449718 107.31859 447.049024 121.890556 437.941546 128.265791"></polygon>
                        <polygon id="Shape" fill="#D9CBBB" points="455.701129 301.915051 435.209302 275.351571 436.575424 220.554908 454.486798 220.403117 490.157757 210.081308 493.345374 307.531329"></polygon>
                        <polygon id="Shape" fill="#D9CBBB" points="401.967005 177.749758 394.073857 139.80193 403.484918 117.336816 429.137649 127.506834 425.039284 153.007774 420.789127 165.606453 411.83344 180.785584"></polygon>
                        <polygon id="Shape" fill="#D2C5B7" points="420.485545 165.758245 424.735701 152.855983 428.834067 127.506834 437.941546 127.962208 446.897233 121.738764 444.620363 149.364783 447.049024 162.722418 435.512885 170.919149"></polygon>
                        <polygon id="Shape" fill="#D2C5B7" points="435.209302 275.351571 401.815213 177.294384 411.83344 180.330211 423.065997 191.86635 421.851667 210.38489 436.879006 220.403117 435.512885 275.19978 435.361093 275.351571"></polygon>
                        <polygon id="Shape" fill="#D2C5B7" points="446.745442 122.194138 417.60151 107.622172 446.745442 94.8717022 490.005965 111.265164 469.817721 125.988921"></polygon>
                        <polygon id="Shape" fill="#AA6868" points="411.529857 180.633793 420.485545 165.454662 435.664676 170.615567 446.745442 162.570627 477.559078 172.13348 495.925826 178.356923 522.033932 187.616193 522.033932 187.767985 480.594904 185.491115 452.513511 188.830524 435.512885 188.830524 422.914206 192.018141"></polygon>
                        <polygon id="Shape" fill="#AA6868" points="436.727215 220.858491 421.548084 210.536681 422.762414 192.018141 435.512885 188.37515 452.513511 188.37515 480.594904 185.035741 522.337515 187.616193 490.157757 210.536681 454.486798 220.858491"></polygon>
                        <polygon id="Shape" fill="#965656" points="423.065997 192.018141 422.914206 192.018141 435.512885 188.37515 452.513511 188.37515 480.594904 185.035741 522.033932 187.616193 522.033932 187.767985 480.594904 188.830524 453.272468 192.018141"></polygon>
                        <polygon id="Shape" fill="#565655" opacity="0.8" points="123.919134 43.4144476 172.644145 0.00213255761 197.689711 97.3003632"></polygon>
                        <polygon id="Shape" fill="#4F4F4E" opacity="0.9" points="179.913222 1.97541961 219.834337 146.328957 295.274619 102.613059"></polygon>
                        <polygon id="Shape" fill="#565655" points="226.268562 144.507461 393.542587 173.044228 302.923174 101.854103"></polygon>
                        <polygon id="Shape" fill="#565655" opacity="0.9" points="293.031561 162.570627 333.104467 310.415364 388.052922 243.323605"></polygon>
                        <polygon id="Shape" fill="#565655" opacity="0.7" points="285.408184 322.786356 179.913222 304.419608 302.864184 259.944753"></polygon>
                        <polygon id="Shape" fill="#565655" opacity="0.7" points="202.319346 232.9259 104.869325 110.430312 216.739521 158.548157"></polygon>
                        <polygon id="Shape" fill="#565655" opacity="0.478883605" points="23.5302699 203.478385 95.8105861 228.759334 79.2064458 173.059306"></polygon>
                        <polygon id="Shape" fill="#565655" opacity="0.478883605" points="16.8462471 243.769865 117.862123 252.609754 100.5533 236.317605"></polygon>
                        <polygon id="Shape" fill="#565655" opacity="0.22044837" points="0.560821036 226.843946 67.6459282 232.879755 30.6537317 212.712416"></polygon>
                        <polygon id="Shape" fill="#565655" opacity="0.22044837" points="47.9625542 253.788156 97.5378592 271.070392 105.046212 257.499392"></polygon>
                        <polygon id="Shape" fill="#4F4F4E" points="402.118796 177.446176 318.329992 63.602692 378.439351 64.5134399"></polygon>
                        <polygon id="Shape" fill="#4F4F4E" opacity="0.9" points="226.268562 150.292269 311.72707 244.0993 290.476286 162.131992"></polygon>
                        <polygon id="Shape" fill="#4F4F4E" opacity="0.6" points="181.549115 289.012789 101.251511 283.851885 189.745845 246.814805"></polygon>
                        <polygon id="Shape" fill="#4F4F4E" opacity="0.6" points="129.383621 157.426461 123.919134 236.965108 159.134718 194.615332"></polygon>
                        <polygon id="Shape" fill="#423F3D" points="262.155384 65.9273486 402.118796 178.660506 314.687001 63.602692"></polygon>
                        <polygon id="Shape" fill="#423F3D" opacity="0.9" points="456.915459 302.97759 330.169714 324.98733 394.225648 243.778979 436.575424 276.414111"></polygon>
                        <polygon id="Shape" fill="#423F3D" opacity="0.8" points="329.866132 304.630556 291.159347 342.730175 310.51274 250.533177"></polygon>
                        <polygon id="Shape" fill="#423F3D" opacity="0.7" points="138.035726 57.9864135 63.5061922 99.8808155 195.109259 99.8808155"></polygon>
                        <polygon id="Shape" fill="#423F3D" opacity="0.6" points="102.364768 123.256677 66.6938097 143.444922 123.919134 150.12374"></polygon>
                        <polygon id="Shape" fill="#423F3D" opacity="0.6" points="166.876075 200.366664 107.22209 272.619328 195.109259 235.734039"></polygon>
                        <polygon id="Shape" fill="#423F3D" opacity="0.8" points="225.179656 155.83235 207.235658 233.836648 305.900011 250.685483"></polygon>
                        <polygon id="Shape" fill="#494746" points="433.994971 272.771119 301.632948 161.811671 402.118796 178.660506"></polygon>
                        <polygon id="Shape" fill="#494746" opacity="0.8" points="216.916408 150.12374 105.046212 101.854103 203.25519 101.854103"></polygon>
                        <polygon id="Shape" fill="#494746" opacity="0.5" points="84.1749883 157.426461 112.863546 241.063473 118.328033 161.373035"></polygon>
                        <polygon id="Shape" fill="#494746" opacity="0.7" points="299.642755 256.605344 201.130194 239.756509 189.745845 296.071085"></polygon>
                    </g>
                </g>
            </g>
        </g>
    </g>
</svg>