<?xml version="1.0" encoding="UTF-8"?>
<svg width="811px" height="631px" viewBox="0 0 811 631" version="1.1" xmlns="http://www.w3.org/2000/svg" xmlns:xlink="http://www.w3.org/1999/xlink">
    <!-- Generator: Sketch 48.2 (47327) - http://www.bohemiancoding.com/sketch -->
    <title>Group 13</title>
    <desc>Created with Sketch.</desc>
    <defs></defs>
    <g id="Desktop-HD" stroke="none" stroke-width="1" fill="none" fill-rule="evenodd" transform="translate(-1799.000000, -1489.000000)">
        <g id="Group-13" transform="translate(1799.000000, 1489.000000)">
            <polygon id="Path-2" fill="#DFD0C1" points="468.958866 76.3558486 409.005016 131.032915 377.011214 259.515897 386.654851 319.039155 391.423861 377.790597 409.005016 475.526869 440.442298 563.286404 477.444779 586.822728 510.953778 586.822728 623.447983 548.910316 678.112863 510.477945 706.462881 441.042945 698.224761 326.314536 682.751883 213.600972 639.497692 116.998051 623.447983 89.9032495 558.891672 67.58152 505.03923 67.58152"></polygon>
            <polygon id="Shape" fill="#D9CBBB" fill-rule="nonzero" points="446.390051 383.119238 438.496903 360.19875 452.917078 288.249668 464.605009 236.640622 464.7568 236.640622 468.703374 268.972172 465.060383 358.680837 486.614749 374.315342 489.650575 399.5127"></polygon>
            <polygon id="Shape" fill="#BFB1A5" fill-rule="nonzero" points="380.664414 313.059515 381.119788 315.94445 399.94191 315.94445 397.057875 311.777322"></polygon>
            <polygon id="Shape" fill="#FFFFFF" fill-rule="nonzero" points="392.807718 312.080904 396.754293 297.964312 391.138014 284.454885 393.263092 283.999512 417.853285 296.59819 415.424624 301.303721 397.057875 312.080904"></polygon>
            <polygon id="Shape" fill="#BFB1A5" fill-rule="nonzero" points="369.431857 261.686189 372.012309 251.36438 388.253979 248.632136 397.361458 270.641876 372.315891 274.58845"></polygon>
            <polygon id="Shape" fill="#CCBEB0" fill-rule="nonzero" points="396.754293 311.929113 433.48779 290.071164 429.844798 300.089391 399.790119 316.027478"></polygon>
            <polygon id="Shape" fill="#CCBEB0" fill-rule="nonzero" points="372.1641 274.133076 397.209667 270.338294 394.781006 278.990398 373.682013 281.722642"></polygon>
            <polygon id="Shape" fill="#CCBEB0" fill-rule="nonzero" points="396.906084 270.793667 387.798605 248.783927 422.862398 251.212588 435.157494 265.632763 435.157494 286.12459 433.48779 290.526538 428.630468 293.410573"></polygon>
            <polygon id="Shape" fill="#E5D9C9" fill-rule="nonzero" points="397.968623 383.119238 434.853912 286.12459 434.853912 265.480972 453.068869 288.249668 438.800486 360.19875 446.693634 382.967447 417.397911 395.566125"></polygon>
            <polygon id="Shape" fill="#DFD0C1" fill-rule="nonzero" points="394.325632 278.990398 396.906084 270.338294 428.934051 293.10699 422.862398 296.749982"></polygon>
            <polygon id="Shape" fill="#DFD0C1" fill-rule="nonzero" points="422.710607 251.516171 412.995963 227.836726 402.522362 133.270739 466.881878 71.4916756 455.49753 210.836099 465.060383 236.488831 453.068869 288.856834"></polygon>
            <polygon id="Shape" fill="#DFD0C1" fill-rule="nonzero" points="377.93217 352.305602 380.967996 315.572104 399.94191 315.572104 429.844798 299.785808 398.423997 382.967447 403.584902 405.128978 393.870258 428.201257"></polygon>
            <polygon id="Shape" fill="#D9CBBB" fill-rule="nonzero" points="466.578296 71.7952582 533.518264 60.1073272 532.455725 173.191854 455.042156 211.139682"></polygon>
            <polygon id="Shape" fill="#D2C5B7" fill-rule="nonzero" points="402.522362 133.270739 402.825945 133.270739 413.451337 227.836726 377.021422 229.658222"></polygon>
            <polygon id="Shape" fill="#333333" fill-rule="nonzero" points="417.397911 296.749982 393.263092 284.454885 375.351718 288.856834 373.682013 281.419059 394.477423 278.686816 423.165981 296.59819 414.665667 301.759095"></polygon>
            <polygon id="Shape" fill="#423D3B" fill-rule="nonzero" points="375.199926 288.553251 391.289805 284.303094 397.209667 297.812521 393.111301 311.929113 380.512622 313.143443"></polygon>
            <polygon id="Shape" fill="#4C4A49" fill-rule="nonzero" points="399.638328 228.443892 413.299546 227.533144 423.014189 251.36438 422.862398 251.516171 422.862398 251.667962"></polygon>
            <polygon id="Shape" fill="#423F3D" fill-rule="nonzero" points="388.102188 248.935719 372.012309 251.667962 377.173213 229.354639 399.790119 228.140309 423.469563 251.667962"></polygon>
            <polygon id="Shape" fill="#565655" fill-rule="nonzero" points="339.809799 150.248604 225.381902 191.558603 302.036514 261.382606"></polygon>
            <polygon id="Shape" fill="#565655" fill-rule="nonzero" points="303.402636 261.382606 261.356443 347.296488 323.742672 275.650989"></polygon>
            <polygon id="Shape" fill="#565655" fill-rule="nonzero" points="333.91269 52.214179 402.825945 133.270739 439.711234 10.4715684"></polygon>
            <polygon id="Shape" fill="#4F4F4E" fill-rule="nonzero" points="215.591362 191.558603 258.778768 347.204721 292.549557 262.748728"></polygon>
            <polygon id="Shape" fill="#4F4F4E" fill-rule="nonzero" points="439.711234 10.4715684 533.366473 60.2591185 539.438125 0.453341852"></polygon>
            <polygon id="Shape" fill="#4F4F4E" fill-rule="nonzero" points="402.825945 133.270739 350.091821 143.288966 369.735439 261.534397"></polygon>
            <polygon id="Shape" fill="#423F3D" fill-rule="nonzero" points="346.511369 141.619261 225.381902 190.192481 330.269698 52.214179"></polygon>
            <polygon id="Shape" fill="#423F3D" fill-rule="nonzero" points="381.119788 315.723896 303.402636 261.382606 369.735439 261.534397"></polygon>
            <polygon id="Shape" fill="#423F3D" fill-rule="nonzero" points="219.918102 224.573213 158.290829 263.279998 239.043807 298.040208"></polygon>
            <polygon id="Shape" fill="#423F3D" fill-rule="nonzero" points="440.989383 13.122138 402.825945 133.270739 466.730087 71.7952582"></polygon>
            <polygon id="Shape" fill="#494746" fill-rule="nonzero" points="369.735439 261.534397 303.402636 260.168276 347.725699 142.833592"></polygon>
            <polygon id="Shape" fill="#494746" fill-rule="nonzero" points="378.083961 352.305602 262.722565 347.296488 325.108794 278.07965 381.119788 315.723896"></polygon>
            <polygon id="Shape" fill="#494746" fill-rule="nonzero" points="166.790456 271.400833 251.945382 347.296488 241.927155 303.125217"></polygon>
            <polygon id="Shape" fill="#494746" fill-rule="nonzero" points="466.730087 71.7952582 533.366473 60.2591185 444.337603 16.3742755"></polygon>
            <polygon id="Shape" fill="#494746" fill-rule="nonzero" points="334.922041 61.2007886 347.87749 142.074635 402.825945 133.270739"></polygon>
            <polygon id="Shape" fill="#FFFFFF" fill-rule="nonzero" points="522.285707 261.382606 514.088976 245.899892 528.660942 242.10511 563.876526 257.436032 536.857673 274.436659 519.401672 277.624276"></polygon>
            <polygon id="Shape" fill="#BFB1A5" fill-rule="nonzero" points="468.248 268.972172 464.605009 236.640622 508.017324 206.889525 549.456352 190.496064 533.670055 227.836726 489.498784 239.676449 486.918332 283.544138 481.302053 294.473112"></polygon>
            <polygon id="Shape" fill="#CCBEB0" fill-rule="nonzero" points="585.582684 181.388585 561.903239 173.343646 602.127937 76.1972062 634.307695 96.8408246 650.397574 138.735227 630.361121 205.978777"></polygon>
            <polygon id="Shape" fill="#CCBEB0" fill-rule="nonzero" points="489.195201 239.221075 497.240141 244.381979 492.079236 282.63339 486.614749 283.84772"></polygon>
            <polygon id="Shape" fill="#CCBEB0" fill-rule="nonzero" points="486.614749 283.392346 536.55409 273.981285 547.786647 286.12459 480.99847 294.169529"></polygon>
            <polygon id="Shape" fill="#CCBEB0" fill-rule="nonzero" points="533.214682 227.988518 549.152769 190.647855 630.361121 205.523404 597.270615 236.792414 581.332527 246.81064"></polygon>
            <polygon id="Shape" fill="#CCBEB0" fill-rule="nonzero" points="630.057538 205.826986 650.245783 138.735227 684.854202 212.202221"></polygon>
            <polygon id="Shape" fill="#E5D9C9" fill-rule="nonzero" points="528.509151 234.667335 533.214682 227.533144 581.484319 246.507058 573.59117 251.667962"></polygon>
            <polygon id="Shape" fill="#D9CBBB" fill-rule="nonzero" points="489.04341 239.524657 533.670055 227.533144 528.812734 234.667335 497.088349 244.837353"></polygon>
            <polygon id="Shape" fill="#D2C5B7" fill-rule="nonzero" points="536.402299 274.284868 597.118824 236.488831 597.270615 236.640622 547.331274 286.428173"></polygon>
            <polygon id="Shape" fill="#D2C5B7" fill-rule="nonzero" points="532.152142 173.495437 533.214682 60.1073272 602.279728 76.1972062 562.358613 173.495437"></polygon>
            <polygon id="Shape" fill="#423D3B" fill-rule="nonzero" points="498.454471 270.338294 501.338506 249.08751 514.392559 245.748101 522.741081 261.230815 519.857046 277.472485 504.374332 280.508311"></polygon>
            <polygon id="Shape" fill="#333333" fill-rule="nonzero" points="496.784767 244.685562 528.660942 234.515544 573.742962 251.36438 563.724735 257.739615 528.509151 242.560484 501.642089 249.239301 498.909845 270.338294 504.677915 280.35652 491.775654 282.785181"></polygon>
            <polygon id="Shape" fill="#4C4A49" fill-rule="nonzero" points="455.042156 210.684308 473.864279 201.425038 464.7568 237.399579"></polygon>
            <polygon id="Shape" fill="#423F3D" fill-rule="nonzero" points="473.560696 201.728621 532.152142 173.040063 562.206822 173.040063 585.734475 181.085002 630.20933 205.523404 630.20933 205.675195 549.304561 190.951438 508.320906 207.193108 464.453217 237.095996"></polygon>
            <polygon id="Shape" fill="#565655" fill-rule="nonzero" points="533.366473 60.2591185 602.127937 76.3489976 539.438125 0.453341852"></polygon>
            <polygon id="Shape" fill="#565655" fill-rule="nonzero" points="634.307695 96.9926159 650.245783 138.887018 768.643006 91.3763374"></polygon>
            <polygon id="Shape" fill="#565655" fill-rule="nonzero" points="795.054694 179.567089 684.398828 211.898639 751.945961 240.131823"></polygon>
            <polygon id="Shape" fill="#565655" fill-rule="nonzero" points="700.488707 302.973425 751.642379 285.213842 684.398828 211.898639"></polygon>
            <polygon id="Shape" fill="#4F4F4E" fill-rule="nonzero" points="602.127937 76.3489976 634.307695 96.9926159 649.031452 10.4715684"></polygon>
            <polygon id="Shape" fill="#4F4F4E" fill-rule="nonzero" points="768.643006 91.3763374 716.426794 111.716373 796.117233 179.567089"></polygon>
            <polygon id="Shape" fill="#4F4F4E" fill-rule="nonzero" points="751.945961 241.497944 684.398828 211.898639 753.0085 285.213842 807.805164 265.784554"></polygon>
            <polygon id="Shape" fill="#545453" fill-rule="nonzero" points="540.652456 0.453341852 602.127937 76.3489976 650.245783 10.4715684"></polygon>
            <polygon id="Shape" fill="#545453" fill-rule="nonzero" points="730.543386 45.5353613 634.307695 96.9926159 768.643006 90.3137982"></polygon>
            <polygon id="Shape" fill="#545453" fill-rule="nonzero" points="650.245783 138.887018 684.398828 211.898639 717.641125 111.716373"></polygon>
            <polygon id="Shape" fill="#545453" fill-rule="nonzero" points="807.805164 264.570224 797.483355 179.567089 751.945961 241.497944"></polygon>
            <polygon id="Shape" fill="#494746" fill-rule="nonzero" points="650.245783 10.4715684 634.307695 96.9926159 730.543386 44.3210308"></polygon>
            <polygon id="Shape" fill="#494746" fill-rule="nonzero" points="717.641125 114.145034 684.398828 211.898639 795.054694 179.567089"></polygon>
            <polygon id="Shape" fill="#DFD0C1" fill-rule="nonzero" points="486.311166 374.467133 464.605009 358.832628 468.248 268.516798 481.453844 293.865947 547.331274 286.12459 596.967032 236.488831 630.20933 205.219821 621.101851 308.13433 489.195201 399.664491"></polygon>
            <polygon id="Shape" fill="#E5D9C9" fill-rule="nonzero" points="492.686401 465.54192 472.346366 458.711311 446.390051 450.818163 443.96139 437.156945 446.23826 409.682717 469.462331 413.325709 489.346993 399.057326 563.876526 450.51458 521.678542 475.863729"></polygon>
            <polygon id="Shape" fill="#DFD0C1" fill-rule="nonzero" points="489.195201 399.360908 621.101851 307.678956 613.208703 340.617671 563.724735 450.969954"></polygon>
            <polygon id="Shape" fill="#DFD0C1" fill-rule="nonzero" points="489.498784 498.177052 521.526751 475.408355 585.12731 569.67076 492.686401 595.475283"></polygon>
            <polygon id="Shape" fill="#DFD0C1" fill-rule="nonzero" points="521.374959 475.711938 563.572944 450.362789 670.434027 529.597853 584.671936 569.822551"></polygon>
            <polygon id="Shape" fill="#D9CBBB" fill-rule="nonzero" points="612.753329 340.465879 620.646477 307.982539 629.905747 205.523404 684.550619 211.746847 700.792289 302.973425 705.194237 375.377881 640.075765 422.888561 563.269361 450.969954"></polygon>
            <polygon id="Shape" fill="#D9CBBB" fill-rule="nonzero" points="612.753329 340.465879 620.646477 307.982539 629.905747 205.523404 684.550619 211.746847 700.792289 302.973425"></polygon>
            <polygon id="Shape" fill="#D9CBBB" fill-rule="nonzero" points="563.421153 450.666371 639.772182 422.584979 705.042446 375.074298 709.292603 444.291136 698.060046 492.712565 670.282236 530.053227"></polygon>
            <polygon id="Shape" fill="#565655" fill-rule="nonzero" points="753.160292 286.276381 705.042446 375.377881 807.805164 349.725149"></polygon>
            <polygon id="Shape" fill="#565655" fill-rule="nonzero" points="765.303597 362.779202 709.140811 444.291136 775.321823 450.666371"></polygon>
            <polygon id="Shape" fill="#565655" fill-rule="nonzero" points="697.756463 492.712565 749.5173 514.11514 709.140811 443.291136"></polygon>
            <polygon id="Shape" fill="#4F4F4E" fill-rule="nonzero" points="765.303597 360.350541 776.536154 450.666371 810.233825 352.15381"></polygon>
            <polygon id="Shape" fill="#4F4F4E" fill-rule="nonzero" points="670.130444 529.749645 646.602791 573.16196 691.836602 550.696846"></polygon>
            <polygon id="Shape" fill="#545453" fill-rule="nonzero" points="700.488707 302.973425 705.042446 375.377881 752.774059 285.514282"></polygon>
            <polygon id="Shape" fill="#545453" fill-rule="nonzero" points="709.140811 444.291136 750.579839 512.900809 779.116606 453.095032"></polygon>
            <polygon id="Shape" fill="#423F3D" fill-rule="nonzero" points="670.130444 529.749645 691.836602 550.696846 749.5173 516.543801"></polygon>
            <polygon id="Shape" fill="#423F3D" fill-rule="nonzero" points="568.787901 590.091561 646.236669 573.287038 584.823727 568.67076"></polygon>
            <polygon id="Shape" fill="#494746" fill-rule="nonzero" points="751.945961 285.213842 807.805164 347.296488 807.805164 268.365006"></polygon>
            <polygon id="Shape" fill="#4F4D4C" fill-rule="nonzero" points="705.042446 373.592212 709.140811 445.657258 768.303597 359.564872"></polygon>
            <polygon id="Shape" fill="#494746" fill-rule="nonzero" points="697.756463 492.712565 670.130444 529.749645 749.5173 514.11514"></polygon>
            <polygon id="Shape" fill="#494746" fill-rule="nonzero" points="584.823727 569.67076 646.236669 572.099421 670.130444 529.749645"></polygon>
            <polygon id="Shape" fill="#BFB1A5" fill-rule="nonzero" points="403.281319 405.432561 397.968623 382.663864 417.397911 395.110752 429.237633 415.75437"></polygon>
            <polygon id="Shape" fill="#CCBEB0" fill-rule="nonzero" points="428.630468 415.75437 417.094328 395.110752 446.693634 409.682717 437.586155 416.057952"></polygon>
            <polygon id="Shape" fill="#D9CBBB" fill-rule="nonzero" points="455.345739 589.707213 434.853912 563.143733 436.220034 508.34707 454.131408 508.195279 489.802366 497.873469 492.989984 595.323491"></polygon>
            <polygon id="Shape" fill="#D9CBBB" fill-rule="nonzero" points="401.611615 465.54192 393.718466 427.594092 403.129528 405.128978 428.782259 415.298996 424.683894 440.799936 420.433737 453.398615 411.47805 468.577746"></polygon>
            <polygon id="Shape" fill="#D2C5B7" fill-rule="nonzero" points="420.130155 453.550406 424.380311 440.648145 428.478677 415.298996 437.586155 415.75437 446.541843 409.530926 444.264973 437.156945 446.693634 450.51458 435.157494 458.711311"></polygon>
            <polygon id="Shape" fill="#D2C5B7" fill-rule="nonzero" points="434.853912 563.143733 401.459823 465.086546 411.47805 468.122372 422.710607 479.658512 421.496276 498.177052 436.523616 508.195279 435.157494 562.991942 435.005703 563.143733"></polygon>
            <polygon id="Shape" fill="#D2C5B7" fill-rule="nonzero" points="446.390051 409.9863 417.24612 395.414334 446.390051 382.663864 489.650575 399.057326 469.462331 413.781083"></polygon>
            <polygon id="Shape" fill="#AA6868" fill-rule="nonzero" points="411.174467 468.425955 420.130155 453.246824 435.309286 458.407728 446.390051 450.362789 477.203688 459.925641 495.570436 466.149085 521.678542 475.408355 521.678542 475.560147 480.239514 473.283277 452.158121 476.622686 435.157494 476.622686 422.558816 479.810303"></polygon>
            <polygon id="Shape" fill="#AA6868" fill-rule="nonzero" points="436.371825 508.650652 421.192694 498.328843 422.407024 479.810303 435.157494 476.167312 452.158121 476.167312 480.239514 472.827903 521.982125 475.408355 489.802366 498.328843 454.131408 508.650652"></polygon>
            <polygon id="Shape" fill="#965656" fill-rule="nonzero" points="422.710607 479.810303 422.558816 479.810303 435.157494 476.167312 452.158121 476.167312 480.239514 472.827903 521.678542 475.408355 521.678542 475.560147 480.239514 476.622686 452.917078 479.810303"></polygon>
            <polygon id="Shape" fill="#565655" fill-rule="nonzero" opacity="0.8" points="123.563744 331.206609 172.288755 287.794294 197.334321 385.092525"></polygon>
            <polygon id="Shape" fill="#4F4F4E" fill-rule="nonzero" opacity="0.9" points="179.557832 289.767581 219.478947 434.121119 294.919229 390.405221"></polygon>
            <polygon id="Shape" fill="#565655" fill-rule="nonzero" points="225.913172 432.299623 393.187197 460.836389 302.567784 389.646264"></polygon>
            <polygon id="Shape" fill="#565655" fill-rule="nonzero" opacity="0.9" points="292.676171 450.362789 332.749077 598.207526 387.697532 531.115767"></polygon>
            <polygon id="Shape" fill="#565655" fill-rule="nonzero" opacity="0.7" points="285.052793 610.578518 179.557832 592.211769 302.508794 547.736915"></polygon>
            <polygon id="Shape" fill="#565655" fill-rule="nonzero" opacity="0.7" points="201.963956 520.718062 104.513934 398.222473 216.384131 446.340319"></polygon>
            <polygon id="Shape" fill="#565655" fill-rule="nonzero" opacity="0.478883605" points="23.1748798 491.270547 95.455196 516.551496 78.8510557 460.851468"></polygon>
            <polygon id="Shape" fill="#565655" fill-rule="nonzero" opacity="0.478883605" points="16.490857 531.562027 117.506732 540.401916 100.19791 524.109767"></polygon>
            <polygon id="Shape" fill="#565655" fill-rule="nonzero" opacity="0.22044837" points="0.205430885 514.636108 67.290538 520.671917 30.2983415 500.504578"></polygon>
            <polygon id="Shape" fill="#565655" fill-rule="nonzero" opacity="0.22044837" points="47.607164 541.580318 97.1824691 558.862554 104.690821 545.291554"></polygon>
            <polygon id="Shape" fill="#4F4F4E" fill-rule="nonzero" points="401.763406 465.238337 317.974602 351.394854 378.083961 352.305602"></polygon>
            <polygon id="Shape" fill="#4F4F4E" fill-rule="nonzero" opacity="0.9" points="225.913172 438.084431 311.37168 531.891462 290.120896 449.924153"></polygon>
            <polygon id="Shape" fill="#4F4F4E" fill-rule="nonzero" opacity="0.6" points="181.193724 576.804951 100.896121 571.644047 189.390455 534.606967"></polygon>
            <polygon id="Shape" fill="#4F4F4E" fill-rule="nonzero" opacity="0.6" points="129.028231 445.218623 123.563744 524.75727 158.779328 482.407494"></polygon>
            <polygon id="Shape" fill="#423F3D" fill-rule="nonzero" points="261.799994 353.71951 401.763406 466.452668 314.331611 351.394854"></polygon>
            <polygon id="Shape" fill="#423F3D" fill-rule="nonzero" opacity="0.9" points="456.560069 590.769752 329.814324 612.779492 393.870258 531.57114 436.220034 564.206272"></polygon>
            <polygon id="Shape" fill="#423F3D" fill-rule="nonzero" opacity="0.8" points="329.510742 592.422718 290.803957 630.522337 310.157349 538.325339"></polygon>
            <polygon id="Shape" fill="#423F3D" fill-rule="nonzero" opacity="0.7" points="137.680336 345.778575 63.150802 387.672977 194.753869 387.672977"></polygon>
            <polygon id="Shape" fill="#423F3D" fill-rule="nonzero" opacity="0.6" points="102.009378 411.048839 66.3384196 431.237084 123.563744 437.915901"></polygon>
            <polygon id="Shape" fill="#423F3D" fill-rule="nonzero" opacity="0.6" points="166.520685 488.158825 106.8667 560.41149 194.753869 523.526201"></polygon>
            <polygon id="Shape" fill="#423F3D" fill-rule="nonzero" opacity="0.8" points="224.824266 443.624512 206.880268 521.62881 305.54462 538.477645"></polygon>
            <polygon id="Shape" fill="#494746" fill-rule="nonzero" points="433.639581 560.563281 301.277558 449.603832 401.763406 466.452668"></polygon>
            <polygon id="Shape" fill="#494746" fill-rule="nonzero" opacity="0.8" points="216.561018 437.915901 104.690821 389.646264 202.8998 389.646264"></polygon>
            <polygon id="Shape" fill="#494746" fill-rule="nonzero" opacity="0.5" points="83.8195982 445.218623 112.508156 528.855635 117.972643 449.165197"></polygon>
            <polygon id="Shape" fill="#494746" fill-rule="nonzero" opacity="0.7" points="299.287365 544.397506 200.774804 527.548671 189.390455 583.863247"></polygon>
        </g>
    </g>
</svg>