<svg id="Layer_1" data-name="Layer 1" xmlns="http://www.w3.org/2000/svg" xmlns:xlink="http://www.w3.org/1999/xlink" viewBox="0 0 961.25 961.25"><defs><style>.cls-1{fill:none;}.cls-2{clip-path:url(#clip-path);}.cls-3{fill:#ef7b5e;}.cls-4{fill:#dfd0c1;}.cls-5{fill:#d9cbbb;}.cls-6{fill:#bfb1a5;}.cls-37,.cls-7{fill:#fff;}.cls-8{fill:#ccbeb0;}.cls-9{fill:#e5d9c9;}.cls-10{fill:#d2c5b7;}.cls-11{fill:#333;}.cls-12{fill:#423d3b;}.cls-13{fill:#4c4a49;}.cls-14,.cls-29,.cls-30,.cls-31,.cls-32{fill:#423f3d;}.cls-15,.cls-22,.cls-24,.cls-25,.cls-26,.cls-27{fill:#565655;}.cls-16,.cls-23,.cls-28{fill:#4f4f4e;}.cls-17,.cls-33,.cls-34,.cls-35{fill:#494746;}.cls-18{fill:#545453;}.cls-19{fill:#4f4d4c;}.cls-20{fill:#aa6868;}.cls-21{fill:#965656;}.cls-22,.cls-30,.cls-33{opacity:0.8;}.cls-22,.cls-23,.cls-24,.cls-25,.cls-26,.cls-27,.cls-28,.cls-29,.cls-30,.cls-31,.cls-32,.cls-33,.cls-34,.cls-35,.cls-37{isolation:isolate;}.cls-23,.cls-24,.cls-29{opacity:0.9;}.cls-25,.cls-31,.cls-35{opacity:0.7;}.cls-26{opacity:0.48;}.cls-27{opacity:0.22;}.cls-28,.cls-32{opacity:0.6;}.cls-34,.cls-37{opacity:0.5;}.cls-36{fill:#a5a5a5;}</style><clipPath id="clip-path"><path id="Oval-4" class="cls-1" d="M479.67,24.75c251.83,0,456,204.15,456,456s-204.15,456-456,456c-160.12,0-424.48-69-505.82-193.86-46.59-71.51,49.84-170.41,49.84-262.12C23.69,228.9,227.84,24.75,479.67,24.75Z"/></clipPath></defs><title>logo-glasses</title><g class="cls-2"><g id="Layer_1-2" data-name="Layer 1"><g id="Page-1"><g id="ats-cover-letter"><g id="Group-4"><circle id="Oval-4-2" data-name="Oval-4" class="cls-3" cx="480.72" cy="480.62" r="455.98"/><g id="Group-13"><polygon id="Path-2" class="cls-4" points="568.68 174.59 496.31 240.59 457.58 395.85 469.27 467.87 475.05 538.83 496.31 656.9 534.21 763.04 578.95 791.38 619.45 791.38 755.47 745.57 821.47 699.17 855.71 615.22 845.79 476.61 827.13 340.36 774.83 223.71 755.47 190.88 677.42 163.97 612.37 163.97 568.68 174.59"/><polygon id="Shape" class="cls-5" points="541.41 545.21 531.96 517.58 549.32 430.56 563.49 368.22 563.61 368.22 568.45 407.3 563.96 515.69 590.05 534.58 593.71 565.04 541.41 545.21"/><polygon id="Shape-2" data-name="Shape" class="cls-6" points="462.07 460.55 462.54 464.09 485.33 464.09 481.78 459.02 462.07 460.55"/><polygon id="Shape-3" data-name="Shape" class="cls-7" points="476.71 459.37 481.43 442.37 474.7 426.08 477.3 425.49 506.93 440.72 503.98 446.38 481.78 459.37 476.71 459.37"/><polygon id="Shape-4" data-name="Shape" class="cls-6" points="448.49 398.57 451.56 386.05 471.16 382.75 482.14 409.31 451.91 414.15 448.49 398.57"/><polygon id="Shape-5" data-name="Shape" class="cls-8" points="481.43 459.25 525.82 432.81 521.46 444.97 485.09 464.21 481.43 459.25"/><polygon id="Shape-6" data-name="Shape" class="cls-8" points="451.8 413.56 482.02 408.96 479.07 419.46 453.57 422.77 451.8 413.56"/><polygon id="Shape-7" data-name="Shape" class="cls-8" points="481.67 409.55 470.69 382.86 512.95 385.81 527.83 403.29 527.83 428.08 525.82 433.4 520.04 436.82 481.67 409.55"/><polygon id="Shape-8" data-name="Shape" class="cls-9" points="482.96 545.21 527.48 428.08 527.48 403.05 549.55 430.56 532.32 517.58 541.76 545.09 506.46 560.32 482.96 545.21"/><polygon id="Shape-9" data-name="Shape" class="cls-4" points="478.48 419.46 481.67 408.96 520.39 436.47 512.95 440.83 478.48 419.46"/><polygon id="Shape-10" data-name="Shape" class="cls-4" points="512.84 386.17 501.15 357.6 488.4 243.31 566.2 168.69 552.51 337.05 563.96 368.11 549.55 431.39 512.84 386.17"/><polygon id="Shape-11" data-name="Shape" class="cls-4" points="458.76 508.02 462.42 463.62 485.33 463.62 521.46 444.5 483.44 545.09 489.69 571.89 478.01 599.75 458.76 508.02"/><polygon id="Shape-12" data-name="Shape" class="cls-5" points="565.85 169.04 646.73 154.87 645.43 291.6 551.92 337.41 565.85 169.04"/><polygon id="Shape-13" data-name="Shape" class="cls-10" points="488.4 243.31 488.75 243.31 501.62 357.6 457.58 359.84 488.4 243.31"/><polygon id="Shape-14" data-name="Shape" class="cls-11" points="506.46 440.83 477.3 426.08 455.57 431.39 453.57 422.3 478.71 419.11 513.43 440.72 503.15 446.97 506.46 440.83"/><polygon id="Shape-15" data-name="Shape" class="cls-12" points="455.45 431.04 474.82 425.84 482.02 442.13 477.06 459.25 461.83 460.67 455.45 431.04"/><polygon id="Shape-16" data-name="Shape" class="cls-13" points="484.97 358.31 501.5 357.24 513.19 386.05 512.95 386.17 512.95 386.4 484.97 358.31"/><polygon id="Shape-17" data-name="Shape" class="cls-14" points="471.04 383.1 451.56 386.4 457.82 359.49 485.09 357.95 513.78 386.4 471.04 383.1"/><polygon id="Shape-18" data-name="Shape" class="cls-15" points="412.6 263.85 274.34 313.79 367.02 398.09 412.6 263.85"/><polygon id="Shape-19" data-name="Shape" class="cls-15" points="368.68 398.09 317.79 501.99 393.23 415.33 368.68 398.09"/><polygon id="Shape-20" data-name="Shape" class="cls-15" points="405.51 145.31 488.75 243.31 533.38 94.89 405.51 145.31"/><polygon id="Shape-21" data-name="Shape" class="cls-16" points="262.53 313.79 314.72 501.88 355.57 399.75 262.53 313.79"/><polygon id="Shape-22" data-name="Shape" class="cls-16" points="533.38 94.89 646.61 155.11 653.93 82.85 533.38 94.89"/><polygon id="Shape-23" data-name="Shape" class="cls-16" points="488.75 243.31 425.11 255.47 448.84 398.33 488.75 243.31"/><polygon id="Shape-24" data-name="Shape" class="cls-14" points="420.74 253.46 274.34 312.14 401.14 145.31 420.74 253.46"/><polygon id="Shape-25" data-name="Shape" class="cls-14" points="462.54 463.86 368.68 398.09 448.84 398.33 462.54 463.86"/><polygon id="Shape-26" data-name="Shape" class="cls-14" points="267.73 353.7 193.23 400.46 290.87 442.49 267.73 353.7"/><polygon id="Shape-27" data-name="Shape" class="cls-14" points="534.91 98.08 488.75 243.31 566.09 169.04 534.91 98.08"/><polygon id="Shape-28" data-name="Shape" class="cls-17" points="448.84 398.33 368.68 396.68 422.16 254.88 448.84 398.33"/><polygon id="Shape-29" data-name="Shape" class="cls-17" points="458.88 508.02 319.44 501.99 394.89 418.28 462.54 463.86 458.88 508.02"/><polygon id="Shape-30" data-name="Shape" class="cls-17" points="203.5 410.25 306.45 501.99 294.41 448.63 203.5 410.25"/><polygon id="Shape-31" data-name="Shape" class="cls-17" points="566.09 169.04 646.61 155.11 538.93 102.1 566.09 169.04"/><polygon id="Shape-32" data-name="Shape" class="cls-17" points="406.69 156.17 422.4 253.93 488.75 243.31 406.69 156.17"/><polygon id="Shape-33" data-name="Shape" class="cls-7" points="633.15 398.09 623.23 379.44 640.82 374.83 683.45 393.37 650.74 413.92 629.72 417.81 633.15 398.09"/><polygon id="Shape-34" data-name="Shape" class="cls-6" points="567.86 407.3 563.49 368.22 615.91 332.33 665.97 312.5 646.96 357.6 593.6 371.88 590.41 424.9 583.68 438.12 567.86 407.3"/><polygon id="Shape-35" data-name="Shape" class="cls-8" points="709.66 301.51 681.08 291.71 729.61 174.35 768.57 199.27 787.93 249.92 763.73 331.15 709.66 301.51"/><polygon id="Shape-36" data-name="Shape" class="cls-8" points="593.12 371.41 602.92 377.55 596.66 423.83 590.05 425.25 593.12 371.41"/><polygon id="Shape-37" data-name="Shape" class="cls-8" points="590.05 424.78 650.39 413.32 663.96 428.08 583.32 437.76 590.05 424.78"/><polygon id="Shape-38" data-name="Shape" class="cls-8" points="646.37 357.83 665.62 312.61 763.73 330.68 723.82 368.46 704.58 380.5 646.37 357.83"/><polygon id="Shape-39" data-name="Shape" class="cls-8" points="763.38 331.03 787.82 249.92 829.61 338.71 763.38 331.03"/><polygon id="Shape-40" data-name="Shape" class="cls-9" points="640.7 365.86 646.37 357.24 704.7 380.15 695.13 386.4 640.7 365.86"/><polygon id="Shape-41" data-name="Shape" class="cls-5" points="593 371.76 646.96 357.24 641.06 365.86 602.69 378.14 593 371.76"/><polygon id="Shape-42" data-name="Shape" class="cls-10" points="650.27 413.68 723.59 368.11 723.82 368.22 663.49 428.44 650.27 413.68"/><polygon id="Shape-43" data-name="Shape" class="cls-10" points="645.07 291.95 646.37 154.87 729.85 174.35 681.56 291.95 645.07 291.95"/><polygon id="Shape-44" data-name="Shape" class="cls-12" points="604.34 408.96 607.88 383.34 623.58 379.2 633.74 397.98 630.2 417.57 611.54 421.24 604.34 408.96"/><polygon id="Shape-45" data-name="Shape" class="cls-11" points="602.33 378.02 640.82 365.63 695.37 386.05 683.21 393.73 640.7 375.43 608.24 383.45 604.93 408.96 611.89 421.12 596.31 423.95 602.33 378.02"/><polygon id="Shape-46" data-name="Shape" class="cls-13" points="551.92 336.82 574.7 325.72 563.61 369.17 551.92 336.82"/><polygon id="Shape-47" data-name="Shape" class="cls-14" points="574.23 326.07 645.07 291.36 681.44 291.36 709.89 301.16 763.61 330.68 763.61 330.8 665.85 313.08 616.26 332.68 563.25 368.81 574.23 326.07"/><polygon id="Shape-48" data-name="Shape" class="cls-15" points="646.61 155.11 729.61 174.47 653.93 82.85 646.61 155.11"/><polygon id="Shape-49" data-name="Shape" class="cls-15" points="768.57 199.5 787.82 250.16 930.91 192.66 768.57 199.5"/><polygon id="Shape-50" data-name="Shape" class="cls-15" points="962.79 299.27 829.02 338.35 910.73 372.47 962.79 299.27"/><polygon id="Shape-51" data-name="Shape" class="cls-15" points="848.5 448.39 910.37 426.9 829.02 338.35 848.5 448.39"/><polygon id="Shape-52" data-name="Shape" class="cls-16" points="729.61 174.47 768.57 199.5 786.28 94.89 729.61 174.47"/><polygon id="Shape-53" data-name="Shape" class="cls-16" points="930.91 192.66 867.75 217.21 964.09 299.27 930.91 192.66"/><polygon id="Shape-54" data-name="Shape" class="cls-16" points="910.73 374.13 829.02 338.35 912.02 426.9 978.26 403.41 910.73 374.13"/><polygon id="Shape-55" data-name="Shape" class="cls-18" points="655.34 82.85 729.61 174.47 787.82 94.89 655.34 82.85"/><polygon id="Shape-56" data-name="Shape" class="cls-18" points="884.87 137.28 768.57 199.5 930.91 191.36 884.87 137.28"/><polygon id="Shape-57" data-name="Shape" class="cls-18" points="787.82 250.16 829.02 338.35 869.28 217.21 787.82 250.16"/><polygon id="Shape-58" data-name="Shape" class="cls-18" points="978.26 401.99 965.75 299.27 910.73 374.13 978.26 401.99"/><polygon id="Shape-59" data-name="Shape" class="cls-17" points="787.82 94.89 768.57 199.5 884.87 135.87 787.82 94.89"/><polygon id="Shape-60" data-name="Shape" class="cls-17" points="869.28 220.17 829.02 338.35 962.79 299.27 869.28 220.17"/><polygon id="Shape-61" data-name="Shape" class="cls-4" points="589.7 534.82 563.49 515.93 567.86 406.71 583.79 437.41 663.49 428.08 723.47 368.11 763.61 330.32 752.63 454.65 593.12 565.28 589.7 534.82"/><polygon id="Shape-62" data-name="Shape" class="cls-9" points="597.37 644.86 572.82 636.59 541.41 627.03 538.46 610.62 541.29 577.32 569.27 581.81 593.36 564.57 683.45 626.67 632.44 657.37 597.37 644.86"/><polygon id="Shape-63" data-name="Shape" class="cls-4" points="593.12 564.92 752.63 454.06 743.07 493.85 683.21 627.26 593.12 564.92"/><polygon id="Shape-64" data-name="Shape" class="cls-4" points="593.6 684.29 632.2 656.78 709.07 770.72 597.37 801.89 593.6 684.29"/><polygon id="Shape-65" data-name="Shape" class="cls-4" points="632.09 657.14 683.09 626.56 812.26 722.31 708.59 770.84 632.09 657.14"/><polygon id="Shape-66" data-name="Shape" class="cls-5" points="742.48 493.73 752.04 454.41 763.26 330.68 829.26 338.12 848.86 448.39 854.17 535.88 775.54 593.38 682.74 627.26 742.48 493.73"/><polygon id="Shape-67" data-name="Shape" class="cls-5" points="742.48 493.73 752.04 454.41 763.26 330.68 829.26 338.12 848.86 448.39 742.48 493.73"/><polygon id="Shape-68" data-name="Shape" class="cls-5" points="682.85 626.91 775.18 592.91 854.05 535.53 859.13 619.24 845.55 677.68 812.02 722.78 682.85 626.91"/><polygon id="Shape-69" data-name="Shape" class="cls-15" points="912.14 428.2 854.05 535.88 978.26 504.95 912.14 428.2"/><polygon id="Shape-70" data-name="Shape" class="cls-15" points="926.9 520.65 859.01 619.24 938.94 626.91 926.9 520.65"/><polygon id="Shape-71" data-name="Shape" class="cls-15" points="845.2 677.68 907.77 703.54 859.01 617.94 845.2 677.68"/><polygon id="Shape-72" data-name="Shape" class="cls-16" points="926.9 517.7 940.48 626.91 981.09 507.9 926.9 517.7"/><polygon id="Shape-73" data-name="Shape" class="cls-16" points="811.78 722.43 783.45 774.97 838.11 747.81 811.78 722.43"/><polygon id="Shape-74" data-name="Shape" class="cls-18" points="848.5 448.39 854.05 535.88 911.67 427.26 848.5 448.39"/><polygon id="Shape-75" data-name="Shape" class="cls-18" points="859.01 619.24 909.07 702.12 943.55 629.86 859.01 619.24"/><polygon id="Shape-76" data-name="Shape" class="cls-14" points="811.78 722.43 838.11 747.81 907.77 706.49 811.78 722.43"/><polygon id="Shape-77" data-name="Shape" class="cls-14" points="689.35 795.39 782.98 775.09 708.71 769.54 689.35 795.39"/><polygon id="Shape-78" data-name="Shape" class="cls-17" points="910.73 426.9 978.26 501.99 978.26 406.6 910.73 426.9"/><polygon id="Shape-79" data-name="Shape" class="cls-19" points="854.05 533.75 859.01 620.89 930.44 516.75 854.05 533.75"/><polygon id="Shape-80" data-name="Shape" class="cls-17" points="845.2 677.68 811.78 722.43 907.77 703.54 845.2 677.68"/><polygon id="Shape-81" data-name="Shape" class="cls-17" points="708.71 770.72 782.98 773.67 811.78 722.43 708.71 770.72"/><polygon id="Shape-82" data-name="Shape" class="cls-6" points="489.34 572.25 482.96 544.74 506.46 559.73 520.75 584.76 489.34 572.25"/><polygon id="Shape-83" data-name="Shape" class="cls-8" points="520.04 584.76 505.99 559.73 541.76 577.32 530.78 585.11 520.04 584.76"/><polygon id="Shape-84" data-name="Shape" class="cls-5" points="552.27 794.92 527.48 762.81 529.13 696.57 550.85 696.45 593.95 683.94 597.73 801.77 552.27 794.92"/><polygon id="Shape-85" data-name="Shape" class="cls-5" points="487.33 644.86 477.77 599.05 489.22 571.89 520.16 584.17 515.2 614.99 510.12 630.22 499.26 648.52 487.33 644.86"/><polygon id="Shape-86" data-name="Shape" class="cls-10" points="509.77 630.33 514.84 614.75 519.8 584.17 530.78 584.76 541.64 577.2 538.93 610.62 541.76 626.67 527.83 636.59 509.77 630.33"/><polygon id="Shape-87" data-name="Shape" class="cls-10" points="527.48 762.81 487.1 644.27 499.26 648.04 512.84 661.98 511.42 684.29 529.48 696.45 527.83 762.69 527.71 762.81 527.48 762.81"/><polygon id="Shape-88" data-name="Shape" class="cls-10" points="541.41 577.68 506.22 560.08 541.41 544.74 593.71 564.57 569.27 582.28 541.41 577.68"/><polygon id="Shape-89" data-name="Shape" class="cls-20" points="498.9 648.4 509.77 629.98 528.07 636.24 541.41 626.56 578.72 638.13 600.91 645.57 632.44 656.78 632.44 657.02 582.38 654.18 548.38 658.32 527.83 658.32 512.6 662.1 498.9 648.4"/><polygon id="Shape-90" data-name="Shape" class="cls-20" points="529.37 696.92 510.95 684.53 512.48 662.1 527.83 657.73 548.38 657.73 582.38 653.71 632.79 656.78 593.95 684.53 550.85 696.92 529.37 696.92"/><polygon id="Shape-91" data-name="Shape" class="cls-21" points="512.84 662.1 512.6 662.1 527.83 657.73 548.38 657.73 582.38 653.71 632.44 656.78 632.44 657.02 582.38 658.32 549.32 662.1 512.84 662.1"/><polygon id="Shape-92" data-name="Shape" class="cls-22" points="151.31 482.51 210.23 430.09 240.45 547.69 151.31 482.51"/><polygon id="Shape-93" data-name="Shape" class="cls-23" points="218.97 432.45 267.25 606.84 358.4 554.06 218.97 432.45"/><polygon id="Shape-94" data-name="Shape" class="cls-15" points="275.05 604.71 477.18 639.19 367.61 553.12 275.05 604.71"/><polygon id="Shape-95" data-name="Shape" class="cls-24" points="355.69 626.56 404.1 805.19 470.57 724.08 355.69 626.56"/><polygon id="Shape-96" data-name="Shape" class="cls-25" points="346.48 820.19 218.97 797.99 367.61 744.15 346.48 820.19"/><polygon id="Shape-97" data-name="Shape" class="cls-25" points="246 711.57 128.29 563.51 263.48 621.72 246 711.57"/><polygon id="Shape-98" data-name="Shape" class="cls-26" points="29.94 675.91 117.31 706.49 97.24 639.19 29.94 675.91"/><polygon id="Shape-99" data-name="Shape" class="cls-26" points="21.91 724.67 143.99 735.3 123.09 715.7 21.91 724.67"/><polygon id="Shape-100" data-name="Shape" class="cls-27" points="2.19 704.25 83.3 711.45 38.56 687.13 2.19 704.25"/><polygon id="Shape-101" data-name="Shape" class="cls-27" points="59.57 736.71 119.43 757.61 128.52 741.2 59.57 736.71"/><polygon id="Shape-102" data-name="Shape" class="cls-16" points="487.57 644.5 386.27 506.95 458.88 508.02 487.57 644.5"/><polygon id="Shape-103" data-name="Shape" class="cls-23" points="275.05 611.68 378.24 725.02 352.62 625.97 275.05 611.68"/><polygon id="Shape-104" data-name="Shape" class="cls-28" points="220.97 779.34 123.92 773.08 230.89 728.33 220.97 779.34"/><polygon id="Shape-105" data-name="Shape" class="cls-28" points="157.92 620.3 151.31 716.41 193.82 665.28 157.92 620.3"/><polygon id="Shape-106" data-name="Shape" class="cls-14" points="318.38 509.79 487.57 645.92 381.9 506.95 318.38 509.79"/><polygon id="Shape-107" data-name="Shape" class="cls-29" points="553.69 796.22 400.55 822.78 478.01 724.67 529.13 764.11 553.69 796.22"/><polygon id="Shape-108" data-name="Shape" class="cls-30" points="400.2 798.23 353.44 844.27 376.82 732.82 400.2 798.23"/><polygon id="Shape-109" data-name="Shape" class="cls-31" points="168.31 500.11 78.34 550.76 237.38 550.76 168.31 500.11"/><polygon id="Shape-110" data-name="Shape" class="cls-32" points="125.22 578.98 82.12 603.41 151.31 611.44 125.22 578.98"/><polygon id="Shape-111" data-name="Shape" class="cls-32" points="203.26 672.25 131.12 759.5 237.38 714.99 203.26 672.25"/><polygon id="Shape-112" data-name="Shape" class="cls-30" points="273.63 618.41 252.02 712.63 371.27 733.05 273.63 618.41"/><polygon id="Shape-113" data-name="Shape" class="cls-17" points="526.06 759.74 366.08 625.61 487.57 645.92 526.06 759.74"/><polygon id="Shape-114" data-name="Shape" class="cls-33" points="263.71 611.44 128.52 553.12 247.18 553.12 263.71 611.44"/><polygon id="Shape-115" data-name="Shape" class="cls-34" points="103.26 620.3 137.97 721.37 144.58 625.02 103.26 620.3"/><polygon id="Shape-116" data-name="Shape" class="cls-35" points="363.72 740.14 244.59 719.83 230.89 787.84 363.72 740.14"/></g></g></g></g></g><g id="Layer_2" data-name="Layer 2"><polygon class="cls-36" points="835.1 349.95 747.73 344.4 747.73 337.55 835.45 342.87 835.1 349.95"/><path class="cls-36" d="M424.1,411.11a27.51,27.51,0,0,0-3.31,7l41.44,1.53.24-7.08Z"/><path class="cls-37" d="M701.92,329.41a189,189,0,0,0-53.25-7.32c-43.92.47-79.46,18.3-103,51.48a57.15,57.15,0,0,0-30.58,8.15c-21.84-11.81-49.12-9.33-68.13-2.83-19.84,6.85-34.59,19.25-39.2,33.06-9.09,26.57-4.25,57.14,12.28,78,9.8,12.4,22.43,19.36,34.95,19.36a32.05,32.05,0,0,0,3.31-.12c35.18-3.42,56.08-17,65.65-42.74,8.74-23.26,2.24-59.86-.59-73.08A42.43,42.43,0,0,1,542.64,388a170.55,170.55,0,0,0,5.08,27.75c6.85,25.15,18.77,44.75,34.48,56.55,12.52,9.33,27.27,14.05,44.28,14.05a116.76,116.76,0,0,0,28.1-3.78c30.82-7.91,51.95-23.61,63-46.64,8.74-18.3,11-41.32,6.14-66.83-.71-3.78-1.53-7.32-2.36-10.63,4.49-13.11,26.09-10.74,26.09-10.74V336.14C735.21,335.19,707.82,330.47,701.92,329.41Zm-191,132c-5.19,13.7-15.94,30-53.84,33.65-8.74.83-18.18-4.25-25.74-13.81-10.27-13-19.13-37.78-9.92-64.7,3.31-9.56,14.88-18.77,30.46-24.2a83.53,83.53,0,0,1,27.51-4.84,72.37,72.37,0,0,1,16.53,1.89c4.84,1.53,14.17,7.91,16.41,20.66C514.31,422.92,516.2,447.24,510.88,461.41ZM705,429.65c-9.21,19.13-27.27,32.23-53.84,39.08-24.56,6.26-44.75,3.66-60.21-7.91-7.44-5.55-13.22-12.87-17.83-20.66.47-.12.59-.47.59-1.06-.47-5.43,2-15.23-2.13-24.79-2.48-5.79-7.91-15.94-11.81-23h.12a31,31,0,0,1,5.67-19.6c20.43-22.91,48.29-34.71,83-35.3,14.4-.24,29.28,1.89,37.55,5.55s16.65,9.8,23.5,27C714,387,715.73,407.21,705,429.65Z"/></g><g id="Layer_3" data-name="Layer 3"><polygon class="cls-9" points="526.47 404.38 526.47 428.23 500.61 497.42 537.09 488.68 548.55 431.54 526.47 404.38"/><polygon class="cls-8" points="451.02 413.71 452.79 422.44 477.71 419.26 472.63 410.4 451.02 413.71"/><polygon class="cls-6" points="454.92 395.41 447.95 398.48 451.14 413.71 480.66 409.22 467.67 395.05 454.92 395.41"/><polygon class="cls-16" points="828.25 338.38 836.4 347.71 839.23 343.34 828.25 338.38"/><polygon class="cls-15" points="828.25 338.38 830.85 352.67 838.52 349.83 828.25 338.38"/></g></g></svg>