<?xml version="1.0" encoding="utf-8"?>
<!-- Generator: Adobe Illustrator 21.1.0, SVG Export Plug-In . SVG Version: 6.00 Build 0)  -->
<svg version="1.1" id="Layer_1" xmlns="http://www.w3.org/2000/svg" xmlns:xlink="http://www.w3.org/1999/xlink" x="0px" y="0px"
	 viewBox="0 0 21 25" style="enable-background:new 0 0 21 25;" xml:space="preserve">
<style type="text/css">
	.st0{fill:#272A2C;}
</style>
<title>Group 4</title>
<desc>Created with Sketch.</desc>
<g id="Desktop-HD" transform="translate(-1109.000000, -1875.000000)">
	<g id="Group-4" transform="translate(1109.000000, 1875.000000)">
		<path id="Shape" class="st0" d="M12.7,8.4c0,0,1.5-8-3.3-8H1v24h20v-13C21,8,15.7,7.6,12.7,8.4z M13,19.4H5v-1h8V19.4z M17,16.4H5
			v-1h12V16.4z M17,13.4H5v-1h12V13.4z M13.5,0.4c2.2,1.2,5.9,4.9,7.4,6.9c-1.3-0.9-4-1.7-6.1-1.2C15.1,4.7,14.7,1.6,13.5,0.4z"/>
	</g>
</g>
</svg>
