<?xml version="1.0" standalone="no"?>
<!DOCTYPE svg PUBLIC "-//W3C//DTD SVG 20010904//EN"
 "http://www.w3.org/TR/2001/REC-SVG-20010904/DTD/svg10.dtd">
<svg version="1.0" xmlns="http://www.w3.org/2000/svg"
 width="500.000000pt" height="500.000000pt" viewBox="0 0 500.000000 500.000000"
 preserveAspectRatio="xMidYMid meet">
<metadata>
Created by potrace 1.11, written by Peter Selinger 2001-2013
</metadata>
<g transform="translate(0.000000,500.000000) scale(0.100000,-0.100000)"
fill="#000000" stroke="none">
<path d="M2900 4234 c-118 -12 -226 -23 -239 -23 -36 -1 -22 -10 122 -86 70
-37 127 -68 127 -70 0 -6 -68 24 -164 72 -59 30 -87 39 -82 29 15 -39 14 -48
-2 -14 -9 21 -20 38 -23 38 -3 0 -16 -34 -29 -75 -13 -41 -25 -73 -27 -71 -3
2 7 40 21 85 13 45 21 81 18 81 -4 0 -141 -53 -304 -117 -296 -116 -298 -117
-280 -137 67 -76 302 -356 299 -356 -3 0 -73 72 -156 160 -83 87 -151 154
-151 147 0 -7 14 -96 30 -197 17 -101 29 -188 27 -193 -1 -5 -20 89 -41 209
-22 121 -42 225 -45 231 -8 14 -595 -752 -595 -777 -1 -17 426 -412 434 -401
3 3 28 3 55 0 l50 -6 -51 -1 -51 -2 -115 -237 c-63 -131 -113 -243 -111 -249
3 -8 80 -14 236 -20 165 -6 210 -10 156 -14 l-75 -5 144 -195 c164 -222 190
-259 173 -244 -6 6 -85 107 -175 225 l-163 214 -64 3 c-35 1 -104 -1 -152 -5
l-88 -8 320 -258 c177 -142 321 -261 321 -264 0 -3 -19 10 -42 29 -24 19 -116
92 -206 162 l-162 128 -213 -118 c-233 -129 -222 -122 -216 -128 6 -5 910
-158 937 -158 12 0 25 -5 28 -9 3 -5 10 -6 16 -3 7 4 8 2 4 -4 -4 -7 -2 -12 3
-12 6 0 11 3 11 6 0 3 -30 146 -66 317 l-65 312 6 118 7 117 33 0 c29 0 35 4
45 36 12 34 10 63 -5 112 -7 21 -3 20 63 -15 46 -25 68 -42 64 -52 -4 -11 -1
-11 16 -2 12 7 22 15 22 19 0 4 -36 29 -80 56 -78 47 -81 48 -139 42 l-58 -7
-11 53 c-13 67 -6 105 22 115 24 8 220 6 248 -3 25 -7 23 9 -8 82 l-26 62 -99
-5 c-54 -3 -99 -4 -99 -2 0 2 31 125 69 273 l69 269 59 59 c32 33 115 114 185
180 l127 119 191 33 190 33 198 -46 c193 -45 199 -47 289 -105 92 -60 93 -60
119 -130 48 -129 91 -229 181 -421 l89 -190 42 -240 c36 -206 45 -286 62 -565
34 -561 34 -498 -2 -653 l-33 -138 -79 -107 -79 -107 -248 -115 c-245 -114
-248 -116 -288 -169 -22 -30 -39 -56 -37 -58 5 -5 377 76 411 90 17 6 33 12
36 12 33 1 579 299 567 310 -2 2 -27 -1 -56 -6 -30 -6 -58 -9 -64 -7 -7 3 21
10 60 17 40 7 72 15 72 18 0 2 -5 14 -11 26 -10 21 -10 21 5 3 9 -11 18 -18
20 -15 8 8 156 322 156 331 0 4 -15 9 -32 9 -24 1 -27 3 -10 6 14 3 22 12 23
26 1 21 2 21 6 2 3 -12 42 86 99 254 52 150 94 277 94 281 0 4 -34 1 -76 -7
-42 -8 -78 -12 -80 -10 -2 2 30 11 72 21 l75 18 -57 66 -56 67 56 -60 56 -60
0 229 c0 205 -2 228 -16 222 -9 -3 -28 -8 -42 -11 -18 -4 -12 2 17 15 43 20
43 20 37 63 -3 23 -15 123 -26 222 -12 99 -25 189 -29 199 -6 16 -20 1 -85
-87 -43 -59 -80 -107 -83 -107 -3 0 -1 6 4 13 68 86 143 202 139 213 -4 10 -2
12 6 8 7 -5 9 -2 6 7 -3 8 -38 120 -78 249 -40 129 -77 238 -82 241 -5 3 -8 9
-6 12 6 11 -217 264 -242 274 -14 6 -117 49 -230 96 l-205 85 -290 26 c-337
30 -328 30 -319 14 6 -10 4 -10 -7 0 -17 16 -62 14 -319 -14z m927 -116 c-3
-8 -6 -5 -6 6 -1 11 2 17 5 13 3 -3 4 -12 1 -19z m-1127 -53 c0 -5 -5 -3 -10
5 -5 8 -10 20 -10 25 0 6 5 3 10 -5 5 -8 10 -19 10 -25z m-136 -109 c-3 -15
-8 -25 -11 -23 -2 3 -1 17 3 31 3 15 8 25 11 23 2 -3 1 -17 -3 -31z m1824
-223 c-10 -2 -28 -2 -40 0 -13 2 -5 4 17 4 22 1 32 -1 23 -4z m-113 -153 c10
-11 16 -20 13 -20 -3 0 -13 9 -23 20 -10 11 -16 20 -13 20 3 0 13 -9 23 -20z
m65 -55 c13 -14 21 -25 18 -25 -2 0 -15 11 -28 25 -13 14 -21 25 -18 25 2 0
15 -11 28 -25z m65 -55 c10 -11 16 -20 13 -20 -3 0 -13 9 -23 20 -10 11 -16
20 -13 20 3 0 13 -9 23 -20z m-2287 -21 c9 0 12 -3 6 -5 -8 -3 -7 -28 3 -85 8
-45 12 -86 10 -93 -2 -6 -10 26 -17 72 -7 45 -16 84 -19 87 -4 2 -54 -120
-111 -271 -56 -151 -105 -273 -107 -271 -2 2 35 118 83 256 47 139 84 254 82
256 -2 2 -144 -48 -317 -111 -173 -62 -316 -112 -318 -111 -1 2 149 64 334
138 263 105 337 138 342 154 4 17 6 18 9 3 2 -10 11 -18 20 -19z m119 15 c-3
-3 -12 -4 -19 -1 -8 3 -5 6 6 6 11 1 17 -2 13 -5z m-54 -11 c-7 -2 -19 -2 -25
0 -7 3 -2 5 12 5 14 0 19 -2 13 -5z m2288 -40 c13 -16 12 -17 -3 -4 -17 13
-22 21 -14 21 2 0 10 -8 17 -17z m70 -60 c13 -16 12 -17 -3 -4 -17 13 -22 21
-14 21 2 0 10 -8 17 -17z m-2394 -140 c-3 -10 -5 -4 -5 12 0 17 2 24 5 18 2
-7 2 -21 0 -30z m10 -55 c-3 -7 -5 -2 -5 12 0 14 2 19 5 13 2 -7 2 -19 0 -25z
m10 -50 c-3 -8 -6 -5 -6 6 -1 11 2 17 5 13 3 -3 4 -12 1 -19z m10 -60 c-3 -8
-6 -5 -6 6 -1 11 2 17 5 13 3 -3 4 -12 1 -19z m2343 -52 c0 -2 -8 -10 -17 -17
-16 -13 -17 -12 -4 4 13 16 21 21 21 13z m-50 -70 c0 -2 -8 -10 -17 -17 -16
-13 -17 -12 -4 4 13 16 21 21 21 13z m-80 -26 c8 -5 11 -10 5 -10 -5 0 -17 5
-25 10 -8 5 -10 10 -5 10 6 0 17 -5 25 -10z m-20 -205 c19 -19 32 -35 29 -35
-3 0 -20 16 -39 35 -19 19 -32 35 -29 35 3 0 20 -16 39 -35z m-2390 -30 c11
-13 10 -14 -1 -10 -10 3 -64 -50 -157 -154 -78 -87 -150 -165 -159 -172 -10
-8 54 68 142 169 87 100 159 182 160 182 2 0 8 -7 15 -15z m2631 -242 c13 -16
12 -17 -3 -4 -17 13 -22 21 -14 21 2 0 10 -8 17 -17z m-2961 -117 c0 -2 -8
-10 -17 -17 -16 -13 -17 -12 -4 4 13 16 21 21 21 13z m2897 -468 c-3 -7 -5 -2
-5 12 0 14 2 19 5 13 2 -7 2 -19 0 -25z m10 -80 c-3 -7 -5 -2 -5 12 0 14 2 19
5 13 2 -7 2 -19 0 -25z m-2276 5 c13 -16 12 -17 -3 -4 -17 13 -22 21 -14 21 2
0 10 -8 17 -17z m30 -40 c13 -16 12 -17 -3 -4 -10 7 -18 15 -18 17 0 8 8 3 21
-13z m-26 -43 c10 -11 16 -20 13 -20 -3 0 -13 9 -23 20 -10 11 -16 20 -13 20
3 0 13 -9 23 -20z m56 3 c13 -16 12 -17 -3 -4 -10 7 -18 15 -18 17 0 8 8 3 21
-13z m2062 0 c-7 -2 -21 -2 -30 0 -10 3 -4 5 12 5 17 0 24 -2 18 -5z m95 -10
c-10 -2 -28 -2 -40 0 -13 2 -5 4 17 4 22 1 32 -1 23 -4z m-2167 -30 c13 -16
12 -17 -3 -4 -17 13 -22 21 -14 21 2 0 10 -8 17 -17z m2049 -263 c6 -11 8 -20
6 -20 -3 0 -10 9 -16 20 -6 11 -8 20 -6 20 3 0 10 -9 16 -20z m-127 -117 c-7
-2 -19 -2 -25 0 -7 3 -2 5 12 5 14 0 19 -2 13 -5z m-56 -9 c-3 -3 -12 -4 -19
-1 -8 3 -5 6 6 6 11 1 17 -2 13 -5z"/>
<path d="M2941 3164 c-118 -57 -217 -106 -219 -109 -5 -5 48 -155 55 -155 2 0
59 38 126 84 91 62 153 97 241 132 l118 47 207 -37 c113 -21 217 -40 231 -42
23 -5 24 -4 8 9 -34 28 -245 137 -302 157 -44 15 -84 20 -155 19 l-96 0 -214
-105z"/>
<path d="M1342 3150 c3 -8 58 -207 123 -442 65 -236 121 -428 124 -428 3 0 48
106 100 236 l94 236 -29 27 c-16 16 -92 86 -169 156 -77 71 -164 151 -194 179
-30 28 -52 44 -49 36z"/>
<path d="M1190 2865 c-91 -58 -166 -109 -168 -113 -2 -8 439 -203 446 -196 6
4 -102 414 -108 414 -3 0 -79 -48 -170 -105z"/>
<path d="M3045 2887 l-90 -32 -12 -85 c-6 -47 -12 -97 -12 -111 l-1 -26 78 15
c42 8 79 16 81 18 2 2 7 24 12 50 8 41 6 53 -15 90 l-24 42 41 10 c37 10 48 7
139 -34 97 -42 101 -43 130 -28 17 9 26 19 22 24 -8 6 -253 101 -258 99 0 0
-41 -15 -91 -32z"/>
<path d="M1070 2695 c0 -4 438 -395 461 -412 16 -12 16 -9 3 45 -7 31 -18 83
-25 114 -6 32 -17 64 -23 72 -10 13 -416 189 -416 181z"/>
<path d="M946 2480 l-136 -122 206 -150 c113 -83 207 -149 209 -147 4 5 -130
528 -138 535 -3 3 -66 -49 -141 -116z"/>
<path d="M1140 2573 c0 -13 218 -794 223 -799 6 -6 428 238 425 246 -4 10
-636 560 -642 560 -3 0 -6 -3 -6 -7z"/>
<path d="M675 2152 l-210 -117 188 -3 c103 -1 271 -1 374 0 l188 3 -160 117
c-88 65 -162 118 -165 118 -3 0 -99 -53 -215 -118z"/>
<path d="M721 2016 c8 -9 612 -267 615 -263 2 2 -13 63 -33 135 l-36 132 -275
0 c-152 0 -273 -2 -271 -4z"/>
<path d="M982 1619 c222 -279 273 -338 280 -323 9 23 80 395 76 399 -5 5 -616
265 -622 265 -3 0 117 -154 266 -341z"/>
<path d="M590 1844 c-41 -25 -81 -48 -88 -53 -8 -4 50 -15 138 -25 83 -10 153
-16 155 -14 6 6 -107 138 -119 137 -6 0 -45 -21 -86 -45z"/>
<path d="M1410 1736 c0 -6 369 -416 451 -501 l28 -29 -59 228 c-32 126 -62
232 -67 236 -4 4 -75 20 -158 35 -82 14 -160 29 -172 32 -13 3 -23 2 -23 -1z"/>
<path d="M1385 1679 c-4 -19 -27 -119 -51 -223 -24 -104 -43 -190 -41 -192 5
-5 539 -95 547 -92 4 2 -84 111 -197 243 -113 132 -215 253 -228 269 l-23 29
-7 -34z"/>
<path d="M590 1689 c0 -4 33 -103 74 -220 54 -158 75 -207 79 -189 7 32 30
390 26 394 -8 7 -179 21 -179 15z"/>
<path d="M840 1665 c0 -17 -7 -115 -15 -220 -7 -104 -13 -190 -12 -191 1 -1
45 51 99 116 l96 117 -75 94 c-96 122 -93 118 -93 84z"/>
<path d="M1850 1665 c0 -8 731 -617 736 -612 5 5 -165 508 -176 520 -6 7 -513
96 -547 97 -7 0 -13 -2 -13 -5z"/>
<path d="M2636 1649 c-25 -19 -31 -20 -71 -9 -51 14 -54 13 -79 -34 l-19 -37
33 -34 c31 -32 32 -36 26 -87 l-6 -53 50 -32 c63 -42 93 -42 235 -2 96 27 122
40 204 97 l93 67 -28 12 c-37 16 -392 133 -403 133 -5 0 -20 -10 -35 -21z"/>
<path d="M1794 1634 c31 -124 217 -798 221 -802 3 -3 6 -3 8 -1 9 11 282 346
293 360 12 14 -16 41 -238 230 -138 118 -260 220 -271 228 -19 13 -20 13 -13
-15z"/>
<path d="M892 1253 c-89 -108 -160 -198 -158 -200 3 -4 458 187 469 196 6 6
-94 143 -137 189 -9 9 -46 -29 -174 -185z"/>
<path d="M1222 1068 c-16 -84 -29 -155 -27 -156 2 -2 139 45 305 104 217 78
297 110 284 116 -21 8 -484 88 -513 88 -15 0 -23 -22 -49 -152z"/>
<path d="M2183 973 c-99 -126 -177 -229 -173 -231 9 -3 703 117 708 123 3 2
-19 36 -48 75 -38 51 -86 96 -175 165 -68 52 -126 95 -128 95 -3 0 -85 -102
-184 -227z"/>
<path d="M943 1081 c-127 -53 -234 -99 -237 -102 -3 -3 91 -11 209 -19 119 -7
218 -10 220 -8 7 7 47 207 43 217 -2 5 -107 -34 -235 -88z"/>
<path d="M1837 939 c-26 -123 -50 -240 -54 -259 -6 -34 -3 -32 100 65 59 55
107 105 107 111 0 7 -22 72 -48 145 -27 74 -51 140 -53 148 -3 8 -26 -87 -52
-210z"/>
<path d="M1487 982 l-349 -126 298 -52 c164 -29 300 -52 301 -51 2 2 101 357
99 356 0 0 -158 -57 -349 -127z"/>
</g>
</svg>
